<svg width="120" height="23" viewBox="0 0 120 23" fill="none" xmlns="http://www.w3.org/2000/svg">
<path d="M0.939339 10.4393C0.353554 11.0251 0.353554 11.9749 0.939339 12.5606L10.4853 22.1066C11.0711 22.6924 12.0208 22.6924 12.6066 22.1066C13.1924 21.5208 13.1924 20.5711 12.6066 19.9853L4.12132 11.5L12.6066 3.01471C13.1924 2.42892 13.1924 1.47918 12.6066 0.893389C12.0208 0.307602 11.0711 0.307602 10.4853 0.893389L0.939339 10.4393ZM119.5 10C119.487 10 119.473 10 119.459 10C119.446 10 119.432 10 119.417 10C119.403 10 119.388 10 119.374 10C119.359 10 119.344 10 119.328 10C119.313 10 119.297 10 119.282 10C119.266 10 119.25 10 119.233 10C119.217 10 119.2 10 119.183 10C119.167 10 119.15 10 119.132 10C119.115 10 119.097 10 119.079 10C119.061 10 119.043 10 119.025 10C119.007 10 118.988 10 118.969 10C118.95 10 118.931 10 118.912 10C118.893 10 118.873 10 118.853 10C118.833 10 118.813 10 118.793 10C118.772 10 118.752 10 118.731 10C118.71 10 118.689 10 118.668 10C118.646 10 118.625 10 118.603 10C118.581 10 118.559 10 118.537 10C118.515 10 118.492 10 118.469 10C118.446 10 118.423 10 118.4 10C118.377 10 118.353 10 118.33 10C118.306 10 118.282 10 118.258 10C118.233 10 118.209 10 118.184 10C118.159 10 118.134 10 118.109 10C118.084 10 118.059 10 118.033 10C118.007 10 117.981 10 117.955 10C117.929 10 117.903 10 117.876 10C117.849 10 117.823 10 117.795 10C117.768 10 117.741 10 117.713 10C117.686 10 117.658 10 117.63 10C117.602 10 117.574 10 117.545 10C117.517 10 117.488 10 117.459 10C117.43 10 117.401 10 117.371 10C117.342 10 117.312 10 117.282 10C117.252 10 117.222 10 117.192 10C117.162 10 117.131 10 117.1 10C117.069 10 117.038 10 117.007 10C116.976 10 116.944 10 116.913 10C116.881 10 116.849 10 116.817 10C116.784 10 116.752 10 116.719 10C116.687 10 116.654 10 116.621 10C116.588 10 116.554 10 116.521 10C116.487 10 116.454 10 116.42 10C116.386 10 116.351 10 116.317 10C116.282 10 116.248 10 116.213 10C116.178 10 116.143 10 116.108 10C116.072 10 116.037 10 116.001 10C115.965 10 115.929 10 115.893 10C115.857 10 115.82 10 115.784 10C115.747 10 115.71 10 115.673 10C115.636 10 115.599 10 115.561 10C115.524 10 115.486 10 115.448 10C115.41 10 115.372 10 115.333 10C115.295 10 115.256 10 115.218 10C115.179 10 115.14 10 115.1 10C115.061 10 115.022 10 114.982 10C114.942 10 114.902 10 114.862 10C114.822 10 114.782 10 114.741 10C114.701 10 114.66 10 114.619 10C114.578 10 114.537 10 114.496 10C114.454 10 114.413 10 114.371 10C114.329 10 114.287 10 114.245 10C114.203 10 114.16 10 114.118 10C114.075 10 114.032 10 113.989 10C113.946 10 113.903 10 113.859 10C113.816 10 113.772 10 113.728 10C113.684 10 113.64 10 113.596 10C113.552 10 113.507 10 113.463 10C113.418 10 113.373 10 113.328 10C113.283 10 113.237 10 113.192 10C113.146 10 113.101 10 113.055 10C113.009 10 112.963 10 112.916 10C112.87 10 112.824 10 112.777 10C112.73 10 112.683 10 112.636 10C112.589 10 112.542 10 112.494 10C112.447 10 112.399 10 112.351 10C112.303 10 112.255 10 112.207 10C112.158 10 112.11 10 112.061 10C112.012 10 111.964 10 111.914 10C111.865 10 111.816 10 111.767 10C111.717 10 111.667 10 111.618 10C111.568 10 111.518 10 111.467 10C111.417 10 111.367 10 111.316 10C111.265 10 111.215 10 111.163 10C111.112 10 111.061 10 111.01 10C110.958 10 110.907 10 110.855 10C110.803 10 110.751 10 110.699 10C110.647 10 110.595 10 110.542 10C110.489 10 110.437 10 110.384 10C110.331 10 110.278 10 110.224 10C110.171 10 110.118 10 110.064 10C110.01 10 109.956 10 109.902 10C109.848 10 109.794 10 109.74 10C109.685 10 109.631 10 109.576 10C109.521 10 109.466 10 109.411 10C109.356 10 109.3 10 109.245 10C109.189 10 109.134 10 109.078 10C109.022 10 108.966 10 108.91 10C108.853 10 108.797 10 108.74 10C108.684 10 108.627 10 108.57 10C108.513 10 108.456 10 108.399 10C108.341 10 108.284 10 108.226 10C108.168 10 108.111 10 108.053 10C107.995 10 107.936 10 107.878 10C107.82 10 107.761 10 107.702 10C107.644 10 107.585 10 107.526 10C107.466 10 107.407 10 107.348 10C107.288 10 107.229 10 107.169 10C107.109 10 107.049 10 106.989 10C106.929 10 106.869 10 106.808 10C106.748 10 106.687 10 106.626 10C106.565 10 106.505 10 106.443 10C106.382 10 106.321 10 106.259 10C106.198 10 106.136 10 106.074 10C106.013 10 105.951 10 105.888 10C105.826 10 105.764 10 105.702 10C105.639 10 105.576 10 105.514 10C105.451 10 105.388 10 105.325 10C105.261 10 105.198 10 105.135 10C105.071 10 105.007 10 104.944 10C104.88 10 104.816 10 104.752 10C104.688 10 104.623 10 104.559 10C104.494 10 104.43 10 104.365 10C104.3 10 104.235 10 104.17 10C104.105 10 104.04 10 103.974 10C103.909 10 103.843 10 103.778 10C103.712 10 103.646 10 103.58 10C103.514 10 103.448 10 103.381 10C103.315 10 103.248 10 103.182 10C103.115 10 103.048 10 102.981 10C102.914 10 102.847 10 102.78 10C102.712 10 102.645 10 102.577 10C102.51 10 102.442 10 102.374 10C102.306 10 102.238 10 102.17 10C102.102 10 102.033 10 101.965 10C101.896 10 101.827 10 101.759 10C101.69 10 101.621 10 101.552 10C101.482 10 101.413 10 101.344 10C101.274 10 101.205 10 101.135 10C101.065 10 100.995 10 100.925 10C100.855 10 100.785 10 100.715 10C100.644 10 100.574 10 100.503 10C100.433 10 100.362 10 100.291 10C100.22 10 100.149 10 100.078 10C100.007 10 99.9354 10 99.8639 10C99.7924 10 99.7208 10 99.649 10C99.5772 10 99.5053 10 99.4333 10C99.3612 10 99.289 10 99.2167 10C99.1443 10 99.0719 10 98.9992 10C98.9266 10 98.8538 10 98.7809 10C98.708 10 98.635 10 98.5618 10C98.4886 10 98.4153 10 98.3419 10C98.2684 10 98.1948 10 98.1211 10C98.0473 10 97.9735 10 97.8995 10C97.8254 10 97.7513 10 97.677 10C97.6027 10 97.5283 10 97.4538 10C97.3792 10 97.3045 10 97.2297 10C97.1549 10 97.0799 10 97.0049 10C96.9298 10 96.8545 10 96.7792 10C96.7038 10 96.6284 10 96.5527 10C96.4771 10 96.4014 10 96.3255 10C96.2496 10 96.1736 10 96.0974 10C96.0213 10 95.945 10 95.8686 10C95.7922 10 95.7157 10 95.639 10C95.5624 10 95.4856 10 95.4087 10C95.3317 10 95.2547 10 95.1775 10C95.1004 10 95.0231 10 94.9456 10C94.8682 10 94.7907 10 94.713 10C94.6353 10 94.5575 10 94.4796 10C94.4016 10 94.3236 10 94.2454 10C94.1672 10 94.0889 10 94.0105 10C93.9321 10 93.8535 10 93.7749 10C93.6962 10 93.6174 10 93.5385 10C93.4596 10 93.3805 10 93.3014 10C93.2222 10 93.1429 10 93.0636 10C92.9842 10 92.9046 10 92.825 10C92.7454 10 92.6656 10 92.5857 10C92.5059 10 92.4259 10 92.3458 10C92.2656 10 92.1854 10 92.1051 10C92.0247 10 91.9443 10 91.8637 10C91.7831 10 91.7024 10 91.6216 10C91.5408 10 91.4599 10 91.3788 10C91.2978 10 91.2166 10 91.1354 10C91.0541 10 90.9727 10 90.8912 10C90.8097 10 90.7281 10 90.6464 10C90.5647 10 90.4828 10 90.4009 10C90.319 10 90.2369 10 90.1547 10C90.0726 10 89.9903 10 89.9079 10C89.8255 10 89.743 10 89.6604 10C89.5778 10 89.4951 10 89.4123 10C89.3295 10 89.2465 10 89.1635 10C89.0805 10 88.9973 10 88.9141 10C88.8308 10 88.7475 10 88.664 10C88.5805 10 88.497 10 88.4133 10C88.3296 10 88.2458 10 88.1619 10C88.0781 10 87.9941 10 87.91 10C87.8259 10 87.7417 10 87.6574 10C87.5731 10 87.4887 10 87.4042 10C87.3197 10 87.2351 10 87.1504 10C87.0657 10 86.9808 10 86.8959 10C86.811 10 86.726 10 86.6409 10C86.5558 10 86.4706 10 86.3853 10C86.3 10 86.2146 10 86.1291 10C86.0436 10 85.958 10 85.8723 10C85.7866 10 85.7008 10 85.6149 10C85.529 10 85.443 10 85.3569 10C85.2708 10 85.1846 10 85.0984 10C85.0121 10 84.9257 10 84.8393 10C84.7528 10 84.6662 10 84.5796 10C84.4929 10 84.4062 10 84.3193 10C84.2325 10 84.1456 10 84.0586 10C83.9715 10 83.8844 10 83.7972 10C83.71 10 83.6227 10 83.5353 10C83.4479 10 83.3605 10 83.2729 10C83.1853 10 83.0977 10 83.0099 10C82.9222 10 82.8344 10 82.7464 10C82.6585 10 82.5705 10 82.4824 10C82.3943 10 82.3061 10 82.2179 10C82.1296 10 82.0413 10 81.9528 10C81.8644 10 81.7759 10 81.6872 10C81.5986 10 81.5099 10 81.4212 10C81.3324 10 81.2435 10 81.1546 10C81.0656 10 80.9766 10 80.8875 10C80.7984 10 80.7092 10 80.6199 10C80.5306 10 80.4413 10 80.3519 10C80.2624 10 80.1729 10 80.0833 10C79.9937 10 79.904 10 79.8143 10C79.7245 10 79.6347 10 79.5448 10C79.4549 10 79.3649 10 79.2748 10C79.1847 10 79.0946 10 79.0044 10C78.9141 10 78.8238 10 78.7335 10C78.6431 10 78.5526 10 78.4621 10C78.3716 10 78.281 10 78.1903 10C78.0996 10 78.0089 10 77.918 10C77.8272 10 77.7363 10 77.6453 10C77.5544 10 77.4633 10 77.3722 10C77.2811 10 77.1899 10 77.0986 10C77.0074 10 76.916 10 76.8246 10C76.7332 10 76.6418 10 76.5502 10C76.4587 10 76.3671 10 76.2754 10C76.1837 10 76.092 10 76.0001 10C75.9083 10 75.8164 10 75.7245 10C75.6325 10 75.5405 10 75.4484 10C75.3563 10 75.2642 10 75.172 10C75.0797 10 74.9875 10 74.8951 10C74.8028 10 74.7103 10 74.6179 10C74.5254 10 74.4328 10 74.3402 10C74.2476 10 74.155 10 74.0622 10C73.9695 10 73.8767 10 73.7838 10C73.691 10 73.5981 10 73.5051 10C73.4121 10 73.319 10 73.2259 10C73.1328 10 73.0397 10 72.9465 10C72.8532 10 72.76 10 72.6666 10C72.5733 10 72.4799 10 72.3864 10C72.293 10 72.1995 10 72.1059 10C72.0123 10 71.9187 10 71.825 10C71.7313 10 71.6376 10 71.5438 10C71.45 10 71.3561 10 71.2622 10C71.1683 10 71.0744 10 70.9803 10C70.8863 10 70.7923 10 70.6981 10C70.604 10 70.5098 10 70.4156 10C70.3214 10 70.2271 10 70.1328 10C70.0384 10 69.944 10 69.8496 10C69.7552 10 69.6607 10 69.5662 10C69.4716 10 69.377 10 69.2824 10C69.1878 10 69.0931 10 68.9983 10C68.9036 10 68.8088 10 68.714 10C68.6192 10 68.5243 10 68.4294 10C68.3344 10 68.2395 10 68.1445 10C68.0494 10 67.9544 10 67.8593 10C67.7642 10 67.669 10 67.5738 10C67.4786 10 67.3834 10 67.2881 10C67.1928 10 67.0975 10 67.0021 10C66.9067 10 66.8113 10 66.7159 10C66.6204 10 66.5249 10 66.4294 10C66.3338 10 66.2382 10 66.1426 10C66.047 10 65.9513 10 65.8556 10C65.7599 10 65.6642 10 65.5684 10C65.4726 10 65.3768 10 65.2809 10C65.1851 10 65.0892 10 64.9932 10C64.8973 10 64.8013 10 64.7053 10C64.6093 10 64.5132 10 64.4172 10C64.3211 10 64.225 10 64.1288 10C64.0327 10 63.9365 10 63.8403 10C63.744 10 63.6478 10 63.5515 10C63.4552 10 63.3589 10 63.2625 10C63.1662 10 63.0698 10 62.9733 10C62.8769 10 62.7805 10 62.684 10C62.5875 10 62.491 10 62.3944 10C62.2979 9.99999 62.2013 9.99999 62.1047 9.99999C62.0081 9.99999 61.9115 9.99999 61.8148 9.99999C61.7181 9.99999 61.6214 9.99999 61.5247 9.99999C61.428 9.99999 61.3313 9.99999 61.2345 9.99999C61.1377 9.99999 61.0409 9.99999 60.9441 9.99999C60.8472 9.99999 60.7504 9.99999 60.6535 9.99999C60.5566 9.99999 60.4597 9.99999 60.3628 9.99999C60.2658 9.99999 60.1689 9.99999 60.0719 9.99999C59.9749 9.99999 59.8779 9.99999 59.7809 9.99999C59.6839 9.99999 59.5868 9.99999 59.4897 9.99999C59.3927 9.99999 59.2956 9.99999 59.1984 9.99999C59.1013 9.99999 59.0042 9.99999 58.907 9.99999C58.8099 9.99999 58.7127 9.99999 58.6155 9.99999C58.5183 9.99999 58.4211 9.99999 58.3238 9.99999C58.2266 9.99999 58.1293 9.99999 58.032 9.99999C57.9347 9.99999 57.8375 9.99999 57.7401 9.99999C57.6428 9.99999 57.5455 9.99999 57.4481 9.99999C57.3508 9.99999 57.2534 9.99999 57.156 9.99999C57.0586 9.99999 56.9612 9.99999 56.8638 9.99999C56.7664 9.99999 56.669 9.99999 56.5715 9.99999C56.4741 9.99999 56.3766 9.99999 56.2792 9.99999C56.1817 9.99999 56.0842 9.99999 55.9867 9.99999C55.8892 9.99999 55.7917 9.99999 55.6942 9.99999C55.5966 9.99999 55.4991 9.99999 55.4015 9.99999C55.304 9.99999 55.2064 9.99999 55.1088 9.99999C55.0113 9.99999 54.9137 9.99999 54.8161 9.99999C54.7185 9.99999 54.6209 9.99999 54.5233 9.99999C54.4257 9.99999 54.3281 9.99999 54.2304 9.99999C54.1328 9.99999 54.0352 9.99999 53.9375 9.99999C53.8399 9.99999 53.7422 9.99999 53.6446 9.99999C53.5469 9.99999 53.4492 9.99999 53.3516 9.99999C53.2539 9.99999 53.1562 9.99999 53.0585 9.99999C52.9608 9.99999 52.8632 9.99999 52.7655 9.99999C52.6678 9.99999 52.5701 9.99999 52.4724 9.99999C52.3747 9.99999 52.277 9.99999 52.1793 9.99999C52.0816 9.99999 51.9838 9.99999 51.8861 9.99999C51.7884 9.99999 51.6907 9.99999 51.593 9.99999C51.4953 9.99999 51.3975 9.99999 51.2998 9.99999C51.2021 9.99999 51.1044 9.99999 51.0067 9.99999C50.909 9.99999 50.8112 9.99999 50.7135 9.99999C50.6158 9.99999 50.5181 9.99999 50.4204 9.99999C50.3227 9.99999 50.225 9.99999 50.1272 9.99999C50.0295 9.99999 49.9318 9.99999 49.8341 9.99999C49.7364 9.99999 49.6387 9.99999 49.541 9.99999C49.4433 9.99999 49.3456 9.99999 49.248 9.99999C49.1503 9.99999 49.0526 9.99999 48.9549 9.99999C48.8572 9.99999 48.7596 9.99999 48.6619 9.99999C48.5643 9.99999 48.4666 9.99999 48.369 9.99999C48.2713 9.99999 48.1737 9.99999 48.076 9.99999C47.9784 9.99999 47.8808 9.99999 47.7831 9.99999C47.6855 9.99999 47.5879 9.99999 47.4903 9.99999C47.3927 9.99999 47.2952 9.99999 47.1976 9.99999C47.1 9.99999 47.0024 9.99999 46.9049 9.99999C46.8073 9.99999 46.7098 9.99999 46.6122 9.99999C46.5147 9.99999 46.4172 9.99999 46.3197 9.99999C46.2222 9.99999 46.1247 9.99999 46.0272 9.99999C45.9297 9.99999 45.8323 9.99999 45.7348 9.99999C45.6374 9.99999 45.5399 9.99999 45.4425 9.99999C45.3451 9.99999 45.2477 9.99999 45.1503 9.99999C45.0529 9.99999 44.9555 9.99999 44.8582 9.99999C44.7608 9.99999 44.6635 9.99999 44.5661 9.99999C44.4688 9.99999 44.3715 9.99999 44.2742 9.99999C44.1769 9.99999 44.0797 9.99999 43.9824 9.99999C43.8852 9.99999 43.7879 9.99999 43.6907 9.99999C43.5935 9.99999 43.4963 9.99999 43.3992 9.99999C43.302 9.99999 43.2048 9.99999 43.1077 9.99999C43.0106 9.99999 42.9135 9.99999 42.8164 9.99999C42.7193 9.99999 42.6223 9.99999 42.5252 9.99999C42.4282 9.99999 42.3312 9.99999 42.2342 9.99999C42.1372 9.99999 42.0402 9.99999 41.9433 9.99999C41.8463 9.99999 41.7494 9.99999 41.6525 9.99999C41.5556 9.99999 41.4588 9.99999 41.3619 9.99999C41.2651 9.99999 41.1683 9.99999 41.0715 9.99999C40.9747 9.99999 40.8779 9.99999 40.7812 9.99999C40.6845 9.99999 40.5878 9.99999 40.4911 9.99999C40.3944 9.99999 40.2978 9.99999 40.2012 9.99999C40.1045 9.99999 40.008 9.99999 39.9114 9.99999C39.8148 9.99999 39.7183 9.99999 39.6218 9.99999C39.5253 9.99999 39.4289 9.99999 39.3324 9.99999C39.236 9.99999 39.1396 9.99999 39.0432 9.99999C38.9468 9.99999 38.8505 9.99999 38.7542 9.99999C38.6579 9.99999 38.5616 9.99999 38.4654 9.99999C38.3692 9.99999 38.273 9.99999 38.1768 9.99999C38.0806 9.99999 37.9845 9.99999 37.8884 9.99999C37.7923 9.99999 37.6962 9.99999 37.6002 9.99999C37.5042 9.99999 37.4082 9.99999 37.3123 9.99999C37.2163 9.99999 37.1204 9.99999 37.0245 9.99999C36.9287 9.99999 36.8328 9.99999 36.737 9.99999C36.6412 9.99999 36.5455 9.99999 36.4497 9.99999C36.354 9.99999 36.2583 9.99999 36.1627 9.99999C36.0671 9.99999 35.9715 9.99999 35.8759 9.99999C35.7803 9.99999 35.6848 9.99999 35.5894 9.99999C35.4939 9.99999 35.3985 9.99999 35.3031 9.99999C35.2077 9.99999 35.1123 9.99999 35.017 9.99999C34.9217 9.99999 34.8265 9.99999 34.7312 9.99999C34.636 9.99999 34.5409 9.99999 34.4457 9.99999C34.3506 9.99999 34.2555 9.99999 34.1605 9.99999C34.0655 9.99999 33.9705 9.99999 33.8755 9.99999C33.7806 9.99999 33.6857 9.99999 33.5909 9.99999C33.496 9.99999 33.4012 9.99999 33.3065 9.99999C33.2117 9.99999 33.117 9.99999 33.0223 9.99999C32.9277 9.99999 32.8331 9.99999 32.7385 9.99999C32.644 9.99999 32.5495 9.99999 32.455 9.99999C32.3606 9.99999 32.2662 9.99999 32.1718 9.99999C32.0775 9.99999 31.9832 9.99999 31.8889 9.99999C31.7947 9.99999 31.7005 9.99999 31.6063 9.99999C31.5122 9.99999 31.4181 9.99999 31.324 9.99999C31.23 9.99999 31.136 9.99999 31.0421 9.99999C30.9482 9.99999 30.8543 9.99999 30.7605 9.99999C30.6667 9.99999 30.5729 9.99999 30.4792 9.99999C30.3855 9.99999 30.2918 9.99999 30.1982 9.99999C30.1046 9.99999 30.0111 9.99999 29.9176 9.99999C29.8242 9.99999 29.7307 9.99999 29.6374 9.99999C29.544 9.99999 29.4507 9.99999 29.3575 9.99999C29.2642 9.99999 29.171 9.99999 29.0779 9.99999C28.9848 9.99999 28.8917 9.99999 28.7987 9.99999C28.7057 9.99999 28.6128 9.99999 28.5199 9.99999C28.427 9.99999 28.3342 9.99999 28.2414 9.99999C28.1487 9.99999 28.056 9.99999 27.9633 9.99999C27.8707 9.99999 27.7781 9.99999 27.6856 9.99999C27.5931 9.99999 27.5007 9.99999 27.4083 9.99999C27.3159 9.99999 27.2236 9.99999 27.1314 9.99999C27.0391 9.99999 26.947 9.99999 26.8549 9.99999C26.7627 9.99999 26.6707 9.99999 26.5787 9.99999C26.4867 9.99999 26.3948 9.99999 26.303 9.99999C26.2111 9.99999 26.1194 9.99999 26.0276 9.99999C25.9359 9.99999 25.8443 9.99999 25.7527 9.99999C25.6612 9.99999 25.5697 9.99999 25.4782 9.99999C25.3868 9.99999 25.2954 9.99999 25.2042 9.99999C25.1129 9.99999 25.0217 9.99999 24.9305 9.99999C24.8394 9.99999 24.7483 9.99999 24.6573 9.99999C24.5663 9.99999 24.4754 9.99999 24.3845 9.99999C24.2937 9.99999 24.2029 9.99999 24.1122 9.99999C24.0215 9.99999 23.9308 9.99999 23.8403 9.99999C23.7497 9.99999 23.6592 9.99999 23.5688 9.99999C23.4784 9.99999 23.3881 9.99999 23.2978 9.99999C23.2076 9.99999 23.1174 9.99999 23.0273 9.99999C22.9372 9.99999 22.8472 9.99999 22.7573 9.99999C22.6673 9.99999 22.5774 9.99999 22.4877 9.99999C22.3979 9.99999 22.3082 9.99999 22.2185 9.99999C22.1289 9.99999 22.0394 9.99999 21.9499 9.99999C21.8604 9.99999 21.771 9.99999 21.6817 9.99999C21.5924 9.99999 21.5032 9.99999 21.4141 9.99999C21.3249 9.99999 21.2359 9.99999 21.1469 9.99999C21.0579 9.99999 20.969 9.99999 20.8802 9.99999C20.7914 9.99999 20.7027 9.99999 20.614 9.99999C20.5254 9.99999 20.4368 9.99999 20.3484 9.99999C20.2599 9.99999 20.1715 9.99999 20.0832 9.99999C19.9949 9.99999 19.9067 9.99999 19.8186 9.99999C19.7304 9.99999 19.6424 9.99999 19.5544 9.99999C19.4665 9.99999 19.3786 9.99999 19.2908 9.99999C19.2031 9.99999 19.1154 9.99999 19.0278 9.99999C18.9402 9.99999 18.8527 9.99999 18.7652 9.99999C18.6778 9.99999 18.5905 9.99999 18.5033 9.99999C18.416 9.99999 18.3289 9.99999 18.2418 9.99999C18.1547 9.99999 18.0678 9.99999 17.9809 9.99999C17.894 9.99999 17.8073 9.99999 17.7206 9.99999C17.6339 9.99999 17.5473 9.99999 17.4608 9.99999C17.3743 9.99999 17.2879 9.99999 17.2016 9.99999C17.1152 9.99999 17.029 9.99999 16.9429 9.99999C16.8568 9.99999 16.7708 9.99999 16.6848 9.99999C16.5989 9.99999 16.5131 9.99999 16.4273 9.99999C16.3416 9.99999 16.256 9.99999 16.1704 9.99999C16.0849 9.99999 15.9994 9.99999 15.9141 9.99999C15.8287 9.99999 15.7435 9.99999 15.6583 9.99999C15.5732 9.99999 15.4882 9.99999 15.4032 9.99999C15.3183 9.99999 15.2334 9.99999 15.1487 9.99999C15.0639 9.99999 14.9793 9.99999 14.8947 9.99999C14.8102 9.99999 14.7258 9.99999 14.6414 9.99999C14.5571 9.99999 14.4728 9.99999 14.3887 9.99999C14.3046 9.99999 14.2205 9.99999 14.1366 9.99999C14.0527 9.99999 13.9689 9.99999 13.8852 9.99999C13.8014 9.99999 13.7178 9.99999 13.6343 9.99999C13.5508 9.99999 13.4674 9.99999 13.3841 9.99999C13.3008 9.99999 13.2177 9.99999 13.1346 9.99999C13.0515 9.99999 12.9685 9.99999 12.8857 9.99999C12.8028 9.99999 12.72 9.99999 12.6374 9.99999C12.5547 9.99999 12.4722 9.99999 12.3898 9.99999C12.3074 9.99999 12.225 9.99999 12.1428 9.99999C12.0606 9.99999 11.9785 9.99999 11.8965 9.99999C11.8145 9.99999 11.7327 9.99999 11.6509 9.99999C11.5691 9.99999 11.4875 9.99999 11.406 9.99999C11.3244 9.99999 11.243 9.99999 11.1617 9.99999C11.0804 9.99999 10.9992 9.99999 10.9181 9.99999C10.837 9.99999 10.756 9.99999 10.6752 9.99999C10.5943 9.99999 10.5136 9.99999 10.433 9.99999C10.3523 9.99999 10.2718 9.99999 10.1914 9.99999C10.1111 9.99999 10.0308 9.99999 9.95063 9.99999C9.87048 9.99999 9.79044 9.99999 9.71052 9.99999C9.63059 9.99999 9.5508 9.99999 9.47111 9.99999C9.39143 9.99999 9.31187 9.99999 9.23242 9.99999C9.15298 9.99999 9.07365 9.99999 8.99445 9.99999C8.91525 9.99999 8.83617 9.99999 8.75721 9.99999C8.67825 9.99999 8.5994 9.99999 8.52069 9.99999C8.44197 9.99999 8.36338 9.99999 8.2849 9.99999C8.20644 9.99999 8.12809 9.99999 8.04987 9.99999C7.97164 9.99999 7.89354 9.99999 7.81556 9.99999C7.73759 9.99999 7.65974 9.99999 7.58201 9.99999C7.50428 9.99999 7.42668 9.99999 7.34921 9.99999C7.27173 9.99999 7.19438 9.99999 7.11716 9.99999C7.03994 9.99999 6.96284 9.99999 6.88588 9.99999C6.80891 9.99999 6.73208 9.99999 6.65537 9.99999C6.57865 9.99999 6.50208 9.99999 6.42562 9.99999C6.34917 9.99999 6.27284 9.99999 6.19666 9.99999C6.12046 9.99999 6.0444 9.99999 5.96847 9.99999C5.89253 9.99999 5.81673 9.99999 5.74107 9.99999C5.6654 9.99999 5.58986 9.99999 5.51445 9.99999C5.43905 9.99999 5.36378 9.99999 5.28864 9.99999C5.2135 9.99999 5.13849 9.99999 5.06362 9.99999C4.98875 9.99999 4.91401 9.99999 4.83941 9.99999C4.76481 9.99999 4.69034 9.99999 4.61601 9.99999C4.54167 9.99999 4.46748 9.99999 4.39342 9.99999C4.31936 9.99999 4.24543 9.99999 4.17165 9.99999C4.09786 9.99999 4.02421 9.99999 3.9507 9.99999C3.87719 9.99999 3.80381 9.99999 3.73058 9.99999C3.65734 9.99999 3.58425 9.99999 3.51129 9.99999C3.43834 9.99999 3.36552 9.99999 3.29285 9.99999C3.22017 9.99999 3.14763 9.99999 3.07523 9.99999C3.00284 9.99999 2.93059 9.99999 2.85847 9.99999C2.78636 9.99999 2.71439 9.99999 2.64257 9.99999C2.57074 9.99999 2.49905 9.99999 2.42751 9.99999C2.35597 9.99999 2.28458 9.99999 2.21333 9.99999C2.14207 9.99999 2.07096 9.99999 2 9.99999L2 13C2.07096 13 2.14207 13 2.21333 13C2.28458 13 2.35597 13 2.42751 13C2.49905 13 2.57074 13 2.64257 13C2.71439 13 2.78636 13 2.85847 13C2.93059 13 3.00284 13 3.07523 13C3.14763 13 3.22017 13 3.29285 13C3.36552 13 3.43834 13 3.51129 13C3.58425 13 3.65734 13 3.73058 13C3.80381 13 3.87719 13 3.9507 13C4.02421 13 4.09786 13 4.17165 13C4.24543 13 4.31936 13 4.39342 13C4.46748 13 4.54167 13 4.616 13C4.69034 13 4.76481 13 4.83941 13C4.91401 13 4.98875 13 5.06362 13C5.13849 13 5.2135 13 5.28864 13C5.36378 13 5.43905 13 5.51445 13C5.58986 13 5.6654 13 5.74107 13C5.81673 13 5.89253 13 5.96847 13C6.0444 13 6.12046 13 6.19666 13C6.27284 13 6.34917 13 6.42562 13C6.50208 13 6.57865 13 6.65536 13C6.73208 13 6.80891 13 6.88588 13C6.96284 13 7.03994 13 7.11716 13C7.19438 13 7.27173 13 7.3492 13C7.42668 13 7.50428 13 7.58201 13C7.65974 13 7.73759 13 7.81556 13C7.89354 13 7.97164 13 8.04987 13C8.12809 13 8.20644 13 8.2849 13C8.36338 13 8.44197 13 8.52069 13C8.5994 13 8.67825 13 8.75721 13C8.83617 13 8.91525 13 8.99445 13C9.07365 13 9.15298 13 9.23242 13C9.31187 13 9.39143 13 9.47111 13C9.5508 13 9.63059 13 9.71052 13C9.79044 13 9.87048 13 9.95063 13C10.0308 13 10.1111 13 10.1914 13C10.2718 13 10.3523 13 10.433 13C10.5136 13 10.5943 13 10.6752 13C10.756 13 10.837 13 10.9181 13C10.9992 13 11.0804 13 11.1617 13C11.243 13 11.3244 13 11.406 13C11.4875 13 11.5691 13 11.6509 13C11.7327 13 11.8145 13 11.8965 13C11.9785 13 12.0606 13 12.1428 13C12.225 13 12.3074 13 12.3898 13C12.4722 13 12.5547 13 12.6374 13C12.72 13 12.8028 13 12.8857 13C12.9685 13 13.0515 13 13.1346 13C13.2177 13 13.3008 13 13.3841 13C13.4674 13 13.5508 13 13.6343 13C13.7178 13 13.8014 13 13.8852 13C13.9689 13 14.0527 13 14.1366 13C14.2205 13 14.3046 13 14.3887 13C14.4728 13 14.5571 13 14.6414 13C14.7258 13 14.8102 13 14.8947 13C14.9793 13 15.0639 13 15.1487 13C15.2334 13 15.3183 13 15.4032 13C15.4882 13 15.5732 13 15.6583 13C15.7435 13 15.8287 13 15.9141 13C15.9994 13 16.0849 13 16.1704 13C16.256 13 16.3416 13 16.4273 13C16.5131 13 16.5989 13 16.6848 13C16.7708 13 16.8568 13 16.9429 13C17.029 13 17.1152 13 17.2016 13C17.2879 13 17.3743 13 17.4608 13C17.5473 13 17.6339 13 17.7206 13C17.8073 13 17.894 13 17.9809 13C18.0678 13 18.1547 13 18.2418 13C18.3289 13 18.416 13 18.5032 13C18.5905 13 18.6778 13 18.7652 13C18.8527 13 18.9402 13 19.0278 13C19.1154 13 19.2031 13 19.2908 13C19.3786 13 19.4665 13 19.5544 13C19.6424 13 19.7304 13 19.8185 13C19.9067 13 19.9949 13 20.0832 13C20.1715 13 20.2599 13 20.3484 13C20.4368 13 20.5254 13 20.614 13C20.7027 13 20.7914 13 20.8802 13C20.969 13 21.0579 13 21.1469 13C21.2359 13 21.3249 13 21.4141 13C21.5032 13 21.5924 13 21.6817 13C21.771 13 21.8604 13 21.9499 13C22.0394 13 22.1289 13 22.2185 13C22.3082 13 22.3979 13 22.4877 13C22.5774 13 22.6673 13 22.7573 13C22.8472 13 22.9372 13 23.0273 13C23.1174 13 23.2076 13 23.2978 13C23.3881 13 23.4784 13 23.5688 13C23.6592 13 23.7497 13 23.8403 13C23.9308 13 24.0215 13 24.1122 13C24.2029 13 24.2937 13 24.3845 13C24.4754 13 24.5663 13 24.6573 13C24.7483 13 24.8394 13 24.9305 13C25.0217 13 25.1129 13 25.2042 13C25.2954 13 25.3868 13 25.4782 13C25.5697 13 25.6612 13 25.7527 13C25.8443 13 25.9359 13 26.0276 13C26.1194 13 26.2111 13 26.303 13C26.3948 13 26.4867 13 26.5787 13C26.6707 13 26.7627 13 26.8549 13C26.947 13 27.0391 13 27.1314 13C27.2236 13 27.3159 13 27.4083 13C27.5007 13 27.5931 13 27.6856 13C27.7781 13 27.8707 13 27.9633 13C28.056 13 28.1487 13 28.2414 13C28.3342 13 28.427 13 28.5199 13C28.6128 13 28.7057 13 28.7987 13C28.8917 13 28.9848 13 29.0779 13C29.171 13 29.2642 13 29.3575 13C29.4507 13 29.544 13 29.6374 13C29.7307 13 29.8242 13 29.9176 13C30.0111 13 30.1046 13 30.1982 13C30.2918 13 30.3855 13 30.4792 13C30.5729 13 30.6667 13 30.7605 13C30.8543 13 30.9482 13 31.0421 13C31.136 13 31.23 13 31.324 13C31.4181 13 31.5122 13 31.6063 13C31.7005 13 31.7947 13 31.8889 13C31.9832 13 32.0775 13 32.1718 13C32.2662 13 32.3606 13 32.455 13C32.5495 13 32.644 13 32.7385 13C32.8331 13 32.9277 13 33.0223 13C33.117 13 33.2117 13 33.3064 13C33.4012 13 33.496 13 33.5909 13C33.6857 13 33.7806 13 33.8755 13C33.9705 13 34.0655 13 34.1605 13C34.2555 13 34.3506 13 34.4457 13C34.5409 13 34.636 13 34.7312 13C34.8265 13 34.9217 13 35.017 13C35.1123 13 35.2077 13 35.3031 13C35.3985 13 35.4939 13 35.5894 13C35.6848 13 35.7803 13 35.8759 13C35.9715 13 36.0671 13 36.1627 13C36.2583 13 36.354 13 36.4497 13C36.5455 13 36.6412 13 36.737 13C36.8328 13 36.9286 13 37.0245 13C37.1204 13 37.2163 13 37.3123 13C37.4082 13 37.5042 13 37.6002 13C37.6962 13 37.7923 13 37.8884 13C37.9845 13 38.0806 13 38.1768 13C38.273 13 38.3692 13 38.4654 13C38.5616 13 38.6579 13 38.7542 13C38.8505 13 38.9468 13 39.0432 13C39.1396 13 39.236 13 39.3324 13C39.4289 13 39.5253 13 39.6218 13C39.7183 13 39.8148 13 39.9114 13C40.008 13 40.1045 13 40.2012 13C40.2978 13 40.3944 13 40.4911 13C40.5878 13 40.6845 13 40.7812 13C40.8779 13 40.9747 13 41.0715 13C41.1683 13 41.2651 13 41.3619 13C41.4588 13 41.5556 13 41.6525 13C41.7494 13 41.8463 13 41.9433 13C42.0402 13 42.1372 13 42.2342 13C42.3312 13 42.4282 13 42.5252 13C42.6223 13 42.7193 13 42.8164 13C42.9135 13 43.0106 13 43.1077 13C43.2048 13 43.302 13 43.3992 13C43.4963 13 43.5935 13 43.6907 13C43.7879 13 43.8852 13 43.9824 13C44.0797 13 44.1769 13 44.2742 13C44.3715 13 44.4688 13 44.5661 13C44.6635 13 44.7608 13 44.8582 13C44.9555 13 45.0529 13 45.1503 13C45.2477 13 45.3451 13 45.4425 13C45.5399 13 45.6374 13 45.7348 13C45.8323 13 45.9297 13 46.0272 13C46.1247 13 46.2222 13 46.3197 13C46.4172 13 46.5147 13 46.6122 13C46.7098 13 46.8073 13 46.9049 13C47.0024 13 47.1 13 47.1976 13C47.2952 13 47.3927 13 47.4903 13C47.5879 13 47.6855 13 47.7831 13C47.8808 13 47.9784 13 48.076 13C48.1737 13 48.2713 13 48.3689 13C48.4666 13 48.5643 13 48.6619 13C48.7596 13 48.8572 13 48.9549 13C49.0526 13 49.1503 13 49.248 13C49.3456 13 49.4433 13 49.541 13C49.6387 13 49.7364 13 49.8341 13C49.9318 13 50.0295 13 50.1272 13C50.225 13 50.3227 13 50.4204 13C50.5181 13 50.6158 13 50.7135 13C50.8112 13 50.909 13 51.0067 13C51.1044 13 51.2021 13 51.2998 13C51.3975 13 51.4953 13 51.593 13C51.6907 13 51.7884 13 51.8861 13C51.9838 13 52.0816 13 52.1793 13C52.277 13 52.3747 13 52.4724 13C52.5701 13 52.6678 13 52.7655 13C52.8632 13 52.9608 13 53.0585 13C53.1562 13 53.2539 13 53.3516 13C53.4492 13 53.5469 13 53.6446 13C53.7422 13 53.8399 13 53.9375 13C54.0352 13 54.1328 13 54.2304 13C54.3281 13 54.4257 13 54.5233 13C54.6209 13 54.7185 13 54.8161 13C54.9137 13 55.0113 13 55.1088 13C55.2064 13 55.304 13 55.4015 13C55.4991 13 55.5966 13 55.6942 13C55.7917 13 55.8892 13 55.9867 13C56.0842 13 56.1817 13 56.2792 13C56.3766 13 56.4741 13 56.5715 13C56.669 13 56.7664 13 56.8638 13C56.9612 13 57.0586 13 57.156 13C57.2534 13 57.3508 13 57.4481 13C57.5455 13 57.6428 13 57.7401 13C57.8375 13 57.9347 13 58.032 13C58.1293 13 58.2266 13 58.3238 13C58.4211 13 58.5183 13 58.6155 13C58.7127 13 58.8099 13 58.907 13C59.0042 13 59.1013 13 59.1984 13C59.2956 13 59.3927 13 59.4897 13C59.5868 13 59.6839 13 59.7809 13C59.8779 13 59.9749 13 60.0719 13C60.1689 13 60.2658 13 60.3628 13C60.4597 13 60.5566 13 60.6535 13C60.7504 13 60.8472 13 60.9441 13C61.0409 13 61.1377 13 61.2345 13C61.3313 13 61.428 13 61.5247 13C61.6214 13 61.7181 13 61.8148 13C61.9115 13 62.0081 13 62.1047 13C62.2013 13 62.2979 13 62.3944 13C62.491 13 62.5875 13 62.684 13C62.7805 13 62.8769 13 62.9733 13C63.0698 13 63.1662 13 63.2625 13C63.3589 13 63.4552 13 63.5515 13C63.6478 13 63.744 13 63.8403 13C63.9365 13 64.0327 13 64.1288 13C64.225 13 64.3211 13 64.4172 13C64.5132 13 64.6093 13 64.7053 13C64.8013 13 64.8973 13 64.9932 13C65.0892 13 65.1851 13 65.2809 13C65.3768 13 65.4726 13 65.5684 13C65.6642 13 65.7599 13 65.8556 13C65.9513 13 66.047 13 66.1426 13C66.2382 13 66.3338 13 66.4294 13C66.5249 13 66.6204 13 66.7159 13C66.8113 13 66.9067 13 67.0021 13C67.0975 13 67.1928 13 67.2881 13C67.3834 13 67.4786 13 67.5738 13C67.669 13 67.7642 13 67.8593 13C67.9544 13 68.0494 13 68.1445 13C68.2395 13 68.3344 13 68.4294 13C68.5243 13 68.6192 13 68.714 13C68.8088 13 68.9036 13 68.9983 13C69.0931 13 69.1878 13 69.2824 13C69.377 13 69.4716 13 69.5662 13C69.6607 13 69.7552 13 69.8496 13C69.944 13 70.0384 13 70.1328 13C70.2271 13 70.3214 13 70.4156 13C70.5098 13 70.604 13 70.6981 13C70.7923 13 70.8863 13 70.9803 13C71.0744 13 71.1683 13 71.2622 13C71.3561 13 71.45 13 71.5438 13C71.6376 13 71.7313 13 71.825 13C71.9187 13 72.0123 13 72.1059 13C72.1995 13 72.293 13 72.3864 13C72.4799 13 72.5733 13 72.6666 13C72.76 13 72.8532 13 72.9465 13C73.0397 13 73.1328 13 73.2259 13C73.319 13 73.4121 13 73.5051 13C73.5981 13 73.691 13 73.7838 13C73.8767 13 73.9695 13 74.0622 13C74.155 13 74.2476 13 74.3402 13C74.4328 13 74.5254 13 74.6179 13C74.7103 13 74.8028 13 74.8951 13C74.9875 13 75.0797 13 75.172 13C75.2642 13 75.3563 13 75.4484 13C75.5405 13 75.6325 13 75.7245 13C75.8164 13 75.9083 13 76.0001 13C76.092 13 76.1837 13 76.2754 13C76.3671 13 76.4587 13 76.5502 13C76.6418 13 76.7332 13 76.8246 13C76.916 13 77.0074 13 77.0986 13C77.1899 13 77.2811 13 77.3722 13C77.4633 13 77.5544 13 77.6453 13C77.7363 13 77.8272 13 77.918 13C78.0089 13 78.0996 13 78.1903 13C78.281 13 78.3716 13 78.4621 13C78.5526 13 78.6431 13 78.7335 13C78.8238 13 78.9141 13 79.0044 13C79.0946 13 79.1847 13 79.2748 13C79.3649 13 79.4549 13 79.5448 13C79.6347 13 79.7245 13 79.8143 13C79.904 13 79.9937 13 80.0833 13C80.1729 13 80.2624 13 80.3519 13C80.4413 13 80.5306 13 80.6199 13C80.7092 13 80.7984 13 80.8875 13C80.9766 13 81.0656 13 81.1546 13C81.2435 13 81.3324 13 81.4212 13C81.5099 13 81.5986 13 81.6872 13C81.7759 13 81.8644 13 81.9528 13C82.0413 13 82.1296 13 82.2179 13C82.3061 13 82.3943 13 82.4824 13C82.5705 13 82.6585 13 82.7464 13C82.8344 13 82.9222 13 83.0099 13C83.0977 13 83.1853 13 83.2729 13C83.3605 13 83.4479 13 83.5353 13C83.6227 13 83.71 13 83.7972 13C83.8844 13 83.9715 13 84.0586 13C84.1456 13 84.2325 13 84.3193 13C84.4062 13 84.4929 13 84.5796 13C84.6662 13 84.7528 13 84.8393 13C84.9257 13 85.0121 13 85.0984 13C85.1846 13 85.2708 13 85.3569 13C85.443 13 85.529 13 85.6149 13C85.7008 13 85.7866 13 85.8723 13C85.958 13 86.0436 13 86.1291 13C86.2146 13 86.3 13 86.3853 13C86.4706 13 86.5558 13 86.6409 13C86.726 13 86.811 13 86.8959 13C86.9808 13 87.0657 13 87.1504 13C87.2351 13 87.3197 13 87.4042 13C87.4887 13 87.5731 13 87.6574 13C87.7417 13 87.8259 13 87.91 13C87.9941 13 88.0781 13 88.1619 13C88.2458 13 88.3296 13 88.4133 13C88.497 13 88.5805 13 88.664 13C88.7475 13 88.8308 13 88.9141 13C88.9973 13 89.0805 13 89.1635 13C89.2465 13 89.3295 13 89.4123 13C89.4951 13 89.5778 13 89.6604 13C89.743 13 89.8255 13 89.9079 13C89.9903 13 90.0726 13 90.1547 13C90.2369 13 90.319 13 90.4009 13C90.4828 13 90.5647 13 90.6464 13C90.7281 13 90.8097 13 90.8912 13C90.9727 13 91.0541 13 91.1354 13C91.2166 13 91.2978 13 91.3788 13C91.4599 13 91.5408 13 91.6216 13C91.7024 13 91.7831 13 91.8637 13C91.9443 13 92.0247 13 92.1051 13C92.1854 13 92.2656 13 92.3458 13C92.4259 13 92.5059 13 92.5857 13C92.6656 13 92.7454 13 92.825 13C92.9046 13 92.9842 13 93.0636 13C93.1429 13 93.2222 13 93.3014 13C93.3805 13 93.4596 13 93.5385 13C93.6174 13 93.6962 13 93.7749 13C93.8535 13 93.9321 13 94.0105 13C94.0889 13 94.1672 13 94.2454 13C94.3236 13 94.4016 13 94.4796 13C94.5575 13 94.6353 13 94.713 13C94.7907 13 94.8682 13 94.9456 13C95.0231 13 95.1004 13 95.1775 13C95.2547 13 95.3317 13 95.4087 13C95.4856 13 95.5624 13 95.639 13C95.7157 13 95.7922 13 95.8686 13C95.945 13 96.0213 13 96.0974 13C96.1736 13 96.2496 13 96.3255 13C96.4014 13 96.4771 13 96.5527 13C96.6284 13 96.7038 13 96.7792 13C96.8545 13 96.9298 13 97.0049 13C97.0799 13 97.1549 13 97.2297 13C97.3045 13 97.3792 13 97.4538 13C97.5283 13 97.6027 13 97.677 13C97.7513 13 97.8254 13 97.8995 13C97.9735 13 98.0473 13 98.1211 13C98.1948 13 98.2684 13 98.3419 13C98.4153 13 98.4886 13 98.5618 13C98.635 13 98.708 13 98.7809 13C98.8538 13 98.9266 13 98.9992 13C99.0719 13 99.1443 13 99.2167 13C99.289 13 99.3612 13 99.4333 13C99.5053 13 99.5772 13 99.649 13C99.7208 13 99.7924 13 99.8639 13C99.9354 13 100.007 13 100.078 13C100.149 13 100.22 13 100.291 13C100.362 13 100.433 13 100.503 13C100.574 13 100.644 13 100.715 13C100.785 13 100.855 13 100.925 13C100.995 13 101.065 13 101.135 13C101.205 13 101.274 13 101.344 13C101.413 13 101.482 13 101.552 13C101.621 13 101.69 13 101.759 13C101.827 13 101.896 13 101.965 13C102.033 13 102.102 13 102.17 13C102.238 13 102.306 13 102.374 13C102.442 13 102.51 13 102.577 13C102.645 13 102.712 13 102.78 13C102.847 13 102.914 13 102.981 13C103.048 13 103.115 13 103.182 13C103.248 13 103.315 13 103.381 13C103.448 13 103.514 13 103.58 13C103.646 13 103.712 13 103.778 13C103.843 13 103.909 13 103.974 13C104.04 13 104.105 13 104.17 13C104.235 13 104.3 13 104.365 13C104.43 13 104.494 13 104.559 13C104.623 13 104.688 13 104.752 13C104.816 13 104.88 13 104.944 13C105.007 13 105.071 13 105.135 13C105.198 13 105.261 13 105.325 13C105.388 13 105.451 13 105.514 13C105.576 13 105.639 13 105.702 13C105.764 13 105.826 13 105.888 13C105.951 13 106.013 13 106.074 13C106.136 13 106.198 13 106.259 13C106.321 13 106.382 13 106.443 13C106.505 13 106.565 13 106.626 13C106.687 13 106.748 13 106.808 13C106.869 13 106.929 13 106.989 13C107.049 13 107.109 13 107.169 13C107.229 13 107.288 13 107.348 13C107.407 13 107.466 13 107.526 13C107.585 13 107.644 13 107.702 13C107.761 13 107.82 13 107.878 13C107.936 13 107.995 13 108.053 13C108.111 13 108.168 13 108.226 13C108.284 13 108.341 13 108.399 13C108.456 13 108.513 13 108.57 13C108.627 13 108.684 13 108.74 13C108.797 13 108.853 13 108.91 13C108.966 13 109.022 13 109.078 13C109.134 13 109.189 13 109.245 13C109.3 13 109.356 13 109.411 13C109.466 13 109.521 13 109.576 13C109.631 13 109.685 13 109.74 13C109.794 13 109.848 13 109.902 13C109.956 13 110.01 13 110.064 13C110.118 13 110.171 13 110.224 13C110.278 13 110.331 13 110.384 13C110.437 13 110.489 13 110.542 13C110.595 13 110.647 13 110.699 13C110.751 13 110.803 13 110.855 13C110.907 13 110.958 13 111.01 13C111.061 13 111.112 13 111.163 13C111.215 13 111.265 13 111.316 13C111.367 13 111.417 13 111.467 13C111.518 13 111.568 13 111.618 13C111.667 13 111.717 13 111.767 13C111.816 13 111.865 13 111.914 13C111.964 13 112.012 13 112.061 13C112.11 13 112.158 13 112.207 13C112.255 13 112.303 13 112.351 13C112.399 13 112.447 13 112.494 13C112.542 13 112.589 13 112.636 13C112.683 13 112.73 13 112.777 13C112.824 13 112.87 13 112.916 13C112.963 13 113.009 13 113.055 13C113.101 13 113.146 13 113.192 13C113.237 13 113.283 13 113.328 13C113.373 13 113.418 13 113.463 13C113.507 13 113.552 13 113.596 13C113.64 13 113.684 13 113.728 13C113.772 13 113.816 13 113.859 13C113.903 13 113.946 13 113.989 13C114.032 13 114.075 13 114.118 13C114.16 13 114.203 13 114.245 13C114.287 13 114.329 13 114.371 13C114.413 13 114.454 13 114.496 13C114.537 13 114.578 13 114.619 13C114.66 13 114.701 13 114.741 13C114.782 13 114.822 13 114.862 13C114.902 13 114.942 13 114.982 13C115.022 13 115.061 13 115.1 13C115.14 13 115.179 13 115.218 13C115.256 13 115.295 13 115.333 13C115.372 13 115.41 13 115.448 13C115.486 13 115.524 13 115.561 13C115.599 13 115.636 13 115.673 13C115.71 13 115.747 13 115.784 13C115.82 13 115.857 13 115.893 13C115.929 13 115.965 13 116.001 13C116.037 13 116.072 13 116.108 13C116.143 13 116.178 13 116.213 13C116.248 13 116.282 13 116.317 13C116.351 13 116.386 13 116.42 13C116.454 13 116.487 13 116.521 13C116.554 13 116.588 13 116.621 13C116.654 13 116.687 13 116.719 13C116.752 13 116.784 13 116.817 13C116.849 13 116.881 13 116.913 13C116.944 13 116.976 13 117.007 13C117.038 13 117.069 13 117.1 13C117.131 13 117.162 13 117.192 13C117.222 13 117.252 13 117.282 13C117.312 13 117.342 13 117.371 13C117.401 13 117.43 13 117.459 13C117.488 13 117.517 13 117.545 13C117.574 13 117.602 13 117.63 13C117.658 13 117.686 13 117.713 13C117.741 13 117.768 13 117.795 13C117.823 13 117.849 13 117.876 13C117.903 13 117.929 13 117.955 13C117.981 13 118.007 13 118.033 13C118.059 13 118.084 13 118.109 13C118.134 13 118.159 13 118.184 13C118.209 13 118.233 13 118.258 13C118.282 13 118.306 13 118.33 13C118.353 13 118.377 13 118.4 13C118.423 13 118.446 13 118.469 13C118.492 13 118.515 13 118.537 13C118.559 13 118.581 13 118.603 13C118.625 13 118.646 13 118.668 13C118.689 13 118.71 13 118.731 13C118.752 13 118.772 13 118.793 13C118.813 13 118.833 13 118.853 13C118.873 13 118.893 13 118.912 13C118.931 13 118.95 13 118.969 13C118.988 13 119.007 13 119.025 13C119.043 13 119.061 13 119.079 13C119.097 13 119.115 13 119.132 13C119.15 13 119.167 13 119.183 13C119.2 13 119.217 13 119.233 13C119.25 13 119.266 13 119.282 13C119.297 13 119.313 13 119.328 13C119.344 13 119.359 13 119.374 13C119.388 13 119.403 13 119.417 13C119.432 13 119.446 13 119.459 13C119.473 13 119.487 13 119.5 13L119.5 10Z" fill="#A6A6A6"/>
</svg>
