<svg width="120" height="24" viewBox="0 0 120 24" fill="none" xmlns="http://www.w3.org/2000/svg">
<path d="M119.061 13.0607C119.646 12.4749 119.646 11.5251 119.061 10.9393L109.515 1.3934C108.929 0.807611 107.979 0.807611 107.393 1.3934C106.808 1.97919 106.808 2.92893 107.393 3.51472L115.879 12L107.393 20.4853C106.808 21.0711 106.808 22.0208 107.393 22.6066C107.979 23.1924 108.929 23.1924 109.515 22.6066L119.061 13.0607ZM0.5 13.5C0.513281 13.5 0.52682 13.5 0.540616 13.5C0.554412 13.5 0.568465 13.5 0.582774 13.5C0.597083 13.5 0.611649 13.5 0.626469 13.5C0.64129 13.5 0.656366 13.5 0.671696 13.5C0.687027 13.5 0.702612 13.5 0.718451 13.5C0.73429 13.5 0.750383 13.5 0.766729 13.5C0.783075 13.5 0.799674 13.5 0.816525 13.5C0.833376 13.5 0.85048 13.5 0.867834 13.5C0.885189 13.5 0.902796 13.5 0.920653 13.5C0.93851 13.5 0.956617 13.5 0.974975 13.5C0.993332 13.5 1.01194 13.5 1.0308 13.5C1.04965 13.5 1.06876 13.5 1.08811 13.5C1.10747 13.5 1.12707 13.5 1.14692 13.5C1.16677 13.5 1.18686 13.5 1.20721 13.5C1.22755 13.5 1.24814 13.5 1.26898 13.5C1.28982 13.5 1.3109 13.5 1.33223 13.5C1.35355 13.5 1.37513 13.5 1.39694 13.5C1.41876 13.5 1.44082 13.5 1.46313 13.5C1.48543 13.5 1.50798 13.5 1.53077 13.5C1.55357 13.5 1.5766 13.5 1.59988 13.5C1.62315 13.5 1.64667 13.5 1.67043 13.5C1.69419 13.5 1.71819 13.5 1.74243 13.5C1.76667 13.5 1.79116 13.5 1.81588 13.5C1.8406 13.5 1.86556 13.5 1.89076 13.5C1.91596 13.5 1.9414 13.5 1.96707 13.5C1.99275 13.5 2.01867 13.5 2.04482 13.5C2.07097 13.5 2.09736 13.5 2.12399 13.5C2.15061 13.5 2.17747 13.5 2.20457 13.5C2.23167 13.5 2.25901 13.5 2.28657 13.5C2.31414 13.5 2.34195 13.5 2.36998 13.5C2.39802 13.5 2.42629 13.5 2.4548 13.5C2.48331 13.5 2.51204 13.5 2.54102 13.5C2.56999 13.5 2.59919 13.5 2.62863 13.5C2.65806 13.5 2.68773 13.5 2.71763 13.5C2.74753 13.5 2.77766 13.5 2.80802 13.5C2.83838 13.5 2.86897 13.5 2.89978 13.5C2.9306 13.5 2.96165 13.5 2.99293 13.5C3.02421 13.5 3.05571 13.5 3.08745 13.5C3.11918 13.5 3.15114 13.5 3.18333 13.5C3.21552 13.5 3.24794 13.5 3.28058 13.5C3.31322 13.5 3.34609 13.5 3.37918 13.5C3.41228 13.5 3.4456 13.5 3.47914 13.5C3.51268 13.5 3.54645 13.5 3.58045 13.5C3.61444 13.5 3.64866 13.5 3.68309 13.5C3.71753 13.5 3.7522 13.5 3.78708 13.5C3.82197 13.5 3.85708 13.5 3.8924 13.5C3.92773 13.5 3.96328 13.5 3.99906 13.5C4.03483 13.5 4.07082 13.5 4.10703 13.5C4.14324 13.5 4.17968 13.5 4.21633 13.5C4.25298 13.5 4.28985 13.5 4.32694 13.5C4.36403 13.5 4.40133 13.5 4.43886 13.5C4.47638 13.5 4.51413 13.5 4.55209 13.5C4.59005 13.5 4.62822 13.5 4.66661 13.5C4.70501 13.5 4.74361 13.5 4.78244 13.5C4.82126 13.5 4.8603 13.5 4.89955 13.5C4.93881 13.5 4.97828 13.5 5.01796 13.5C5.05764 13.5 5.09753 13.5 5.13764 13.5C5.17775 13.5 5.21807 13.5 5.2586 13.5C5.29914 13.5 5.33988 13.5 5.38084 13.5C5.42179 13.5 5.46296 13.5 5.50434 13.5C5.54572 13.5 5.58731 13.5 5.62911 13.5C5.67091 13.5 5.71291 13.5 5.75513 13.5C5.79735 13.5 5.83978 13.5 5.88241 13.5C5.92504 13.5 5.96789 13.5 6.01094 13.5C6.05399 13.5 6.09725 13.5 6.14071 13.5C6.18417 13.5 6.22784 13.5 6.27172 13.5C6.3156 13.5 6.35968 13.5 6.40397 13.5C6.44825 13.5 6.49275 13.5 6.53744 13.5C6.58214 13.5 6.62704 13.5 6.67215 13.5C6.71725 13.5 6.76256 13.5 6.80807 13.5C6.85358 13.5 6.89929 13.5 6.94521 13.5C6.99112 13.5 7.03724 13.5 7.08356 13.5C7.12988 13.5 7.17639 13.5 7.22311 13.5C7.26983 13.5 7.31675 13.5 7.36387 13.5C7.41099 13.5 7.45831 13.5 7.50583 13.5C7.55335 13.5 7.60106 13.5 7.64898 13.5C7.69689 13.5 7.745 13.5 7.79331 13.5C7.84162 13.5 7.89013 13.5 7.93883 13.5C7.98753 13.5 8.03643 13.5 8.08553 13.5C8.13462 13.5 8.18391 13.5 8.2334 13.5C8.28288 13.5 8.33256 13.5 8.38244 13.5C8.43231 13.5 8.48238 13.5 8.53264 13.5C8.5829 13.5 8.63336 13.5 8.684 13.5C8.73465 13.5 8.78549 13.5 8.83652 13.5C8.88755 13.5 8.93878 13.5 8.99019 13.5C9.0416 13.5 9.09321 13.5 9.145 13.5C9.1968 13.5 9.24878 13.5 9.30096 13.5C9.35313 13.5 9.40549 13.5 9.45805 13.5C9.5106 13.5 9.56334 13.5 9.61626 13.5C9.66919 13.5 9.72231 13.5 9.77561 13.5C9.82891 13.5 9.8824 13.5 9.93608 13.5C9.98975 13.5 10.0436 13.5 10.0977 13.5C10.1517 13.5 10.2059 13.5 10.2604 13.5C10.3148 13.5 10.3694 13.5 10.4242 13.5C10.479 13.5 10.5339 13.5 10.5891 13.5C10.6442 13.5 10.6996 13.5 10.7551 13.5C10.8106 13.5 10.8663 13.5 10.9222 13.5C10.9781 13.5 11.0341 13.5 11.0904 13.5C11.1466 13.5 11.203 13.5 11.2596 13.5C11.3162 13.5 11.373 13.5 11.43 13.5C11.4869 13.5 11.5441 13.5 11.6014 13.5C11.6587 13.5 11.7162 13.5 11.7739 13.5C11.8316 13.5 11.8894 13.5 11.9475 13.5C12.0055 13.5 12.0637 13.5 12.1221 13.5C12.1805 13.5 12.239 13.5 12.2978 13.5C12.3565 13.5 12.4154 13.5 12.4745 13.5C12.5336 13.5 12.5928 13.5 12.6523 13.5C12.7117 13.5 12.7713 13.5 12.8311 13.5C12.8908 13.5 12.9508 13.5 13.0109 13.5C13.071 13.5 13.1313 13.5 13.1918 13.5C13.2523 13.5 13.3129 13.5 13.3737 13.5C13.4345 13.5 13.4955 13.5 13.5566 13.5C13.6178 13.5 13.6791 13.5 13.7406 13.5C13.8021 13.5 13.8637 13.5 13.9256 13.5C13.9874 13.5 14.0494 13.5 14.1115 13.5C14.1737 13.5 14.236 13.5 14.2985 13.5C14.361 13.5 14.4236 13.5 14.4865 13.5C14.5493 13.5 14.6123 13.5 14.6754 13.5C14.7386 13.5 14.8019 13.5 14.8654 13.5C14.9289 13.5 14.9925 13.5 15.0563 13.5C15.1201 13.5 15.1841 13.5 15.2483 13.5C15.3124 13.5 15.3767 13.5 15.4412 13.5C15.5056 13.5 15.5702 13.5 15.635 13.5C15.6998 13.5 15.7647 13.5 15.8299 13.5C15.895 13.5 15.9602 13.5 16.0256 13.5C16.0911 13.5 16.1567 13.5 16.2224 13.5C16.2881 13.5 16.354 13.5 16.4201 13.5C16.4862 13.5 16.5524 13.5 16.6187 13.5C16.6851 13.5 16.7517 13.5 16.8183 13.5C16.885 13.5 16.9519 13.5 17.0189 13.5C17.0859 13.5 17.153 13.5 17.2203 13.5C17.2876 13.5 17.3551 13.5 17.4227 13.5C17.4903 13.5 17.5581 13.5 17.626 13.5C17.694 13.5 17.762 13.5 17.8303 13.5C17.8985 13.5 17.9669 13.5 18.0354 13.5C18.1039 13.5 18.1726 13.5 18.2415 13.5C18.3103 13.5 18.3793 13.5 18.4484 13.5C18.5176 13.5 18.5868 13.5 18.6563 13.5C18.7257 13.5 18.7953 13.5 18.865 13.5C18.9348 13.5 19.0047 13.5 19.0747 13.5C19.1447 13.5 19.2149 13.5 19.2852 13.5C19.3555 13.5 19.426 13.5 19.4966 13.5C19.5672 13.5 19.638 13.5 19.7089 13.5C19.7798 13.5 19.8509 13.5 19.9221 13.5C19.9933 13.5 20.0646 13.5 20.1361 13.5C20.2076 13.5 20.2792 13.5 20.351 13.5C20.4228 13.5 20.4947 13.5 20.5667 13.5C20.6388 13.5 20.711 13.5 20.7833 13.5C20.8557 13.5 20.9281 13.5 21.0008 13.5C21.0734 13.5 21.1462 13.5 21.2191 13.5C21.292 13.5 21.365 13.5 21.4382 13.5C21.5114 13.5 21.5847 13.5 21.6581 13.5C21.7316 13.5 21.8052 13.5 21.8789 13.5C21.9527 13.5 22.0265 13.5 22.1005 13.5C22.1746 13.5 22.2487 13.5 22.323 13.5C22.3973 13.5 22.4717 13.5 22.5462 13.5C22.6208 13.5 22.6955 13.5 22.7703 13.5C22.8451 13.5 22.9201 13.5 22.9951 13.5C23.0702 13.5 23.1455 13.5 23.2208 13.5C23.2962 13.5 23.3716 13.5 23.4473 13.5C23.5229 13.5 23.5986 13.5 23.6745 13.5C23.7504 13.5 23.8264 13.5 23.9026 13.5C23.9787 13.5 24.055 13.5 24.1314 13.5C24.2078 13.5 24.2843 13.5 24.361 13.5C24.4376 13.5 24.5144 13.5 24.5913 13.5C24.6683 13.5 24.7453 13.5 24.8225 13.5C24.8996 13.5 24.9769 13.5 25.0544 13.5C25.1318 13.5 25.2093 13.5 25.287 13.5C25.3647 13.5 25.4425 13.5 25.5204 13.5C25.5984 13.5 25.6764 13.5 25.7546 13.5C25.8328 13.5 25.9111 13.5 25.9895 13.5C26.0679 13.5 26.1465 13.5 26.2251 13.5C26.3038 13.5 26.3826 13.5 26.4615 13.5C26.5404 13.5 26.6195 13.5 26.6986 13.5C26.7778 13.5 26.8571 13.5 26.9364 13.5C27.0158 13.5 27.0954 13.5 27.175 13.5C27.2546 13.5 27.3344 13.5 27.4143 13.5C27.4941 13.5 27.5741 13.5 27.6542 13.5C27.7344 13.5 27.8146 13.5 27.8949 13.5C27.9753 13.5 28.0557 13.5 28.1363 13.5C28.2169 13.5 28.2976 13.5 28.3784 13.5C28.4592 13.5 28.5401 13.5 28.6212 13.5C28.7022 13.5 28.7834 13.5 28.8646 13.5C28.9459 13.5 29.0273 13.5 29.1088 13.5C29.1903 13.5 29.2719 13.5 29.3536 13.5C29.4353 13.5 29.5172 13.5 29.5991 13.5C29.681 13.5 29.7631 13.5 29.8453 13.5C29.9274 13.5 30.0097 13.5 30.0921 13.5C30.1745 13.5 30.257 13.5 30.3396 13.5C30.4222 13.5 30.5049 13.5 30.5877 13.5C30.6705 13.5 30.7535 13.5 30.8365 13.5C30.9195 13.5 31.0027 13.5 31.0859 13.5C31.1692 13.5 31.2525 13.5 31.336 13.5C31.4195 13.5 31.503 13.5 31.5867 13.5C31.6704 13.5 31.7542 13.5 31.8381 13.5C31.9219 13.5 32.0059 13.5 32.09 13.5C32.1741 13.5 32.2583 13.5 32.3426 13.5C32.4269 13.5 32.5113 13.5 32.5958 13.5C32.6803 13.5 32.7649 13.5 32.8496 13.5C32.9343 13.5 33.0192 13.5 33.1041 13.5C33.189 13.5 33.274 13.5 33.3591 13.5C33.4442 13.5 33.5294 13.5 33.6147 13.5C33.7 13.5 33.7854 13.5 33.8709 13.5C33.9564 13.5 34.042 13.5 34.1277 13.5C34.2134 13.5 34.2992 13.5 34.3851 13.5C34.471 13.5 34.557 13.5 34.6431 13.5C34.7292 13.5 34.8154 13.5 34.9016 13.5C34.9879 13.5 35.0743 13.5 35.1607 13.5C35.2472 13.5 35.3338 13.5 35.4204 13.5C35.5071 13.5 35.5938 13.5 35.6807 13.5C35.7675 13.5 35.8544 13.5 35.9414 13.5C36.0285 13.5 36.1156 13.5 36.2028 13.5C36.29 13.5 36.3773 13.5 36.4647 13.5C36.5521 13.5 36.6395 13.5 36.7271 13.5C36.8147 13.5 36.9023 13.5 36.9901 13.5C37.0778 13.5 37.1656 13.5 37.2536 13.5C37.3415 13.5 37.4295 13.5 37.5176 13.5C37.6057 13.5 37.6939 13.5 37.7821 13.5C37.8704 13.5 37.9587 13.5 38.0472 13.5C38.1356 13.5 38.2241 13.5 38.3128 13.5C38.4014 13.5 38.4901 13.5 38.5788 13.5C38.6676 13.5 38.7565 13.5 38.8454 13.5C38.9344 13.5 39.0234 13.5 39.1125 13.5C39.2016 13.5 39.2908 13.5 39.3801 13.5C39.4694 13.5 39.5587 13.5 39.6481 13.5C39.7376 13.5 39.8271 13.5 39.9167 13.5C40.0063 13.5 40.096 13.5 40.1857 13.5C40.2755 13.5 40.3653 13.5 40.4552 13.5C40.5451 13.5 40.6351 13.5 40.7252 13.5C40.8153 13.5 40.9054 13.5 40.9956 13.5C41.0859 13.5 41.1762 13.5 41.2665 13.5C41.3569 13.5 41.4474 13.5 41.5379 13.5C41.6284 13.5 41.719 13.5 41.8097 13.5C41.9004 13.5 41.9911 13.5 42.082 13.5C42.1728 13.5 42.2637 13.5 42.3547 13.5C42.4456 13.5 42.5367 13.5 42.6278 13.5C42.7189 13.5 42.8101 13.5 42.9014 13.5C42.9926 13.5 43.084 13.5 43.1754 13.5C43.2668 13.5 43.3582 13.5 43.4498 13.5C43.5413 13.5 43.6329 13.5 43.7246 13.5C43.8163 13.5 43.908 13.5 43.9999 13.5C44.0917 13.5 44.1836 13.5 44.2755 13.5C44.3675 13.5 44.4595 13.5 44.5516 13.5C44.6437 13.5 44.7358 13.5 44.828 13.5C44.9203 13.5 45.0125 13.5 45.1049 13.5C45.1972 13.5 45.2897 13.5 45.3821 13.5C45.4746 13.5 45.5672 13.5 45.6598 13.5C45.7524 13.5 45.845 13.5 45.9378 13.5C46.0305 13.5 46.1233 13.5 46.2162 13.5C46.309 13.5 46.4019 13.5 46.4949 13.5C46.5879 13.5 46.681 13.5 46.7741 13.5C46.8672 13.5 46.9603 13.5 47.0535 13.5C47.1468 13.5 47.24 13.5 47.3334 13.5C47.4267 13.5 47.5201 13.5 47.6136 13.5C47.707 13.5 47.8005 13.5 47.8941 13.5C47.9877 13.5 48.0813 13.5 48.175 13.5C48.2687 13.5 48.3624 13.5 48.4562 13.5C48.55 13.5 48.6439 13.5 48.7378 13.5C48.8317 13.5 48.9256 13.5 49.0197 13.5C49.1137 13.5 49.2077 13.5 49.3019 13.5C49.396 13.5 49.4902 13.5 49.5844 13.5C49.6786 13.5 49.7729 13.5 49.8672 13.5C49.9616 13.5 50.056 13.5 50.1504 13.5C50.2448 13.5 50.3393 13.5 50.4338 13.5C50.5284 13.5 50.623 13.5 50.7176 13.5C50.8122 13.5 50.9069 13.5 51.0017 13.5C51.0964 13.5 51.1912 13.5 51.286 13.5C51.3808 13.5 51.4757 13.5 51.5706 13.5C51.6656 13.5 51.7605 13.5 51.8555 13.5C51.9506 13.5 52.0456 13.5 52.1407 13.5C52.2358 13.5 52.331 13.5 52.4262 13.5C52.5214 13.5 52.6166 13.5 52.7119 13.5C52.8072 13.5 52.9025 13.5 52.9979 13.5C53.0933 13.5 53.1887 13.5 53.2841 13.5C53.3796 13.5 53.4751 13.5 53.5706 13.5C53.6662 13.5 53.7618 13.5 53.8574 13.5C53.953 13.5 54.0487 13.5 54.1444 13.5C54.2401 13.5 54.3358 13.5 54.4316 13.5C54.5274 13.5 54.6232 13.5 54.7191 13.5C54.8149 13.5 54.9108 13.5 55.0068 13.5C55.1027 13.5 55.1987 13.5 55.2947 13.5C55.3907 13.5 55.4868 13.5 55.5828 13.5C55.6789 13.5 55.775 13.5 55.8712 13.5C55.9673 13.5 56.0635 13.5 56.1597 13.5C56.256 13.5 56.3522 13.5 56.4485 13.5C56.5448 13.5 56.6411 13.5 56.7375 13.5C56.8338 13.5 56.9302 13.5 57.0267 13.5C57.1231 13.5 57.2195 13.5 57.316 13.5C57.4125 13.5 57.509 13.5 57.6056 13.5C57.7021 13.5 57.7987 13.5 57.8953 13.5C57.9919 13.5 58.0885 13.5 58.1852 13.5C58.2819 13.5 58.3786 13.5 58.4753 13.5C58.572 13.5 58.6687 13.5 58.7655 13.5C58.8623 13.5 58.9591 13.5 59.0559 13.5C59.1528 13.5 59.2496 13.5 59.3465 13.5C59.4434 13.5 59.5403 13.5 59.6372 13.5C59.7342 13.5 59.8311 13.5 59.9281 13.5C60.0251 13.5 60.1221 13.5 60.2191 13.5C60.3161 13.5 60.4132 13.5 60.5103 13.5C60.6073 13.5 60.7044 13.5 60.8016 13.5C60.8987 13.5 60.9958 13.5 61.093 13.5C61.1901 13.5 61.2873 13.5 61.3845 13.5C61.4817 13.5 61.5789 13.5 61.6762 13.5C61.7734 13.5 61.8707 13.5 61.968 13.5C62.0653 13.5 62.1625 13.5 62.2599 13.5C62.3572 13.5 62.4545 13.5 62.5519 13.5C62.6492 13.5 62.7466 13.5 62.844 13.5C62.9414 13.5 63.0388 13.5 63.1362 13.5C63.2336 13.5 63.331 13.5 63.4285 13.5C63.5259 13.5 63.6234 13.5 63.7208 13.5C63.8183 13.5 63.9158 13.5 64.0133 13.5C64.1108 13.5 64.2083 13.5 64.3058 13.5C64.4034 13.5 64.5009 13.5 64.5985 13.5C64.696 13.5 64.7936 13.5 64.8912 13.5C64.9887 13.5 65.0863 13.5 65.1839 13.5C65.2815 13.5 65.3791 13.5 65.4767 13.5C65.5743 13.5 65.6719 13.5 65.7696 13.5C65.8672 13.5 65.9648 13.5 66.0625 13.5C66.1601 13.5 66.2578 13.5 66.3554 13.5C66.4531 13.5 66.5508 13.5 66.6484 13.5C66.7461 13.5 66.8438 13.5 66.9415 13.5C67.0392 13.5 67.1368 13.5 67.2345 13.5C67.3322 13.5 67.4299 13.5 67.5276 13.5C67.6253 13.5 67.723 13.5 67.8207 13.5C67.9184 13.5 68.0162 13.5 68.1139 13.5C68.2116 13.5 68.3093 13.5 68.407 13.5C68.5047 13.5 68.6025 13.5 68.7002 13.5C68.7979 13.5 68.8956 13.5 68.9933 13.5C69.091 13.5 69.1888 13.5 69.2865 13.5C69.3842 13.5 69.4819 13.5 69.5796 13.5C69.6773 13.5 69.775 13.5 69.8728 13.5C69.9705 13.5 70.0682 13.5 70.1659 13.5C70.2636 13.5 70.3613 13.5 70.459 13.5C70.5567 13.5 70.6544 13.5 70.752 13.5C70.8497 13.5 70.9474 13.5 71.0451 13.5C71.1428 13.5 71.2404 13.5 71.3381 13.5C71.4357 13.5 71.5334 13.5 71.6311 13.5C71.7287 13.5 71.8263 13.5 71.924 13.5C72.0216 13.5 72.1192 13.5 72.2169 13.5C72.3145 13.5 72.4121 13.5 72.5097 13.5C72.6073 13.5 72.7048 13.5 72.8024 13.5C72.9 13.5 72.9976 13.5 73.0951 13.5C73.1927 13.5 73.2902 13.5 73.3878 13.5C73.4853 13.5 73.5828 13.5 73.6803 13.5C73.7778 13.5 73.8753 13.5 73.9728 13.5C74.0703 13.5 74.1677 13.5 74.2652 13.5C74.3626 13.5 74.4601 13.5 74.5575 13.5C74.6549 13.5 74.7523 13.5 74.8497 13.5C74.9471 13.5 75.0445 13.5 75.1418 13.5C75.2392 13.5 75.3365 13.5 75.4339 13.5C75.5312 13.5 75.6285 13.5 75.7258 13.5C75.8231 13.5 75.9203 13.5 76.0176 13.5C76.1148 13.5 76.2121 13.5 76.3093 13.5C76.4065 13.5 76.5037 13.5 76.6008 13.5C76.698 13.5 76.7952 13.5 76.8923 13.5C76.9894 13.5 77.0865 13.5 77.1836 13.5C77.2807 13.5 77.3777 13.5 77.4748 13.5C77.5718 13.5 77.6688 13.5 77.7658 13.5C77.8628 13.5 77.9598 13.5 78.0567 13.5C78.1537 13.5 78.2506 13.5 78.3475 13.5C78.4444 13.5 78.5412 13.5 78.6381 13.5C78.7349 13.5 78.8317 13.5 78.9285 13.5C79.0253 13.5 79.1221 13.5 79.2188 13.5C79.3155 13.5 79.4122 13.5 79.5089 13.5C79.6056 13.5 79.7022 13.5 79.7988 13.5C79.8955 13.5 79.992 13.5 80.0886 13.5C80.1852 13.5 80.2817 13.5 80.3782 13.5C80.4747 13.5 80.5711 13.5 80.6676 13.5C80.764 13.5 80.8604 13.5 80.9568 13.5C81.0532 13.5 81.1495 13.5 81.2458 13.5C81.3421 13.5 81.4384 13.5 81.5346 13.5C81.6308 13.5 81.727 13.5 81.8232 13.5C81.9194 13.5 82.0155 13.5 82.1116 13.5C82.2077 13.5 82.3038 13.5 82.3998 13.5C82.4958 13.5 82.5918 13.5 82.6877 13.5C82.7837 13.5 82.8796 13.5 82.9755 13.5C83.0714 13.5 83.1672 13.5 83.263 13.5C83.3588 13.5 83.4545 13.5 83.5503 13.5C83.646 13.5 83.7417 13.5 83.8373 13.5C83.9329 13.5 84.0285 13.5 84.1241 13.5C84.2197 13.5 84.3152 13.5 84.4106 13.5C84.5061 13.5 84.6015 13.5 84.6969 13.5C84.7923 13.5 84.8877 13.5 84.983 13.5C85.0783 13.5 85.1735 13.5 85.2688 13.5C85.364 13.5 85.4591 13.5 85.5543 13.5C85.6494 13.5 85.7445 13.5 85.8395 13.5C85.9345 13.5 86.0295 13.5 86.1245 13.5C86.2194 13.5 86.3143 13.5 86.4091 13.5C86.504 13.5 86.5988 13.5 86.6936 13.5C86.7883 13.5 86.883 13.5 86.9777 13.5C87.0723 13.5 87.1669 13.5 87.2615 13.5C87.356 13.5 87.4505 13.5 87.545 13.5C87.6394 13.5 87.7338 13.5 87.8282 13.5C87.9225 13.5 88.0168 13.5 88.1111 13.5C88.2053 13.5 88.2995 13.5 88.3937 13.5C88.4878 13.5 88.5819 13.5 88.676 13.5C88.77 13.5 88.864 13.5 88.9579 13.5C89.0518 13.5 89.1457 13.5 89.2395 13.5C89.3333 13.5 89.4271 13.5 89.5208 13.5C89.6145 13.5 89.7082 13.5 89.8018 13.5C89.8954 13.5 89.9889 13.5 90.0824 13.5C90.1758 13.5 90.2693 13.5 90.3626 13.5C90.456 13.5 90.5493 13.5 90.6425 13.5C90.7358 13.5 90.829 13.5 90.9221 13.5C91.0152 13.5 91.1083 13.5 91.2013 13.5C91.2943 13.5 91.3872 13.5 91.4801 13.5C91.573 13.5 91.6658 13.5 91.7586 13.5C91.8513 13.5 91.944 13.5 92.0367 13.5C92.1293 13.5 92.2219 13.5 92.3144 13.5C92.4069 13.5 92.4993 13.5 92.5917 13.5C92.6841 13.5 92.7764 13.5 92.8686 13.5C92.9609 13.5 93.053 13.5 93.1451 13.5C93.2373 13.5 93.3293 13.5 93.4213 13.5C93.5133 13.5 93.6052 13.5 93.697 13.5C93.7889 13.5 93.8806 13.5 93.9724 13.5C94.0641 13.5 94.1557 13.5 94.2473 13.5C94.3388 13.5 94.4303 13.5 94.5218 13.5C94.6132 13.5 94.7046 13.5 94.7958 13.5C94.8871 13.5 94.9783 13.5 95.0695 13.5C95.1606 13.5 95.2517 13.5 95.3427 13.5C95.4337 13.5 95.5246 13.5 95.6155 13.5C95.7063 13.5 95.7971 13.5 95.8878 13.5C95.9785 13.5 96.0692 13.5 96.1597 13.5C96.2503 13.5 96.3408 13.5 96.4312 13.5C96.5216 13.5 96.6119 13.5 96.7022 13.5C96.7924 13.5 96.8826 13.5 96.9727 13.5C97.0628 13.5 97.1528 13.5 97.2427 13.5C97.3327 13.5 97.4226 13.5 97.5123 13.5C97.6021 13.5 97.6918 13.5 97.7815 13.5C97.8711 13.5 97.9606 13.5 98.0501 13.5C98.1396 13.5 98.229 13.5 98.3183 13.5C98.4076 13.5 98.4968 13.5 98.5859 13.5C98.6751 13.5 98.7641 13.5 98.8531 13.5C98.9421 13.5 99.031 13.5 99.1198 13.5C99.2086 13.5 99.2973 13.5 99.386 13.5C99.4746 13.5 99.5632 13.5 99.6516 13.5C99.7401 13.5 99.8285 13.5 99.9168 13.5C100.005 13.5 100.093 13.5 100.181 13.5C100.27 13.5 100.358 13.5 100.446 13.5C100.534 13.5 100.621 13.5 100.709 13.5C100.797 13.5 100.885 13.5 100.972 13.5C101.06 13.5 101.147 13.5 101.235 13.5C101.322 13.5 101.41 13.5 101.497 13.5C101.584 13.5 101.671 13.5 101.758 13.5C101.845 13.5 101.932 13.5 102.019 13.5C102.106 13.5 102.193 13.5 102.279 13.5C102.366 13.5 102.453 13.5 102.539 13.5C102.626 13.5 102.712 13.5 102.798 13.5C102.885 13.5 102.971 13.5 103.057 13.5C103.143 13.5 103.229 13.5 103.315 13.5C103.401 13.5 103.487 13.5 103.573 13.5C103.658 13.5 103.744 13.5 103.83 13.5C103.915 13.5 104.001 13.5 104.086 13.5C104.171 13.5 104.257 13.5 104.342 13.5C104.427 13.5 104.512 13.5 104.597 13.5C104.682 13.5 104.767 13.5 104.851 13.5C104.936 13.5 105.021 13.5 105.105 13.5C105.19 13.5 105.274 13.5 105.359 13.5C105.443 13.5 105.527 13.5 105.611 13.5C105.695 13.5 105.779 13.5 105.863 13.5C105.947 13.5 106.031 13.5 106.115 13.5C106.199 13.5 106.282 13.5 106.366 13.5C106.449 13.5 106.533 13.5 106.616 13.5C106.699 13.5 106.782 13.5 106.865 13.5C106.949 13.5 107.031 13.5 107.114 13.5C107.197 13.5 107.28 13.5 107.363 13.5C107.445 13.5 107.528 13.5 107.61 13.5C107.693 13.5 107.775 13.5 107.857 13.5C107.939 13.5 108.021 13.5 108.103 13.5C108.185 13.5 108.267 13.5 108.349 13.5C108.431 13.5 108.513 13.5 108.594 13.5C108.676 13.5 108.757 13.5 108.838 13.5C108.92 13.5 109.001 13.5 109.082 13.5C109.163 13.5 109.244 13.5 109.325 13.5C109.406 13.5 109.486 13.5 109.567 13.5C109.648 13.5 109.728 13.5 109.809 13.5C109.889 13.5 109.969 13.5 110.049 13.5C110.13 13.5 110.21 13.5 110.289 13.5C110.369 13.5 110.449 13.5 110.529 13.5C110.609 13.5 110.688 13.5 110.768 13.5C110.847 13.5 110.926 13.5 111.006 13.5C111.085 13.5 111.164 13.5 111.243 13.5C111.322 13.5 111.401 13.5 111.479 13.5C111.558 13.5 111.637 13.5 111.715 13.5C111.794 13.5 111.872 13.5 111.95 13.5C112.028 13.5 112.106 13.5 112.184 13.5C112.262 13.5 112.34 13.5 112.418 13.5C112.496 13.5 112.573 13.5 112.651 13.5C112.728 13.5 112.806 13.5 112.883 13.5C112.96 13.5 113.037 13.5 113.114 13.5C113.191 13.5 113.268 13.5 113.345 13.5C113.421 13.5 113.498 13.5 113.574 13.5C113.651 13.5 113.727 13.5 113.803 13.5C113.88 13.5 113.956 13.5 114.032 13.5C114.107 13.5 114.183 13.5 114.259 13.5C114.335 13.5 114.41 13.5 114.486 13.5C114.561 13.5 114.636 13.5 114.711 13.5C114.786 13.5 114.862 13.5 114.936 13.5C115.011 13.5 115.086 13.5 115.161 13.5C115.235 13.5 115.31 13.5 115.384 13.5C115.458 13.5 115.533 13.5 115.607 13.5C115.681 13.5 115.755 13.5 115.828 13.5C115.902 13.5 115.976 13.5 116.049 13.5C116.123 13.5 116.196 13.5 116.269 13.5C116.343 13.5 116.416 13.5 116.489 13.5C116.562 13.5 116.634 13.5 116.707 13.5C116.78 13.5 116.852 13.5 116.925 13.5C116.997 13.5 117.069 13.5 117.142 13.5C117.214 13.5 117.286 13.5 117.357 13.5C117.429 13.5 117.501 13.5 117.572 13.5C117.644 13.5 117.715 13.5 117.787 13.5C117.858 13.5 117.929 13.5 118 13.5V10.5C117.929 10.5 117.858 10.5 117.787 10.5C117.715 10.5 117.644 10.5 117.572 10.5C117.501 10.5 117.429 10.5 117.357 10.5C117.286 10.5 117.214 10.5 117.142 10.5C117.069 10.5 116.997 10.5 116.925 10.5C116.852 10.5 116.78 10.5 116.707 10.5C116.634 10.5 116.562 10.5 116.489 10.5C116.416 10.5 116.343 10.5 116.269 10.5C116.196 10.5 116.123 10.5 116.049 10.5C115.976 10.5 115.902 10.5 115.828 10.5C115.755 10.5 115.681 10.5 115.607 10.5C115.533 10.5 115.458 10.5 115.384 10.5C115.31 10.5 115.235 10.5 115.161 10.5C115.086 10.5 115.011 10.5 114.936 10.5C114.862 10.5 114.786 10.5 114.711 10.5C114.636 10.5 114.561 10.5 114.486 10.5C114.41 10.5 114.335 10.5 114.259 10.5C114.183 10.5 114.107 10.5 114.032 10.5C113.956 10.5 113.88 10.5 113.803 10.5C113.727 10.5 113.651 10.5 113.574 10.5C113.498 10.5 113.421 10.5 113.345 10.5C113.268 10.5 113.191 10.5 113.114 10.5C113.037 10.5 112.96 10.5 112.883 10.5C112.806 10.5 112.728 10.5 112.651 10.5C112.573 10.5 112.496 10.5 112.418 10.5C112.34 10.5 112.262 10.5 112.184 10.5C112.106 10.5 112.028 10.5 111.95 10.5C111.872 10.5 111.794 10.5 111.715 10.5C111.637 10.5 111.558 10.5 111.479 10.5C111.401 10.5 111.322 10.5 111.243 10.5C111.164 10.5 111.085 10.5 111.006 10.5C110.926 10.5 110.847 10.5 110.768 10.5C110.688 10.5 110.609 10.5 110.529 10.5C110.449 10.5 110.369 10.5 110.289 10.5C110.21 10.5 110.13 10.5 110.049 10.5C109.969 10.5 109.889 10.5 109.809 10.5C109.728 10.5 109.648 10.5 109.567 10.5C109.486 10.5 109.406 10.5 109.325 10.5C109.244 10.5 109.163 10.5 109.082 10.5C109.001 10.5 108.92 10.5 108.838 10.5C108.757 10.5 108.676 10.5 108.594 10.5C108.513 10.5 108.431 10.5 108.349 10.5C108.267 10.5 108.185 10.5 108.103 10.5C108.021 10.5 107.939 10.5 107.857 10.5C107.775 10.5 107.693 10.5 107.61 10.5C107.528 10.5 107.445 10.5 107.363 10.5C107.28 10.5 107.197 10.5 107.114 10.5C107.031 10.5 106.949 10.5 106.865 10.5C106.782 10.5 106.699 10.5 106.616 10.5C106.533 10.5 106.449 10.5 106.366 10.5C106.282 10.5 106.199 10.5 106.115 10.5C106.031 10.5 105.947 10.5 105.863 10.5C105.779 10.5 105.695 10.5 105.611 10.5C105.527 10.5 105.443 10.5 105.359 10.5C105.274 10.5 105.19 10.5 105.105 10.5C105.021 10.5 104.936 10.5 104.851 10.5C104.767 10.5 104.682 10.5 104.597 10.5C104.512 10.5 104.427 10.5 104.342 10.5C104.257 10.5 104.171 10.5 104.086 10.5C104.001 10.5 103.915 10.5 103.83 10.5C103.744 10.5 103.658 10.5 103.573 10.5C103.487 10.5 103.401 10.5 103.315 10.5C103.229 10.5 103.143 10.5 103.057 10.5C102.971 10.5 102.885 10.5 102.798 10.5C102.712 10.5 102.626 10.5 102.539 10.5C102.453 10.5 102.366 10.5 102.279 10.5C102.193 10.5 102.106 10.5 102.019 10.5C101.932 10.5 101.845 10.5 101.758 10.5C101.671 10.5 101.584 10.5 101.497 10.5C101.41 10.5 101.322 10.5 101.235 10.5C101.147 10.5 101.06 10.5 100.972 10.5C100.885 10.5 100.797 10.5 100.709 10.5C100.621 10.5 100.534 10.5 100.446 10.5C100.358 10.5 100.27 10.5 100.181 10.5C100.093 10.5 100.005 10.5 99.9168 10.5C99.8285 10.5 99.7401 10.5 99.6516 10.5C99.5632 10.5 99.4746 10.5 99.386 10.5C99.2973 10.5 99.2086 10.5 99.1198 10.5C99.031 10.5 98.9421 10.5 98.8531 10.5C98.7641 10.5 98.6751 10.5 98.5859 10.5C98.4968 10.5 98.4076 10.5 98.3183 10.5C98.229 10.5 98.1396 10.5 98.0501 10.5C97.9606 10.5 97.8711 10.5 97.7815 10.5C97.6918 10.5 97.6021 10.5 97.5123 10.5C97.4226 10.5 97.3327 10.5 97.2427 10.5C97.1528 10.5 97.0628 10.5 96.9727 10.5C96.8826 10.5 96.7924 10.5 96.7022 10.5C96.6119 10.5 96.5216 10.5 96.4312 10.5C96.3408 10.5 96.2503 10.5 96.1597 10.5C96.0692 10.5 95.9785 10.5 95.8878 10.5C95.7971 10.5 95.7063 10.5 95.6155 10.5C95.5246 10.5 95.4337 10.5 95.3427 10.5C95.2517 10.5 95.1606 10.5 95.0695 10.5C94.9783 10.5 94.8871 10.5 94.7958 10.5C94.7046 10.5 94.6132 10.5 94.5218 10.5C94.4303 10.5 94.3388 10.5 94.2473 10.5C94.1557 10.5 94.0641 10.5 93.9724 10.5C93.8806 10.5 93.7889 10.5 93.697 10.5C93.6052 10.5 93.5133 10.5 93.4213 10.5C93.3293 10.5 93.2373 10.5 93.1451 10.5C93.053 10.5 92.9609 10.5 92.8686 10.5C92.7764 10.5 92.6841 10.5 92.5917 10.5C92.4993 10.5 92.4069 10.5 92.3144 10.5C92.2219 10.5 92.1293 10.5 92.0367 10.5C91.944 10.5 91.8513 10.5 91.7586 10.5C91.6658 10.5 91.573 10.5 91.4801 10.5C91.3872 10.5 91.2943 10.5 91.2013 10.5C91.1083 10.5 91.0152 10.5 90.9221 10.5C90.829 10.5 90.7358 10.5 90.6425 10.5C90.5493 10.5 90.456 10.5 90.3626 10.5C90.2693 10.5 90.1758 10.5 90.0824 10.5C89.9889 10.5 89.8954 10.5 89.8018 10.5C89.7082 10.5 89.6145 10.5 89.5208 10.5C89.4271 10.5 89.3333 10.5 89.2395 10.5C89.1457 10.5 89.0518 10.5 88.9579 10.5C88.864 10.5 88.77 10.5 88.676 10.5C88.5819 10.5 88.4878 10.5 88.3937 10.5C88.2995 10.5 88.2053 10.5 88.1111 10.5C88.0168 10.5 87.9225 10.5 87.8282 10.5C87.7338 10.5 87.6394 10.5 87.545 10.5C87.4505 10.5 87.356 10.5 87.2615 10.5C87.1669 10.5 87.0723 10.5 86.9777 10.5C86.883 10.5 86.7883 10.5 86.6936 10.5C86.5988 10.5 86.504 10.5 86.4091 10.5C86.3143 10.5 86.2194 10.5 86.1245 10.5C86.0295 10.5 85.9345 10.5 85.8395 10.5C85.7445 10.5 85.6494 10.5 85.5543 10.5C85.4591 10.5 85.364 10.5 85.2688 10.5C85.1735 10.5 85.0783 10.5 84.983 10.5C84.8877 10.5 84.7923 10.5 84.6969 10.5C84.6015 10.5 84.5061 10.5 84.4106 10.5C84.3152 10.5 84.2197 10.5 84.1241 10.5C84.0285 10.5 83.9329 10.5 83.8373 10.5C83.7417 10.5 83.646 10.5 83.5503 10.5C83.4545 10.5 83.3588 10.5 83.263 10.5C83.1672 10.5 83.0714 10.5 82.9755 10.5C82.8796 10.5 82.7837 10.5 82.6877 10.5C82.5918 10.5 82.4958 10.5 82.3998 10.5C82.3038 10.5 82.2077 10.5 82.1116 10.5C82.0155 10.5 81.9194 10.5 81.8232 10.5C81.727 10.5 81.6308 10.5 81.5346 10.5C81.4384 10.5 81.3421 10.5 81.2458 10.5C81.1495 10.5 81.0532 10.5 80.9568 10.5C80.8604 10.5 80.764 10.5 80.6676 10.5C80.5711 10.5 80.4747 10.5 80.3782 10.5C80.2817 10.5 80.1852 10.5 80.0886 10.5C79.992 10.5 79.8955 10.5 79.7988 10.5C79.7022 10.5 79.6056 10.5 79.5089 10.5C79.4122 10.5 79.3155 10.5 79.2188 10.5C79.1221 10.5 79.0253 10.5 78.9285 10.5C78.8317 10.5 78.7349 10.5 78.6381 10.5C78.5412 10.5 78.4444 10.5 78.3475 10.5C78.2506 10.5 78.1537 10.5 78.0567 10.5C77.9598 10.5 77.8628 10.5 77.7658 10.5C77.6688 10.5 77.5718 10.5 77.4748 10.5C77.3777 10.5 77.2807 10.5 77.1836 10.5C77.0865 10.5 76.9894 10.5 76.8923 10.5C76.7952 10.5 76.698 10.5 76.6008 10.5C76.5037 10.5 76.4065 10.5 76.3093 10.5C76.2121 10.5 76.1148 10.5 76.0176 10.5C75.9203 10.5 75.8231 10.5 75.7258 10.5C75.6285 10.5 75.5312 10.5 75.4339 10.5C75.3365 10.5 75.2392 10.5 75.1418 10.5C75.0445 10.5 74.9471 10.5 74.8497 10.5C74.7523 10.5 74.6549 10.5 74.5575 10.5C74.4601 10.5 74.3626 10.5 74.2652 10.5C74.1677 10.5 74.0703 10.5 73.9728 10.5C73.8753 10.5 73.7778 10.5 73.6803 10.5C73.5828 10.5 73.4853 10.5 73.3878 10.5C73.2902 10.5 73.1927 10.5 73.0951 10.5C72.9976 10.5 72.9 10.5 72.8024 10.5C72.7048 10.5 72.6073 10.5 72.5097 10.5C72.4121 10.5 72.3145 10.5 72.2169 10.5C72.1192 10.5 72.0216 10.5 71.924 10.5C71.8263 10.5 71.7287 10.5 71.6311 10.5C71.5334 10.5 71.4357 10.5 71.3381 10.5C71.2404 10.5 71.1428 10.5 71.0451 10.5C70.9474 10.5 70.8497 10.5 70.752 10.5C70.6544 10.5 70.5567 10.5 70.459 10.5C70.3613 10.5 70.2636 10.5 70.1659 10.5C70.0682 10.5 69.9705 10.5 69.8728 10.5C69.775 10.5 69.6773 10.5 69.5796 10.5C69.4819 10.5 69.3842 10.5 69.2865 10.5C69.1888 10.5 69.091 10.5 68.9933 10.5C68.8956 10.5 68.7979 10.5 68.7002 10.5C68.6025 10.5 68.5047 10.5 68.407 10.5C68.3093 10.5 68.2116 10.5 68.1139 10.5C68.0162 10.5 67.9184 10.5 67.8207 10.5C67.723 10.5 67.6253 10.5 67.5276 10.5C67.4299 10.5 67.3322 10.5 67.2345 10.5C67.1368 10.5 67.0392 10.5 66.9415 10.5C66.8438 10.5 66.7461 10.5 66.6484 10.5C66.5508 10.5 66.4531 10.5 66.3554 10.5C66.2578 10.5 66.1601 10.5 66.0625 10.5C65.9648 10.5 65.8672 10.5 65.7696 10.5C65.6719 10.5 65.5743 10.5 65.4767 10.5C65.3791 10.5 65.2815 10.5 65.1839 10.5C65.0863 10.5 64.9887 10.5 64.8912 10.5C64.7936 10.5 64.696 10.5 64.5985 10.5C64.5009 10.5 64.4034 10.5 64.3058 10.5C64.2083 10.5 64.1108 10.5 64.0133 10.5C63.9158 10.5 63.8183 10.5 63.7208 10.5C63.6234 10.5 63.5259 10.5 63.4285 10.5C63.331 10.5 63.2336 10.5 63.1362 10.5C63.0388 10.5 62.9414 10.5 62.844 10.5C62.7466 10.5 62.6492 10.5 62.5519 10.5C62.4545 10.5 62.3572 10.5 62.2599 10.5C62.1625 10.5 62.0653 10.5 61.968 10.5C61.8707 10.5 61.7734 10.5 61.6762 10.5C61.5789 10.5 61.4817 10.5 61.3845 10.5C61.2873 10.5 61.1901 10.5 61.093 10.5C60.9958 10.5 60.8987 10.5 60.8016 10.5C60.7044 10.5 60.6073 10.5 60.5103 10.5C60.4132 10.5 60.3161 10.5 60.2191 10.5C60.1221 10.5 60.0251 10.5 59.9281 10.5C59.8311 10.5 59.7342 10.5 59.6372 10.5C59.5403 10.5 59.4434 10.5 59.3465 10.5C59.2496 10.5 59.1528 10.5 59.0559 10.5C58.9591 10.5 58.8623 10.5 58.7655 10.5C58.6687 10.5 58.572 10.5 58.4753 10.5C58.3786 10.5 58.2819 10.5 58.1852 10.5C58.0885 10.5 57.9919 10.5 57.8953 10.5C57.7987 10.5 57.7021 10.5 57.6056 10.5C57.509 10.5 57.4125 10.5 57.316 10.5C57.2195 10.5 57.1231 10.5 57.0267 10.5C56.9302 10.5 56.8338 10.5 56.7375 10.5C56.6411 10.5 56.5448 10.5 56.4485 10.5C56.3522 10.5 56.256 10.5 56.1597 10.5C56.0635 10.5 55.9673 10.5 55.8712 10.5C55.775 10.5 55.6789 10.5 55.5828 10.5C55.4868 10.5 55.3907 10.5 55.2947 10.5C55.1987 10.5 55.1027 10.5 55.0068 10.5C54.9108 10.5 54.8149 10.5 54.7191 10.5C54.6232 10.5 54.5274 10.5 54.4316 10.5C54.3358 10.5 54.2401 10.5 54.1444 10.5C54.0487 10.5 53.953 10.5 53.8574 10.5C53.7618 10.5 53.6662 10.5 53.5706 10.5C53.4751 10.5 53.3796 10.5 53.2841 10.5C53.1887 10.5 53.0933 10.5 52.9979 10.5C52.9025 10.5 52.8072 10.5 52.7119 10.5C52.6166 10.5 52.5214 10.5 52.4262 10.5C52.331 10.5 52.2358 10.5 52.1407 10.5C52.0456 10.5 51.9506 10.5 51.8555 10.5C51.7605 10.5 51.6656 10.5 51.5706 10.5C51.4757 10.5 51.3808 10.5 51.286 10.5C51.1912 10.5 51.0964 10.5 51.0017 10.5C50.9069 10.5 50.8122 10.5 50.7176 10.5C50.623 10.5 50.5284 10.5 50.4338 10.5C50.3393 10.5 50.2448 10.5 50.1504 10.5C50.056 10.5 49.9616 10.5 49.8672 10.5C49.7729 10.5 49.6786 10.5 49.5844 10.5C49.4902 10.5 49.396 10.5 49.3019 10.5C49.2077 10.5 49.1137 10.5 49.0197 10.5C48.9256 10.5 48.8317 10.5 48.7378 10.5C48.6439 10.5 48.55 10.5 48.4562 10.5C48.3624 10.5 48.2687 10.5 48.175 10.5C48.0813 10.5 47.9877 10.5 47.8941 10.5C47.8005 10.5 47.707 10.5 47.6136 10.5C47.5201 10.5 47.4267 10.5 47.3334 10.5C47.24 10.5 47.1468 10.5 47.0535 10.5C46.9603 10.5 46.8672 10.5 46.7741 10.5C46.681 10.5 46.5879 10.5 46.4949 10.5C46.4019 10.5 46.309 10.5 46.2162 10.5C46.1233 10.5 46.0305 10.5 45.9378 10.5C45.845 10.5 45.7524 10.5 45.6598 10.5C45.5672 10.5 45.4746 10.5 45.3821 10.5C45.2897 10.5 45.1972 10.5 45.1049 10.5C45.0125 10.5 44.9203 10.5 44.828 10.5C44.7358 10.5 44.6437 10.5 44.5516 10.5C44.4595 10.5 44.3675 10.5 44.2755 10.5C44.1836 10.5 44.0917 10.5 43.9999 10.5C43.908 10.5 43.8163 10.5 43.7246 10.5C43.6329 10.5 43.5413 10.5 43.4498 10.5C43.3582 10.5 43.2668 10.5 43.1754 10.5C43.084 10.5 42.9926 10.5 42.9014 10.5C42.8101 10.5 42.7189 10.5 42.6278 10.5C42.5367 10.5 42.4456 10.5 42.3547 10.5C42.2637 10.5 42.1728 10.5 42.082 10.5C41.9911 10.5 41.9004 10.5 41.8097 10.5C41.719 10.5 41.6284 10.5 41.5379 10.5C41.4474 10.5 41.3569 10.5 41.2665 10.5C41.1762 10.5 41.0859 10.5 40.9956 10.5C40.9054 10.5 40.8153 10.5 40.7252 10.5C40.6351 10.5 40.5451 10.5 40.4552 10.5C40.3653 10.5 40.2755 10.5 40.1857 10.5C40.096 10.5 40.0063 10.5 39.9167 10.5C39.8271 10.5 39.7376 10.5 39.6481 10.5C39.5587 10.5 39.4694 10.5 39.3801 10.5C39.2908 10.5 39.2016 10.5 39.1125 10.5C39.0234 10.5 38.9344 10.5 38.8454 10.5C38.7565 10.5 38.6676 10.5 38.5788 10.5C38.4901 10.5 38.4014 10.5 38.3128 10.5C38.2241 10.5 38.1356 10.5 38.0472 10.5C37.9587 10.5 37.8704 10.5 37.7821 10.5C37.6939 10.5 37.6057 10.5 37.5176 10.5C37.4295 10.5 37.3415 10.5 37.2536 10.5C37.1656 10.5 37.0778 10.5 36.9901 10.5C36.9023 10.5 36.8147 10.5 36.7271 10.5C36.6395 10.5 36.5521 10.5 36.4647 10.5C36.3773 10.5 36.29 10.5 36.2028 10.5C36.1156 10.5 36.0285 10.5 35.9414 10.5C35.8544 10.5 35.7675 10.5 35.6807 10.5C35.5938 10.5 35.5071 10.5 35.4204 10.5C35.3338 10.5 35.2472 10.5 35.1607 10.5C35.0743 10.5 34.9879 10.5 34.9016 10.5C34.8154 10.5 34.7292 10.5 34.6431 10.5C34.557 10.5 34.471 10.5 34.3851 10.5C34.2992 10.5 34.2134 10.5 34.1277 10.5C34.042 10.5 33.9564 10.5 33.8709 10.5C33.7854 10.5 33.7 10.5 33.6147 10.5C33.5294 10.5 33.4442 10.5 33.3591 10.5C33.274 10.5 33.189 10.5 33.1041 10.5C33.0192 10.5 32.9343 10.5 32.8496 10.5C32.7649 10.5 32.6803 10.5 32.5958 10.5C32.5113 10.5 32.4269 10.5 32.3426 10.5C32.2583 10.5 32.1741 10.5 32.09 10.5C32.0059 10.5 31.9219 10.5 31.8381 10.5C31.7542 10.5 31.6704 10.5 31.5867 10.5C31.503 10.5 31.4195 10.5 31.336 10.5C31.2525 10.5 31.1692 10.5 31.0859 10.5C31.0027 10.5 30.9195 10.5 30.8365 10.5C30.7535 10.5 30.6705 10.5 30.5877 10.5C30.5049 10.5 30.4222 10.5 30.3396 10.5C30.257 10.5 30.1745 10.5 30.0921 10.5C30.0097 10.5 29.9274 10.5 29.8453 10.5C29.7631 10.5 29.681 10.5 29.5991 10.5C29.5172 10.5 29.4353 10.5 29.3536 10.5C29.2719 10.5 29.1903 10.5 29.1088 10.5C29.0273 10.5 28.9459 10.5 28.8646 10.5C28.7834 10.5 28.7022 10.5 28.6212 10.5C28.5401 10.5 28.4592 10.5 28.3784 10.5C28.2976 10.5 28.2169 10.5 28.1363 10.5C28.0557 10.5 27.9753 10.5 27.8949 10.5C27.8146 10.5 27.7344 10.5 27.6542 10.5C27.5741 10.5 27.4941 10.5 27.4143 10.5C27.3344 10.5 27.2546 10.5 27.175 10.5C27.0954 10.5 27.0158 10.5 26.9364 10.5C26.8571 10.5 26.7778 10.5 26.6986 10.5C26.6195 10.5 26.5404 10.5 26.4615 10.5C26.3826 10.5 26.3038 10.5 26.2251 10.5C26.1465 10.5 26.0679 10.5 25.9895 10.5C25.9111 10.5 25.8328 10.5 25.7546 10.5C25.6764 10.5 25.5984 10.5 25.5204 10.5C25.4425 10.5 25.3647 10.5 25.287 10.5C25.2093 10.5 25.1318 10.5 25.0544 10.5C24.9769 10.5 24.8996 10.5 24.8225 10.5C24.7453 10.5 24.6683 10.5 24.5913 10.5C24.5144 10.5 24.4376 10.5 24.361 10.5C24.2843 10.5 24.2078 10.5 24.1314 10.5C24.055 10.5 23.9787 10.5 23.9026 10.5C23.8264 10.5 23.7504 10.5 23.6745 10.5C23.5986 10.5 23.5229 10.5 23.4473 10.5C23.3716 10.5 23.2962 10.5 23.2208 10.5C23.1455 10.5 23.0702 10.5 22.9951 10.5C22.9201 10.5 22.8451 10.5 22.7703 10.5C22.6955 10.5 22.6208 10.5 22.5462 10.5C22.4717 10.5 22.3973 10.5 22.323 10.5C22.2487 10.5 22.1746 10.5 22.1005 10.5C22.0265 10.5 21.9527 10.5 21.8789 10.5C21.8052 10.5 21.7316 10.5 21.6581 10.5C21.5847 10.5 21.5114 10.5 21.4382 10.5C21.365 10.5 21.292 10.5 21.2191 10.5C21.1462 10.5 21.0734 10.5 21.0008 10.5C20.9281 10.5 20.8557 10.5 20.7833 10.5C20.711 10.5 20.6388 10.5 20.5667 10.5C20.4947 10.5 20.4228 10.5 20.351 10.5C20.2792 10.5 20.2076 10.5 20.1361 10.5C20.0646 10.5 19.9933 10.5 19.9221 10.5C19.8509 10.5 19.7798 10.5 19.7089 10.5C19.638 10.5 19.5672 10.5 19.4966 10.5C19.426 10.5 19.3555 10.5 19.2852 10.5C19.2149 10.5 19.1447 10.5 19.0747 10.5C19.0047 10.5 18.9348 10.5 18.865 10.5C18.7953 10.5 18.7257 10.5 18.6563 10.5C18.5868 10.5 18.5176 10.5 18.4484 10.5C18.3793 10.5 18.3103 10.5 18.2415 10.5C18.1726 10.5 18.1039 10.5 18.0354 10.5C17.9669 10.5 17.8985 10.5 17.8303 10.5C17.762 10.5 17.694 10.5 17.626 10.5C17.5581 10.5 17.4903 10.5 17.4227 10.5C17.3551 10.5 17.2876 10.5 17.2203 10.5C17.153 10.5 17.0859 10.5 17.0189 10.5C16.9519 10.5 16.885 10.5 16.8183 10.5C16.7517 10.5 16.6851 10.5 16.6187 10.5C16.5524 10.5 16.4862 10.5 16.4201 10.5C16.354 10.5 16.2881 10.5 16.2224 10.5C16.1567 10.5 16.0911 10.5 16.0256 10.5C15.9602 10.5 15.895 10.5 15.8299 10.5C15.7647 10.5 15.6998 10.5 15.635 10.5C15.5702 10.5 15.5056 10.5 15.4412 10.5C15.3767 10.5 15.3124 10.5 15.2483 10.5C15.1841 10.5 15.1201 10.5 15.0563 10.5C14.9925 10.5 14.9289 10.5 14.8654 10.5C14.8019 10.5 14.7386 10.5 14.6754 10.5C14.6123 10.5 14.5493 10.5 14.4865 10.5C14.4236 10.5 14.361 10.5 14.2985 10.5C14.236 10.5 14.1737 10.5 14.1115 10.5C14.0494 10.5 13.9874 10.5 13.9256 10.5C13.8637 10.5 13.8021 10.5 13.7406 10.5C13.6791 10.5 13.6178 10.5 13.5566 10.5C13.4955 10.5 13.4345 10.5 13.3737 10.5C13.3129 10.5 13.2523 10.5 13.1918 10.5C13.1313 10.5 13.071 10.5 13.0109 10.5C12.9508 10.5 12.8908 10.5 12.8311 10.5C12.7713 10.5 12.7117 10.5 12.6523 10.5C12.5928 10.5 12.5336 10.5 12.4745 10.5C12.4154 10.5 12.3565 10.5 12.2978 10.5C12.239 10.5 12.1805 10.5 12.1221 10.5C12.0637 10.5 12.0055 10.5 11.9475 10.5C11.8894 10.5 11.8316 10.5 11.7739 10.5C11.7162 10.5 11.6587 10.5 11.6014 10.5C11.5441 10.5 11.4869 10.5 11.43 10.5C11.373 10.5 11.3162 10.5 11.2596 10.5C11.203 10.5 11.1466 10.5 11.0904 10.5C11.0341 10.5 10.9781 10.5 10.9222 10.5C10.8663 10.5 10.8106 10.5 10.7551 10.5C10.6996 10.5 10.6442 10.5 10.5891 10.5C10.5339 10.5 10.479 10.5 10.4242 10.5C10.3694 10.5 10.3148 10.5 10.2604 10.5C10.2059 10.5 10.1517 10.5 10.0977 10.5C10.0436 10.5 9.98975 10.5 9.93608 10.5C9.8824 10.5 9.82891 10.5 9.77561 10.5C9.72231 10.5 9.66919 10.5 9.61626 10.5C9.56334 10.5 9.5106 10.5 9.45805 10.5C9.40549 10.5 9.35313 10.5 9.30096 10.5C9.24878 10.5 9.1968 10.5 9.145 10.5C9.09321 10.5 9.0416 10.5 8.99019 10.5C8.93878 10.5 8.88755 10.5 8.83652 10.5C8.78549 10.5 8.73465 10.5 8.684 10.5C8.63336 10.5 8.5829 10.5 8.53264 10.5C8.48238 10.5 8.43231 10.5 8.38244 10.5C8.33256 10.5 8.28288 10.5 8.2334 10.5C8.18391 10.5 8.13462 10.5 8.08553 10.5C8.03643 10.5 7.98753 10.5 7.93883 10.5C7.89013 10.5 7.84162 10.5 7.79331 10.5C7.745 10.5 7.69689 10.5 7.64898 10.5C7.60106 10.5 7.55335 10.5 7.50583 10.5C7.45831 10.5 7.41099 10.5 7.36387 10.5C7.31675 10.5 7.26983 10.5 7.22311 10.5C7.17639 10.5 7.12988 10.5 7.08356 10.5C7.03724 10.5 6.99112 10.5 6.94521 10.5C6.89929 10.5 6.85358 10.5 6.80807 10.5C6.76256 10.5 6.71725 10.5 6.67215 10.5C6.62704 10.5 6.58214 10.5 6.53744 10.5C6.49275 10.5 6.44825 10.5 6.40397 10.5C6.35968 10.5 6.3156 10.5 6.27172 10.5C6.22784 10.5 6.18417 10.5 6.14071 10.5C6.09725 10.5 6.05399 10.5 6.01094 10.5C5.96789 10.5 5.92504 10.5 5.88241 10.5C5.83978 10.5 5.79735 10.5 5.75513 10.5C5.71291 10.5 5.67091 10.5 5.62911 10.5C5.58731 10.5 5.54572 10.5 5.50434 10.5C5.46296 10.5 5.42179 10.5 5.38084 10.5C5.33988 10.5 5.29914 10.5 5.2586 10.5C5.21807 10.5 5.17775 10.5 5.13764 10.5C5.09753 10.5 5.05764 10.5 5.01796 10.5C4.97828 10.5 4.93881 10.5 4.89955 10.5C4.8603 10.5 4.82126 10.5 4.78244 10.5C4.74361 10.5 4.70501 10.5 4.66661 10.5C4.62822 10.5 4.59005 10.5 4.55209 10.5C4.51413 10.5 4.47638 10.5 4.43886 10.5C4.40133 10.5 4.36403 10.5 4.32694 10.5C4.28985 10.5 4.25298 10.5 4.21633 10.5C4.17968 10.5 4.14324 10.5 4.10703 10.5C4.07082 10.5 4.03483 10.5 3.99906 10.5C3.96328 10.5 3.92773 10.5 3.8924 10.5C3.85708 10.5 3.82197 10.5 3.78708 10.5C3.7522 10.5 3.71753 10.5 3.68309 10.5C3.64866 10.5 3.61444 10.5 3.58045 10.5C3.54645 10.5 3.51268 10.5 3.47914 10.5C3.4456 10.5 3.41228 10.5 3.37918 10.5C3.34609 10.5 3.31322 10.5 3.28058 10.5C3.24794 10.5 3.21552 10.5 3.18333 10.5C3.15114 10.5 3.11918 10.5 3.08745 10.5C3.05571 10.5 3.02421 10.5 2.99293 10.5C2.96165 10.5 2.9306 10.5 2.89978 10.5C2.86897 10.5 2.83838 10.5 2.80802 10.5C2.77766 10.5 2.74753 10.5 2.71763 10.5C2.68773 10.5 2.65806 10.5 2.62863 10.5C2.59919 10.5 2.56999 10.5 2.54102 10.5C2.51204 10.5 2.48331 10.5 2.4548 10.5C2.42629 10.5 2.39802 10.5 2.36998 10.5C2.34195 10.5 2.31414 10.5 2.28657 10.5C2.25901 10.5 2.23167 10.5 2.20457 10.5C2.17747 10.5 2.15061 10.5 2.12399 10.5C2.09736 10.5 2.07097 10.5 2.04482 10.5C2.01867 10.5 1.99275 10.5 1.96707 10.5C1.9414 10.5 1.91596 10.5 1.89076 10.5C1.86556 10.5 1.8406 10.5 1.81588 10.5C1.79116 10.5 1.76667 10.5 1.74243 10.5C1.71819 10.5 1.69419 10.5 1.67043 10.5C1.64667 10.5 1.62315 10.5 1.59988 10.5C1.5766 10.5 1.55357 10.5 1.53077 10.5C1.50798 10.5 1.48543 10.5 1.46313 10.5C1.44082 10.5 1.41876 10.5 1.39694 10.5C1.37513 10.5 1.35355 10.5 1.33223 10.5C1.3109 10.5 1.28982 10.5 1.26898 10.5C1.24814 10.5 1.22755 10.5 1.20721 10.5C1.18686 10.5 1.16677 10.5 1.14692 10.5C1.12707 10.5 1.10747 10.5 1.08811 10.5C1.06876 10.5 1.04965 10.5 1.0308 10.5C1.01194 10.5 0.993332 10.5 0.974975 10.5C0.956617 10.5 0.93851 10.5 0.920653 10.5C0.902796 10.5 0.885189 10.5 0.867834 10.5C0.85048 10.5 0.833376 10.5 0.816525 10.5C0.799674 10.5 0.783075 10.5 0.766729 10.5C0.750383 10.5 0.73429 10.5 0.718451 10.5C0.702612 10.5 0.687027 10.5 0.671696 10.5C0.656366 10.5 0.64129 10.5 0.626469 10.5C0.611649 10.5 0.597083 10.5 0.582774 10.5C0.568465 10.5 0.554412 10.5 0.540616 10.5C0.52682 10.5 0.513281 10.5 0.5 10.5V13.5Z" fill="#C5594D"/>
</svg>
