<svg width="89" height="89" viewBox="0 0 89 89" fill="none" xmlns="http://www.w3.org/2000/svg">
<path d="M87.1193 48.7724C84.2871 43.6491 81.2192 38.5692 78.001 33.674L78.0008 33.6738C77.8873 33.5024 77.6656 33.3319 77.4214 33.2832C71.8222 32.177 58.96 29.7783 51.6639 28.4181C51.177 26.7478 50.6448 24.9169 50.0188 23.001C51.9615 21.3871 54.9793 18.9329 61.2855 13.7072C61.9424 13.1659 61.5568 12.0903 60.6838 12.1052C60.5457 12.1092 48.3963 12.4772 48.3059 12.4802C46.7409 8.07642 44.7356 4.03978 42.5604 0.595031C42.1637 -0.0310978 41.1577 0.0737205 40.9314 0.809709L36.8299 12.8299C36.7328 12.832 23.8521 13.3493 23.9588 13.3474C23.0871 13.3634 22.7497 14.4839 23.4591 14.9859C28.4318 18.9023 32.6954 21.5425 35.5838 23.3823C34.9825 26.1914 34.7678 27.5662 34.5853 28.5701L12.1342 33.3338C11.6038 33.1918 11.2334 33.3166 10.9979 33.6742C7.7796 38.5695 4.71171 43.6493 1.87953 48.7725C1.57185 49.3284 1.91899 50.0168 2.54303 50.1056C5.50715 50.531 8.49995 50.9941 11.4783 51.4678C11.4037 57.7325 11.3229 77.4151 11.2497 83.1274C11.2445 83.5674 11.5562 83.9472 11.9883 84.028C22.1948 85.9342 34.0391 86.9056 44.1728 88.7979C44.2557 88.8137 44.6718 88.8269 44.8266 88.7979C54.9576 86.9061 66.7986 85.9353 77.011 84.028C77.443 83.9472 77.7548 83.5674 77.7496 83.1274C77.6764 77.4149 77.5961 57.7821 77.521 51.4678C80.4992 50.9941 83.4918 50.531 86.4563 50.1056C87.0802 50.0166 87.4268 49.3281 87.1193 48.7724ZM50.6446 31.3713L50.4509 31.7845C49.2759 30.7017 48.5362 30.0353 48.273 29.7956L49.4446 27.2959C50.2752 30.1142 50.6056 31.2376 50.6446 31.3713ZM48.3899 22.0028C48.1213 22.2271 47.9885 22.6185 48.1107 22.9923C48.6859 24.7212 49.0188 25.8665 49.0567 25.9905L47.5716 29.159C45.9585 27.6905 45.4859 27.2321 45.3953 27.1481L51.4776 14.1929C52.5324 14.1588 53.583 14.1317 54.6353 14.1039L52.5339 18.5742C51.5151 19.4151 48.996 21.4975 48.3899 22.0028ZM54.1609 17.238L55.6479 14.0751C56.4595 14.0538 57.2744 14.0297 58.0921 14.0041C56.5912 15.2399 56.9189 14.9753 54.1609 17.238ZM50.4643 14.2245L44.7075 26.4862C44.4081 26.199 44.106 25.9121 43.8131 25.6251C43.4552 25.2725 42.8489 25.2816 42.4943 25.679C42.2164 25.9946 41.5548 26.7463 41.3823 26.9415L47.3392 14.2404C47.4521 14.2843 47.5729 14.3146 47.7079 14.3115C48.6376 14.2783 49.5507 14.2517 50.4643 14.2245ZM46.7218 13.4258L39.2985 29.2518C38.0558 30.5905 36.9977 31.7108 35.5893 33.1506C35.9733 31.1641 36.0043 30.8722 36.3782 28.8185L45.3082 9.79037C46.0015 11.4344 46.3182 12.2907 46.7218 13.4258ZM44.8295 8.67943L37.0366 25.2864C37.0528 25.2061 37.0672 25.1258 37.0834 25.0453C37.1814 24.552 37.2892 24.0498 37.397 23.5476C37.4177 23.4517 37.4886 22.4324 36.9518 22.1002C36.2127 21.6447 36.4284 21.7805 35.7578 21.363L43.2407 5.41442C44.3664 7.55059 44.6804 8.36984 44.8295 8.67943ZM42.0231 3.21201C42.3992 3.8623 42.4528 3.96573 42.7074 4.4189L38.6899 12.9819L42.0231 3.21201ZM26.5703 15.0777C27.5557 15.0433 28.5469 14.9937 29.5363 14.9438L28.7334 16.6607C28.0089 16.1401 27.2876 15.6131 26.5703 15.0777ZM29.4814 17.1975L30.557 14.8976C32.1675 14.8203 32.765 14.7893 33.7441 14.7481L31.8353 18.8192C31.0455 18.288 30.2617 17.7496 29.4814 17.1975ZM32.5951 19.3309L34.7628 14.7081C35.6806 14.6729 36.5887 14.6374 37.4898 14.6287C37.6747 14.6268 37.8482 14.5665 37.9935 14.466L34.9872 20.8735C34.1853 20.3669 33.3848 19.8514 32.5951 19.3309ZM34.2425 30.4917C34.1726 30.8636 33.8354 32.9046 33.2221 35.7408C33.0264 36.6505 34.1888 37.2006 34.7786 36.539C37.5395 33.7934 40.6994 30.4806 43.2299 27.582C46.0107 30.2598 49.6619 33.4178 52.1591 35.8875C52.4188 36.1446 52.8075 36.2152 53.1441 36.0747C53.5722 35.8955 53.8076 35.4059 53.6511 34.9431C53.2593 33.796 52.8645 32.5678 52.2316 30.3643C58.1312 31.4643 66.9759 33.1153 73.046 34.2779C63.7625 36.3965 54.062 37.3752 44.4994 38.4294C35.0152 37.3825 25.4013 36.4114 16.1759 34.3255L34.2425 30.4917ZM12.1524 35.2134C22.1927 37.8528 32.6765 38.9486 42.9711 40.081C40.1853 44.5205 37.2715 48.8661 34.5206 53.2862C24.4082 51.8217 14.2038 49.9827 4.09949 48.5035C6.62434 43.9982 9.32824 39.5358 12.1524 35.2134ZM13.0676 82.3871C13.1387 75.8075 13.2142 57.8691 13.284 51.7568C21.1317 53.019 27.8521 54.1577 34.8492 55.1611C34.8916 55.1673 34.9349 55.1703 34.9773 55.1703C35.2874 55.1703 35.5798 55.0104 35.7466 54.7418C38.2673 50.6669 40.2898 47.668 43.5839 42.4855C43.5513 52.1107 43.4549 80.8482 43.4365 86.8241C33.7328 85.0908 22.6954 84.1287 13.0676 82.3871ZM75.9312 82.3871C66.1921 84.1488 55.2286 85.0823 45.246 86.8894C45.2639 81.0568 45.3609 52.0721 45.3934 42.452C48.4399 47.2453 50.8245 50.818 53.2529 54.7418C53.4197 55.0104 53.7123 55.1703 54.0222 55.1703C54.0646 55.1703 54.1079 55.1672 54.1503 55.1611C61.1582 54.1562 67.9125 53.0115 75.7146 51.757C75.786 57.9828 75.8582 75.6314 75.9312 82.3871ZM54.4791 53.2862C51.7138 48.8449 48.7947 44.4922 46.0277 40.081C56.3769 38.9427 66.8254 37.8481 76.8464 35.2134C79.6706 39.5358 82.3746 43.9982 84.8993 48.5035C74.7982 49.9822 64.5799 51.8232 54.4791 53.2862Z" fill="white"/>
<path d="M27.257 80.7042L17.6256 79.3703C17.0717 79.2934 16.5099 79.1883 16.2607 78.8291C16.0592 78.5385 16.0752 78.0902 16.1122 77.6167L17.4611 59.8289C17.4797 59.5801 17.2932 59.3628 17.0441 59.3439C16.7976 59.3195 16.5777 59.5113 16.5582 59.7609L15.2102 77.5479C15.1721 78.0328 15.1156 78.7655 15.5167 79.3442C15.9742 80.0046 16.7807 80.1662 17.5016 80.266L27.1331 81.6C27.1543 81.6031 27.1746 81.6043 27.1958 81.6043C27.4176 81.6043 27.612 81.4404 27.6427 81.2142C27.6775 80.9665 27.5044 80.7381 27.257 80.7042Z" fill="white"/>
<path d="M29.7309 81.078L28.6912 80.9138C28.4492 80.871 28.2125 81.0422 28.1736 81.2896C28.1346 81.5364 28.3034 81.768 28.5499 81.8067L29.5896 81.971C29.6134 81.975 29.6372 81.9767 29.6612 81.9767C29.8793 81.9767 30.0719 81.8177 30.1072 81.5952C30.1462 81.3484 29.9774 81.117 29.7309 81.078Z" fill="white"/>
<path d="M21.2445 78.5704H21.2913C21.5863 78.5681 21.8849 78.5541 22.1836 78.54C23.1349 78.4941 24.0326 78.4512 24.8108 78.8019C24.8709 78.8289 24.9335 78.8418 24.9963 78.8418C25.1685 78.8418 25.3328 78.7428 25.4088 78.5755C25.5113 78.3476 25.4096 78.0799 25.1817 77.977C24.2066 77.537 23.1561 77.5878 22.1403 77.6364C21.8531 77.6502 21.5679 77.6642 21.2852 77.666C20.7446 77.6731 19.0088 77.5909 18.5238 76.4151C18.326 75.9336 18.3885 75.3282 18.4443 74.7942L19.5636 64.081C19.59 63.8327 19.4091 63.6101 19.1609 63.5845C18.9109 63.5532 18.69 63.7382 18.6644 63.9873L17.5451 74.7005C17.4815 75.309 17.4021 76.0671 17.6882 76.7596C18.1561 77.8954 19.4838 78.5704 21.2445 78.5704Z" fill="white"/>
<path d="M56.9137 80.6436C56.942 80.8728 57.1372 81.0402 57.3616 81.0402C57.3802 81.0402 57.3997 81.0394 57.4181 81.0368L71.5523 79.2823C71.8005 79.2519 71.9762 79.0258 71.9453 78.7779C71.9144 78.5296 71.6847 78.3516 71.4409 78.3848L57.3067 80.1393C57.0585 80.1695 56.8827 80.3957 56.9137 80.6436Z" fill="white"/>
<path d="M75.5799 39.0795C75.3661 39.2098 75.2999 39.4885 75.4297 39.7014L79.5968 46.5044L66.2222 49.0953C65.9766 49.1425 65.8167 49.3802 65.8636 49.6253C65.9121 49.8725 66.1515 50.0308 66.3936 49.983L80.4085 47.268C80.7232 47.207 80.8711 46.8544 80.7089 46.5878L76.2019 39.2288C76.0712 39.0158 75.7903 38.951 75.5799 39.0795Z" fill="white"/>
<path d="M16.1174 47.947L8.75787 46.0155L13.1086 40.1312C13.2571 39.9303 13.2146 39.6471 13.0132 39.4987C12.8145 39.3507 12.5308 39.3923 12.3806 39.5932L7.63338 46.0146C7.4446 46.2698 7.57202 46.6395 7.88247 46.7209L15.8878 48.8216C16.1317 48.8854 16.3775 48.7385 16.4399 48.4991C16.5035 48.2575 16.3587 48.0101 16.1174 47.947Z" fill="white"/>
</svg>
