<svg width="32" height="32" viewBox="0 0 32 32" fill="none" xmlns="http://www.w3.org/2000/svg">
<g clip-path="url(#clip0_2137_959)">
<mask id="mask0_2137_959" style="mask-type:luminance" maskUnits="userSpaceOnUse" x="0" y="0" width="32" height="32">
<path d="M32 0H0V32H32V0Z" fill="white"/>
</mask>
<g mask="url(#mask0_2137_959)">
<path fill-rule="evenodd" clip-rule="evenodd" d="M16 0C24.8366 0 32 7.16344 32 16C32 24.8366 24.8366 32 16 32C7.16344 32 0 24.8366 0 16C0 7.16344 7.16344 0 16 0ZM8.34319 21.7128H23.6571C23.7421 21.7127 23.8266 21.6996 23.9076 21.674L18.1985 16.3909L16.5086 17.6938C16.3629 17.8062 16.184 17.8672 15.9998 17.8672C15.8157 17.8672 15.6368 17.8062 15.4911 17.6938L13.8014 16.3911L8.09206 21.6742C8.1733 21.6998 8.25799 21.7127 8.34319 21.7128ZM12.4633 15.3589L7.51019 11.5395V19.9424L12.4633 15.3589ZM16 15.9822L23.3853 10.2875H8.61475L16 15.9822ZM24.49 19.9424V11.5395L19.5366 15.3589L24.49 19.9424ZM8.34319 23.3792H23.6571C24.3197 23.3784 24.955 23.1148 25.4235 22.6462C25.892 22.1777 26.1555 21.5424 26.1562 20.8797V11.1202C26.1555 10.4577 25.892 9.8224 25.4234 9.35385C24.9549 8.8853 24.3197 8.6217 23.6571 8.62088H8.34319C7.68055 8.62165 7.04528 8.88523 6.57672 9.35378C6.10817 9.82234 5.84459 10.4576 5.84381 11.1202V20.8797C5.84454 21.5424 6.1081 22.1777 6.57666 22.6463C7.04523 23.1149 7.68053 23.3784 8.34319 23.3792Z" fill="#C5594D"/>
</g>
</g>
<defs>
<clipPath id="clip0_2137_959">
<rect width="32" height="32" fill="white"/>
</clipPath>
</defs>
</svg>
