<svg width="100" height="100" viewBox="0 0 100 100" fill="none" xmlns="http://www.w3.org/2000/svg">
<path d="M95.4432 28.2817C96.0704 26.6104 95.4001 24.6167 95.1106 22.9458C94.6798 20.4591 94.7057 17.5052 93.8665 15.1235C93.385 13.7577 92.3397 13.1899 90.9888 12.9403C88.5265 12.4854 86.003 12.2936 83.5304 11.8686C78.7226 11.0423 73.9435 10.0476 69.2068 8.88174C63.9837 7.596 58.9043 5.85303 53.7121 4.47843C49.9529 3.48331 45.9724 3.39581 42.8183 5.72647C41.9937 2.06808 39.9902 -0.850664 35.1939 0.226482C29.9207 1.41066 24.4487 4.76202 21.1346 9.02432C19.1276 11.6056 17.0256 16.1647 18.1684 19.5339C14.4094 21.3239 10.5653 23.1272 7.01744 25.271C3.55944 27.3606 4.14928 30.843 4.78209 34.3547C5.11217 36.1866 5.46256 38.2329 6.26666 39.9258C6.75142 40.9465 7.43638 41.5448 8.2938 41.9518C9.69946 52.007 11.237 62.0326 12.8791 72.0533C13.2768 74.4793 13.6745 76.9054 14.0719 79.3316C14.4125 81.4103 14.4264 84.0416 15.6006 85.8535C16.5461 87.3127 18.1348 87.8218 19.7239 88.2941C22.3125 89.0634 24.8834 89.8808 27.4563 90.7013C27.9385 90.8552 28.3397 90.746 28.6344 90.5054C28.8416 90.8386 29.099 91.1482 29.4274 91.4234C30.9215 92.6757 33.2359 93.2206 35.0457 93.8308C36.7625 94.4097 39.7166 95.9204 41.417 94.6359C41.501 94.5724 41.5775 94.5048 41.649 94.4347C44.7652 95.5083 47.8965 96.4652 51.0857 97.3335C54.3607 98.2251 57.8836 99.6667 61.273 99.9749C64.4464 100.264 67.0205 97.9978 69.4661 96.2859C72.2652 94.3265 75.0033 92.2812 77.6843 90.1634C83.0964 85.8884 88.5942 81.3789 93.3079 76.3281C95.5589 73.9162 95.1858 71.0672 95.1579 67.9568C95.1229 64.0723 95.0485 60.1879 94.9407 56.3047C94.7024 47.7225 94.2786 39.1495 93.6768 30.5852C94.4397 29.9167 95.1089 29.1725 95.4432 28.2817ZM71.2769 12.5198C77.0095 13.8206 82.7831 14.8511 88.5862 15.8432C83.0861 20.4569 77.5005 24.9616 71.8628 29.4069C68.8933 31.7485 65.9345 34.1176 62.8921 36.3643C60.9724 37.7821 59.488 38.1493 57.1875 37.6026C55.2613 37.1448 53.3486 36.6204 51.4326 36.1227C47.5683 35.119 43.7031 34.1229 39.8285 33.1793C40.3881 32.812 40.9529 32.4772 41.4166 32.1512C42.483 31.4016 43.5492 30.6518 44.6156 29.902C44.851 30.3981 45.1388 30.8772 45.4992 31.3325C47.0773 33.3268 49.4599 33.918 51.908 33.5077C57.799 32.5202 63.5734 27.5245 67.2265 23.0249C69.1058 20.71 71.9835 15.9679 71.2769 12.5198ZM43.9055 27.6587C42.0002 28.9219 40.092 30.1811 38.1908 31.4503C37.7068 31.7737 37.2227 32.0969 36.7727 32.4485C33.4453 31.6665 30.1092 30.9335 26.759 30.2788C27.0701 29.9829 27.4707 29.7137 27.9678 29.4012C29.2586 28.5897 30.5621 27.7993 31.8295 26.9516C34.0279 25.4811 36.2334 24.0259 38.4586 22.5971C39.8285 23.7081 41.9801 23.9333 43.6502 23.7901C43.6392 25.0915 43.6705 26.403 43.9055 27.6587ZM37.373 36.0858C37.4324 35.6629 37.6037 35.2827 37.8434 34.9331C43.5779 36.3239 49.2828 37.8239 54.9632 39.2827C56.6316 39.7112 58.1035 40.0725 59.5416 40.0348C59.6214 43.67 59.5312 47.3996 59.8041 51.0405C59.1027 50.9143 58.4048 50.6877 57.7566 50.5196C55.5654 49.9518 53.3804 49.3615 51.1988 48.7578C46.857 47.5567 42.5502 46.2424 38.1914 45.1059C38.1828 45.0205 38.1742 44.9354 38.1656 44.85L37.6904 40.1407C37.5615 38.8625 37.1912 37.3803 37.373 36.0858ZM65.7863 11.8552C66.8064 11.9456 67.8824 12.1419 68.1341 13.2177C68.3505 14.1421 67.9316 15.3153 67.6318 16.1934C66.907 18.3173 65.5966 20.2112 64.106 21.8682C61.4275 24.8458 58.0736 27.7368 54.4529 29.4909C52.3816 30.4944 49.5461 31.4792 47.6492 29.6737C45.976 28.0813 45.8023 25.5757 45.8123 23.362C47.7029 22.768 49.3906 21.621 50.6359 20.0526C50.8883 21.3389 51.1408 22.6253 51.3935 23.9116C51.6304 25.1178 53.424 24.5956 53.2228 23.4073C52.991 22.0372 52.7593 20.6671 52.5273 19.297C54.1164 18.9686 55.797 19.1032 57.3748 19.3997C58.4476 19.7706 58.9548 17.9864 57.8457 17.6915C56.1546 17.2417 54.5414 17.2245 52.8744 17.3677C52.6654 17.3622 52.4556 17.3616 52.2457 17.3618C52.4863 16.7839 52.6687 16.1854 52.7519 15.587C52.884 15.5591 53.0193 15.5173 53.1599 15.4444C56.9961 13.4515 61.3169 11.4585 65.7863 11.8552ZM59.9 9.52939C57.2242 10.204 54.5242 11.3011 52.2797 12.8636C52.217 12.7556 52.1547 12.6474 52.0791 12.5423C51.9812 12.406 51.874 12.2743 51.7601 12.1466C53.8281 11.1395 55.9002 10.1013 57.8652 8.91201C58.5435 9.1169 59.2203 9.32842 59.9 9.52939ZM43.916 8.41416C46.9842 5.75635 51.3154 6.9001 54.7896 7.97803C54.8869 8.00811 54.9845 8.03662 55.0818 8.0667C53.4742 8.98838 51.9054 9.99092 50.3521 10.9884C48.6672 9.9415 46.4334 9.44561 44.6931 9.69014C44.206 9.75869 43.7582 9.88916 43.3375 10.0608C43.3191 9.62646 43.2922 9.18506 43.2562 8.74229C43.481 8.696 43.7058 8.59619 43.916 8.41416ZM49.8392 14.4128C49.8699 14.4593 49.9037 14.4995 49.939 14.5358C50.4484 16.8425 46.5722 19.9505 44.7431 20.5657C43.1783 21.0921 40.3295 21.5139 39.7484 19.3602C39.4082 18.0999 40.3195 16.0095 41.0094 15.003C42.9926 12.1093 47.6939 11.163 49.8392 14.4128ZM23.5924 10.5177C26.0701 7.52862 29.5408 5.42569 33.1268 4.02745C35.0922 3.26105 37.9496 1.99523 39.5123 4.06925C40.8562 5.85323 41.576 8.67764 41.8957 10.9022C41.5574 11.1653 41.2396 11.4565 40.9437 11.7751C40.7553 11.9077 40.5711 12.0501 40.3916 12.2015C39.9351 11.2175 39.4055 10.2698 38.7494 9.39951C38.0297 8.44463 36.6184 9.23565 37.1348 10.3433C37.5951 11.3306 37.9951 12.3261 38.3295 13.3518C37.2311 13.4534 36.1283 13.6526 35.051 13.8132C33.6721 14.0186 34.2303 16.2136 35.6371 15.9393C36.4047 15.7897 37.1853 15.6729 37.9621 15.5415C37.426 16.7407 37.0482 18.1216 37.0652 19.4048C32.7783 20.6905 28.5699 21.6651 24.0678 20.7225C18.4784 19.5528 21.0717 13.5585 23.5924 10.5177ZM11.0852 26.1135C13.7342 24.4415 16.3905 22.7858 19.0553 21.1411C19.443 21.6145 19.9336 22.0413 20.5442 22.4063C22.8865 23.8067 26.3067 23.9366 28.9584 23.9167C30.325 23.9063 31.7145 23.7899 33.0844 23.5585C32.391 23.9444 31.699 24.3321 31.0037 24.7153C28.9197 25.8639 26.2877 26.9598 24.5709 28.6337C24.2231 28.9729 23.9729 29.3372 23.793 29.7208C18.735 28.8083 13.6407 28.0969 8.49244 27.6827C9.31587 27.0417 10.386 26.5549 11.0852 26.1135ZM7.969 34.2934C7.67232 32.8938 7.04732 30.9639 7.3024 29.476C12.693 29.9571 18.0485 30.7596 23.374 31.768C23.3612 32.2979 23.3936 32.8438 23.4266 33.3963C23.608 36.425 23.8219 39.4524 24.0303 42.4793C20.8981 41.9377 17.7821 41.3114 14.6911 40.568C13.4547 40.2707 10.5954 39.9911 9.59478 39.1262C8.52017 38.1979 8.25025 35.6202 7.969 34.2934ZM21.694 85.9566C20.8143 85.6632 19.4983 85.4384 18.7485 84.8566C17.6934 84.038 17.6549 82.7222 17.4358 81.5363C16.5963 76.9933 15.7856 72.4449 14.9606 67.8994C13.4211 59.4189 11.7641 50.9694 10.0293 42.5285C14.5987 43.6592 19.2192 44.6008 23.8678 45.3373C23.9977 45.3578 24.1207 45.3586 24.2395 45.3496C25.001 56.0031 25.9397 66.6432 26.8881 77.2814C27.1434 80.1457 27.4096 83.0089 27.6742 85.8722C27.7356 86.5361 27.7694 87.2279 27.8488 87.9064C25.7938 87.2664 23.7354 86.6373 21.694 85.9566ZM39.5699 92.4009C39.2094 92.5747 37.6162 91.8097 37.2838 91.7009C35.4432 91.0978 32.2772 90.4966 31.0914 88.9246C30.3502 87.9419 30.4385 86.2064 30.3092 85.0134C30.1539 83.582 30.0012 82.1502 29.8496 80.7183C28.7582 70.4123 27.8195 60.0957 27.0442 49.761C26.616 44.0543 25.9623 38.2598 25.9389 32.5346C25.9385 32.4424 25.941 32.3555 25.9444 32.2698C29.0291 32.8911 32.1039 33.5727 35.1699 34.2946C35.0428 34.5495 34.9305 34.8167 34.8557 35.1149C34.3535 37.1149 34.8994 39.4159 35.1012 41.425C35.3734 44.1366 35.6457 46.8479 35.9178 49.5594C36.9484 59.8258 37.9932 70.0904 39.0521 80.3539C39.299 82.7457 39.533 85.1396 39.699 87.5386C39.7863 88.8021 39.8941 90.083 39.9 91.3505C39.9023 91.9324 40.0574 92.1658 39.5699 92.4009ZM61.5427 96.9824C61.1568 96.9933 60.7513 96.962 60.3158 96.8759C58.1459 96.4468 55.9986 95.8468 53.8496 95.3242C50.0384 94.3974 46.2482 93.5304 42.3973 92.8417C42.5189 92.0726 42.45 91.2357 42.425 90.5027C42.3242 87.5359 42.0904 84.5761 41.8211 81.6205C41.3021 75.9246 40.7275 70.2338 40.1533 64.5434C39.5799 58.8608 39.0064 53.1781 38.433 47.4955C42.6264 49.1483 46.9201 50.5151 51.232 51.8324C53.9175 52.6528 57.2213 54.1776 60.2877 54.2926C61.0507 68.5291 61.7152 82.7195 61.5427 96.9824ZM91.9001 72.8254C91.572 73.9049 90.5003 74.7195 89.7347 75.4838C88.2448 76.9707 86.7272 78.4302 85.1833 79.8609C79.0987 85.4994 72.5663 90.6431 65.6761 95.2626C65.1164 95.638 64.5884 95.9802 64.0595 96.2595C64.5316 82.2888 64.022 68.1613 61.8824 54.3418C61.9474 54.2971 62.0091 54.2467 62.0628 54.185C62.5466 54.0988 63.0197 53.9652 63.4775 53.7703C71.929 50.169 78.9868 42.8629 85.8991 37.0284C87.5368 35.6459 89.1745 34.2635 90.8124 32.8811C91.2712 40.8264 91.6112 48.7795 91.7931 56.7358C91.8983 61.3387 91.9415 65.9422 91.9688 70.5461C91.9729 71.2287 92.1058 72.149 91.9001 72.8254ZM92.5659 26.7057C92.2975 28.2801 89.4813 29.9346 88.3497 30.8997C86.6958 32.3098 85.0417 33.7198 83.3878 35.1299C77.3476 40.2795 71.3939 45.6237 64.4748 49.5871C63.7904 49.9791 63.0406 50.4733 62.2722 50.7971C62.1039 47.1291 61.5714 43.4166 61.2351 39.7819C61.9552 39.577 62.6828 39.2413 63.4384 38.7233C66.6771 36.5034 69.7476 33.968 72.8462 31.5575C78.9472 26.8116 84.8972 21.8643 90.7737 16.8432C90.7985 16.9866 90.8247 17.1591 90.8649 17.3723C91.0532 18.3684 91.2626 19.361 91.4614 20.3552C91.6602 21.3495 91.8667 22.3428 92.0476 23.3407C92.2227 24.3073 92.7343 25.7174 92.5659 26.7057Z" fill="white"/>
</svg>
