<svg width="25" height="24" viewBox="0 0 25 24" fill="none" xmlns="http://www.w3.org/2000/svg">
<path d="M21.3535 6.61423C21.3415 6.61236 21.3074 6.59773 21.3025 6.59586L20.1685 6.08098C20.0485 6.02398 19.9158 5.99173 19.7542 5.98461C19.4245 5.97786 18.484 5.95911 17.0553 5.96361C17.0857 5.81548 17.1055 5.67711 17.1145 5.54661C17.1224 5.49073 17.1239 5.43523 17.1239 5.38461C17.1239 3.15973 15.3138 1.34961 13.0889 1.34961C10.864 1.34961 9.05392 3.15973 9.05392 5.38461C9.05392 5.39961 9.05654 5.41648 9.05692 5.43148C9.04529 5.43148 9.03029 5.42961 9.02017 5.42961H7.86517C7.17854 5.42961 6.52342 5.75773 6.11317 6.30786L5.20229 7.53036C4.81529 8.04748 4.71254 8.72211 4.92404 9.32286L4.94917 9.40236C4.98029 9.49273 4.99642 9.59061 4.99642 9.68586C4.99642 9.94236 4.88167 10.1816 4.68254 10.3429C4.28429 10.6631 4.18529 11.2316 4.45304 11.6651C4.88654 12.3622 5.29417 13.038 5.40029 13.2251C5.37892 13.3237 5.32379 13.5345 5.20792 13.911C5.17417 14.0216 5.07254 14.0955 4.95517 14.0955H4.63267C4.55504 14.0955 4.48042 14.0614 4.43129 14.0032L3.57517 12.9934C3.25304 12.6172 2.71192 12.5257 2.29004 12.7755L1.75079 13.0939C1.47179 13.2574 1.29142 13.5352 1.25617 13.8559C1.22092 14.178 1.33792 14.49 1.57792 14.7131C1.75267 14.874 1.84792 14.967 1.89929 15.0195V16.0305C1.89929 16.1629 1.89929 16.1977 3.72742 19.5382C3.94604 19.9342 4.38817 20.1379 4.82992 20.0422C6.87592 19.5926 7.13804 19.0935 7.13804 18.7084C7.13804 18.2036 6.66179 17.682 5.93504 16.9432C5.75354 16.7587 5.54129 16.5431 5.40517 16.3736C5.50267 16.3736 5.61179 16.3755 5.70517 16.3774C5.87954 16.3815 6.07192 16.386 6.27254 16.3792C6.89054 16.3575 8.98567 17.7937 9.39404 18.159C9.46754 18.2614 9.56767 18.7286 9.63367 19.0376C9.81817 19.9009 9.99254 20.7161 10.546 20.8571C11.0298 20.9816 11.485 20.4555 12.3179 19.4437C12.6404 19.0519 13.1628 18.4174 13.408 18.267C13.8464 18.6769 14.9928 20.9171 15.3817 21.6769C15.6889 22.2769 15.8947 22.5935 15.9989 22.6267C16.0394 22.6417 16.0829 22.6489 16.1268 22.6489C16.207 22.6489 16.288 22.6249 16.3529 22.5791C16.615 22.3957 16.7849 21.3559 16.8434 20.9314C17.0609 20.8897 17.5754 20.9081 17.9707 21.0634C18.3059 21.1954 18.5099 21.0952 18.6213 20.9884C18.9187 20.7045 18.7567 20.2256 18.5853 19.7182C18.5388 19.581 18.4908 19.4389 18.4743 19.3556C18.4 18.9964 17.9969 18.795 17.5297 18.5621C17.3279 18.4612 16.9717 18.2839 16.8532 18.1635C16.9608 18.0697 17.3039 17.8804 18.1102 17.7011C18.5935 17.5871 18.9232 17.1469 18.8935 16.6552C18.8665 16.17 18.7345 13.8311 18.6517 13.2724C18.709 13.2079 18.8448 13.1006 18.9393 13.0264C19.3094 12.7342 19.8164 12.3341 19.8164 11.7109C19.8164 11.2691 19.4572 10.8514 19.1099 10.4471C18.9363 10.245 18.6134 9.86923 18.6089 9.76086C18.6089 9.76011 18.6415 9.71848 18.7848 9.66861C19.2445 9.50736 19.8179 9.94161 20.3722 10.3597C21.0239 10.8517 21.7627 11.4097 22.5044 11.0471C22.8284 10.8892 23.0253 10.6657 23.089 10.383C23.209 9.85048 22.7947 9.33261 22.4924 8.95461C22.4647 8.91973 22.4335 8.88111 22.4039 8.84286C22.48 8.81098 22.5667 8.77836 22.6357 8.75211C23.0924 8.57924 23.6609 8.36361 23.7419 7.87311C23.7592 7.76961 23.755 7.61136 23.6369 7.44598C23.3279 7.01473 22.2314 6.75636 21.3543 6.61386L21.3535 6.61423ZM13.0889 2.09998C14.9005 2.09998 16.3739 3.57373 16.3739 5.38498C16.3739 5.40148 16.3754 5.41986 16.3724 5.43823C16.3698 5.45286 16.3679 5.46748 16.3672 5.48211C16.3544 5.68723 16.3019 5.93886 16.2108 6.22948C15.6483 8.03211 13.819 10.8124 13.0885 11.8822C12.7165 11.3381 12.0603 10.3519 11.4325 9.27936C11.2739 9.00786 11.1299 8.74986 10.993 8.49861C10.381 7.37361 9.98954 6.45486 9.85867 5.81811C9.82229 5.65236 9.80392 5.50648 9.80392 5.38498C9.80392 3.57373 11.2777 2.09998 13.0889 2.09998ZM22.3698 8.05086C21.9479 8.21098 21.5493 8.36173 21.5493 8.75623C21.5493 8.97598 21.6993 9.16386 21.907 9.42298C22.0788 9.63748 22.3987 10.0372 22.3578 10.218C22.3424 10.2855 22.2262 10.3489 22.1763 10.3729C21.8474 10.5337 21.3505 10.1584 20.8244 9.76086C20.146 9.24898 19.3769 8.66848 18.5388 8.96023C18.1814 9.08473 17.9635 9.28348 17.8912 9.55161C17.7625 10.0294 18.1585 10.4902 18.5414 10.9357C18.7507 11.1787 19.0668 11.547 19.0668 11.7105C19.0668 11.97 18.7525 12.2182 18.475 12.4372C18.1537 12.6907 17.821 12.9532 17.9054 13.3541C17.9527 13.572 18.064 15.2385 18.145 16.698C18.1529 16.8281 18.0678 16.9402 17.9429 16.9695C16.4388 17.3047 16.1695 17.7184 16.0968 18.0026C15.946 18.6097 16.6383 18.9555 17.1948 19.233C17.3842 19.3279 17.665 19.4677 17.749 19.5499C17.7768 19.6691 17.8244 19.8101 17.8747 19.9586C17.9035 20.0441 17.9444 20.1649 17.9778 20.2785C17.4097 20.1232 16.6825 20.1049 16.3484 20.3325C16.2003 20.4337 16.1155 20.5864 16.1155 20.7521C16.1155 20.8354 16.0777 21.0562 16.0282 21.2947C14.5979 18.5017 14.0208 17.6152 13.5659 17.5072C13.522 17.4967 13.4785 17.4915 13.4343 17.4915C12.9772 17.4915 12.4983 18.0442 11.7385 18.9671C11.4374 19.3331 10.9552 19.9189 10.7152 20.0869C10.5787 19.8705 10.4433 19.2379 10.3668 18.8809C10.2235 18.2107 10.132 17.8219 9.91304 17.6197C9.72367 17.4491 7.36042 15.6292 6.27817 15.6292C6.26842 15.6292 6.25867 15.6292 6.24892 15.6292C6.06292 15.6352 5.88442 15.6307 5.72204 15.6274C5.21917 15.6154 4.82129 15.6071 4.62029 15.9079C4.54229 16.0249 4.47592 16.2259 4.60642 16.5221C4.71704 16.767 4.98029 17.0415 5.40067 17.4686C5.70892 17.7821 6.33779 18.4211 6.38542 18.6791C6.29879 18.7804 5.86904 19.0459 4.67054 19.3091C4.55467 19.3331 4.44254 19.2814 4.38479 19.1764C3.06929 16.773 2.73179 16.125 2.64967 15.9547V14.8901C2.64967 14.697 2.54992 14.5871 2.08717 14.1615C2.02417 14.103 1.99304 14.0212 2.00204 13.9369C2.00729 13.8881 2.03129 13.7981 2.13104 13.7396L2.67179 13.4205C2.78017 13.3564 2.92079 13.3815 3.00479 13.479L3.85904 14.487C4.05067 14.7142 4.33304 14.8451 4.63342 14.8451H4.95592C5.40517 14.8451 5.79517 14.5575 5.92567 14.1307C6.19942 13.242 6.17729 13.1677 6.14954 13.0755C6.13567 13.017 6.10979 12.9079 5.09129 11.2699C5.02229 11.1581 5.04929 11.0107 5.15392 10.9264C5.53079 10.6219 5.74717 10.1692 5.74717 9.68548C5.74717 9.50848 5.71679 9.32661 5.66204 9.16723L5.63579 9.08511C5.50379 8.70936 5.56642 8.29573 5.80379 7.97848L6.71504 6.75561C6.98467 6.39486 7.41479 6.17923 7.86592 6.17923H9.02092C9.05354 6.17923 9.06479 6.18148 9.08842 6.18786L9.18179 6.20998C9.18667 6.22836 9.19342 6.24861 9.19867 6.26698C9.21217 6.31573 9.22792 6.36673 9.24329 6.41773C9.26392 6.48523 9.28492 6.55348 9.30892 6.62436C9.32729 6.67873 9.34717 6.73423 9.36779 6.79048C9.39404 6.86323 9.42217 6.93748 9.45217 7.01323C9.47542 7.07211 9.49942 7.13211 9.52454 7.19286C9.55754 7.27198 9.59242 7.35336 9.62879 7.43623C9.65617 7.49848 9.68354 7.56073 9.71279 7.62486C9.75292 7.71299 9.79642 7.80411 9.84029 7.89561C9.87067 7.95898 9.90029 8.02161 9.93254 8.08648C9.98242 8.18698 10.0357 8.29086 10.0897 8.39511C10.1212 8.45623 10.1515 8.51586 10.1845 8.57848C10.2502 8.70261 10.3203 8.83086 10.3915 8.96023C10.4174 9.00711 10.441 9.05173 10.4673 9.09936C10.5682 9.28048 10.6739 9.46573 10.7857 9.65698C11.4464 10.7857 12.1383 11.8207 12.5095 12.3622C12.5433 12.4114 12.5744 12.4567 12.6025 12.4972C12.6588 12.5786 12.7038 12.6427 12.7345 12.687C12.7657 12.7312 12.7825 12.7552 12.784 12.7571C12.8545 12.8557 12.9682 12.9142 13.0893 12.9142C13.2104 12.9142 13.324 12.8557 13.3945 12.7567C13.4084 12.7372 13.4624 12.6611 13.5464 12.5407C13.5532 12.5314 13.5618 12.5186 13.5689 12.5085C13.606 12.4549 13.6462 12.3967 13.6934 12.3281C13.7073 12.3079 13.7234 12.2839 13.738 12.2625C13.7827 12.1976 13.8277 12.1309 13.879 12.0551C13.9004 12.0232 13.9244 11.9872 13.9473 11.9535C13.9953 11.8819 14.0437 11.8102 14.0962 11.7307C14.1262 11.6857 14.158 11.6366 14.1892 11.5894C14.2387 11.514 14.2878 11.4397 14.3403 11.3591C14.3759 11.3044 14.4127 11.247 14.4494 11.19C14.5012 11.1101 14.5522 11.0306 14.6054 10.9466C14.6455 10.8836 14.686 10.8184 14.7269 10.7535C14.7787 10.671 14.83 10.5892 14.8829 10.5037C14.9268 10.4325 14.971 10.3601 15.0157 10.2874C15.067 10.2034 15.118 10.1194 15.1698 10.0335C15.2159 9.95698 15.2613 9.87973 15.3074 9.80173C15.358 9.71624 15.4083 9.63074 15.4585 9.54374C15.505 9.46348 15.5504 9.38323 15.5965 9.30223C15.646 9.21486 15.6952 9.12823 15.7435 9.04011C15.7889 8.95836 15.8328 8.87736 15.877 8.79523C15.9247 8.70711 15.9715 8.61973 16.0177 8.53161C16.0608 8.44948 16.1028 8.36773 16.1444 8.28598C16.1887 8.19899 16.2322 8.11236 16.2745 8.02573C16.3147 7.94361 16.3537 7.86261 16.3919 7.78123C16.432 7.69611 16.4707 7.61211 16.5082 7.52811C16.5442 7.44824 16.5787 7.36911 16.612 7.29036C16.6473 7.20711 16.6807 7.12536 16.7129 7.04398C16.7429 6.96823 16.7722 6.89323 16.7995 6.81936C16.8123 6.78448 16.828 6.74773 16.8404 6.71323C18.3847 6.70573 19.3953 6.72598 19.7395 6.73311C19.7808 6.73498 19.8183 6.74323 19.8535 6.75973L20.9999 7.28023C21.0734 7.31211 21.1555 7.34323 21.2459 7.35486C22.036 7.48348 22.6619 7.67024 22.9188 7.80674C22.7767 7.89561 22.5142 7.99536 22.3705 8.04936L22.3698 8.05086Z" fill="#C5594D"/>
<path d="M13.0899 7.6489C14.3375 7.6489 15.3526 6.63378 15.3526 5.38615C15.3526 4.13853 14.3375 3.12378 13.0899 3.12378C11.8423 3.12378 10.8271 4.13853 10.8271 5.38615C10.8271 6.63378 11.8423 7.6489 13.0899 7.6489ZM13.0899 3.87378C13.9239 3.87378 14.6026 4.55253 14.6026 5.38615C14.6026 6.21978 13.9239 6.8989 13.0899 6.8989C12.2559 6.8989 11.5771 6.22015 11.5771 5.38615C11.5771 4.55215 12.2559 3.87378 13.0899 3.87378Z" fill="#C5594D"/>
<path d="M9.20922 15.4122C9.02997 15.3102 8.80085 15.3709 8.69735 15.5506C8.59422 15.7302 8.6561 15.9593 8.83572 16.0624C9.90072 16.6744 10.167 16.9587 10.2322 17.0524C10.305 17.1574 10.422 17.2141 10.5408 17.2141C10.6143 17.2141 10.689 17.1923 10.7538 17.1473C10.9241 17.0296 10.9665 16.7956 10.8483 16.6253C10.7711 16.5136 10.536 16.1742 9.20922 15.4122Z" fill="#C5594D"/>
<path d="M8.11276 14.8192C7.95001 14.7359 7.85063 14.6872 7.85063 14.6872C7.66463 14.5961 7.44001 14.6733 7.34888 14.8593C7.25776 15.0453 7.33463 15.2699 7.52063 15.3611C7.52213 15.3618 7.61701 15.4083 7.77076 15.4871C7.82551 15.5148 7.88363 15.5279 7.94138 15.5279C8.07788 15.5279 8.20913 15.4537 8.27551 15.3236C8.36963 15.1394 8.29688 14.9133 8.11238 14.8188L8.11276 14.8192Z" fill="#C5594D"/>
</svg>
