<svg width="58" height="82" viewBox="0 0 58 82" fill="none" xmlns="http://www.w3.org/2000/svg">
<path d="M29.0008 0.266602C15.9849 0.266602 0.800781 8.33807 0.800781 28.8927C0.800781 42.8361 22.496 73.6618 29.0008 81.7333C34.7849 73.6618 57.2008 43.5693 57.2008 28.8927C57.2008 8.33807 42.0166 0.266602 29.0008 0.266602Z" fill="#C5594D"/>
<path d="M29 11.4836C33.9303 11.4836 38.568 13.3624 42.0542 16.7662C45.5404 20.1699 47.4617 24.7061 47.4617 29.5253C47.4617 34.3446 45.5341 38.8743 42.0479 42.2845C38.5616 45.6947 33.924 47.5671 28.9936 47.5671C24.0633 47.5671 19.432 45.6882 15.9458 42.2845C12.4596 38.8808 10.5383 34.3446 10.5383 29.5253C10.5383 24.7061 12.4596 20.1763 15.9458 16.7662C19.432 13.356 24.0697 11.4836 29 11.4836ZM29 9C17.4026 9 8 18.1881 8 29.5253C8 40.8625 17.4026 50.0507 29 50.0507C40.5974 50.0507 50 40.8625 50 29.5253C50 18.1881 40.5974 9 29 9Z" fill="white"/>
<path d="M28.994 18.7036C31.8058 18.7036 34.1788 16.8478 34.8785 14.3176C34.0897 14.0286 33.2754 13.7974 32.442 13.624C32.0476 15.1203 30.648 16.2248 28.994 16.2248C27.3335 16.2248 25.9403 15.1203 25.5459 13.624C24.7062 13.7974 23.8919 14.0286 23.1094 14.3176C23.8155 16.8478 26.1821 18.7036 28.994 18.7036Z" fill="white"/>
<path d="M35.6951 37.4679C35.6951 33.2038 39.2513 29.7361 43.6218 29.7361C44.3216 29.7361 45.0023 29.826 45.6448 29.9929C45.6512 29.8388 45.6511 29.6847 45.6511 29.5306C45.6511 28.8177 45.6066 28.1178 45.5112 27.4306C44.8941 27.3215 44.2643 27.2637 43.6154 27.2637C37.8326 27.2637 33.1504 31.836 33.1504 37.4743C33.1504 40.1136 34.181 42.5218 35.8668 44.3327C36.6748 43.9795 37.4445 43.5621 38.1761 43.0869C36.6493 41.6741 35.6951 39.6769 35.6951 37.4679Z" fill="white"/>
<path d="M14.3756 23.2051C14.1275 23.2051 13.8857 23.2115 13.644 23.2243C13.2877 24.0463 13.0015 24.9004 12.7852 25.7866C13.3068 25.7224 13.8348 25.6839 14.3756 25.6839C21.0363 25.6839 26.4565 30.969 26.4565 37.4678C26.4565 40.2998 25.4259 42.9006 23.7146 44.9363C24.5798 45.2189 25.4831 45.4372 26.4056 45.5721C28.0405 43.2667 28.9948 40.4732 28.9948 37.4614C29.0012 29.5883 22.455 23.2051 14.3756 23.2051Z" fill="white"/>
<path d="M31.5388 37.4678C31.5388 30.969 36.959 25.6839 43.6197 25.6839C44.1605 25.6839 44.6885 25.716 45.2101 25.7866C44.9938 24.9004 44.7076 24.0463 44.3513 23.2243C44.1096 23.2115 43.8615 23.2051 43.6197 23.2051C35.5467 23.2051 28.9941 29.5883 28.9941 37.4678C28.9941 40.4796 29.9484 43.2731 31.5834 45.5785C32.5058 45.4372 33.4092 45.2253 34.2744 44.9428C32.5694 42.9006 31.5388 40.2998 31.5388 37.4678Z" fill="white"/>
<path d="M28.9972 22.961C33.4695 22.961 37.2865 20.2253 38.7879 16.3723C38.0881 15.8778 37.3501 15.4283 36.5676 15.043C35.5625 18.1896 32.547 20.4822 28.9972 20.4822C25.4474 20.4822 22.4319 18.1961 21.4268 15.0494C20.6506 15.4347 19.9127 15.8842 19.2129 16.3787C20.7079 20.2318 24.5249 22.961 28.9972 22.961Z" fill="white"/>
<path d="M20.4751 37.4686C20.4751 34.1807 17.746 31.5156 14.3742 31.5156C13.719 31.5156 13.0955 31.6184 12.5039 31.7982C12.6248 32.633 12.8093 33.4486 13.051 34.2385C13.4582 34.0779 13.9035 33.988 14.3742 33.988C16.34 33.988 17.9368 35.5421 17.9368 37.4622C17.9368 38.6053 17.3706 39.6199 16.4927 40.2556C17.0589 40.8786 17.6696 41.4629 18.3249 41.9959C19.6417 40.9107 20.4751 39.286 20.4751 37.4686Z" fill="white"/>
<path d="M28.9969 27.02C34.6398 27.02 39.5319 23.9055 41.9748 19.3396C41.4023 18.6461 40.7788 18.0039 40.0981 17.4131C38.2468 21.6065 33.9654 24.5412 28.9969 24.5412C24.0284 24.5412 19.7534 21.6065 17.9021 17.4195C17.2278 18.0103 16.5979 18.6525 16.0254 19.346C18.4619 23.9055 23.3541 27.02 28.9969 27.02Z" fill="white"/>
<path d="M40.0559 37.4686C40.0559 35.5485 41.6527 33.9944 43.6185 33.9944C44.0829 33.9944 44.5282 34.0843 44.9417 34.2385C45.1834 33.4486 45.3743 32.633 45.4888 31.7982C44.8972 31.612 44.2737 31.5156 43.6185 31.5156C40.2468 31.5156 37.5176 34.1807 37.5176 37.4686C37.5176 39.286 38.351 40.9107 39.6678 42.0024C40.3231 41.4694 40.9338 40.885 41.5 40.2621C40.6221 39.6263 40.0559 38.6117 40.0559 37.4686Z" fill="white"/>
<path d="M14.377 29.7366C18.7475 29.7366 22.3037 33.2044 22.3037 37.4684C22.3037 39.6775 21.3495 41.6747 19.8227 43.0875C20.5543 43.5563 21.324 43.9737 22.132 44.3333C23.8178 42.5223 24.8484 40.1142 24.8484 37.4684C24.8484 31.8301 20.1598 27.2578 14.3834 27.2578C13.7345 27.2578 13.1047 27.3156 12.4876 27.4248C12.3985 28.1119 12.3477 28.8119 12.3477 29.5247C12.3477 29.6788 12.3477 29.8329 12.354 29.9871C12.9966 29.8201 13.6773 29.7366 14.377 29.7366Z" fill="white"/>
</svg>
