<svg width="100" height="100" viewBox="0 0 100 100" fill="none" xmlns="http://www.w3.org/2000/svg">
<path d="M82.4604 18.6797C86.0604 21.3037 93.6604 27.2117 93.7084 30.0477C91.3764 31.0317 89.5364 35.5757 86.9604 35.9597C72.9364 23.1997 72.5204 26.0877 82.4604 18.6797ZM82.4604 18.9197C81.4204 20.5197 78.7284 23.5437 78.2564 24.6317C81.8124 27.5797 84.9644 31.9637 87.7324 34.5157C89.1924 32.8437 92.3084 30.9157 92.2564 29.4597C87.7364 26.2797 85.6484 22.9397 82.4604 18.9197Z" fill="white"/>
<path d="M85.3358 37.6005C81.8078 34.2765 77.1038 31.6005 74.5078 26.7725C78.3998 28.1965 82.6598 34.1245 85.3358 37.6005Z" fill="white"/>
<path d="M35.5081 37.8682C35.1401 38.8202 35.5081 41.4002 33.7761 41.9162C33.3201 41.0842 34.3561 38.8402 35.5081 37.8682Z" fill="white"/>
<path d="M32.2831 45.6402C30.4831 54.4602 23.4271 61.3082 21.1871 70.2282C18.8591 78.7322 24.4911 81.6562 31.9871 78.1482C32.7551 78.1482 38.5471 72.4802 37.1871 75.2962C37.0711 75.1442 37.1311 75.2322 37.0911 74.7842C35.0431 80.7842 23.3151 86.0482 19.2111 77.9842C16.5631 71.9682 30.7591 45.5042 32.2831 45.6402Z" fill="white"/>
<path d="M8.28711 28.7561C10.6031 12.7561 46.1991 15.0801 36.7311 34.0361C36.6991 23.1041 32.6631 20.4561 21.9671 19.2361C16.2711 19.4921 11.8711 25.3001 8.28711 28.7561Z" fill="white"/>
<path d="M39.5156 72.856C41.5156 68.576 45.4476 66.056 49.2076 62.808C53.3996 57.704 57.1556 52.212 63.3716 49.208C60.6276 54.312 56.3516 58.316 51.3396 61.968C47.0476 65.116 44.7996 71.352 39.5156 72.856Z" fill="white"/>
<path d="M63.2008 42.8516C69.6768 36.3556 74.7568 46.6836 68.5208 51.1116C63.0848 53.6396 58.1888 47.3076 63.2008 42.8516ZM63.3727 43.0236C59.9567 47.0876 68.5208 53.0676 70.5128 46.6236C71.1448 44.1916 65.8007 40.7036 63.3727 43.0236Z" fill="white"/>
<path d="M72.3993 28.4355C88.5112 43.1155 84.7593 36.5595 83.7273 50.7596C83.3273 53.1596 83.4552 55.0355 82.6712 57.5595C79.3512 59.2995 75.1953 60.0956 71.5273 61.4956C60.6313 65.0956 53.3232 68.1676 40.6752 73.4956C34.7792 77.4956 46.2032 53.8436 46.3352 51.5636C57.9632 23.1595 49.9992 31.0475 72.3993 28.4355ZM72.3193 28.6635C53.3472 32.4756 56.9952 29.5515 54.6912 36.1995C51.3152 46.0956 45.1632 61.7596 41.2672 71.3756C55.3272 66.7396 81.7432 56.7795 80.9792 55.5475C81.6672 49.7155 82.2753 45.5475 83.0273 40.4795C79.4193 36.6595 75.9552 32.8436 72.3193 28.6635Z" fill="white"/>
</svg>
