<svg width="90" height="90" viewBox="0 0 90 90" fill="none" xmlns="http://www.w3.org/2000/svg">
<path d="M0.866051 70.9785C1.09105 74.1525 -0.254449 77.9955 2.41105 80.493C3.67555 81.8025 5.63155 82.05 7.35205 82.065C8.71855 82.137 10.0851 82.212 11.4501 82.311C13.1556 91.323 26.3301 91.425 28.1481 82.413C33.7161 82.7385 41.1396 81.948 46.4991 81.7215C52.8276 81.4725 59.1441 81.5325 65.4456 82.29C67.1346 91.326 80.3361 91.4325 82.1496 82.407C83.2956 82.4835 84.4446 82.56 85.5831 82.284C87.8826 81.738 89.6646 79.6335 89.9376 77.307C90.0396 75.255 89.8116 71.808 89.8011 69.7515L89.4891 61.308C89.3631 58.7235 87.2511 56.4975 84.7026 56.268C84.0261 56.214 83.5116 56.25 82.9776 56.2725C80.9271 51.2835 78.9621 46.2615 77.1096 41.196C76.6041 39.7575 75.5541 38.496 74.2341 37.68C72.9441 36.8445 71.3526 36.657 69.8436 36.645C67.2561 36.546 64.6671 36.3915 62.0796 36.1995C62.0841 34.614 62.0991 33.0855 62.1351 31.6575C62.1111 30.4155 62.2986 28.6215 62.1021 27.402C61.6911 25.0035 59.3946 23.0775 56.9451 23.0595C55.3461 22.965 53.6346 22.8645 51.9891 22.746C49.1001 7.07702 28.7706 0.25202 17.0031 12.5025C14.2041 15.2985 12.4551 18.87 11.7201 22.641C10.3401 22.5675 8.95855 22.521 7.57855 22.503C3.76705 21.966 -0.0474493 24.3825 0.0710508 28.5675C0.374051 41.5005 1.13305 58.122 0.864551 70.977L0.866051 70.9785ZM12.7206 81C13.3776 72.7215 24.9201 72.8745 25.6581 81C25.7406 89.991 12.7326 90.0405 12.7206 81ZM66.7206 81C67.3776 72.7215 78.9201 72.8745 79.6581 81C79.7406 89.991 66.7326 90.0405 66.7206 81ZM86.7921 77.58C86.0286 79.5555 84.0816 79.56 82.2591 79.5975C81.0831 69.7515 66.4716 69.882 65.3571 79.7205C64.5321 79.821 63.7086 79.8915 62.8836 79.9665C63.1356 74.8275 62.9361 69.6885 62.8056 64.551C62.7336 62.6535 62.6556 60.597 62.5776 58.4505L78.4041 57.7305C78.6681 58.623 78.7731 59.475 78.9081 60.5145C79.1826 61.8825 80.1426 63.018 81.4566 63.5655C81.9951 63.8115 82.7766 63.879 83.3616 64.002C84.6891 64.2105 86.0391 64.572 87.3831 64.5045C87.2691 67.7685 87.1251 72.0435 87.0876 73.953C87.0216 74.886 87.1491 76.7625 86.7921 77.58ZM84.4986 57.822C86.1921 58.08 87.5616 59.6865 87.4956 61.3755L87.4911 61.5015C85.6101 61.3695 83.7366 62.115 81.8631 62.187C79.6506 61.8105 80.0736 59.355 80.6286 57.63L82.0701 57.564C82.1916 57.657 82.3386 57.717 82.5021 57.714C83.1726 57.7485 83.9796 57.732 84.4986 57.822ZM71.7891 38.364C73.6356 38.613 75.2481 39.8925 75.9261 41.652C77.8911 46.533 79.7466 51.4575 81.5241 56.4105L62.4756 55.545C62.2866 50.052 62.1216 44.1645 62.0871 38.8035C65.3166 38.5965 68.5626 38.274 71.7891 38.364ZM18.4206 13.9215C30.0591 2.78852 49.2981 11.052 49.6566 27C49.9596 43.476 29.8521 52.128 18.1326 40.3665C10.8876 33.3525 11.0196 20.709 18.4206 13.9215ZM5.50555 25.5615C7.24255 25.4745 9.44305 25.4745 11.3706 25.3845C11.0091 31.176 12.9771 37.1085 17.2911 41.211C30.0096 53.889 52.0566 45.09 52.3446 27C52.3566 26.403 52.3416 25.8165 52.3071 25.239C53.1681 25.1805 54.0291 25.116 54.8886 25.0635L56.9451 24.942C58.6686 24.8085 60.2856 26.004 60.6966 27.699C60.9246 28.764 60.8046 30.5565 60.8661 31.653C60.9921 35.7135 60.9636 39.9015 60.8646 44.148C60.6081 43.9935 60.3231 43.836 60.0156 43.677C58.5966 42.9465 56.8206 42.2265 56.5476 42.0585C55.6641 41.703 54.7836 41.343 53.8896 41.0115C52.9956 40.68 52.0896 40.3785 51.1551 40.143C50.9946 40.1025 50.8206 40.167 50.7276 40.314C50.6121 40.497 50.6676 40.7385 50.8506 40.854C52.5021 41.829 54.2046 42.6915 55.9551 43.4415C56.8311 43.8165 57.7176 44.1645 58.6176 44.4825C59.3481 44.7405 60.0906 44.9685 60.8361 45.189C60.7986 46.6455 60.7581 48.105 60.7086 49.572C60.3396 49.3425 59.9241 49.107 59.4771 48.8715C57.9426 48.0585 56.1756 47.265 55.3236 46.824C55.3011 46.812 55.2786 46.8 55.2576 46.7895C54.2046 46.2885 53.1246 45.846 52.0461 45.4005C50.9661 44.9535 49.8726 44.535 48.7521 44.1795C48.6861 44.1585 48.6186 44.1465 48.5526 44.142C48.4266 44.133 48.2961 44.193 48.2226 44.3115C48.1401 44.442 48.1536 44.6055 48.2391 44.7165C48.3006 44.7945 48.3786 44.8695 48.4731 44.925C50.4606 46.1205 52.5156 47.1795 54.6096 48.15L54.7536 48.216C55.8246 48.7095 56.9091 49.176 58.0056 49.614C58.8861 49.9665 59.7801 50.2875 60.6756 50.604C60.6246 52.056 60.5691 53.5125 60.5151 54.969C60.0261 54.669 59.4921 54.3645 58.9386 54.066C57.2511 53.1525 55.4391 52.2645 54.0741 51.5745C54.0381 51.5565 54.0021 51.5385 53.9661 51.5205C52.7211 50.9235 51.4641 50.3505 50.2011 49.7895C48.9336 49.227 47.6541 48.6915 46.3461 48.216C46.2696 48.1875 46.1916 48.165 46.1151 48.1455C45.9666 48.1065 45.8016 48.168 45.7131 48.309C45.6156 48.465 45.6501 48.6675 45.7851 48.7785C45.8796 48.8565 45.9831 48.93 46.0941 48.9975C48.4671 50.412 50.9016 51.708 53.3796 52.911L53.5506 52.9935C54.8181 53.6055 56.0976 54.1905 57.3906 54.7485C58.4091 55.188 59.4411 55.5975 60.4761 56.004C60.4206 57.4605 60.3711 58.9125 60.3201 60.366C57.8676 58.9275 55.3446 57.63 52.8246 56.3265C49.8111 54.8655 46.8081 53.382 43.6791 52.152C43.5081 52.0845 43.3071 52.1475 43.2066 52.3095C43.0941 52.491 43.1496 52.731 43.3326 52.8435C46.2156 54.5625 49.1556 56.172 52.1511 57.672C54.8166 59.007 57.5331 60.2415 60.2841 61.4025C60.2301 62.994 60.1881 64.5765 60.1476 66.1575C59.7216 65.8785 59.2746 65.595 58.8141 65.3085C57.0066 64.1865 55.0491 63.069 53.7111 62.346C52.3386 61.6035 50.9616 60.8685 49.5711 60.156C48.2001 59.4525 46.8126 58.7805 45.3936 58.161C45.2271 58.089 45.0276 58.14 44.9196 58.2945C44.8056 58.458 44.8386 58.6785 44.9871 58.8C45.0246 58.83 45.0636 58.86 45.1056 58.887C47.6616 60.5895 50.2911 62.169 52.9731 63.6525C54.3366 64.407 55.7166 65.133 57.1101 65.8335C58.1016 66.3315 59.1096 66.7995 60.1161 67.2705C60.0801 68.838 60.0651 70.392 60.0531 71.9415C59.7786 71.7435 59.4921 71.541 59.1951 71.3355C57.4296 70.1145 55.3926 68.847 54.5961 68.364C53.3706 67.6185 52.1361 66.891 50.8896 66.1785C49.6536 65.4705 48.3981 64.7955 47.1096 64.17C46.9491 64.092 46.7496 64.1325 46.6356 64.2795C46.5216 64.425 46.5321 64.626 46.6461 64.7565C46.6746 64.7895 46.7076 64.8225 46.7451 64.8495C49.0176 66.564 51.3816 68.1405 53.7981 69.633C55.0176 70.3845 56.2536 71.1105 57.5061 71.811C58.3416 72.279 59.1951 72.717 60.0456 73.161C60.0411 74.7105 60.0621 76.2405 60.0921 77.7645C59.9256 77.6325 59.7561 77.4975 59.5791 77.3625C57.8556 76.041 55.7346 74.6325 55.4841 74.382C54.3966 73.65 53.3136 72.912 52.2111 72.201C51.1086 71.49 49.9881 70.806 48.8271 70.179C48.6711 70.095 48.4731 70.125 48.3516 70.2645C48.2091 70.425 48.2241 70.671 48.3861 70.8135C50.3946 72.5145 52.4751 74.115 54.6246 75.615C55.7001 76.365 56.7921 77.091 57.9021 77.79C58.6311 78.249 59.3781 78.681 60.1221 79.1175C60.1326 79.4715 60.1326 79.8315 60.1446 80.1825C58.8486 80.2605 57.5511 80.3295 56.2551 80.361C47.2836 80.829 37.3086 79.2045 28.2651 79.6065C27.1011 69.7545 12.5001 69.873 11.3646 79.6935C9.64705 79.8165 7.90855 79.893 6.19705 79.992C3.71905 80.244 2.00605 78.0345 2.23255 75.621C2.22505 75.399 2.22505 75.162 2.21755 74.9385C3.49855 75.0915 4.74655 74.9355 6.10555 74.8035C7.56655 74.6955 8.63455 73.3185 8.50855 72.039C8.29105 70.4835 8.12005 69.0225 8.09755 67.458C7.92205 64.6455 4.32205 65.457 2.09305 64.8555C2.11255 55.8795 2.41555 46.3995 2.68405 37.5C3.68455 37.5525 4.68505 37.413 5.68555 37.3065C6.64405 37.332 8.02855 36.6195 8.31955 35.454C8.47705 35.004 8.43505 34.4685 8.35555 34.0395C8.28205 33.5205 8.17255 32.4735 8.13955 31.95C8.18305 31.041 7.82605 30.0735 6.97855 29.6385C5.60455 29.2065 4.28005 29.2725 2.92255 29.0355C2.83105 27.417 3.83605 25.8 5.51305 25.5555L5.50555 25.5615ZM2.14855 72.0645C2.11855 70.4655 2.10055 68.8425 2.09455 67.1925C3.41305 66.864 4.75105 66.711 6.03055 66.636C6.48205 66.579 6.92605 67.02 6.90655 67.4835C6.88855 68.9685 6.71755 70.5435 6.49555 72.009C6.38605 72.276 6.08905 72.282 6.00655 72.1875C4.78405 72.063 3.44755 71.8995 2.14705 72.066L2.14855 72.0645ZM6.41905 30.6975C6.60205 30.792 6.77455 30.948 6.84055 31.152C6.97255 31.62 6.79555 32.5035 6.78205 33C6.69805 33.3495 6.70405 34.4685 6.45955 34.689C6.09655 34.932 6.25555 34.7265 5.67805 34.689C4.70755 34.5855 3.73705 34.455 2.76655 34.494C2.80105 33.3075 2.83255 32.157 2.86255 31.0005C4.05955 30.7275 5.29855 30.5475 6.41905 30.6975Z" fill="white"/>
<path d="M27.7231 36.8959C28.2316 37.3714 29.0716 37.2769 29.4586 36.6979C33.3301 31.1059 37.2241 25.5274 41.1796 19.9954C41.4466 19.6219 41.3656 19.1014 40.9951 18.8284C40.6216 18.5539 40.0951 18.6334 39.8206 19.0069C37.8046 21.7444 35.7631 24.4654 33.7066 27.1744C31.9366 29.5039 30.1816 31.8439 28.4041 34.1674C26.7781 32.4364 25.1431 30.7159 23.5606 28.9414C22.1311 27.4174 19.9201 29.6359 21.4396 31.0624C23.5741 32.9674 25.6321 34.9474 27.7231 36.8959Z" fill="white"/>
</svg>
