<svg width="1207" height="349" viewBox="0 0 1207 349" fill="none" xmlns="http://www.w3.org/2000/svg">
<path d="M342.5 177L342.116 176.077L342.5 177ZM727 134.5L726.119 134.027L727 134.5ZM708.5 4.00019L708.385 4.99357L708.5 4.00019ZM927 346.5L926.895 347.495L927 346.5ZM1206.96 273.778C1207.11 273.247 1206.81 272.693 1206.28 272.54L1197.63 270.039C1197.1 269.885 1196.55 270.191 1196.39 270.721C1196.24 271.252 1196.55 271.807 1197.08 271.96L1204.76 274.183L1202.54 281.868C1202.39 282.398 1202.69 282.953 1203.22 283.106C1203.75 283.26 1204.31 282.954 1204.46 282.424L1206.96 273.778ZM640 46.0002L640.131 46.9915L640 46.0002ZM927 346.5L926.895 347.495C976.294 352.716 1033.2 341.587 1084.2 325.604C1135.22 309.617 1180.43 288.74 1206.48 274.376L1206 273.5L1205.52 272.624C1179.57 286.927 1134.48 307.75 1083.6 323.696C1032.7 339.646 976.106 350.685 927.105 345.506L927 346.5ZM231 4.00013V3.00013C189.325 3.00013 162.724 19.1301 149.584 42.2198C136.47 65.2634 136.892 95.0192 148.786 122.058C160.686 149.11 184.1 173.531 217.122 185.954C250.156 198.382 292.723 198.775 342.884 177.924L342.5 177L342.116 176.077C292.347 196.765 250.311 196.303 217.826 184.082C185.33 171.857 162.309 147.834 150.617 121.252C138.917 94.6557 138.588 65.5841 151.322 43.209C164.029 20.8801 189.873 5.00013 231 5.00013V4.00013ZM1 273.5L0.92454 274.497C116.65 283.255 204.269 270.782 266.779 247.091C329.28 223.404 366.754 188.468 382.012 152.264C397.286 116.021 390.235 78.6348 363.944 50.3506C337.677 22.0928 292.296 3.00013 231 3.00013V4.00013V5.00013C291.908 5.00013 336.692 23.9699 362.479 51.7122C388.242 79.428 395.134 115.979 380.169 151.487C365.189 187.032 328.242 221.659 266.07 245.221C203.908 268.78 116.6 281.245 1.07546 272.503L1 273.5ZM727 134.5L726.119 134.027C714.318 156.013 700.217 169.814 685.25 177.286C670.287 184.755 654.376 185.941 638.872 182.557C607.819 175.778 578.441 150.661 562.007 121.144C545.565 91.6145 542.253 58.0465 562.675 34.1882C583.146 10.2731 627.802 -4.32682 708.385 4.99357L708.5 4.00019L708.615 3.00682C627.875 -6.3318 582.308 8.17626 561.155 32.8876C539.954 57.6557 543.62 92.2326 560.259 122.117C576.906 152.016 606.711 177.583 638.446 184.511C654.336 187.979 670.721 186.774 686.143 179.075C701.56 171.379 715.932 157.237 727.881 134.973L727 134.5ZM708.5 4.00019L708.385 4.99357C734.198 7.97913 753.427 15.1702 767.787 25.4592C782.139 35.7437 791.688 49.1676 798.073 64.7248C810.872 95.9125 810.924 135.556 811.41 175.474C811.895 215.271 812.811 255.332 827.587 286.897C834.991 302.712 845.875 316.406 861.912 326.876C877.94 337.342 899.062 344.553 926.895 347.495L927 346.5L927.105 345.506C899.503 342.588 878.705 335.452 863.005 325.202C847.314 314.957 836.663 301.566 829.399 286.049C814.84 254.947 813.896 215.348 813.41 175.45C812.926 135.672 812.899 95.5847 799.923 63.9655C793.42 48.1192 783.657 34.3707 768.952 23.8335C754.253 13.301 734.677 6.02126 708.615 3.00682L708.5 4.00019ZM342.5 177L342.884 177.924C344.69 177.173 348.975 174.771 355.206 171.188C361.487 167.576 369.778 162.742 379.723 157.035C399.59 145.634 425.931 130.823 455.301 115.735C514.079 85.5386 584.857 54.3035 640.131 46.9915L640 46.0002L639.869 45.0088C584.218 52.3706 513.167 83.7585 454.387 113.956C424.978 129.064 398.607 143.892 378.727 155.3C368.799 160.997 360.458 165.861 354.209 169.454C347.911 173.076 343.771 175.389 342.116 176.077L342.5 177ZM640 46.0002L640.131 46.9915C670.819 42.932 698.458 53.4006 715.334 70.5331C732.192 87.6482 738.287 111.356 726.119 134.027L727 134.5L727.881 134.973C740.538 111.392 734.115 86.7505 716.759 69.1296C699.419 51.5262 671.145 40.8714 639.869 45.0088L640 46.0002Z" fill="#3F3F3F"/>
<path d="M4.6 244C4.42667 244 4.28 243.947 4.16 243.84C4.05333 243.72 4 243.573 4 243.4V228.98C4 228.793 4.05333 228.647 4.16 228.54C4.28 228.433 4.42667 228.38 4.6 228.38H15.24C15.4267 228.38 15.5733 228.433 15.68 228.54C15.7867 228.647 15.84 228.793 15.84 228.98V243.4C15.84 243.573 15.7867 243.72 15.68 243.84C15.5733 243.947 15.4267 244 15.24 244C15.0667 244 14.92 243.947 14.8 243.84C14.6933 243.72 14.64 243.573 14.64 243.4V229.58H5.2V243.4C5.2 243.573 5.14667 243.72 5.04 243.84C4.93333 243.947 4.78667 244 4.6 244ZM21.6198 244.16C20.9932 244.16 20.3865 243.94 19.7998 243.5C19.6398 243.38 19.5598 243.247 19.5598 243.1C19.5598 242.953 19.6265 242.807 19.7598 242.66C19.8932 242.513 20.0265 242.447 20.1598 242.46C20.3065 242.46 20.4532 242.513 20.5998 242.62C20.7732 242.74 20.9332 242.827 21.0798 242.88C21.2398 242.933 21.4332 242.96 21.6598 242.96C22.0998 242.96 22.5332 242.773 22.9598 242.4C23.3998 242.027 23.7798 241.493 24.0998 240.8L29.6198 228.76C29.7798 228.4 30.0465 228.3 30.4198 228.46C30.7798 228.62 30.8798 228.88 30.7198 229.24L25.1798 241.3C24.7665 242.207 24.2398 242.913 23.5998 243.42C22.9732 243.913 22.3132 244.16 21.6198 244.16ZM24.5998 240.84L17.9198 229.3C17.7065 228.94 17.7798 228.667 18.1398 228.48C18.4998 228.293 18.7732 228.373 18.9598 228.72L25.4798 240.24L24.5998 240.84ZM38.3828 244C38.2095 244 38.0628 243.947 37.9428 243.84C37.8361 243.72 37.7828 243.573 37.7828 243.4V228.38H38.9828V243.4C38.9828 243.573 38.9228 243.72 38.8028 243.84C38.6961 243.947 38.5561 244 38.3828 244ZM32.7228 229.46C32.5628 229.46 32.4295 229.413 32.3228 229.32C32.2295 229.213 32.1828 229.08 32.1828 228.92C32.1828 228.76 32.2295 228.633 32.3228 228.54C32.4295 228.433 32.5628 228.38 32.7228 228.38H44.0428C44.2028 228.38 44.3295 228.433 44.4228 228.54C44.5295 228.633 44.5828 228.76 44.5828 228.92C44.5828 229.08 44.5295 229.213 44.4228 229.32C44.3295 229.413 44.2028 229.46 44.0428 229.46H32.7228ZM47.6706 244C47.444 244 47.2573 243.953 47.1106 243.86C46.964 243.753 46.8906 243.6 46.8906 243.4V228.92C46.8906 228.76 46.944 228.633 47.0506 228.54C47.1706 228.433 47.3173 228.38 47.4906 228.38C47.6773 228.38 47.824 228.433 47.9306 228.54C48.0373 228.633 48.0906 228.76 48.0906 228.92V234.78H52.8906C53.7973 234.78 54.5906 234.98 55.2706 235.38C55.964 235.767 56.504 236.307 56.8906 237C57.2906 237.693 57.4906 238.493 57.4906 239.4C57.4906 240.293 57.2906 241.087 56.8906 241.78C56.504 242.473 55.964 243.02 55.2706 243.42C54.5906 243.807 53.7973 244 52.8906 244H47.6706ZM48.0906 242.92H52.8906C53.5573 242.92 54.144 242.76 54.6506 242.44C55.1706 242.107 55.5706 241.667 55.8506 241.12C56.144 240.56 56.2906 239.953 56.2906 239.3C56.2906 238.633 56.144 238.04 55.8506 237.52C55.5706 237 55.1706 236.593 54.6506 236.3C54.144 236.007 53.5573 235.86 52.8906 235.86H48.0906V242.92ZM67.2214 244C66.9947 244 66.8081 243.953 66.6614 243.86C66.5147 243.753 66.4414 243.6 66.4414 243.4V228.98C66.4414 228.793 66.4947 228.647 66.6014 228.54C66.7214 228.433 66.8681 228.38 67.0414 228.38H75.6014C75.7481 228.38 75.8747 228.433 75.9814 228.54C76.0881 228.647 76.1414 228.793 76.1414 228.98C76.1414 229.193 76.0881 229.347 75.9814 229.44C75.8747 229.533 75.7481 229.58 75.6014 229.58H67.6414V234.78H72.8414C73.7481 234.78 74.5414 234.98 75.2214 235.38C75.9147 235.767 76.4547 236.307 76.8414 237C77.2414 237.693 77.4414 238.493 77.4414 239.4C77.4414 240.293 77.2414 241.087 76.8414 241.78C76.4547 242.473 75.9147 243.02 75.2214 243.42C74.5414 243.807 73.7481 244 72.8414 244H67.2214ZM67.6414 242.8H72.8414C73.5081 242.8 74.0947 242.647 74.6014 242.34C75.1214 242.033 75.5214 241.62 75.8014 241.1C76.0947 240.567 76.2414 239.973 76.2414 239.32C76.2414 238.653 76.0947 238.06 75.8014 237.54C75.5214 237.02 75.1214 236.613 74.6014 236.32C74.0947 236.013 73.5081 235.86 72.8414 235.86H67.6414V242.8ZM81.143 244C80.9696 244 80.823 243.947 80.703 243.84C80.5963 243.72 80.543 243.573 80.543 243.4V228.98C80.543 228.807 80.5963 228.667 80.703 228.56C80.823 228.44 80.9696 228.38 81.143 228.38H90.763C90.923 228.38 91.063 228.44 91.183 228.56C91.303 228.667 91.363 228.807 91.363 228.98C91.363 229.14 91.303 229.28 91.183 229.4C91.063 229.52 90.923 229.58 90.763 229.58H81.743V235.58H88.363C88.5363 235.58 88.6763 235.64 88.783 235.76C88.903 235.867 88.963 236.007 88.963 236.18C88.963 236.353 88.903 236.5 88.783 236.62C88.6763 236.74 88.5363 236.8 88.363 236.8H81.743V242.8H90.763C90.923 242.8 91.063 242.86 91.183 242.98C91.303 243.1 91.363 243.24 91.363 243.4C91.363 243.573 91.303 243.72 91.183 243.84C91.063 243.947 90.923 244 90.763 244H81.143ZM98.2739 244.2C97.6339 244.2 97.0206 244.127 96.4339 243.98C95.8472 243.82 95.3072 243.6 94.8139 243.32C94.3206 243.027 93.8806 242.68 93.4939 242.28C93.3872 242.16 93.3406 242.027 93.3539 241.88C93.3672 241.72 93.4406 241.573 93.5739 241.44C93.6939 241.333 93.8339 241.287 93.9939 241.3C94.1539 241.3 94.2939 241.367 94.4139 241.5C94.9206 241.993 95.4939 242.367 96.1339 242.62C96.7872 242.873 97.5006 243 98.2739 243C99.0339 243 99.7006 242.873 100.274 242.62C100.861 242.353 101.314 241.973 101.634 241.48C101.967 240.987 102.134 240.38 102.134 239.66C102.134 238.553 101.827 237.713 101.214 237.14C100.601 236.553 99.8139 236.26 98.8539 236.26H97.6539C97.4806 236.26 97.3339 236.213 97.2139 236.12C97.1072 236.013 97.0539 235.88 97.0539 235.72C97.0539 235.56 97.1072 235.433 97.2139 235.34C97.3206 235.233 97.4606 235.18 97.6339 235.18H98.8339C99.6206 235.18 100.274 234.92 100.794 234.4C101.314 233.88 101.574 233.133 101.574 232.16C101.574 231.253 101.254 230.567 100.614 230.1C99.9872 229.633 99.1739 229.4 98.1739 229.4C97.4406 229.4 96.7806 229.54 96.1939 229.82C95.6206 230.1 95.1806 230.473 94.8739 230.94C94.7806 231.073 94.6539 231.16 94.4939 231.2C94.3339 231.227 94.1806 231.193 94.0339 231.1C93.8739 230.993 93.7806 230.867 93.7539 230.72C93.7272 230.56 93.7672 230.413 93.8739 230.28C94.3539 229.667 94.9472 229.167 95.6539 228.78C96.3606 228.393 97.2006 228.2 98.1739 228.2C99.0806 228.2 99.8739 228.373 100.554 228.72C101.247 229.053 101.787 229.52 102.174 230.12C102.574 230.707 102.774 231.387 102.774 232.16C102.774 232.653 102.687 233.12 102.514 233.56C102.354 233.987 102.121 234.367 101.814 234.7C101.507 235.033 101.147 235.307 100.734 235.52C100.321 235.72 99.8739 235.84 99.3939 235.88V235.52C99.9806 235.56 100.514 235.693 100.994 235.92C101.474 236.147 101.887 236.447 102.234 236.82C102.581 237.193 102.847 237.62 103.034 238.1C103.234 238.58 103.334 239.1 103.334 239.66C103.334 240.54 103.114 241.327 102.674 242.02C102.247 242.7 101.654 243.233 100.894 243.62C100.134 244.007 99.2606 244.2 98.2739 244.2ZM116.836 244C116.663 244 116.516 243.947 116.396 243.84C116.289 243.72 116.236 243.573 116.236 243.4V238.16L110.716 229.32C110.623 229.16 110.583 229.013 110.596 228.88C110.623 228.733 110.683 228.613 110.776 228.52C110.883 228.427 111.016 228.38 111.176 228.38C111.283 228.38 111.369 228.4 111.436 228.44C111.516 228.48 111.589 228.54 111.656 228.62L117.276 237.78H116.396L121.936 228.76C122.029 228.613 122.116 228.513 122.196 228.46C122.289 228.407 122.396 228.38 122.516 228.38C122.676 228.38 122.803 228.427 122.896 228.52C122.989 228.613 123.043 228.733 123.056 228.88C123.083 229.027 123.049 229.173 122.956 229.32L117.436 238.16V243.4C117.436 243.573 117.376 243.72 117.256 243.84C117.149 243.947 117.009 244 116.836 244ZM122.14 244C121.887 244 121.707 243.9 121.6 243.7C121.507 243.5 121.507 243.313 121.6 243.14L127.66 228.8C127.767 228.52 127.96 228.38 128.24 228.38C128.507 228.38 128.7 228.52 128.82 228.8L134.9 243.14C135.007 243.327 135 243.52 134.88 243.72C134.76 243.907 134.587 244 134.36 244C134.227 244 134.113 243.973 134.02 243.92C133.94 243.853 133.867 243.753 133.8 243.62L127.92 229.6H128.56L122.7 243.62C122.647 243.753 122.573 243.853 122.48 243.92C122.387 243.973 122.273 244 122.14 244ZM123.62 240.08L124.1 239H132.42L132.88 240.08H123.62ZM137.823 244C137.663 244 137.523 243.947 137.403 243.84C137.283 243.72 137.223 243.573 137.223 243.4V228.98C137.223 228.807 137.283 228.667 137.403 228.56C137.523 228.44 137.663 228.38 137.823 228.38C137.996 228.38 138.136 228.44 138.243 228.56C138.363 228.667 138.423 228.807 138.423 228.98V236.32L146.183 228.56C146.249 228.493 146.316 228.447 146.383 228.42C146.463 228.393 146.549 228.38 146.643 228.38C146.816 228.38 146.956 228.44 147.063 228.56C147.169 228.667 147.229 228.8 147.243 228.96C147.256 229.12 147.196 229.273 147.063 229.42L141.323 235.16L147.123 243.04C147.229 243.187 147.269 243.34 147.243 243.5C147.216 243.647 147.149 243.767 147.043 243.86C146.936 243.953 146.809 244 146.663 244C146.436 244 146.263 243.913 146.143 243.74L140.443 236.04L138.423 238.06V243.4C138.423 243.573 138.363 243.72 138.243 243.84C138.136 243.947 137.996 244 137.823 244ZM150.772 244C150.599 244 150.452 243.947 150.332 243.84C150.225 243.72 150.172 243.573 150.172 243.4V228.98C150.172 228.807 150.225 228.667 150.332 228.56C150.452 228.44 150.599 228.38 150.772 228.38C150.945 228.38 151.085 228.44 151.192 228.56C151.312 228.667 151.372 228.807 151.372 228.98V243.4C151.372 243.573 151.312 243.72 151.192 243.84C151.085 243.947 150.945 244 150.772 244ZM155.967 244C155.794 244 155.647 243.947 155.527 243.84C155.421 243.72 155.367 243.573 155.367 243.4V228.98C155.367 228.807 155.421 228.667 155.527 228.56C155.647 228.44 155.794 228.38 155.967 228.38C156.234 228.38 156.414 228.48 156.507 228.68L163.587 242.66H162.887L169.867 228.68C169.987 228.48 170.167 228.38 170.407 228.38C170.581 228.38 170.721 228.44 170.827 228.56C170.934 228.667 170.987 228.807 170.987 228.98V243.4C170.987 243.573 170.934 243.72 170.827 243.84C170.721 243.947 170.581 244 170.407 244C170.234 244 170.087 243.947 169.967 243.84C169.847 243.72 169.787 243.573 169.787 243.4V230.42L170.087 230.52L163.707 243.52C163.614 243.707 163.441 243.8 163.187 243.8C162.947 243.8 162.761 243.673 162.627 243.42L156.167 230.52L156.567 230.42V243.4C156.567 243.573 156.507 243.72 156.387 243.84C156.281 243.947 156.141 244 155.967 244ZM173.976 244C173.723 244 173.543 243.9 173.436 243.7C173.343 243.5 173.343 243.313 173.436 243.14L179.496 228.8C179.603 228.52 179.796 228.38 180.076 228.38C180.343 228.38 180.536 228.52 180.656 228.8L186.736 243.14C186.843 243.327 186.836 243.52 186.716 243.72C186.596 243.907 186.423 244 186.196 244C186.063 244 185.949 243.973 185.856 243.92C185.776 243.853 185.703 243.753 185.636 243.62L179.756 229.6H180.396L174.536 243.62C174.483 243.753 174.409 243.853 174.316 243.92C174.223 243.973 174.109 244 173.976 244ZM175.456 240.08L175.936 239H184.256L184.716 240.08H175.456ZM189.659 244C189.499 244 189.359 243.947 189.239 243.84C189.119 243.72 189.059 243.573 189.059 243.4V228.98C189.059 228.807 189.119 228.667 189.239 228.56C189.359 228.44 189.499 228.38 189.659 228.38C189.832 228.38 189.972 228.44 190.079 228.56C190.199 228.667 190.259 228.807 190.259 228.98V242.92H198.479C198.665 242.92 198.812 242.973 198.919 243.08C199.025 243.173 199.079 243.3 199.079 243.46C199.079 243.62 199.025 243.753 198.919 243.86C198.812 243.953 198.665 244 198.479 244H189.659Z" fill="black"/>
</svg>
