<svg width="279" height="273" viewBox="0 0 279 273" fill="none" xmlns="http://www.w3.org/2000/svg">
<path d="M139.5 16.4984C172.251 16.4984 203.059 28.9791 226.217 51.5896C249.376 74.2001 262.138 104.333 262.138 136.347C262.138 168.361 249.334 198.451 226.175 221.104C203.017 243.758 172.209 256.195 139.458 256.195C106.706 256.195 75.9411 243.715 52.7826 221.104C29.6242 198.494 16.8617 168.361 16.8617 136.347C16.8617 104.333 29.6242 74.2428 52.7826 51.5896C75.9411 28.9363 106.749 16.4984 139.5 16.4984ZM139.5 0C62.4602 0 0 61.0355 0 136.347C0 211.658 62.4602 272.694 139.5 272.694C216.54 272.694 279 211.658 279 136.347C279 61.0355 216.54 0 139.5 0Z" fill="#C5594D"/>
<path d="M139.459 64.4591C158.137 64.4591 173.9 52.1307 178.549 35.3231C173.309 33.4034 167.9 31.8677 162.363 30.7159C159.743 40.6554 150.446 47.9928 139.459 47.9928C128.429 47.9928 119.174 40.6554 116.554 30.7159C110.975 31.8677 105.566 33.4034 100.368 35.3231C105.059 52.1307 120.78 64.4591 139.459 64.4591Z" fill="#C5594D"/>
<path d="M183.956 189.109C183.956 160.784 207.579 137.748 236.612 137.748C241.26 137.748 245.782 138.345 250.05 139.454C250.093 138.43 250.093 137.406 250.093 136.383C250.093 131.647 249.797 126.998 249.163 122.433C245.064 121.708 240.88 121.324 236.569 121.324C198.155 121.324 167.052 151.697 167.052 189.152C167.052 206.684 173.898 222.682 185.097 234.711C190.464 232.365 195.577 229.592 200.437 226.436C190.295 217.051 183.956 203.784 183.956 189.109Z" fill="#C5594D"/>
<path d="M42.3433 94.3623C40.6952 94.3623 39.0893 94.4049 37.4834 94.4903C35.1169 99.9506 33.2152 105.624 31.7783 111.511C35.2436 111.085 38.7512 110.829 42.3433 110.829C86.5895 110.829 122.595 145.937 122.595 189.108C122.595 207.92 115.749 225.197 104.381 238.72C110.128 240.597 116.129 242.047 122.257 242.943C133.118 227.629 139.457 209.072 139.457 189.065C139.499 136.765 96.0134 94.3623 42.3433 94.3623Z" fill="#C5594D"/>
<path d="M156.36 189.108C156.36 145.937 192.366 110.829 236.612 110.829C240.204 110.829 243.711 111.042 247.177 111.511C245.74 105.624 243.838 99.9506 241.472 94.4903C239.866 94.4049 238.218 94.3623 236.612 94.3623C182.984 94.3623 139.456 136.765 139.456 189.108C139.456 209.115 145.795 227.671 156.656 242.986C162.784 242.047 168.784 240.64 174.532 238.763C163.206 225.197 156.36 207.92 156.36 189.108Z" fill="#C5594D"/>
<path d="M139.459 92.742C169.167 92.742 194.523 74.5693 204.497 48.974C199.848 45.6893 194.946 42.7031 189.748 40.1436C183.071 61.0465 163.04 76.2757 139.459 76.2757C115.878 76.2757 95.8464 61.0891 89.1693 40.1863C84.0136 42.7458 79.1115 45.7319 74.4629 49.0166C84.394 74.612 109.75 92.742 139.459 92.742Z" fill="#C5594D"/>
<path d="M82.8716 189.108C82.8716 167.267 64.7421 149.564 42.3443 149.564C37.9916 149.564 33.8501 150.246 29.9199 151.441C30.7229 156.986 31.9484 162.404 33.5543 167.651C36.2589 166.584 39.2171 165.987 42.3443 165.987C55.4027 165.987 66.0099 176.311 66.0099 189.066C66.0099 196.659 62.2488 203.399 56.4169 207.622C60.178 211.76 64.235 215.642 68.5878 219.183C77.3356 211.973 82.8716 201.181 82.8716 189.108Z" fill="#C5594D"/>
<path d="M139.454 119.702C176.939 119.702 209.437 99.0124 225.664 68.6819C221.861 64.0748 217.72 59.8089 213.198 55.8843C200.9 83.7405 172.459 103.236 139.454 103.236C106.449 103.236 78.0505 83.7405 65.7528 55.9269C61.2733 59.8515 57.0895 64.1174 53.2861 68.7246C69.4717 99.0124 101.97 119.702 139.454 119.702Z" fill="#C5594D"/>
<path d="M212.945 189.108C212.945 176.353 223.552 166.03 236.61 166.03C239.695 166.03 242.653 166.627 245.4 167.651C247.006 162.404 248.274 156.986 249.035 151.441C245.105 150.203 240.963 149.564 236.61 149.564C214.213 149.564 196.083 167.267 196.083 189.108C196.083 201.181 201.619 211.973 210.367 219.226C214.72 215.685 218.777 211.803 222.538 207.665C216.706 203.442 212.945 196.702 212.945 189.108Z" fill="#C5594D"/>
<path d="M42.3432 137.747C71.3758 137.747 94.9991 160.783 94.9991 189.108C94.9991 203.783 88.6601 217.05 78.5177 226.435C83.3776 229.549 88.4911 232.321 93.8581 234.71C105.057 222.681 111.903 206.684 111.903 189.108C111.903 151.654 80.7575 121.28 42.3855 121.28C38.075 121.28 33.8912 121.664 29.792 122.39C29.2004 126.954 28.8623 131.604 28.8623 136.339C28.8623 137.363 28.8623 138.387 28.9046 139.41C33.1728 138.301 37.6946 137.747 42.3432 137.747Z" fill="#C5594D"/>
</svg>
