<svg width="202" height="202" viewBox="0 0 202 202" fill="none" xmlns="http://www.w3.org/2000/svg">
<path d="M55.1914 6.32393H61.2995V0.21582C57.9261 0.215833 55.1914 2.95047 55.1914 6.32393Z" fill="#3A3A3A"/>
<path d="M61.3008 0.21582V6.32393H67.4089C67.4089 2.95046 64.6742 0.21582 61.3008 0.21582Z" fill="#3A3A3A"/>
<path d="M91.8398 6.32393H97.948V0.21582C94.5746 0.215833 91.8398 2.95047 91.8398 6.32393Z" fill="#3A3A3A"/>
<path d="M104.057 0.21582H97.9492V6.32393H104.057V0.21582Z" fill="#3A3A3A"/>
<path d="M104.055 0.21582V6.32393H110.163C110.163 2.95046 107.428 0.21582 104.055 0.21582Z" fill="#3A3A3A"/>
<path d="M131.542 0.21582C133.229 0.21582 134.596 1.58318 134.596 3.26987C134.596 4.95665 133.229 6.32393 131.542 6.32393C129.856 6.32393 128.488 4.95665 128.488 3.26987C128.488 1.58318 129.856 0.21582 131.542 0.21582Z" fill="#3A3A3A"/>
<path d="M140.707 6.32393H146.815V0.21582C143.442 0.215833 140.707 2.95047 140.707 6.32393Z" fill="#3A3A3A"/>
<path d="M149.867 6.32393C149.155 6.32393 146.812 6.32393 146.812 6.32393C146.812 6.32393 146.812 4.24464 146.812 3.26987C146.812 2.50851 146.812 0.21582 146.812 0.21582C146.812 0.21582 148.941 0.21582 149.867 0.21582C151.553 0.21582 152.921 1.58317 152.921 3.26987C152.921 4.95649 151.553 6.32393 149.867 6.32393Z" fill="#3A3A3A"/>
<path d="M61.2995 12.4323V6.32422H55.1914C55.1914 9.69763 57.926 12.4323 61.2995 12.4323Z" fill="#3A3A3A"/>
<path d="M67.4089 6.32422H61.3008V12.4323H67.4089V6.32422Z" fill="#3A3A3A"/>
<path d="M70.4603 12.4323C69.7485 12.4323 67.4062 12.4323 67.4062 12.4323C67.4062 12.4323 67.4062 10.353 67.4062 9.37827C67.4062 8.61691 67.4062 6.32422 67.4062 6.32422C67.4062 6.32422 69.5351 6.32422 70.4603 6.32422C72.1469 6.32422 73.5144 7.69157 73.5144 9.37827C73.5144 11.0649 72.1469 12.4323 70.4603 12.4323Z" fill="#3A3A3A"/>
<path d="M97.948 12.4323V6.32422H91.8398C91.8399 9.69763 94.5745 12.4323 97.948 12.4323Z" fill="#3A3A3A"/>
<path d="M104.057 6.32422H97.9492V12.4323H104.057V6.32422Z" fill="#3A3A3A"/>
<path d="M110.163 6.32422H104.055V12.4323H110.163V6.32422Z" fill="#3A3A3A"/>
<path d="M125.437 6.32422C127.124 6.32422 128.491 7.69158 128.491 9.37827C128.491 11.0651 127.124 12.4323 125.437 12.4323C123.75 12.4323 122.383 11.0651 122.383 9.37827C122.383 7.69158 123.75 6.32422 125.437 6.32422Z" fill="#3A3A3A"/>
<path d="M146.815 6.32422H140.707V12.4323H146.815V6.32422Z" fill="#3A3A3A"/>
<path d="M110.163 18.5397V12.4316H104.055C104.055 15.8051 106.789 18.5397 110.163 18.5397Z" fill="#3A3A3A"/>
<path d="M116.272 12.4316H110.164V18.5397H116.272V12.4316Z" fill="#3A3A3A"/>
<path d="M116.273 12.4316V18.5397H122.382C122.382 15.1663 119.647 12.4316 116.273 12.4316Z" fill="#3A3A3A"/>
<path d="M146.815 12.4316H140.707V18.5397H146.815V12.4316Z" fill="#3A3A3A"/>
<path d="M79.6237 21.5941C79.6237 22.3059 79.6237 24.6481 79.6237 24.6481C79.6237 24.6481 77.5446 24.6481 76.5697 24.648C75.8083 24.6481 73.5156 24.648 73.5156 24.648C73.5156 24.648 73.5156 22.5194 73.5156 21.594C73.5157 19.9074 74.883 18.54 76.5696 18.54C78.2563 18.54 79.6237 19.9074 79.6237 21.5941Z" fill="#3A3A3A"/>
<path d="M85.7305 24.6481H91.8386V18.54C88.4652 18.5401 85.7305 21.2747 85.7305 24.6481Z" fill="#3A3A3A"/>
<path d="M91.8398 18.54V24.6481H97.948C97.948 21.2747 95.2133 18.54 91.8398 18.54Z" fill="#3A3A3A"/>
<path d="M116.273 21.5941C116.273 20.8822 116.273 18.54 116.273 18.54C116.273 18.54 118.353 18.54 119.327 18.54C120.089 18.54 122.382 18.54 122.382 18.54C122.382 18.54 122.382 20.6688 122.382 21.5941C122.382 23.2807 121.014 24.6481 119.327 24.6481C117.641 24.6481 116.273 23.2807 116.273 21.5941Z" fill="#3A3A3A"/>
<path d="M137.652 18.54C138.364 18.54 140.706 18.54 140.706 18.54C140.706 18.54 140.706 20.619 140.706 21.5941C140.706 22.3552 140.706 24.6481 140.706 24.6481C140.706 24.6481 138.577 24.6481 137.652 24.6481C135.964 24.6481 134.598 23.2802 134.598 21.5941C134.598 19.9078 135.964 18.54 137.652 18.54Z" fill="#3A3A3A"/>
<path d="M146.815 18.54H140.707V24.6481H146.815V18.54Z" fill="#3A3A3A"/>
<path d="M146.812 18.54V24.6481H152.921C152.921 21.2747 150.186 18.54 146.812 18.54Z" fill="#3A3A3A"/>
<path d="M52.14 24.6484C52.8518 24.6484 55.194 24.6484 55.194 24.6484C55.194 24.6484 55.194 26.7274 55.194 27.7025C55.194 28.4636 55.194 30.7565 55.194 30.7565C55.194 30.7565 53.0657 30.7565 52.14 30.7565C50.4527 30.7565 49.0859 29.3886 49.0859 27.7025C49.0859 26.0162 50.4527 24.6484 52.14 24.6484Z" fill="#3A3A3A"/>
<path d="M61.2995 24.6484H55.1914V30.7565H61.2995V24.6484Z" fill="#3A3A3A"/>
<path d="M67.4089 24.6484H61.3008V30.7565H67.4089V24.6484Z" fill="#3A3A3A"/>
<path d="M73.5144 24.6484H67.4062V30.7565H73.5144V24.6484Z" fill="#3A3A3A"/>
<path d="M79.6237 24.6484H73.5156V30.7565H79.6237V24.6484Z" fill="#3A3A3A"/>
<path d="M85.7331 24.6484H79.625V30.7565H85.7331V24.6484Z" fill="#3A3A3A"/>
<path d="M91.8386 24.6484H85.7305V30.7565H91.8386V24.6484Z" fill="#3A3A3A"/>
<path d="M97.948 24.6484H91.8398V30.7565H97.948V24.6484Z" fill="#3A3A3A"/>
<path d="M97.9492 24.6484V30.7565H104.057C104.057 27.3831 101.323 24.6484 97.9492 24.6484Z" fill="#3A3A3A"/>
<path d="M113.218 24.6484C114.905 24.6484 116.272 26.0158 116.272 27.7025C116.272 29.3893 114.905 30.7565 113.218 30.7565C111.531 30.7565 110.164 29.3893 110.164 27.7025C110.164 26.0158 111.531 24.6484 113.218 24.6484Z" fill="#3A3A3A"/>
<path d="M125.437 24.6484C127.124 24.6484 128.491 26.0158 128.491 27.7025C128.491 29.3893 127.124 30.7565 125.437 30.7565C123.75 30.7565 122.383 29.3893 122.383 27.7025C122.383 26.0158 123.75 24.6484 125.437 24.6484Z" fill="#3A3A3A"/>
<path d="M146.815 24.6484H140.707V30.7565H146.815V24.6484Z" fill="#3A3A3A"/>
<path d="M152.921 24.6484H146.812V30.7565C150.186 30.7565 152.921 28.0218 152.921 24.6484Z" fill="#3A3A3A"/>
<path d="M67.4089 30.7559H61.3008V36.864H67.4089V30.7559Z" fill="#3A3A3A"/>
<path d="M73.5144 30.7559H67.4062V36.864H73.5144V30.7559Z" fill="#3A3A3A"/>
<path d="M79.6237 30.7559H73.5156V36.864H79.6237V30.7559Z" fill="#3A3A3A"/>
<path d="M85.7331 30.7559H79.625V36.864C82.9984 36.864 85.7331 34.1293 85.7331 30.7559Z" fill="#3A3A3A"/>
<path d="M104.057 30.7559H97.9492V36.864H104.057V30.7559Z" fill="#3A3A3A"/>
<path d="M119.327 30.7559C121.014 30.7559 122.382 32.1232 122.382 33.8099C122.382 35.4967 121.014 36.864 119.327 36.864C117.641 36.864 116.273 35.4967 116.273 33.8099C116.273 32.1232 117.641 30.7559 119.327 30.7559Z" fill="#3A3A3A"/>
<path d="M140.707 33.8109C140.707 33.099 140.707 30.7568 140.707 30.7568C140.707 30.7568 142.786 30.7568 143.761 30.7568C144.522 30.7568 146.815 30.7568 146.815 30.7568C146.815 30.7568 146.815 32.8856 146.815 33.8109C146.815 35.4975 145.448 36.8649 143.761 36.8649C142.074 36.8649 140.707 35.4975 140.707 33.8109Z" fill="#3A3A3A"/>
<path d="M55.194 39.9183C55.194 40.6301 55.194 42.9724 55.194 42.9724C55.194 42.9724 53.1149 42.9724 52.14 42.9722C51.3786 42.9724 49.0859 42.9722 49.0859 42.9722C49.0859 42.9722 49.0859 40.8437 49.0859 39.9182C49.086 38.2316 50.4533 36.8643 52.1399 36.8643C53.8266 36.8643 55.194 38.2316 55.194 39.9183Z" fill="#3A3A3A"/>
<path d="M61.3008 39.9183C61.3008 39.2065 61.3008 36.8643 61.3008 36.8643C61.3008 36.8643 63.38 36.8643 64.3548 36.8643C65.1162 36.8643 67.4089 36.8643 67.4089 36.8643C67.4089 36.8643 67.4089 38.9931 67.4089 39.9183C67.4089 41.6049 66.0415 42.9724 64.3548 42.9724C62.6681 42.9724 61.3008 41.6049 61.3008 39.9183Z" fill="#3A3A3A"/>
<path d="M79.6237 36.8643H73.5156V42.9724H79.6237V36.8643Z" fill="#3A3A3A"/>
<path d="M88.7845 36.8643C90.4713 36.8643 91.8386 38.2316 91.8386 39.9183C91.8386 41.6051 90.4713 42.9724 88.7845 42.9724C87.0978 42.9724 85.7305 41.6051 85.7305 39.9183C85.7305 38.2316 87.0978 36.8643 88.7845 36.8643Z" fill="#3A3A3A"/>
<path d="M97.9492 39.9183C97.9492 39.2065 97.9492 36.8643 97.9492 36.8643C97.9492 36.8643 100.028 36.8643 101.003 36.8643C101.765 36.8643 104.057 36.8643 104.057 36.8643C104.057 36.8643 104.057 38.9931 104.057 39.9183C104.057 41.6049 102.69 42.9724 101.003 42.9724C99.3166 42.9724 97.9492 41.6049 97.9492 39.9183Z" fill="#3A3A3A"/>
<path d="M116.272 39.9183C116.272 40.6301 116.272 42.9724 116.272 42.9724C116.272 42.9724 114.193 42.9724 113.218 42.9722C112.457 42.9724 110.164 42.9722 110.164 42.9722C110.164 42.9722 110.164 40.8437 110.164 39.9182C110.164 38.2316 111.531 36.8643 113.218 36.8643C114.905 36.8643 116.272 38.2316 116.272 39.9183Z" fill="#3A3A3A"/>
<path d="M125.437 36.8643C127.124 36.8643 128.491 38.2316 128.491 39.9183C128.491 41.6051 127.124 42.9724 125.437 42.9724C123.75 42.9724 122.383 41.6051 122.383 39.9183C122.383 38.2316 123.75 36.8643 125.437 36.8643Z" fill="#3A3A3A"/>
<path d="M140.706 39.9183C140.706 40.6301 140.706 42.9724 140.706 42.9724C140.706 42.9724 138.627 42.9724 137.652 42.9722C136.89 42.9724 134.598 42.9722 134.598 42.9722C134.598 42.9722 134.598 40.8437 134.598 39.9182C134.598 38.2316 135.965 36.8643 137.652 36.8643C139.338 36.8643 140.706 38.2316 140.706 39.9183Z" fill="#3A3A3A"/>
<path d="M152.921 39.9183C152.921 40.6301 152.921 42.9724 152.921 42.9724C152.921 42.9724 150.841 42.9724 149.867 42.9722C149.105 42.9724 146.812 42.9722 146.812 42.9722C146.812 42.9722 146.812 40.8437 146.812 39.9182C146.813 38.2316 148.18 36.8643 149.866 36.8643C151.553 36.8643 152.921 38.2316 152.921 39.9183Z" fill="#3A3A3A"/>
<path d="M55.194 42.9727H49.0859V49.0808H55.194V42.9727Z" fill="#3A3A3A"/>
<path d="M58.2455 49.0808C57.5336 49.0808 55.1914 49.0808 55.1914 49.0808C55.1914 49.0808 55.1914 47.0015 55.1914 46.0267C55.1914 45.2653 55.1914 42.9727 55.1914 42.9727C55.1914 42.9727 57.3202 42.9727 58.2455 42.9727C59.9321 42.9727 61.2995 44.34 61.2995 46.0267C61.2995 47.7133 59.9321 49.0808 58.2455 49.0808Z" fill="#3A3A3A"/>
<path d="M67.4062 49.0808H73.5144V42.9727C70.141 42.9727 67.4062 45.7073 67.4062 49.0808Z" fill="#3A3A3A"/>
<path d="M79.6237 42.9727H73.5156V49.0808H79.6237V42.9727Z" fill="#3A3A3A"/>
<path d="M79.625 42.9727V49.0808H85.7331C85.7331 45.7073 82.9984 42.9727 79.625 42.9727Z" fill="#3A3A3A"/>
<path d="M116.272 49.0808V42.9727H110.164C110.164 46.3461 112.899 49.0808 116.272 49.0808Z" fill="#3A3A3A"/>
<path d="M116.273 42.9727V49.0808H122.382C122.382 45.7073 119.647 42.9727 116.273 42.9727Z" fill="#3A3A3A"/>
<path d="M134.598 46.0267C134.598 45.3149 134.598 42.9727 134.598 42.9727C134.598 42.9727 136.677 42.9727 137.652 42.9727C138.413 42.9727 140.706 42.9727 140.706 42.9727C140.706 42.9727 140.706 45.1015 140.706 46.0267C140.706 47.7133 139.338 49.0808 137.652 49.0808C135.965 49.0808 134.598 47.7133 134.598 46.0267Z" fill="#3A3A3A"/>
<path d="M152.921 42.9727H146.812V49.0808H152.921V42.9727Z" fill="#3A3A3A"/>
<path d="M15.4916 49.0811C16.2034 49.0811 18.5456 49.0811 18.5456 49.0811C18.5456 49.0811 18.5456 51.16 18.5456 52.1351C18.5456 52.8962 18.5456 55.1892 18.5456 55.1892C18.5456 55.1892 16.4173 55.1892 15.4916 55.1892C13.8043 55.1892 12.4375 53.8212 12.4375 52.1351C12.4375 50.4488 13.8043 49.0811 15.4916 49.0811Z" fill="#3A3A3A"/>
<path d="M18.543 49.0811V55.1892H24.6511C24.6511 51.8157 21.9164 49.0811 18.543 49.0811Z" fill="#3A3A3A"/>
<path d="M39.9212 49.0811C40.6331 49.0811 42.9753 49.0811 42.9753 49.0811C42.9753 49.0811 42.9753 51.16 42.9753 52.1351C42.9753 52.8962 42.9753 55.1892 42.9753 55.1892C42.9753 55.1892 40.847 55.1892 39.9212 55.1892C38.2339 55.1892 36.8672 53.8212 36.8672 52.1351C36.8672 50.4488 38.2339 49.0811 39.9212 49.0811Z" fill="#3A3A3A"/>
<path d="M49.0847 49.0811H42.9766V55.1892H49.0847V49.0811Z" fill="#3A3A3A"/>
<path d="M55.194 49.0811H49.0859V55.1892C52.4593 55.1892 55.194 52.4545 55.194 49.0811Z" fill="#3A3A3A"/>
<path d="M64.3548 49.0811C65.0667 49.0811 67.4089 49.0811 67.4089 49.0811C67.4089 49.0811 67.4089 51.16 67.4089 52.1351C67.4089 52.8962 67.4089 55.1892 67.4089 55.1892C67.4089 55.1892 65.2806 55.1892 64.3548 55.1892C62.6675 55.1892 61.3008 53.8212 61.3008 52.1351C61.3008 50.4488 62.6675 49.0811 64.3548 49.0811Z" fill="#3A3A3A"/>
<path d="M73.5144 49.0811H67.4062V55.1892C70.7797 55.1892 73.5144 52.4545 73.5144 49.0811Z" fill="#3A3A3A"/>
<path d="M85.7331 55.1892V49.0811H79.625C79.625 52.4545 82.3596 55.1892 85.7331 55.1892Z" fill="#3A3A3A"/>
<path d="M91.8386 49.0811H85.7305V55.1892H91.8386V49.0811Z" fill="#3A3A3A"/>
<path d="M97.948 49.0811H91.8398V55.1892H97.948V49.0811Z" fill="#3A3A3A"/>
<path d="M101.003 55.1892C100.291 55.1892 97.9492 55.1892 97.9492 55.1892C97.9492 55.1892 97.9492 53.1099 97.9492 52.1351C97.9492 51.3737 97.9492 49.0811 97.9492 49.0811C97.9492 49.0811 100.078 49.0811 101.003 49.0811C102.69 49.0811 104.057 50.4484 104.057 52.1351C104.057 53.8217 102.69 55.1892 101.003 55.1892Z" fill="#3A3A3A"/>
<path d="M116.273 52.1351C116.273 51.4233 116.273 49.0811 116.273 49.0811C116.273 49.0811 118.353 49.0811 119.327 49.0811C120.089 49.0811 122.382 49.0811 122.382 49.0811C122.382 49.0811 122.382 51.2099 122.382 52.1351C122.382 53.8217 121.014 55.1892 119.327 55.1892C117.641 55.1892 116.273 53.8217 116.273 52.1351Z" fill="#3A3A3A"/>
<path d="M134.596 52.1351C134.596 52.8469 134.596 55.1892 134.596 55.1892C134.596 55.1892 132.517 55.1892 131.542 55.189C130.781 55.1892 128.488 55.189 128.488 55.189C128.488 55.189 128.488 53.0605 128.488 52.135C128.488 50.4484 129.856 49.0811 131.542 49.0811C133.229 49.0811 134.596 50.4484 134.596 52.1351Z" fill="#3A3A3A"/>
<path d="M140.707 55.1892H146.815V49.0811C143.442 49.0811 140.707 51.8157 140.707 55.1892Z" fill="#3A3A3A"/>
<path d="M152.921 49.0811H146.812V55.1892H152.921V49.0811Z" fill="#3A3A3A"/>
<path d="M159.03 49.0811H152.922V55.1892H159.03V49.0811Z" fill="#3A3A3A"/>
<path d="M159.031 49.0811V55.1892H165.139C165.139 51.8157 162.405 49.0811 159.031 49.0811Z" fill="#3A3A3A"/>
<path d="M174.3 49.0811C175.987 49.0811 177.354 50.4484 177.354 52.1351C177.354 53.8219 175.987 55.1892 174.3 55.1892C172.613 55.1892 171.246 53.8219 171.246 52.1351C171.246 50.4484 172.613 49.0811 174.3 49.0811Z" fill="#3A3A3A"/>
<path d="M6.32686 58.2425C6.32686 58.9543 6.32686 61.2966 6.32686 61.2966C6.32686 61.2966 4.24773 61.2966 3.2728 61.2964C2.51144 61.2966 0.21875 61.2964 0.21875 61.2964C0.21875 61.2964 0.21875 59.1679 0.21875 58.2425C0.218823 56.5558 1.5861 55.1885 3.27273 55.1885C4.95942 55.1885 6.32686 56.5558 6.32686 58.2425Z" fill="#3A3A3A"/>
<path d="M24.6511 61.2966V55.1885H18.543C18.543 58.5619 21.2776 61.2966 24.6511 61.2966Z" fill="#3A3A3A"/>
<path d="M30.7565 55.1885H24.6484V61.2966H30.7565V55.1885Z" fill="#3A3A3A"/>
<path d="M33.8119 61.2966C33.1 61.2966 30.7578 61.2966 30.7578 61.2966C30.7578 61.2966 30.7578 59.2173 30.7578 58.2425C30.7578 57.4812 30.7578 55.1885 30.7578 55.1885C30.7578 55.1885 32.8866 55.1885 33.8119 55.1885C35.4985 55.1885 36.8659 56.5558 36.8659 58.2425C36.8659 59.9292 35.4985 61.2966 33.8119 61.2966Z" fill="#3A3A3A"/>
<path d="M91.8386 61.2966V55.1885H85.7305C85.7305 58.5619 88.4651 61.2966 91.8386 61.2966Z" fill="#3A3A3A"/>
<path d="M97.948 55.1885H91.8398V61.2966C95.2133 61.2966 97.948 58.5619 97.948 55.1885Z" fill="#3A3A3A"/>
<path d="M104.055 61.2966H110.163V55.1885C106.789 55.1885 104.055 57.9231 104.055 61.2966Z" fill="#3A3A3A"/>
<path d="M113.218 61.2966C112.506 61.2966 110.164 61.2966 110.164 61.2966C110.164 61.2966 110.164 59.2173 110.164 58.2425C110.164 57.4812 110.164 55.1885 110.164 55.1885C110.164 55.1885 112.293 55.1885 113.218 55.1885C114.905 55.1885 116.272 56.5558 116.272 58.2425C116.272 59.9292 114.905 61.2966 113.218 61.2966Z" fill="#3A3A3A"/>
<path d="M125.437 55.1885C126.149 55.1885 128.491 55.1885 128.491 55.1885C128.491 55.1885 128.491 57.2675 128.491 58.2425C128.491 59.0037 128.491 61.2966 128.491 61.2966C128.491 61.2966 126.363 61.2966 125.437 61.2966C123.75 61.2966 122.383 59.9286 122.383 58.2425C122.383 56.5562 123.75 55.1885 125.437 55.1885Z" fill="#3A3A3A"/>
<path d="M134.596 55.1885H128.488V61.2966C131.862 61.2966 134.596 58.5619 134.596 55.1885Z" fill="#3A3A3A"/>
<path d="M146.815 55.1885H140.707V61.2966H146.815V55.1885Z" fill="#3A3A3A"/>
<path d="M159.03 55.1885H152.922V61.2966H159.03V55.1885Z" fill="#3A3A3A"/>
<path d="M165.139 55.1885H159.031V61.2966H165.139V55.1885Z" fill="#3A3A3A"/>
<path d="M180.406 55.1885C182.092 55.1885 183.46 56.5558 183.46 58.2425C183.46 59.9293 182.092 61.2966 180.406 61.2966C178.719 61.2966 177.352 59.9293 177.352 58.2425C177.352 56.5558 178.719 55.1885 180.406 55.1885Z" fill="#3A3A3A"/>
<path d="M201.788 58.2425C201.788 58.9543 201.788 61.2966 201.788 61.2966C201.788 61.2966 199.709 61.2966 198.734 61.2964C197.972 61.2966 195.68 61.2964 195.68 61.2964C195.68 61.2964 195.68 59.1679 195.68 58.2425C195.68 56.5558 197.047 55.1885 198.734 55.1885C200.42 55.1885 201.788 56.5558 201.788 58.2425Z" fill="#3A3A3A"/>
<path d="M0.21875 64.3509C0.21875 63.6391 0.21875 61.2969 0.21875 61.2969C0.21875 61.2969 2.29796 61.2969 3.2728 61.2969C4.03417 61.2969 6.32686 61.2969 6.32686 61.2969C6.32686 61.2969 6.32686 63.4257 6.32686 64.3509C6.32686 66.0375 4.95942 67.405 3.2728 67.405C1.5861 67.405 0.21875 66.0375 0.21875 64.3509Z" fill="#3A3A3A"/>
<path d="M30.7565 61.2969H24.6484V67.405H30.7565V61.2969Z" fill="#3A3A3A"/>
<path d="M39.9212 61.2969C41.608 61.2969 42.9753 62.6642 42.9753 64.3509C42.9753 66.0377 41.608 67.405 39.9212 67.405C38.2345 67.405 36.8672 66.0377 36.8672 64.3509C36.8672 62.6642 38.2345 61.2969 39.9212 61.2969Z" fill="#3A3A3A"/>
<path d="M55.1914 67.405H61.2995V61.2969C57.9261 61.2969 55.1914 64.0315 55.1914 67.405Z" fill="#3A3A3A"/>
<path d="M67.4089 61.2969H61.3008V67.405H67.4089V61.2969Z" fill="#3A3A3A"/>
<path d="M70.4603 67.405C69.7485 67.405 67.4062 67.405 67.4062 67.405C67.4062 67.405 67.4062 65.3257 67.4062 64.3509C67.4062 63.5896 67.4062 61.2969 67.4062 61.2969C67.4062 61.2969 69.5351 61.2969 70.4603 61.2969C72.1469 61.2969 73.5144 62.6642 73.5144 64.3509C73.5144 66.0375 72.1469 67.405 70.4603 67.405Z" fill="#3A3A3A"/>
<path d="M104.055 64.3509C104.055 63.6391 104.055 61.2969 104.055 61.2969C104.055 61.2969 106.134 61.2969 107.109 61.2969C107.87 61.2969 110.163 61.2969 110.163 61.2969C110.163 61.2969 110.163 63.4257 110.163 64.3509C110.163 66.0375 108.795 67.405 107.109 67.405C105.422 67.405 104.055 66.0375 104.055 64.3509Z" fill="#3A3A3A"/>
<path d="M140.707 64.3509C140.707 63.6391 140.707 61.2969 140.707 61.2969C140.707 61.2969 142.786 61.2969 143.761 61.2969C144.522 61.2969 146.815 61.2969 146.815 61.2969C146.815 61.2969 146.815 63.4257 146.815 64.3509C146.815 66.0375 145.448 67.405 143.761 67.405C142.074 67.405 140.707 66.0375 140.707 64.3509Z" fill="#3A3A3A"/>
<path d="M159.03 67.405V61.2969H152.922C152.922 64.6703 155.657 67.405 159.03 67.405Z" fill="#3A3A3A"/>
<path d="M165.139 61.2969H159.031V67.405C162.405 67.405 165.139 64.6703 165.139 61.2969Z" fill="#3A3A3A"/>
<path d="M195.68 64.3509C195.68 63.6391 195.68 61.2969 195.68 61.2969C195.68 61.2969 197.759 61.2969 198.734 61.2969C199.495 61.2969 201.788 61.2969 201.788 61.2969C201.788 61.2969 201.788 63.4257 201.788 64.3509C201.788 66.0375 200.42 67.405 198.734 67.405C197.047 67.405 195.68 66.0375 195.68 64.3509Z" fill="#3A3A3A"/>
<path d="M6.32812 73.5134H12.4362V67.4053C9.06286 67.4053 6.32812 70.1399 6.32812 73.5134Z" fill="#3A3A3A"/>
<path d="M15.4916 73.5134C14.7797 73.5134 12.4375 73.5134 12.4375 73.5134C12.4375 73.5134 12.4375 71.4341 12.4375 70.4593C12.4375 69.698 12.4375 67.4053 12.4375 67.4053C12.4375 67.4053 14.5663 67.4053 15.4916 67.4053C17.1782 67.4053 18.5456 68.7726 18.5456 70.4593C18.5456 72.1459 17.1782 73.5134 15.4916 73.5134Z" fill="#3A3A3A"/>
<path d="M30.7565 73.5134V67.4053H24.6484C24.6484 70.7787 27.3831 73.5134 30.7565 73.5134Z" fill="#3A3A3A"/>
<path d="M30.7578 67.4053V73.5134H36.8659C36.8659 70.1399 34.1312 67.4053 30.7578 67.4053Z" fill="#3A3A3A"/>
<path d="M52.14 67.4053C52.8518 67.4053 55.194 67.4053 55.194 67.4053C55.194 67.4053 55.194 69.4843 55.194 70.4593C55.194 71.2205 55.194 73.5134 55.194 73.5134C55.194 73.5134 53.0657 73.5134 52.14 73.5134C50.4527 73.5134 49.0859 72.1454 49.0859 70.4593C49.0859 68.773 50.4527 67.4053 52.14 67.4053Z" fill="#3A3A3A"/>
<path d="M61.2995 67.4053H55.1914V73.5134H61.2995V67.4053Z" fill="#3A3A3A"/>
<path d="M67.4089 67.4053H61.3008V73.5134H67.4089V67.4053Z" fill="#3A3A3A"/>
<path d="M152.921 70.4593C152.921 71.1711 152.921 73.5134 152.921 73.5134C152.921 73.5134 150.841 73.5134 149.867 73.5132C149.105 73.5134 146.812 73.5132 146.812 73.5132C146.812 73.5132 146.812 71.3847 146.812 70.4593C146.813 68.7726 148.18 67.4053 149.866 67.4053C151.553 67.4053 152.921 68.7726 152.921 70.4593Z" fill="#3A3A3A"/>
<path d="M168.191 67.4053C168.903 67.4053 171.245 67.4053 171.245 67.4053C171.245 67.4053 171.245 69.4843 171.245 70.4593C171.245 71.2205 171.245 73.5134 171.245 73.5134C171.245 73.5134 169.117 73.5134 168.191 73.5134C166.503 73.5134 165.137 72.1454 165.137 70.4593C165.137 68.773 166.503 67.4053 168.191 67.4053Z" fill="#3A3A3A"/>
<path d="M177.354 67.4053H171.246V73.5134H177.354V67.4053Z" fill="#3A3A3A"/>
<path d="M180.406 73.5134C179.694 73.5134 177.352 73.5134 177.352 73.5134C177.352 73.5134 177.352 71.4341 177.352 70.4593C177.352 69.698 177.352 67.4053 177.352 67.4053C177.352 67.4053 179.48 67.4053 180.406 67.4053C182.092 67.4053 183.46 68.7726 183.46 70.4593C183.46 72.1459 182.092 73.5134 180.406 73.5134Z" fill="#3A3A3A"/>
<path d="M195.678 70.4593C195.678 71.1711 195.678 73.5134 195.678 73.5134C195.678 73.5134 193.599 73.5134 192.624 73.5132C191.863 73.5134 189.57 73.5132 189.57 73.5132C189.57 73.5132 189.57 71.3847 189.57 70.4593C189.57 68.7726 190.938 67.4053 192.624 67.4053C194.311 67.4053 195.678 68.7726 195.678 70.4593Z" fill="#3A3A3A"/>
<path d="M0.21875 79.6208H6.32686V73.5127C2.95348 73.5127 0.21875 76.2473 0.21875 79.6208Z" fill="#3A3A3A"/>
<path d="M12.4362 73.5127H6.32812V79.6208C9.70154 79.6208 12.4362 76.8861 12.4362 73.5127Z" fill="#3A3A3A"/>
<path d="M36.8659 73.5127H30.7578V79.6208H36.8659V73.5127Z" fill="#3A3A3A"/>
<path d="M42.9753 73.5127H36.8672V79.6208H42.9753V73.5127Z" fill="#3A3A3A"/>
<path d="M42.9766 73.5127V79.6208H49.0847C49.0847 76.2473 46.35 73.5127 42.9766 73.5127Z" fill="#3A3A3A"/>
<path d="M61.2995 73.5127H55.1914V79.6208H61.2995V73.5127Z" fill="#3A3A3A"/>
<path d="M67.4089 73.5127H61.3008V79.6208H67.4089V73.5127Z" fill="#3A3A3A"/>
<path d="M143.761 73.5127C144.473 73.5127 146.815 73.5127 146.815 73.5127C146.815 73.5127 146.815 75.5917 146.815 76.5667C146.815 77.3279 146.815 79.6208 146.815 79.6208C146.815 79.6208 144.687 79.6208 143.761 79.6208C142.074 79.6208 140.707 78.2528 140.707 76.5667C140.707 74.8805 142.074 73.5127 143.761 73.5127Z" fill="#3A3A3A"/>
<path d="M152.921 73.5127H146.812V79.6208H152.921V73.5127Z" fill="#3A3A3A"/>
<path d="M189.57 76.5667C189.57 75.8549 189.57 73.5127 189.57 73.5127C189.57 73.5127 191.65 73.5127 192.624 73.5127C193.386 73.5127 195.678 73.5127 195.678 73.5127C195.678 73.5127 195.678 75.6415 195.678 76.5667C195.678 78.2534 194.311 79.6208 192.624 79.6208C190.938 79.6208 189.57 78.2534 189.57 76.5667Z" fill="#3A3A3A"/>
<path d="M6.32686 79.6211H0.21875V85.7292H6.32686V79.6211Z" fill="#3A3A3A"/>
<path d="M18.543 85.7292H24.6511V79.6211C21.2777 79.6211 18.543 82.3557 18.543 85.7292Z" fill="#3A3A3A"/>
<path d="M30.7565 79.6211H24.6484V85.7292H30.7565V79.6211Z" fill="#3A3A3A"/>
<path d="M36.8659 79.6211H30.7578V85.7292H36.8659V79.6211Z" fill="#3A3A3A"/>
<path d="M49.0847 79.6211H42.9766V85.7292H49.0847V79.6211Z" fill="#3A3A3A"/>
<path d="M55.194 79.6211H49.0859V85.7292H55.194V79.6211Z" fill="#3A3A3A"/>
<path d="M61.2995 79.6211H55.1914V85.7292H61.2995V79.6211Z" fill="#3A3A3A"/>
<path d="M67.4089 79.6211H61.3008V85.7292C64.6742 85.7292 67.4089 82.9945 67.4089 79.6211Z" fill="#3A3A3A"/>
<path d="M137.652 79.6211C139.338 79.6211 140.706 80.9885 140.706 82.6751C140.706 84.3619 139.338 85.7292 137.652 85.7292C135.965 85.7292 134.598 84.3619 134.598 82.6751C134.598 80.9885 135.965 79.6211 137.652 79.6211Z" fill="#3A3A3A"/>
<path d="M152.921 79.6211H146.812V85.7292H152.921V79.6211Z" fill="#3A3A3A"/>
<path d="M183.46 82.6751C183.46 83.3869 183.46 85.7292 183.46 85.7292C183.46 85.7292 181.381 85.7292 180.406 85.7291C179.644 85.7292 177.352 85.7291 177.352 85.7291C177.352 85.7291 177.352 83.6005 177.352 82.6751C177.352 80.9885 178.719 79.6211 180.406 79.6211C182.092 79.6211 183.46 80.9885 183.46 82.6751Z" fill="#3A3A3A"/>
<path d="M6.32686 91.8376V85.7295H0.21875C0.218762 89.1029 2.95339 91.8376 6.32686 91.8376Z" fill="#3A3A3A"/>
<path d="M12.4362 85.7295H6.32812V91.8376H12.4362V85.7295Z" fill="#3A3A3A"/>
<path d="M18.5456 85.7295H12.4375V91.8376H18.5456V85.7295Z" fill="#3A3A3A"/>
<path d="M24.6511 85.7295H18.543V91.8376C21.9164 91.8376 24.6511 89.1029 24.6511 85.7295Z" fill="#3A3A3A"/>
<path d="M36.8659 91.8376V85.7295H30.7578C30.7578 89.1029 33.4924 91.8376 36.8659 91.8376Z" fill="#3A3A3A"/>
<path d="M42.9753 85.7295H36.8672V91.8376H42.9753V85.7295Z" fill="#3A3A3A"/>
<path d="M49.0847 85.7295H42.9766V91.8376H49.0847V85.7295Z" fill="#3A3A3A"/>
<path d="M55.194 85.7295H49.0859V91.8376H55.194V85.7295Z" fill="#3A3A3A"/>
<path d="M61.2995 85.7295H55.1914V91.8376C58.5648 91.8376 61.2995 89.1029 61.2995 85.7295Z" fill="#3A3A3A"/>
<path d="M152.921 85.7295H146.812V91.8376H152.921V85.7295Z" fill="#3A3A3A"/>
<path d="M159.031 91.8376H165.139V85.7295C161.766 85.7295 159.031 88.4641 159.031 91.8376Z" fill="#3A3A3A"/>
<path d="M171.245 85.7295H165.137V91.8376H171.245V85.7295Z" fill="#3A3A3A"/>
<path d="M177.354 85.7295H171.246V91.8376H177.354V85.7295Z" fill="#3A3A3A"/>
<path d="M183.46 85.7295H177.352V91.8376C180.725 91.8376 183.46 89.1029 183.46 85.7295Z" fill="#3A3A3A"/>
<path d="M6.32812 94.8919C6.32812 94.1801 6.32812 91.8379 6.32812 91.8379C6.32812 91.8379 8.40734 91.8379 9.38218 91.8379C10.1435 91.8379 12.4362 91.8379 12.4362 91.8379C12.4362 91.8379 12.4362 93.9667 12.4362 94.8919C12.4362 96.5786 11.0688 97.946 9.38218 97.946C7.69547 97.946 6.32812 96.5786 6.32812 94.8919Z" fill="#3A3A3A"/>
<path d="M27.7025 91.8379C29.3893 91.8379 30.7565 93.2053 30.7565 94.8919C30.7565 96.5787 29.3893 97.946 27.7025 97.946C26.0158 97.946 24.6484 96.5787 24.6484 94.8919C24.6484 93.2053 26.0158 91.8379 27.7025 91.8379Z" fill="#3A3A3A"/>
<path d="M49.0847 91.8379H42.9766V97.946H49.0847V91.8379Z" fill="#3A3A3A"/>
<path d="M64.3548 91.8379C66.0416 91.8379 67.4089 93.2053 67.4089 94.8919C67.4089 96.5787 66.0416 97.946 64.3548 97.946C62.6681 97.946 61.3008 96.5787 61.3008 94.8919C61.3008 93.2053 62.6681 91.8379 64.3548 91.8379Z" fill="#3A3A3A"/>
<path d="M137.652 91.8379C139.338 91.8379 140.706 93.2053 140.706 94.8919C140.706 96.5787 139.338 97.946 137.652 97.946C135.965 97.946 134.598 96.5787 134.598 94.8919C134.598 93.2053 135.965 91.8379 137.652 91.8379Z" fill="#3A3A3A"/>
<path d="M152.921 91.8379H146.812V97.946H152.921V91.8379Z" fill="#3A3A3A"/>
<path d="M159.03 91.8379H152.922V97.946H159.03V91.8379Z" fill="#3A3A3A"/>
<path d="M165.139 91.8379H159.031V97.946H165.139V91.8379Z" fill="#3A3A3A"/>
<path d="M171.245 91.8379H165.137V97.946H171.245V91.8379Z" fill="#3A3A3A"/>
<path d="M186.515 91.8379C187.227 91.8379 189.569 91.8379 189.569 91.8379C189.569 91.8379 189.569 93.9169 189.569 94.8919C189.569 95.6531 189.569 97.946 189.569 97.946C189.569 97.946 187.441 97.946 186.515 97.946C184.828 97.946 183.461 96.578 183.461 94.8919C183.461 93.2057 184.828 91.8379 186.515 91.8379Z" fill="#3A3A3A"/>
<path d="M192.624 97.946C191.913 97.946 189.57 97.946 189.57 97.946C189.57 97.946 189.57 95.8667 189.57 94.8919C189.57 94.1306 189.57 91.8379 189.57 91.8379C189.57 91.8379 191.699 91.8379 192.624 91.8379C194.311 91.8379 195.678 93.2052 195.678 94.8919C195.678 96.5786 194.311 97.946 192.624 97.946Z" fill="#3A3A3A"/>
<path d="M3.2728 97.9453C4.95958 97.9453 6.32686 99.3127 6.32686 100.999C6.32686 102.686 4.95958 104.053 3.2728 104.053C1.58611 104.053 0.21875 102.686 0.21875 100.999C0.21875 99.3127 1.58611 97.9453 3.2728 97.9453Z" fill="#3A3A3A"/>
<path d="M39.9212 97.9453C40.6331 97.9453 42.9753 97.9453 42.9753 97.9453C42.9753 97.9453 42.9753 100.024 42.9753 100.999C42.9753 101.76 42.9753 104.053 42.9753 104.053C42.9753 104.053 40.847 104.053 39.9212 104.053C38.2339 104.053 36.8672 102.685 36.8672 100.999C36.8672 99.3131 38.2339 97.9453 39.9212 97.9453Z" fill="#3A3A3A"/>
<path d="M49.0847 97.9453H42.9766V104.053H49.0847V97.9453Z" fill="#3A3A3A"/>
<path d="M55.194 97.9453H49.0859V104.053H55.194V97.9453Z" fill="#3A3A3A"/>
<path d="M58.2455 104.053C57.5336 104.053 55.1914 104.053 55.1914 104.053C55.1914 104.053 55.1914 101.974 55.1914 100.999C55.1914 100.238 55.1914 97.9453 55.1914 97.9453C55.1914 97.9453 57.3202 97.9453 58.2455 97.9453C59.9321 97.9453 61.2995 99.3127 61.2995 100.999C61.2995 102.686 59.9321 104.053 58.2455 104.053Z" fill="#3A3A3A"/>
<path d="M152.921 104.053V97.9453H146.812C146.813 101.319 149.547 104.053 152.921 104.053Z" fill="#3A3A3A"/>
<path d="M159.03 97.9453H152.922V104.053H159.03V97.9453Z" fill="#3A3A3A"/>
<path d="M165.139 97.9453H159.031V104.053H165.139V97.9453Z" fill="#3A3A3A"/>
<path d="M171.245 97.9453H165.137V104.053H171.245V97.9453Z" fill="#3A3A3A"/>
<path d="M12.4362 107.108C12.4362 107.82 12.4362 110.162 12.4362 110.162C12.4362 110.162 10.3571 110.162 9.38218 110.162C8.62082 110.162 6.32812 110.162 6.32812 110.162C6.32812 110.162 6.32812 108.033 6.32812 107.108C6.3282 105.421 7.69547 104.054 9.38211 104.054C11.0688 104.054 12.4362 105.421 12.4362 107.108Z" fill="#3A3A3A"/>
<path d="M33.8119 104.054C35.4986 104.054 36.8659 105.421 36.8659 107.108C36.8659 108.795 35.4986 110.162 33.8119 110.162C32.1252 110.162 30.7578 108.795 30.7578 107.108C30.7578 105.421 32.1252 104.054 33.8119 104.054Z" fill="#3A3A3A"/>
<path d="M42.9766 107.108C42.9766 106.396 42.9766 104.054 42.9766 104.054C42.9766 104.054 45.0558 104.054 46.0306 104.054C46.792 104.054 49.0847 104.054 49.0847 104.054C49.0847 104.054 49.0847 106.183 49.0847 107.108C49.0847 108.794 47.7172 110.162 46.0306 110.162C44.3439 110.162 42.9766 108.794 42.9766 107.108Z" fill="#3A3A3A"/>
<path d="M137.652 104.054C138.364 104.054 140.706 104.054 140.706 104.054C140.706 104.054 140.706 106.133 140.706 107.108C140.706 107.869 140.706 110.162 140.706 110.162C140.706 110.162 138.577 110.162 137.652 110.162C135.964 110.162 134.598 108.794 134.598 107.108C134.598 105.421 135.964 104.054 137.652 104.054Z" fill="#3A3A3A"/>
<path d="M143.761 110.162C143.049 110.162 140.707 110.162 140.707 110.162C140.707 110.162 140.707 108.083 140.707 107.108C140.707 106.346 140.707 104.054 140.707 104.054C140.707 104.054 142.836 104.054 143.761 104.054C145.448 104.054 146.815 105.421 146.815 107.108C146.815 108.794 145.448 110.162 143.761 110.162Z" fill="#3A3A3A"/>
<path d="M159.03 104.054H152.922V110.162H159.03V104.054Z" fill="#3A3A3A"/>
<path d="M165.139 104.054H159.031V110.162H165.139V104.054Z" fill="#3A3A3A"/>
<path d="M171.245 104.054H165.137V110.162H171.245V104.054Z" fill="#3A3A3A"/>
<path d="M174.3 110.162C173.588 110.162 171.246 110.162 171.246 110.162C171.246 110.162 171.246 108.083 171.246 107.108C171.246 106.346 171.246 104.054 171.246 104.054C171.246 104.054 173.375 104.054 174.3 104.054C175.987 104.054 177.354 105.421 177.354 107.108C177.354 108.794 175.987 110.162 174.3 110.162Z" fill="#3A3A3A"/>
<path d="M183.461 110.162H189.569V104.054C186.196 104.054 183.461 106.788 183.461 110.162Z" fill="#3A3A3A"/>
<path d="M189.57 104.054V110.162H195.678C195.678 106.788 192.944 104.054 189.57 104.054Z" fill="#3A3A3A"/>
<path d="M12.4362 110.162H6.32812V116.27H12.4362V110.162Z" fill="#3A3A3A"/>
<path d="M18.5456 110.162H12.4375V116.27H18.5456V110.162Z" fill="#3A3A3A"/>
<path d="M24.6511 110.162H18.543V116.27H24.6511V110.162Z" fill="#3A3A3A"/>
<path d="M24.6484 110.162V116.27H30.7565C30.7565 112.897 28.0218 110.162 24.6484 110.162Z" fill="#3A3A3A"/>
<path d="M39.9212 110.162C41.608 110.162 42.9753 111.529 42.9753 113.216C42.9753 114.903 41.608 116.27 39.9212 116.27C38.2345 116.27 36.8672 114.903 36.8672 113.216C36.8672 111.529 38.2345 110.162 39.9212 110.162Z" fill="#3A3A3A"/>
<path d="M52.14 110.162C52.8518 110.162 55.194 110.162 55.194 110.162C55.194 110.162 55.194 112.241 55.194 113.216C55.194 113.977 55.194 116.27 55.194 116.27C55.194 116.27 53.0657 116.27 52.14 116.27C50.4527 116.27 49.0859 114.902 49.0859 113.216C49.0859 111.53 50.4527 110.162 52.14 110.162Z" fill="#3A3A3A"/>
<path d="M61.2995 110.162H55.1914V116.27H61.2995V110.162Z" fill="#3A3A3A"/>
<path d="M64.3548 116.27C63.643 116.27 61.3008 116.27 61.3008 116.27C61.3008 116.27 61.3008 114.191 61.3008 113.216C61.3008 112.455 61.3008 110.162 61.3008 110.162C61.3008 110.162 63.4296 110.162 64.3548 110.162C66.0415 110.162 67.4089 111.529 67.4089 113.216C67.4089 114.903 66.0415 116.27 64.3548 116.27Z" fill="#3A3A3A"/>
<path d="M159.03 116.27V110.162H152.922C152.922 113.536 155.657 116.27 159.03 116.27Z" fill="#3A3A3A"/>
<path d="M165.139 110.162H159.031V116.27H165.139V110.162Z" fill="#3A3A3A"/>
<path d="M171.245 110.162H165.137V116.27H171.245V110.162Z" fill="#3A3A3A"/>
<path d="M189.569 116.27V110.162H183.461C183.461 113.536 186.196 116.27 189.569 116.27Z" fill="#3A3A3A"/>
<path d="M195.678 110.162H189.57V116.27H195.678V110.162Z" fill="#3A3A3A"/>
<path d="M198.734 116.27C198.022 116.27 195.68 116.27 195.68 116.27C195.68 116.27 195.68 114.191 195.68 113.216C195.68 112.455 195.68 110.162 195.68 110.162C195.68 110.162 197.808 110.162 198.734 110.162C200.42 110.162 201.788 111.529 201.788 113.216C201.788 114.903 200.42 116.27 198.734 116.27Z" fill="#3A3A3A"/>
<path d="M0.21875 122.378H6.32686V116.27C2.95348 116.27 0.21875 119.004 0.21875 122.378Z" fill="#3A3A3A"/>
<path d="M12.4362 116.27H6.32812V122.378C9.70154 122.378 12.4362 119.643 12.4362 116.27Z" fill="#3A3A3A"/>
<path d="M30.7565 116.27H24.6484V122.378H30.7565V116.27Z" fill="#3A3A3A"/>
<path d="M33.8119 122.378C33.1 122.378 30.7578 122.378 30.7578 122.378C30.7578 122.378 30.7578 120.298 30.7578 119.324C30.7578 118.562 30.7578 116.27 30.7578 116.27C30.7578 116.27 32.8866 116.27 33.8119 116.27C35.4985 116.27 36.8659 117.637 36.8659 119.324C36.8659 121.01 35.4985 122.378 33.8119 122.378Z" fill="#3A3A3A"/>
<path d="M61.2995 116.27H55.1914V122.378H61.2995V116.27Z" fill="#3A3A3A"/>
<path d="M137.652 116.27C139.338 116.27 140.706 117.637 140.706 119.324C140.706 121.01 139.338 122.378 137.652 122.378C135.965 122.378 134.598 121.01 134.598 119.324C134.598 117.637 135.965 116.27 137.652 116.27Z" fill="#3A3A3A"/>
<path d="M171.245 122.378V116.27H165.137C165.137 119.643 167.871 122.378 171.245 122.378Z" fill="#3A3A3A"/>
<path d="M174.3 122.378C173.588 122.378 171.246 122.378 171.246 122.378C171.246 122.378 171.246 120.298 171.246 119.324C171.246 118.562 171.246 116.27 171.246 116.27C171.246 116.27 173.375 116.27 174.3 116.27C175.987 116.27 177.354 117.637 177.354 119.324C177.354 121.01 175.987 122.378 174.3 122.378Z" fill="#3A3A3A"/>
<path d="M6.32686 122.378H0.21875V128.486H6.32686V122.378Z" fill="#3A3A3A"/>
<path d="M15.4916 122.378C16.2034 122.378 18.5456 122.378 18.5456 122.378C18.5456 122.378 18.5456 124.457 18.5456 125.432C18.5456 126.193 18.5456 128.486 18.5456 128.486C18.5456 128.486 16.4173 128.486 15.4916 128.486C13.8043 128.486 12.4375 127.118 12.4375 125.432C12.4375 123.746 13.8043 122.378 15.4916 122.378Z" fill="#3A3A3A"/>
<path d="M24.6511 122.378H18.543V128.486H24.6511V122.378Z" fill="#3A3A3A"/>
<path d="M30.7565 122.378H24.6484V128.486H30.7565V122.378Z" fill="#3A3A3A"/>
<path d="M39.9212 122.378C41.608 122.378 42.9753 123.745 42.9753 125.432C42.9753 127.119 41.608 128.486 39.9212 128.486C38.2345 128.486 36.8672 127.119 36.8672 125.432C36.8672 123.745 38.2345 122.378 39.9212 122.378Z" fill="#3A3A3A"/>
<path d="M49.0859 128.486H55.194V122.378C51.8207 122.378 49.0859 125.113 49.0859 128.486Z" fill="#3A3A3A"/>
<path d="M61.2995 122.378H55.1914V128.486C58.5648 128.486 61.2995 125.751 61.2995 122.378Z" fill="#3A3A3A"/>
<path d="M152.921 125.432C152.921 126.144 152.921 128.486 152.921 128.486C152.921 128.486 150.841 128.486 149.867 128.486C149.105 128.486 146.812 128.486 146.812 128.486C146.812 128.486 146.812 126.357 146.812 125.432C146.813 123.745 148.18 122.378 149.866 122.378C151.553 122.378 152.921 123.745 152.921 125.432Z" fill="#3A3A3A"/>
<path d="M162.085 122.378C163.772 122.378 165.139 123.745 165.139 125.432C165.139 127.119 163.772 128.486 162.085 128.486C160.399 128.486 159.031 127.119 159.031 125.432C159.031 123.745 160.399 122.378 162.085 122.378Z" fill="#3A3A3A"/>
<path d="M177.352 128.486H183.46V122.378C180.086 122.378 177.352 125.113 177.352 128.486Z" fill="#3A3A3A"/>
<path d="M186.515 128.486C185.803 128.486 183.461 128.486 183.461 128.486C183.461 128.486 183.461 126.407 183.461 125.432C183.461 124.671 183.461 122.378 183.461 122.378C183.461 122.378 185.59 122.378 186.515 122.378C188.202 122.378 189.569 123.745 189.569 125.432C189.569 127.119 188.202 128.486 186.515 128.486Z" fill="#3A3A3A"/>
<path d="M201.788 125.432C201.788 126.144 201.788 128.486 201.788 128.486C201.788 128.486 199.709 128.486 198.734 128.486C197.972 128.486 195.68 128.486 195.68 128.486C195.68 128.486 195.68 126.357 195.68 125.432C195.68 123.745 197.047 122.378 198.734 122.378C200.42 122.378 201.788 123.745 201.788 125.432Z" fill="#3A3A3A"/>
<path d="M0.21875 131.54C0.21875 130.829 0.21875 128.486 0.21875 128.486C0.21875 128.486 2.29796 128.486 3.2728 128.486C4.03417 128.486 6.32686 128.486 6.32686 128.486C6.32686 128.486 6.32686 130.615 6.32686 131.54C6.32686 133.227 4.95942 134.594 3.2728 134.594C1.5861 134.594 0.21875 133.227 0.21875 131.54Z" fill="#3A3A3A"/>
<path d="M30.7565 128.486H24.6484V134.594H30.7565V128.486Z" fill="#3A3A3A"/>
<path d="M33.8119 134.594C33.1 134.594 30.7578 134.594 30.7578 134.594C30.7578 134.594 30.7578 132.515 30.7578 131.54C30.7578 130.779 30.7578 128.486 30.7578 128.486C30.7578 128.486 32.8866 128.486 33.8119 128.486C35.4985 128.486 36.8659 129.854 36.8659 131.54C36.8659 133.227 35.4985 134.594 33.8119 134.594Z" fill="#3A3A3A"/>
<path d="M46.0306 128.486C46.7425 128.486 49.0847 128.486 49.0847 128.486C49.0847 128.486 49.0847 130.565 49.0847 131.54C49.0847 132.302 49.0847 134.594 49.0847 134.594C49.0847 134.594 46.9564 134.594 46.0306 134.594C44.3433 134.594 42.9766 133.226 42.9766 131.54C42.9766 129.854 44.3433 128.486 46.0306 128.486Z" fill="#3A3A3A"/>
<path d="M55.194 128.486H49.0859V134.594C52.4593 134.594 55.194 131.86 55.194 128.486Z" fill="#3A3A3A"/>
<path d="M64.3548 128.486C66.0416 128.486 67.4089 129.854 67.4089 131.54C67.4089 133.227 66.0416 134.594 64.3548 134.594C62.6681 134.594 61.3008 133.227 61.3008 131.54C61.3008 129.854 62.6681 128.486 64.3548 128.486Z" fill="#3A3A3A"/>
<path d="M152.921 128.486H146.812V134.594H152.921V128.486Z" fill="#3A3A3A"/>
<path d="M183.46 128.486H177.352V134.594H183.46V128.486Z" fill="#3A3A3A"/>
<path d="M201.788 128.486H195.68V134.594H201.788V128.486Z" fill="#3A3A3A"/>
<path d="M18.543 140.702H24.6511V134.594C21.2777 134.594 18.543 137.328 18.543 140.702Z" fill="#3A3A3A"/>
<path d="M30.7565 134.594H24.6484V140.702H30.7565V134.594Z" fill="#3A3A3A"/>
<path d="M39.9212 134.594C41.608 134.594 42.9753 135.961 42.9753 137.648C42.9753 139.335 41.608 140.702 39.9212 140.702C38.2345 140.702 36.8672 139.335 36.8672 137.648C36.8672 135.961 38.2345 134.594 39.9212 134.594Z" fill="#3A3A3A"/>
<path d="M70.4603 134.594C72.1471 134.594 73.5144 135.961 73.5144 137.648C73.5144 139.335 72.1471 140.702 70.4603 140.702C68.7736 140.702 67.4062 139.335 67.4062 137.648C67.4062 135.961 68.7736 134.594 70.4603 134.594Z" fill="#3A3A3A"/>
<path d="M82.6791 134.594C83.3909 134.594 85.7331 134.594 85.7331 134.594C85.7331 134.594 85.7331 136.673 85.7331 137.648C85.7331 138.409 85.7331 140.702 85.7331 140.702C85.7331 140.702 83.6048 140.702 82.6791 140.702C80.9918 140.702 79.625 139.334 79.625 137.648C79.625 135.962 80.9918 134.594 82.6791 134.594Z" fill="#3A3A3A"/>
<path d="M91.8386 134.594H85.7305V140.702H91.8386V134.594Z" fill="#3A3A3A"/>
<path d="M97.948 134.594H91.8398V140.702H97.948V134.594Z" fill="#3A3A3A"/>
<path d="M97.9492 134.594V140.702H104.057C104.057 137.328 101.323 134.594 97.9492 134.594Z" fill="#3A3A3A"/>
<path d="M131.542 134.594C133.229 134.594 134.596 135.961 134.596 137.648C134.596 139.335 133.229 140.702 131.542 140.702C129.856 140.702 128.488 139.335 128.488 137.648C128.488 135.961 129.856 134.594 131.542 134.594Z" fill="#3A3A3A"/>
<path d="M143.761 134.594C144.473 134.594 146.815 134.594 146.815 134.594C146.815 134.594 146.815 136.673 146.815 137.648C146.815 138.409 146.815 140.702 146.815 140.702C146.815 140.702 144.687 140.702 143.761 140.702C142.074 140.702 140.707 139.334 140.707 137.648C140.707 135.962 142.074 134.594 143.761 134.594Z" fill="#3A3A3A"/>
<path d="M152.921 134.594H146.812V140.702C150.186 140.702 152.921 137.967 152.921 134.594Z" fill="#3A3A3A"/>
<path d="M162.085 134.594C162.797 134.594 165.139 134.594 165.139 134.594C165.139 134.594 165.139 136.673 165.139 137.648C165.139 138.409 165.139 140.702 165.139 140.702C165.139 140.702 163.011 140.702 162.085 140.702C160.398 140.702 159.031 139.334 159.031 137.648C159.031 135.962 160.398 134.594 162.085 134.594Z" fill="#3A3A3A"/>
<path d="M165.137 134.594V140.702H171.245C171.245 137.328 168.51 134.594 165.137 134.594Z" fill="#3A3A3A"/>
<path d="M183.46 134.594H177.352V140.702H183.46V134.594Z" fill="#3A3A3A"/>
<path d="M189.569 134.594H183.461V140.702H189.569V134.594Z" fill="#3A3A3A"/>
<path d="M195.678 134.594H189.57V140.702H195.678V134.594Z" fill="#3A3A3A"/>
<path d="M201.788 134.594H195.68V140.702C199.053 140.702 201.788 137.967 201.788 134.594Z" fill="#3A3A3A"/>
<path d="M9.38218 140.702C10.094 140.702 12.4362 140.702 12.4362 140.702C12.4362 140.702 12.4362 142.781 12.4362 143.756C12.4362 144.517 12.4362 146.81 12.4362 146.81C12.4362 146.81 10.3079 146.81 9.38218 146.81C7.69489 146.81 6.32812 145.442 6.32812 143.756C6.32812 142.07 7.69489 140.702 9.38218 140.702Z" fill="#3A3A3A"/>
<path d="M18.5456 140.702H12.4375V146.81H18.5456V140.702Z" fill="#3A3A3A"/>
<path d="M24.6511 140.702H18.543V146.81H24.6511V140.702Z" fill="#3A3A3A"/>
<path d="M30.7565 140.702H24.6484V146.81H30.7565V140.702Z" fill="#3A3A3A"/>
<path d="M30.7578 140.702V146.81H36.8659C36.8659 143.437 34.1312 140.702 30.7578 140.702Z" fill="#3A3A3A"/>
<path d="M49.0859 146.81H55.194V140.702C51.8207 140.702 49.0859 143.437 49.0859 146.81Z" fill="#3A3A3A"/>
<path d="M55.1914 140.702V146.81H61.2995C61.2995 143.437 58.5648 140.702 55.1914 140.702Z" fill="#3A3A3A"/>
<path d="M79.6237 143.756C79.6237 144.468 79.6237 146.81 79.6237 146.81C79.6237 146.81 77.5446 146.81 76.5697 146.81C75.8083 146.81 73.5156 146.81 73.5156 146.81C73.5156 146.81 73.5156 144.682 73.5156 143.756C73.5157 142.07 74.883 140.702 76.5696 140.702C78.2563 140.702 79.6237 142.07 79.6237 143.756Z" fill="#3A3A3A"/>
<path d="M91.8386 146.81V140.702H85.7305C85.7305 144.076 88.4651 146.81 91.8386 146.81Z" fill="#3A3A3A"/>
<path d="M97.948 140.702H91.8398V146.81H97.948V140.702Z" fill="#3A3A3A"/>
<path d="M104.057 140.702H97.9492V146.81H104.057V140.702Z" fill="#3A3A3A"/>
<path d="M110.163 140.702H104.055V146.81H110.163V140.702Z" fill="#3A3A3A"/>
<path d="M110.164 140.702V146.81H116.272C116.272 143.437 113.537 140.702 110.164 140.702Z" fill="#3A3A3A"/>
<path d="M125.437 140.702C127.124 140.702 128.491 142.07 128.491 143.756C128.491 145.443 127.124 146.81 125.437 146.81C123.75 146.81 122.383 145.443 122.383 143.756C122.383 142.07 123.75 140.702 125.437 140.702Z" fill="#3A3A3A"/>
<path d="M137.652 140.702C139.338 140.702 140.706 142.07 140.706 143.756C140.706 145.443 139.338 146.81 137.652 146.81C135.965 146.81 134.598 145.443 134.598 143.756C134.598 142.07 135.965 140.702 137.652 140.702Z" fill="#3A3A3A"/>
<path d="M159.03 143.756C159.03 144.468 159.03 146.81 159.03 146.81C159.03 146.81 156.951 146.81 155.976 146.81C155.215 146.81 152.922 146.81 152.922 146.81C152.922 146.81 152.922 144.682 152.922 143.756C152.922 142.07 154.289 140.702 155.976 140.702C157.663 140.702 159.03 142.07 159.03 143.756Z" fill="#3A3A3A"/>
<path d="M171.245 140.702H165.137V146.81H171.245V140.702Z" fill="#3A3A3A"/>
<path d="M177.352 143.756C177.352 143.044 177.352 140.702 177.352 140.702C177.352 140.702 179.431 140.702 180.406 140.702C181.167 140.702 183.46 140.702 183.46 140.702C183.46 140.702 183.46 142.831 183.46 143.756C183.46 145.443 182.092 146.81 180.406 146.81C178.719 146.81 177.352 145.443 177.352 143.756Z" fill="#3A3A3A"/>
<path d="M3.2728 146.811C4.95958 146.811 6.32686 148.178 6.32686 149.865C6.32686 151.551 4.95958 152.919 3.2728 152.919C1.58611 152.919 0.21875 151.551 0.21875 149.865C0.21875 148.178 1.58611 146.811 3.2728 146.811Z" fill="#3A3A3A"/>
<path d="M18.5456 152.919V146.811H12.4375C12.4375 150.184 15.1721 152.919 18.5456 152.919Z" fill="#3A3A3A"/>
<path d="M24.6511 146.811H18.543V152.919H24.6511V146.811Z" fill="#3A3A3A"/>
<path d="M30.7565 146.811H24.6484V152.919H30.7565V146.811Z" fill="#3A3A3A"/>
<path d="M36.8659 146.811H30.7578V152.919H36.8659V146.811Z" fill="#3A3A3A"/>
<path d="M42.9753 146.811H36.8672V152.919H42.9753V146.811Z" fill="#3A3A3A"/>
<path d="M49.0847 146.811H42.9766V152.919H49.0847V146.811Z" fill="#3A3A3A"/>
<path d="M55.194 146.811H49.0859V152.919H55.194V146.811Z" fill="#3A3A3A"/>
<path d="M61.2995 146.811H55.1914V152.919H61.2995V146.811Z" fill="#3A3A3A"/>
<path d="M64.3548 152.919C63.643 152.919 61.3008 152.919 61.3008 152.919C61.3008 152.919 61.3008 150.839 61.3008 149.865C61.3008 149.103 61.3008 146.811 61.3008 146.811C61.3008 146.811 63.4296 146.811 64.3548 146.811C66.0415 146.811 67.4089 148.178 67.4089 149.865C67.4089 151.551 66.0415 152.919 64.3548 152.919Z" fill="#3A3A3A"/>
<path d="M79.6237 146.811H73.5156V152.919H79.6237V146.811Z" fill="#3A3A3A"/>
<path d="M97.948 146.811H91.8398V152.919H97.948V146.811Z" fill="#3A3A3A"/>
<path d="M104.057 146.811H97.9492V152.919H104.057V146.811Z" fill="#3A3A3A"/>
<path d="M110.164 149.865C110.164 149.153 110.164 146.811 110.164 146.811C110.164 146.811 112.243 146.811 113.218 146.811C113.979 146.811 116.272 146.811 116.272 146.811C116.272 146.811 116.272 148.939 116.272 149.865C116.272 151.551 114.905 152.919 113.218 152.919C111.531 152.919 110.164 151.551 110.164 149.865Z" fill="#3A3A3A"/>
<path d="M134.596 149.865C134.596 150.576 134.596 152.919 134.596 152.919C134.596 152.919 132.517 152.919 131.542 152.919C130.781 152.919 128.488 152.919 128.488 152.919C128.488 152.919 128.488 150.79 128.488 149.865C128.488 148.178 129.856 146.811 131.542 146.811C133.229 146.811 134.596 148.178 134.596 149.865Z" fill="#3A3A3A"/>
<path d="M146.812 152.919H152.921V146.811C149.547 146.811 146.812 149.545 146.812 152.919Z" fill="#3A3A3A"/>
<path d="M159.03 146.811H152.922V152.919H159.03V146.811Z" fill="#3A3A3A"/>
<path d="M165.139 146.811H159.031V152.919H165.139V146.811Z" fill="#3A3A3A"/>
<path d="M171.245 146.811H165.137V152.919H171.245V146.811Z" fill="#3A3A3A"/>
<path d="M171.246 146.811V152.919H177.354C177.354 149.545 174.62 146.811 171.246 146.811Z" fill="#3A3A3A"/>
<path d="M198.734 146.811C200.421 146.811 201.788 148.178 201.788 149.865C201.788 151.551 200.421 152.919 198.734 152.919C197.047 152.919 195.68 151.551 195.68 149.865C195.68 148.178 197.047 146.811 198.734 146.811Z" fill="#3A3A3A"/>
<path d="M55.194 152.918H49.0859V159.026H55.194V152.918Z" fill="#3A3A3A"/>
<path d="M70.4603 152.918C71.1721 152.918 73.5144 152.918 73.5144 152.918C73.5144 152.918 73.5144 154.997 73.5144 155.972C73.5144 156.733 73.5144 159.026 73.5144 159.026C73.5144 159.026 71.3861 159.026 70.4603 159.026C68.773 159.026 67.4062 157.658 67.4062 155.972C67.4062 154.286 68.773 152.918 70.4603 152.918Z" fill="#3A3A3A"/>
<path d="M79.6237 152.918H73.5156V159.026C76.889 159.026 79.6237 156.291 79.6237 152.918Z" fill="#3A3A3A"/>
<path d="M97.948 159.026V152.918H91.8398C91.8399 156.291 94.5745 159.026 97.948 159.026Z" fill="#3A3A3A"/>
<path d="M104.057 152.918H97.9492V159.026H104.057V152.918Z" fill="#3A3A3A"/>
<path d="M107.109 159.027C106.397 159.027 104.055 159.027 104.055 159.027C104.055 159.027 104.055 156.948 104.055 155.973C104.055 155.212 104.055 152.919 104.055 152.919C104.055 152.919 106.183 152.919 107.109 152.919C108.795 152.919 110.163 154.286 110.163 155.973C110.163 157.66 108.795 159.027 107.109 159.027Z" fill="#3A3A3A"/>
<path d="M119.327 152.918C121.014 152.918 122.382 154.285 122.382 155.972C122.382 157.659 121.014 159.026 119.327 159.026C117.641 159.026 116.273 157.659 116.273 155.972C116.273 154.285 117.641 152.918 119.327 152.918Z" fill="#3A3A3A"/>
<path d="M134.596 152.918H128.488V159.026H134.596V152.918Z" fill="#3A3A3A"/>
<path d="M140.707 159.027H146.815V152.919C143.442 152.919 140.707 155.654 140.707 159.027Z" fill="#3A3A3A"/>
<path d="M152.921 152.918H146.812V159.026H152.921V152.918Z" fill="#3A3A3A"/>
<path d="M177.354 152.918H171.246V159.026H177.354V152.918Z" fill="#3A3A3A"/>
<path d="M177.352 152.918V159.026H183.46C183.46 155.653 180.725 152.918 177.352 152.918Z" fill="#3A3A3A"/>
<path d="M192.624 152.919C194.311 152.919 195.678 154.286 195.678 155.973C195.678 157.66 194.311 159.027 192.624 159.027C190.938 159.027 189.57 157.66 189.57 155.973C189.57 154.286 190.938 152.919 192.624 152.919Z" fill="#3A3A3A"/>
<path d="M55.194 165.134V159.026H49.0859C49.0859 162.4 51.8206 165.134 55.194 165.134Z" fill="#3A3A3A"/>
<path d="M61.2995 159.026H55.1914V165.134H61.2995V159.026Z" fill="#3A3A3A"/>
<path d="M61.3008 159.026V165.134H67.4089C67.4089 161.761 64.6742 159.026 61.3008 159.026Z" fill="#3A3A3A"/>
<path d="M88.7845 159.026C90.4713 159.026 91.8386 160.394 91.8386 162.08C91.8386 163.767 90.4713 165.134 88.7845 165.134C87.0978 165.134 85.7305 163.767 85.7305 162.08C85.7305 160.394 87.0978 159.026 88.7845 159.026Z" fill="#3A3A3A"/>
<path d="M122.383 165.134H128.491V159.026C125.118 159.026 122.383 161.761 122.383 165.134Z" fill="#3A3A3A"/>
<path d="M134.596 159.026H128.488V165.134C131.862 165.134 134.596 162.4 134.596 159.026Z" fill="#3A3A3A"/>
<path d="M146.815 159.026H140.707V165.134H146.815V159.026Z" fill="#3A3A3A"/>
<path d="M152.921 159.026H146.812V165.134H152.921V159.026Z" fill="#3A3A3A"/>
<path d="M162.085 159.026C163.772 159.026 165.139 160.394 165.139 162.08C165.139 163.767 163.772 165.134 162.085 165.134C160.399 165.134 159.031 163.767 159.031 162.08C159.031 160.394 160.399 159.026 162.085 159.026Z" fill="#3A3A3A"/>
<path d="M177.354 159.026H171.246V165.134H177.354V159.026Z" fill="#3A3A3A"/>
<path d="M183.46 159.026H177.352V165.134H183.46V159.026Z" fill="#3A3A3A"/>
<path d="M61.2995 171.243V165.135H55.1914C55.1914 168.508 57.926 171.243 61.2995 171.243Z" fill="#3A3A3A"/>
<path d="M67.4089 165.135H61.3008V171.243H67.4089V165.135Z" fill="#3A3A3A"/>
<path d="M73.5144 165.135H67.4062V171.243H73.5144V165.135Z" fill="#3A3A3A"/>
<path d="M79.6237 165.135H73.5156V171.243H79.6237V165.135Z" fill="#3A3A3A"/>
<path d="M79.625 165.135V171.243H85.7331C85.7331 167.869 82.9984 165.135 79.625 165.135Z" fill="#3A3A3A"/>
<path d="M101.003 165.135C102.69 165.135 104.057 166.502 104.057 168.189C104.057 169.876 102.69 171.243 101.003 171.243C99.3166 171.243 97.9492 169.876 97.9492 168.189C97.9492 166.502 99.3166 165.135 101.003 165.135Z" fill="#3A3A3A"/>
<path d="M119.327 165.135C120.039 165.135 122.382 165.135 122.382 165.135C122.382 165.135 122.382 167.214 122.382 168.189C122.382 168.95 122.382 171.243 122.382 171.243C122.382 171.243 120.253 171.243 119.327 171.243C117.64 171.243 116.273 169.875 116.273 168.189C116.273 166.503 117.64 165.135 119.327 165.135Z" fill="#3A3A3A"/>
<path d="M128.491 165.135H122.383V171.243C125.756 171.243 128.491 168.508 128.491 165.135Z" fill="#3A3A3A"/>
<path d="M146.815 165.135H140.707V171.243H146.815V165.135Z" fill="#3A3A3A"/>
<path d="M152.921 165.135H146.812V171.243H152.921V165.135Z" fill="#3A3A3A"/>
<path d="M177.354 165.135H171.246V171.243H177.354V165.135Z" fill="#3A3A3A"/>
<path d="M183.46 165.135H177.352V171.243H183.46V165.135Z" fill="#3A3A3A"/>
<path d="M189.569 165.135H183.461V171.243H189.569V165.135Z" fill="#3A3A3A"/>
<path d="M195.678 165.135H189.57V171.243H195.678V165.135Z" fill="#3A3A3A"/>
<path d="M198.734 171.243C198.022 171.243 195.68 171.243 195.68 171.243C195.68 171.243 195.68 169.164 195.68 168.189C195.68 167.427 195.68 165.135 195.68 165.135C195.68 165.135 197.808 165.135 198.734 165.135C200.42 165.135 201.788 166.502 201.788 168.189C201.788 169.875 200.42 171.243 198.734 171.243Z" fill="#3A3A3A"/>
<path d="M67.4089 171.243H61.3008V177.351H67.4089V171.243Z" fill="#3A3A3A"/>
<path d="M73.5144 171.243H67.4062V177.351H73.5144V171.243Z" fill="#3A3A3A"/>
<path d="M79.6237 171.243H73.5156V177.351H79.6237V171.243Z" fill="#3A3A3A"/>
<path d="M85.7331 171.243H79.625V177.351H85.7331V171.243Z" fill="#3A3A3A"/>
<path d="M94.8939 171.243C96.5807 171.243 97.948 172.611 97.948 174.297C97.948 175.984 96.5807 177.351 94.8939 177.351C93.2072 177.351 91.8398 175.984 91.8398 174.297C91.8398 172.611 93.2072 171.243 94.8939 171.243Z" fill="#3A3A3A"/>
<path d="M104.055 177.351H110.163V171.243C106.789 171.243 104.055 173.978 104.055 177.351Z" fill="#3A3A3A"/>
<path d="M110.164 171.243V177.351H116.272C116.272 173.978 113.537 171.243 110.164 171.243Z" fill="#3A3A3A"/>
<path d="M134.598 177.351H140.706V171.243C137.332 171.243 134.598 173.978 134.598 177.351Z" fill="#3A3A3A"/>
<path d="M146.815 171.243H140.707V177.351H146.815V171.243Z" fill="#3A3A3A"/>
<path d="M152.921 171.243H146.812V177.351H152.921V171.243Z" fill="#3A3A3A"/>
<path d="M159.03 171.243H152.922V177.351H159.03V171.243Z" fill="#3A3A3A"/>
<path d="M165.139 171.243H159.031V177.351H165.139V171.243Z" fill="#3A3A3A"/>
<path d="M171.245 171.243H165.137V177.351H171.245V171.243Z" fill="#3A3A3A"/>
<path d="M177.354 171.243H171.246V177.351H177.354V171.243Z" fill="#3A3A3A"/>
<path d="M183.46 171.243H177.352V177.351H183.46V171.243Z" fill="#3A3A3A"/>
<path d="M189.569 171.243H183.461V177.351H189.569V171.243Z" fill="#3A3A3A"/>
<path d="M195.678 171.243H189.57V177.351C192.944 177.351 195.678 174.617 195.678 171.243Z" fill="#3A3A3A"/>
<path d="M49.0859 183.459H55.194V177.351C51.8207 177.351 49.0859 180.085 49.0859 183.459Z" fill="#3A3A3A"/>
<path d="M61.2995 177.351H55.1914V183.459H61.2995V177.351Z" fill="#3A3A3A"/>
<path d="M67.4089 177.351H61.3008V183.459C64.6742 183.459 67.4089 180.724 67.4089 177.351Z" fill="#3A3A3A"/>
<path d="M79.625 180.405C79.625 179.693 79.625 177.351 79.625 177.351C79.625 177.351 81.7042 177.351 82.6791 177.351C83.4404 177.351 85.7331 177.351 85.7331 177.351C85.7331 177.351 85.7331 179.479 85.7331 180.405C85.7331 182.091 84.3657 183.459 82.6791 183.459C80.9923 183.459 79.625 182.091 79.625 180.405Z" fill="#3A3A3A"/>
<path d="M110.163 177.351H104.055V183.459H110.163V177.351Z" fill="#3A3A3A"/>
<path d="M116.272 177.351H110.164V183.459H116.272V177.351Z" fill="#3A3A3A"/>
<path d="M122.382 177.351H116.273V183.459H122.382V177.351Z" fill="#3A3A3A"/>
<path d="M128.491 177.351H122.383V183.459H128.491V177.351Z" fill="#3A3A3A"/>
<path d="M134.596 177.351H128.488V183.459H134.596V177.351Z" fill="#3A3A3A"/>
<path d="M140.706 177.351H134.598V183.459H140.706V177.351Z" fill="#3A3A3A"/>
<path d="M146.815 177.351H140.707V183.459H146.815V177.351Z" fill="#3A3A3A"/>
<path d="M152.921 177.351H146.812V183.459H152.921V177.351Z" fill="#3A3A3A"/>
<path d="M165.137 180.405C165.137 179.693 165.137 177.351 165.137 177.351C165.137 177.351 167.216 177.351 168.191 177.351C168.952 177.351 171.245 177.351 171.245 177.351C171.245 177.351 171.245 179.479 171.245 180.405C171.245 182.091 169.877 183.459 168.191 183.459C166.504 183.459 165.137 182.091 165.137 180.405Z" fill="#3A3A3A"/>
<path d="M183.46 183.459V177.351H177.352C177.352 180.724 180.086 183.459 183.46 183.459Z" fill="#3A3A3A"/>
<path d="M189.569 177.351H183.461V183.459C186.834 183.459 189.569 180.724 189.569 177.351Z" fill="#3A3A3A"/>
<path d="M55.194 189.567V183.459H49.0859C49.0859 186.832 51.8206 189.567 55.194 189.567Z" fill="#3A3A3A"/>
<path d="M61.2995 183.459H55.1914V189.567H61.2995V183.459Z" fill="#3A3A3A"/>
<path d="M79.6237 186.513C79.6237 187.225 79.6237 189.567 79.6237 189.567C79.6237 189.567 77.5446 189.567 76.5697 189.567C75.8083 189.567 73.5156 189.567 73.5156 189.567C73.5156 189.567 73.5156 187.438 73.5156 186.513C73.5157 184.826 74.883 183.459 76.5696 183.459C78.2563 183.459 79.6237 184.826 79.6237 186.513Z" fill="#3A3A3A"/>
<path d="M88.7845 183.459C89.4964 183.459 91.8386 183.459 91.8386 183.459C91.8386 183.459 91.8386 185.538 91.8386 186.513C91.8386 187.274 91.8386 189.567 91.8386 189.567C91.8386 189.567 89.7103 189.567 88.7845 189.567C87.0972 189.567 85.7305 188.199 85.7305 186.513C85.7305 184.827 87.0972 183.459 88.7845 183.459Z" fill="#3A3A3A"/>
<path d="M97.948 183.459H91.8398V189.567H97.948V183.459Z" fill="#3A3A3A"/>
<path d="M104.057 183.459H97.9492V189.567H104.057V183.459Z" fill="#3A3A3A"/>
<path d="M110.163 183.459H104.055V189.567H110.163V183.459Z" fill="#3A3A3A"/>
<path d="M134.596 189.567V183.459H128.488C128.488 186.832 131.223 189.567 134.596 189.567Z" fill="#3A3A3A"/>
<path d="M140.706 183.459H134.598V189.567C137.971 189.567 140.706 186.832 140.706 183.459Z" fill="#3A3A3A"/>
<path d="M152.921 183.459H146.812V189.567H152.921V183.459Z" fill="#3A3A3A"/>
<path d="M159.03 183.459H152.922V189.567H159.03V183.459Z" fill="#3A3A3A"/>
<path d="M162.085 189.567C161.373 189.567 159.031 189.567 159.031 189.567C159.031 189.567 159.031 187.488 159.031 186.513C159.031 185.752 159.031 183.459 159.031 183.459C159.031 183.459 161.16 183.459 162.085 183.459C163.772 183.459 165.139 184.826 165.139 186.513C165.139 188.2 163.772 189.567 162.085 189.567Z" fill="#3A3A3A"/>
<path d="M61.2995 189.567H55.1914V195.675H61.2995V189.567Z" fill="#3A3A3A"/>
<path d="M79.6237 195.675V189.567H73.5156C73.5156 192.941 76.2503 195.675 79.6237 195.675Z" fill="#3A3A3A"/>
<path d="M79.625 189.567V195.675H85.7331C85.7331 192.302 82.9984 189.567 79.625 189.567Z" fill="#3A3A3A"/>
<path d="M104.057 189.567H97.9492V195.675H104.057V189.567Z" fill="#3A3A3A"/>
<path d="M110.163 189.567H104.055V195.675H110.163V189.567Z" fill="#3A3A3A"/>
<path d="M116.272 189.567H110.164V195.675H116.272V189.567Z" fill="#3A3A3A"/>
<path d="M122.382 189.567H116.273V195.675H122.382V189.567Z" fill="#3A3A3A"/>
<path d="M122.383 189.567V195.675H128.491C128.491 192.302 125.756 189.567 122.383 189.567Z" fill="#3A3A3A"/>
<path d="M152.921 195.675V189.567H146.812C146.813 192.941 149.547 195.675 152.921 195.675Z" fill="#3A3A3A"/>
<path d="M159.03 189.567H152.922V195.675C156.295 195.675 159.03 192.941 159.03 189.567Z" fill="#3A3A3A"/>
<path d="M186.515 189.567C188.202 189.567 189.569 190.935 189.569 192.621C189.569 194.308 188.202 195.675 186.515 195.675C184.828 195.675 183.461 194.308 183.461 192.621C183.461 190.935 184.828 189.567 186.515 189.567Z" fill="#3A3A3A"/>
<path d="M198.734 189.567C200.421 189.567 201.788 190.935 201.788 192.621C201.788 194.308 200.421 195.675 198.734 195.675C197.047 195.675 195.68 194.308 195.68 192.621C195.68 190.935 197.047 189.567 198.734 189.567Z" fill="#3A3A3A"/>
<path d="M55.1914 198.73C55.1914 198.018 55.1914 195.676 55.1914 195.676C55.1914 195.676 57.2706 195.676 58.2455 195.676C59.0068 195.676 61.2995 195.676 61.2995 195.676C61.2995 195.676 61.2995 197.805 61.2995 198.73C61.2995 200.416 59.9321 201.784 58.2455 201.784C56.5588 201.784 55.1914 200.416 55.1914 198.73Z" fill="#3A3A3A"/>
<path d="M79.625 198.73C79.625 198.018 79.625 195.676 79.625 195.676C79.625 195.676 81.7042 195.676 82.6791 195.676C83.4404 195.676 85.7331 195.676 85.7331 195.676C85.7331 195.676 85.7331 197.805 85.7331 198.73C85.7331 200.416 84.3657 201.784 82.6791 201.784C80.9923 201.784 79.625 200.416 79.625 198.73Z" fill="#3A3A3A"/>
<path d="M104.057 201.784V195.676H97.9492C97.9492 199.049 100.684 201.784 104.057 201.784Z" fill="#3A3A3A"/>
<path d="M110.163 195.675H104.055V201.783C107.428 201.783 110.163 199.048 110.163 195.675Z" fill="#3A3A3A"/>
<path d="M122.382 201.784V195.676H116.273C116.273 199.049 119.008 201.784 122.382 201.784Z" fill="#3A3A3A"/>
<path d="M128.491 195.675H122.383V201.783C125.756 201.783 128.491 199.048 128.491 195.675Z" fill="#3A3A3A"/>
<path d="M137.652 195.676C138.364 195.676 140.706 195.676 140.706 195.676C140.706 195.676 140.706 197.755 140.706 198.73C140.706 199.491 140.706 201.784 140.706 201.784C140.706 201.784 138.577 201.784 137.652 201.784C135.964 201.784 134.598 200.416 134.598 198.73C134.598 197.044 135.964 195.676 137.652 195.676Z" fill="#3A3A3A"/>
<path d="M143.761 201.783C143.049 201.783 140.707 201.783 140.707 201.783C140.707 201.783 140.707 199.704 140.707 198.729C140.707 197.967 140.707 195.675 140.707 195.675C140.707 195.675 142.836 195.675 143.761 195.675C145.448 195.675 146.815 197.042 146.815 198.729C146.815 200.415 145.448 201.783 143.761 201.783Z" fill="#3A3A3A"/>
<path d="M162.085 195.676C162.797 195.676 165.139 195.676 165.139 195.676C165.139 195.676 165.139 197.755 165.139 198.73C165.139 199.491 165.139 201.784 165.139 201.784C165.139 201.784 163.011 201.784 162.085 201.784C160.398 201.784 159.031 200.416 159.031 198.73C159.031 197.044 160.398 195.676 162.085 195.676Z" fill="#3A3A3A"/>
<path d="M171.245 195.676H165.137V201.784H171.245V195.676Z" fill="#3A3A3A"/>
<path d="M174.3 201.784C173.588 201.784 171.246 201.784 171.246 201.784C171.246 201.784 171.246 199.705 171.246 198.73C171.246 197.968 171.246 195.676 171.246 195.676C171.246 195.676 173.375 195.676 174.3 195.676C175.987 195.676 177.354 197.043 177.354 198.73C177.354 200.416 175.987 201.784 174.3 201.784Z" fill="#3A3A3A"/>
<path d="M21.5998 0.634766C10.0249 0.634766 0.640625 10.019 0.640625 21.594C0.640625 33.1689 10.0249 42.5532 21.5998 42.5532C33.1747 42.5532 42.559 33.1689 42.559 21.594C42.559 10.019 33.1747 0.634766 21.5998 0.634766ZM21.5998 36.2654C13.51 36.2654 6.92838 29.6838 6.92838 21.594C6.92838 13.5041 13.51 6.92252 21.5998 6.92252C29.6897 6.92252 36.2713 13.5041 36.2713 21.594C36.2713 29.6838 29.6897 36.2654 21.5998 36.2654Z" fill="#C5594D"/>
<path d="M180.408 0.634766C168.833 0.634766 159.449 10.019 159.449 21.594C159.449 33.1689 168.833 42.5532 180.408 42.5532C191.983 42.5532 201.368 33.1689 201.368 21.594C201.368 10.019 191.983 0.634766 180.408 0.634766ZM180.408 36.2654C172.319 36.2654 165.737 29.6838 165.737 21.594C165.737 13.5041 172.319 6.92252 180.408 6.92252C188.498 6.92252 195.08 13.5041 195.08 21.594C195.08 29.6838 188.498 36.2654 180.408 36.2654Z" fill="#C5594D"/>
<path d="M21.5998 159.445C10.0249 159.445 0.640625 168.83 0.640625 180.405C0.640625 191.979 10.0249 201.364 21.5998 201.364C33.1747 201.364 42.559 191.979 42.559 180.405C42.559 168.83 33.1747 159.445 21.5998 159.445ZM21.5998 195.076C13.51 195.076 6.92838 188.494 6.92838 180.405C6.92838 172.315 13.51 165.733 21.5998 165.733C29.6897 165.733 36.2713 172.315 36.2713 180.405C36.2713 188.494 29.6897 195.076 21.5998 195.076Z" fill="#C5594D"/>
<path d="M21.42 30.3967C26.3809 30.3967 30.4025 26.3751 30.4025 21.4142C30.4025 16.4532 26.3809 12.4316 21.42 12.4316C16.4591 12.4316 12.4375 16.4532 12.4375 21.4142C12.4375 26.3751 16.4591 30.3967 21.42 30.3967Z" fill="#3A3A3A"/>
<path d="M180.229 30.3967C185.19 30.3967 189.211 26.3751 189.211 21.4142C189.211 16.4532 185.19 12.4316 180.229 12.4316C175.268 12.4316 171.246 16.4532 171.246 21.4142C171.246 26.3751 175.268 30.3967 180.229 30.3967Z" fill="#3A3A3A"/>
<path d="M21.42 189.208C26.3809 189.208 30.4025 185.187 30.4025 180.226C30.4025 175.265 26.3809 171.243 21.42 171.243C16.4591 171.243 12.4375 175.265 12.4375 180.226C12.4375 185.187 16.4591 189.208 21.42 189.208Z" fill="#3A3A3A"/>
<g clip-path="url(#clip0_487_2065)">
<mask id="mask0_487_2065" style="mask-type:luminance" maskUnits="userSpaceOnUse" x="67" y="67" width="68" height="68">
<path d="M134.595 67.4053H67.4062V134.594H134.595V67.4053Z" fill="white"/>
</mask>
<g mask="url(#mask0_487_2065)">
<path d="M101.001 67.4053C94.3565 67.4053 87.8613 69.3756 82.3367 73.067C76.8121 76.7584 72.5062 82.0052 69.9635 88.1438C67.4208 94.2824 66.7555 101.037 68.0518 107.554C69.348 114.071 72.5476 120.057 77.2459 124.755C81.9442 129.453 87.9302 132.653 94.4468 133.949C100.964 135.245 107.718 134.58 113.857 132.037C119.996 129.495 125.242 125.189 128.934 119.664C132.625 114.139 134.595 107.644 134.595 101C134.595 96.5883 133.727 92.2198 132.038 88.1438C130.35 84.0679 127.875 80.3644 124.756 77.2449C121.636 74.1254 117.933 71.6508 113.857 69.9625C109.781 68.2742 105.412 67.4053 101.001 67.4053ZM111.684 118.308C111.559 118.622 111.368 118.905 111.124 119.139C110.88 119.373 110.588 119.552 110.269 119.664C109.951 119.776 109.612 119.818 109.275 119.788C108.938 119.759 108.612 119.657 108.318 119.49L99.1967 112.402L93.3446 117.804C93.2088 117.904 93.0499 117.969 92.8826 117.992C92.7154 118.014 92.545 117.995 92.3873 117.935L93.5092 107.893L93.5428 107.924L93.5664 107.725C93.5664 107.725 109.977 92.7825 110.646 92.1476C111.324 91.5128 111.099 91.3749 111.099 91.3749C111.14 90.6023 109.887 91.3749 109.887 91.3749L88.1409 105.364L79.0871 102.28C79.0871 102.28 77.6963 101.783 77.5653 100.684C77.4275 99.5956 79.1308 99.0044 79.1308 99.0044L115.134 84.6998C115.134 84.6998 118.094 83.3829 118.094 85.5665L111.684 118.308Z" fill="#C5594D"/>
</g>
</g>
<defs>
<clipPath id="clip0_487_2065">
<rect width="67.1892" height="67.1892" fill="white" transform="translate(67.4062 67.4053)"/>
</clipPath>
</defs>
</svg>
