<svg width="202" height="202" viewBox="0 0 202 202" fill="none" xmlns="http://www.w3.org/2000/svg">
<path d="M55.1914 6.32393H61.2995V0.21582C57.9261 0.215833 55.1914 2.95047 55.1914 6.32393Z" fill="#3A3A3A"/>
<path d="M61.3008 0.21582V6.32393H67.4089C67.4089 2.95046 64.6742 0.21582 61.3008 0.21582Z" fill="#3A3A3A"/>
<path d="M73.5156 6.32393H79.6237V0.21582C76.2504 0.215833 73.5156 2.95047 73.5156 6.32393Z" fill="#3A3A3A"/>
<path d="M85.7331 0.21582H79.625V6.32393H85.7331V0.21582Z" fill="#3A3A3A"/>
<path d="M91.8386 0.21582H85.7305V6.32393H91.8386V0.21582Z" fill="#3A3A3A"/>
<path d="M97.948 0.21582H91.8398V6.32393H97.948V0.21582Z" fill="#3A3A3A"/>
<path d="M104.057 0.21582H97.9492V6.32393H104.057V0.21582Z" fill="#3A3A3A"/>
<path d="M110.163 0.21582H104.055V6.32393H110.163V0.21582Z" fill="#3A3A3A"/>
<path d="M113.218 6.32393C112.506 6.32393 110.164 6.32393 110.164 6.32393C110.164 6.32393 110.164 4.24464 110.164 3.26987C110.164 2.50851 110.164 0.21582 110.164 0.21582C110.164 0.21582 112.293 0.21582 113.218 0.21582C114.905 0.21582 116.272 1.58317 116.272 3.26987C116.272 4.95649 114.905 6.32393 113.218 6.32393Z" fill="#3A3A3A"/>
<path d="M140.707 6.32393H146.815V0.21582C143.442 0.215833 140.707 2.95047 140.707 6.32393Z" fill="#3A3A3A"/>
<path d="M149.867 6.32393C149.155 6.32393 146.812 6.32393 146.812 6.32393C146.812 6.32393 146.812 4.24464 146.812 3.26987C146.812 2.50851 146.812 0.21582 146.812 0.21582C146.812 0.21582 148.941 0.21582 149.867 0.21582C151.553 0.21582 152.921 1.58317 152.921 3.26987C152.921 4.95649 151.553 6.32393 149.867 6.32393Z" fill="#3A3A3A"/>
<path d="M61.2995 12.4323V6.32422H55.1914C55.1914 9.69763 57.926 12.4323 61.2995 12.4323Z" fill="#3A3A3A"/>
<path d="M67.4089 6.32422H61.3008V12.4323H67.4089V6.32422Z" fill="#3A3A3A"/>
<path d="M73.5144 6.32422H67.4062V12.4323H73.5144V6.32422Z" fill="#3A3A3A"/>
<path d="M79.6237 6.32422H73.5156V12.4323H79.6237V6.32422Z" fill="#3A3A3A"/>
<path d="M122.383 12.4323H128.491V6.32422C125.118 6.32423 122.383 9.05887 122.383 12.4323Z" fill="#3A3A3A"/>
<path d="M134.596 6.32422H128.488V12.4323H134.596V6.32422Z" fill="#3A3A3A"/>
<path d="M140.706 6.32422H134.598V12.4323H140.706V6.32422Z" fill="#3A3A3A"/>
<path d="M146.815 6.32422H140.707V12.4323H146.815V6.32422Z" fill="#3A3A3A"/>
<path d="M79.6237 12.4316H73.5156V18.5397H79.6237V12.4316Z" fill="#3A3A3A"/>
<path d="M88.7845 12.4316C90.4713 12.4316 91.8386 13.799 91.8386 15.4857C91.8386 17.1725 90.4713 18.5397 88.7845 18.5397C87.0978 18.5397 85.7305 17.1725 85.7305 15.4857C85.7305 13.799 87.0978 12.4316 88.7845 12.4316Z" fill="#3A3A3A"/>
<path d="M101.003 12.4316C102.69 12.4316 104.057 13.799 104.057 15.4857C104.057 17.1725 102.69 18.5397 101.003 18.5397C99.3166 18.5397 97.9492 17.1725 97.9492 15.4857C97.9492 13.799 99.3166 12.4316 101.003 12.4316Z" fill="#3A3A3A"/>
<path d="M119.327 12.4316C120.039 12.4316 122.382 12.4316 122.382 12.4316C122.382 12.4316 122.382 14.5106 122.382 15.4857C122.382 16.2468 122.382 18.5397 122.382 18.5397C122.382 18.5397 120.253 18.5397 119.327 18.5397C117.64 18.5397 116.273 17.1718 116.273 15.4857C116.273 13.7994 117.64 12.4316 119.327 12.4316Z" fill="#3A3A3A"/>
<path d="M128.491 12.4316H122.383V18.5397C125.756 18.5397 128.491 15.8051 128.491 12.4316Z" fill="#3A3A3A"/>
<path d="M146.815 12.4316H140.707V18.5397H146.815V12.4316Z" fill="#3A3A3A"/>
<path d="M79.6237 18.54H73.5156V24.6481H79.6237V18.54Z" fill="#3A3A3A"/>
<path d="M82.6791 24.6481C81.9672 24.6481 79.625 24.6481 79.625 24.6481C79.625 24.6481 79.625 22.5689 79.625 21.5941C79.625 20.8327 79.625 18.54 79.625 18.54C79.625 18.54 81.7538 18.54 82.6791 18.54C84.3657 18.54 85.7331 19.9074 85.7331 21.5941C85.7331 23.2807 84.3657 24.6481 82.6791 24.6481Z" fill="#3A3A3A"/>
<path d="M94.8939 18.54C96.5807 18.54 97.948 19.9074 97.948 21.5941C97.948 23.2809 96.5807 24.6481 94.8939 24.6481C93.2072 24.6481 91.8398 23.2809 91.8398 21.5941C91.8398 19.9074 93.2072 18.54 94.8939 18.54Z" fill="#3A3A3A"/>
<path d="M107.109 18.54C107.821 18.54 110.163 18.54 110.163 18.54C110.163 18.54 110.163 20.619 110.163 21.5941C110.163 22.3552 110.163 24.6481 110.163 24.6481C110.163 24.6481 108.034 24.6481 107.109 24.6481C105.421 24.6481 104.055 23.2802 104.055 21.5941C104.055 19.9078 105.421 18.54 107.109 18.54Z" fill="#3A3A3A"/>
<path d="M110.164 18.54V24.6481H116.272C116.272 21.2747 113.537 18.54 110.164 18.54Z" fill="#3A3A3A"/>
<path d="M134.598 24.6481H140.706V18.54C137.332 18.5401 134.598 21.2747 134.598 24.6481Z" fill="#3A3A3A"/>
<path d="M146.815 18.54H140.707V24.6481H146.815V18.54Z" fill="#3A3A3A"/>
<path d="M52.14 24.6484C53.8268 24.6484 55.194 26.0158 55.194 27.7025C55.194 29.3893 53.8268 30.7565 52.14 30.7565C50.4533 30.7565 49.0859 29.3893 49.0859 27.7025C49.0859 26.0158 50.4533 24.6484 52.14 24.6484Z" fill="#3A3A3A"/>
<path d="M61.3008 30.7565H67.4089V24.6484C64.0355 24.6484 61.3008 27.3831 61.3008 30.7565Z" fill="#3A3A3A"/>
<path d="M73.5144 24.6484H67.4062V30.7565H73.5144V24.6484Z" fill="#3A3A3A"/>
<path d="M79.6237 24.6484H73.5156V30.7565H79.6237V24.6484Z" fill="#3A3A3A"/>
<path d="M91.8386 27.7025C91.8386 28.4143 91.8386 30.7565 91.8386 30.7565C91.8386 30.7565 89.7594 30.7565 88.7845 30.7564C88.0232 30.7565 85.7305 30.7564 85.7305 30.7564C85.7305 30.7564 85.7305 28.6278 85.7305 27.7024C85.7305 26.0158 87.0978 24.6484 88.7844 24.6484C90.4711 24.6484 91.8386 26.0158 91.8386 27.7025Z" fill="#3A3A3A"/>
<path d="M110.164 27.7025C110.164 26.9906 110.164 24.6484 110.164 24.6484C110.164 24.6484 112.243 24.6484 113.218 24.6484C113.979 24.6484 116.272 24.6484 116.272 24.6484C116.272 24.6484 116.272 26.7772 116.272 27.7025C116.272 29.3891 114.905 30.7565 113.218 30.7565C111.531 30.7565 110.164 29.3891 110.164 27.7025Z" fill="#3A3A3A"/>
<path d="M125.437 24.6484C127.124 24.6484 128.491 26.0158 128.491 27.7025C128.491 29.3893 127.124 30.7565 125.437 30.7565C123.75 30.7565 122.383 29.3893 122.383 27.7025C122.383 26.0158 123.75 24.6484 125.437 24.6484Z" fill="#3A3A3A"/>
<path d="M140.706 24.6484H134.598V30.7565H140.706V24.6484Z" fill="#3A3A3A"/>
<path d="M146.815 24.6484H140.707V30.7565C144.08 30.7565 146.815 28.0218 146.815 24.6484Z" fill="#3A3A3A"/>
<path d="M67.4089 30.7559H61.3008V36.864H67.4089V30.7559Z" fill="#3A3A3A"/>
<path d="M79.6237 30.7559H73.5156V36.864H79.6237V30.7559Z" fill="#3A3A3A"/>
<path d="M91.8386 30.7568H85.7305V36.8649H91.8386V30.7568Z" fill="#3A3A3A"/>
<path d="M119.327 30.7559C121.014 30.7559 122.382 32.1232 122.382 33.8099C122.382 35.4967 121.014 36.864 119.327 36.864C117.641 36.864 116.273 35.4967 116.273 33.8099C116.273 32.1232 117.641 30.7559 119.327 30.7559Z" fill="#3A3A3A"/>
<path d="M131.542 30.7559C132.254 30.7559 134.596 30.7559 134.596 30.7559C134.596 30.7559 134.596 32.8348 134.596 33.8099C134.596 34.571 134.596 36.864 134.596 36.864C134.596 36.864 132.468 36.864 131.542 36.864C129.855 36.864 128.488 35.496 128.488 33.8099C128.488 32.1236 129.855 30.7559 131.542 30.7559Z" fill="#3A3A3A"/>
<path d="M140.706 30.7559H134.598V36.864H140.706V30.7559Z" fill="#3A3A3A"/>
<path d="M152.921 33.8099C152.921 34.5217 152.921 36.864 152.921 36.864C152.921 36.864 150.841 36.864 149.867 36.8638C149.105 36.864 146.812 36.8638 146.812 36.8638C146.812 36.8638 146.812 34.7353 146.812 33.8098C146.813 32.1232 148.18 30.7559 149.866 30.7559C151.553 30.7559 152.921 32.1232 152.921 33.8099Z" fill="#3A3A3A"/>
<path d="M55.194 39.9183C55.194 40.6301 55.194 42.9724 55.194 42.9724C55.194 42.9724 53.1149 42.9724 52.14 42.9722C51.3786 42.9724 49.0859 42.9722 49.0859 42.9722C49.0859 42.9722 49.0859 40.8437 49.0859 39.9182C49.086 38.2316 50.4533 36.8643 52.1399 36.8643C53.8266 36.8643 55.194 38.2316 55.194 39.9183Z" fill="#3A3A3A"/>
<path d="M61.3008 39.9183C61.3008 39.2065 61.3008 36.8643 61.3008 36.8643C61.3008 36.8643 63.38 36.8643 64.3548 36.8643C65.1162 36.8643 67.4089 36.8643 67.4089 36.8643C67.4089 36.8643 67.4089 38.9931 67.4089 39.9183C67.4089 41.6049 66.0415 42.9724 64.3548 42.9724C62.6681 42.9724 61.3008 41.6049 61.3008 39.9183Z" fill="#3A3A3A"/>
<path d="M73.5156 39.9183C73.5156 39.2065 73.5156 36.8643 73.5156 36.8643C73.5156 36.8643 75.5948 36.8643 76.5697 36.8643C77.331 36.8643 79.6237 36.8643 79.6237 36.8643C79.6237 36.8643 79.6237 38.9931 79.6237 39.9183C79.6237 41.6049 78.2563 42.9724 76.5697 42.9724C74.883 42.9724 73.5156 41.6049 73.5156 39.9183Z" fill="#3A3A3A"/>
<path d="M85.7305 39.9183C85.7305 39.2065 85.7305 36.8643 85.7305 36.8643C85.7305 36.8643 87.8097 36.8643 88.7845 36.8643C89.5459 36.8643 91.8386 36.8643 91.8386 36.8643C91.8386 36.8643 91.8386 38.9931 91.8386 39.9183C91.8386 41.6049 90.4711 42.9724 88.7845 42.9724C87.0978 42.9724 85.7305 41.6049 85.7305 39.9183Z" fill="#3A3A3A"/>
<path d="M104.057 39.9183C104.057 40.6301 104.057 42.9724 104.057 42.9724C104.057 42.9724 101.978 42.9724 101.003 42.9722C100.242 42.9724 97.9492 42.9722 97.9492 42.9722C97.9492 42.9722 97.9492 40.8437 97.9492 39.9182C97.9493 38.2316 99.3166 36.8643 101.003 36.8643C102.69 36.8643 104.057 38.2316 104.057 39.9183Z" fill="#3A3A3A"/>
<path d="M113.218 36.8643C114.905 36.8643 116.272 38.2316 116.272 39.9183C116.272 41.6051 114.905 42.9724 113.218 42.9724C111.531 42.9724 110.164 41.6051 110.164 39.9183C110.164 38.2316 111.531 36.8643 113.218 36.8643Z" fill="#3A3A3A"/>
<path d="M125.437 36.8643C127.124 36.8643 128.491 38.2316 128.491 39.9183C128.491 41.6051 127.124 42.9724 125.437 42.9724C123.75 42.9724 122.383 41.6051 122.383 39.9183C122.383 38.2316 123.75 36.8643 125.437 36.8643Z" fill="#3A3A3A"/>
<path d="M134.598 39.9183C134.598 39.2065 134.598 36.8643 134.598 36.8643C134.598 36.8643 136.677 36.8643 137.652 36.8643C138.413 36.8643 140.706 36.8643 140.706 36.8643C140.706 36.8643 140.706 38.9931 140.706 39.9183C140.706 41.6049 139.338 42.9724 137.652 42.9724C135.965 42.9724 134.598 41.6049 134.598 39.9183Z" fill="#3A3A3A"/>
<path d="M146.812 39.9183C146.812 39.2065 146.812 36.8643 146.812 36.8643C146.812 36.8643 148.892 36.8643 149.867 36.8643C150.628 36.8643 152.921 36.8643 152.921 36.8643C152.921 36.8643 152.921 38.9931 152.921 39.9183C152.921 41.6049 151.553 42.9724 149.867 42.9724C148.18 42.9724 146.812 41.6049 146.812 39.9183Z" fill="#3A3A3A"/>
<path d="M55.194 42.9727H49.0859V49.0808H55.194V42.9727Z" fill="#3A3A3A"/>
<path d="M70.4603 42.9727C72.1471 42.9727 73.5144 44.34 73.5144 46.0267C73.5144 47.7135 72.1471 49.0808 70.4603 49.0808C68.7736 49.0808 67.4062 47.7135 67.4062 46.0267C67.4062 44.34 68.7736 42.9727 70.4603 42.9727Z" fill="#3A3A3A"/>
<path d="M94.8939 42.9727C95.6057 42.9727 97.948 42.9727 97.948 42.9727C97.948 42.9727 97.948 45.0516 97.948 46.0267C97.948 46.7878 97.948 49.0808 97.948 49.0808C97.948 49.0808 95.8197 49.0808 94.8939 49.0808C93.2066 49.0808 91.8398 47.7128 91.8398 46.0267C91.8398 44.3404 93.2066 42.9727 94.8939 42.9727Z" fill="#3A3A3A"/>
<path d="M104.057 42.9727H97.9492V49.0808H104.057V42.9727Z" fill="#3A3A3A"/>
<path d="M143.761 42.9727C145.448 42.9727 146.815 44.34 146.815 46.0267C146.815 47.7135 145.448 49.0808 143.761 49.0808C142.074 49.0808 140.707 47.7135 140.707 46.0267C140.707 44.34 142.074 42.9727 143.761 42.9727Z" fill="#3A3A3A"/>
<path d="M15.4916 49.0811C16.2034 49.0811 18.5456 49.0811 18.5456 49.0811C18.5456 49.0811 18.5456 51.16 18.5456 52.1351C18.5456 52.8962 18.5456 55.1892 18.5456 55.1892C18.5456 55.1892 16.4173 55.1892 15.4916 55.1892C13.8043 55.1892 12.4375 53.8212 12.4375 52.1351C12.4375 50.4488 13.8043 49.0811 15.4916 49.0811Z" fill="#3A3A3A"/>
<path d="M18.543 49.0811V55.1892H24.6511C24.6511 51.8157 21.9164 49.0811 18.543 49.0811Z" fill="#3A3A3A"/>
<path d="M39.9212 49.0811C40.6331 49.0811 42.9753 49.0811 42.9753 49.0811C42.9753 49.0811 42.9753 51.16 42.9753 52.1351C42.9753 52.8962 42.9753 55.1892 42.9753 55.1892C42.9753 55.1892 40.847 55.1892 39.9212 55.1892C38.2339 55.1892 36.8672 53.8212 36.8672 52.1351C36.8672 50.4488 38.2339 49.0811 39.9212 49.0811Z" fill="#3A3A3A"/>
<path d="M49.0847 49.0811H42.9766V55.1892H49.0847V49.0811Z" fill="#3A3A3A"/>
<path d="M55.194 49.0811H49.0859V55.1892C52.4593 55.1892 55.194 52.4545 55.194 49.0811Z" fill="#3A3A3A"/>
<path d="M91.8386 52.1351C91.8386 52.8469 91.8386 55.1892 91.8386 55.1892C91.8386 55.1892 89.7594 55.1892 88.7845 55.189C88.0232 55.1892 85.7305 55.189 85.7305 55.189C85.7305 55.189 85.7305 53.0605 85.7305 52.135C85.7305 50.4484 87.0978 49.0811 88.7844 49.0811C90.4711 49.0811 91.8386 50.4484 91.8386 52.1351Z" fill="#3A3A3A"/>
<path d="M97.9492 52.1351C97.9492 51.4233 97.9492 49.0811 97.9492 49.0811C97.9492 49.0811 100.028 49.0811 101.003 49.0811C101.765 49.0811 104.057 49.0811 104.057 49.0811C104.057 49.0811 104.057 51.2099 104.057 52.1351C104.057 53.8217 102.69 55.1892 101.003 55.1892C99.3166 55.1892 97.9492 53.8217 97.9492 52.1351Z" fill="#3A3A3A"/>
<path d="M116.272 52.1351C116.272 52.8469 116.272 55.1892 116.272 55.1892C116.272 55.1892 114.193 55.1892 113.218 55.189C112.457 55.1892 110.164 55.189 110.164 55.189C110.164 55.189 110.164 53.0605 110.164 52.135C110.164 50.4484 111.531 49.0811 113.218 49.0811C114.905 49.0811 116.272 50.4484 116.272 52.1351Z" fill="#3A3A3A"/>
<path d="M131.542 49.0811C132.254 49.0811 134.596 49.0811 134.596 49.0811C134.596 49.0811 134.596 51.16 134.596 52.1351C134.596 52.8962 134.596 55.1892 134.596 55.1892C134.596 55.1892 132.468 55.1892 131.542 55.1892C129.855 55.1892 128.488 53.8212 128.488 52.1351C128.488 50.4488 129.855 49.0811 131.542 49.0811Z" fill="#3A3A3A"/>
<path d="M134.598 49.0811V55.1892H140.706C140.706 51.8157 137.971 49.0811 134.598 49.0811Z" fill="#3A3A3A"/>
<path d="M146.812 55.1892H152.921V49.0811C149.547 49.0811 146.812 51.8157 146.812 55.1892Z" fill="#3A3A3A"/>
<path d="M159.03 49.0811H152.922V55.1892H159.03V49.0811Z" fill="#3A3A3A"/>
<path d="M159.031 49.0811V55.1892H165.139C165.139 51.8157 162.405 49.0811 159.031 49.0811Z" fill="#3A3A3A"/>
<path d="M174.3 49.0811C175.987 49.0811 177.354 50.4484 177.354 52.1351C177.354 53.8219 175.987 55.1892 174.3 55.1892C172.613 55.1892 171.246 53.8219 171.246 52.1351C171.246 50.4484 172.613 49.0811 174.3 49.0811Z" fill="#3A3A3A"/>
<path d="M0.21875 61.2966H6.32686V55.1885C2.95348 55.1885 0.21875 57.9231 0.21875 61.2966Z" fill="#3A3A3A"/>
<path d="M9.38218 61.2966C8.67033 61.2966 6.32812 61.2966 6.32812 61.2966C6.32812 61.2966 6.32812 59.2173 6.32812 58.2425C6.32812 57.4812 6.32812 55.1885 6.32812 55.1885C6.32812 55.1885 8.45693 55.1885 9.38218 55.1885C11.0688 55.1885 12.4362 56.5558 12.4362 58.2425C12.4362 59.9292 11.0688 61.2966 9.38218 61.2966Z" fill="#3A3A3A"/>
<path d="M24.6511 55.1885H18.543V61.2966H24.6511V55.1885Z" fill="#3A3A3A"/>
<path d="M36.8659 58.2425C36.8659 58.9543 36.8659 61.2966 36.8659 61.2966C36.8659 61.2966 34.7868 61.2966 33.8119 61.2964C33.0505 61.2966 30.7578 61.2964 30.7578 61.2964C30.7578 61.2964 30.7578 59.1679 30.7578 58.2425C30.7579 56.5558 32.1252 55.1885 33.8118 55.1885C35.4985 55.1885 36.8659 56.5558 36.8659 58.2425Z" fill="#3A3A3A"/>
<path d="M58.2455 55.1885C58.9573 55.1885 61.2995 55.1885 61.2995 55.1885C61.2995 55.1885 61.2995 57.2675 61.2995 58.2425C61.2995 59.0037 61.2995 61.2966 61.2995 61.2966C61.2995 61.2966 59.1712 61.2966 58.2455 61.2966C56.5582 61.2966 55.1914 59.9286 55.1914 58.2425C55.1914 56.5562 56.5582 55.1885 58.2455 55.1885Z" fill="#3A3A3A"/>
<path d="M64.3548 61.2966C63.643 61.2966 61.3008 61.2966 61.3008 61.2966C61.3008 61.2966 61.3008 59.2173 61.3008 58.2425C61.3008 57.4812 61.3008 55.1885 61.3008 55.1885C61.3008 55.1885 63.4296 55.1885 64.3548 55.1885C66.0415 55.1885 67.4089 56.5558 67.4089 58.2425C67.4089 59.9292 66.0415 61.2966 64.3548 61.2966Z" fill="#3A3A3A"/>
<path d="M73.5156 61.2966H79.6237V55.1885C76.2504 55.1885 73.5156 57.9231 73.5156 61.2966Z" fill="#3A3A3A"/>
<path d="M85.7331 55.1885H79.625V61.2966H85.7331V55.1885Z" fill="#3A3A3A"/>
<path d="M91.8386 55.1885H85.7305V61.2966H91.8386V55.1885Z" fill="#3A3A3A"/>
<path d="M94.8939 61.2966C94.182 61.2966 91.8398 61.2966 91.8398 61.2966C91.8398 61.2966 91.8398 59.2173 91.8398 58.2425C91.8398 57.4812 91.8398 55.1885 91.8398 55.1885C91.8398 55.1885 93.9687 55.1885 94.8939 55.1885C96.5805 55.1885 97.948 56.5558 97.948 58.2425C97.948 59.9292 96.5805 61.2966 94.8939 61.2966Z" fill="#3A3A3A"/>
<path d="M107.109 55.1885C107.821 55.1885 110.163 55.1885 110.163 55.1885C110.163 55.1885 110.163 57.2675 110.163 58.2425C110.163 59.0037 110.163 61.2966 110.163 61.2966C110.163 61.2966 108.034 61.2966 107.109 61.2966C105.421 61.2966 104.055 59.9286 104.055 58.2425C104.055 56.5562 105.421 55.1885 107.109 55.1885Z" fill="#3A3A3A"/>
<path d="M116.272 55.1885H110.164V61.2966C113.537 61.2966 116.272 58.5619 116.272 55.1885Z" fill="#3A3A3A"/>
<path d="M140.706 55.1885H134.598V61.2966H140.706V55.1885Z" fill="#3A3A3A"/>
<path d="M146.815 55.1885H140.707V61.2966H146.815V55.1885Z" fill="#3A3A3A"/>
<path d="M152.921 55.1885H146.812V61.2966H152.921V55.1885Z" fill="#3A3A3A"/>
<path d="M159.03 55.1885H152.922V61.2966H159.03V55.1885Z" fill="#3A3A3A"/>
<path d="M165.139 55.1885H159.031V61.2966H165.139V55.1885Z" fill="#3A3A3A"/>
<path d="M189.569 58.2425C189.569 58.9543 189.569 61.2966 189.569 61.2966C189.569 61.2966 187.49 61.2966 186.515 61.2964C185.754 61.2966 183.461 61.2964 183.461 61.2964C183.461 61.2964 183.461 59.1679 183.461 58.2425C183.461 56.5558 184.828 55.1885 186.515 55.1885C188.202 55.1885 189.569 56.5558 189.569 58.2425Z" fill="#3A3A3A"/>
<path d="M201.788 58.2425C201.788 58.9543 201.788 61.2966 201.788 61.2966C201.788 61.2966 199.709 61.2966 198.734 61.2964C197.972 61.2966 195.68 61.2964 195.68 61.2964C195.68 61.2964 195.68 59.1679 195.68 58.2425C195.68 56.5558 197.047 55.1885 198.734 55.1885C200.42 55.1885 201.788 56.5558 201.788 58.2425Z" fill="#3A3A3A"/>
<path d="M6.32686 61.2969H0.21875V67.405H6.32686V61.2969Z" fill="#3A3A3A"/>
<path d="M15.4916 61.2969C16.2034 61.2969 18.5456 61.2969 18.5456 61.2969C18.5456 61.2969 18.5456 63.3759 18.5456 64.3509C18.5456 65.1121 18.5456 67.405 18.5456 67.405C18.5456 67.405 16.4173 67.405 15.4916 67.405C13.8043 67.405 12.4375 66.037 12.4375 64.3509C12.4375 62.6646 13.8043 61.2969 15.4916 61.2969Z" fill="#3A3A3A"/>
<path d="M24.6511 61.2969H18.543V67.405H24.6511V61.2969Z" fill="#3A3A3A"/>
<path d="M30.7565 61.2969H24.6484V67.405H30.7565V61.2969Z" fill="#3A3A3A"/>
<path d="M36.8659 61.2969H30.7578V67.405H36.8659V61.2969Z" fill="#3A3A3A"/>
<path d="M42.9753 61.2969H36.8672V67.405H42.9753V61.2969Z" fill="#3A3A3A"/>
<path d="M42.9766 61.2969V67.405H49.0847C49.0847 64.0315 46.35 61.2969 42.9766 61.2969Z" fill="#3A3A3A"/>
<path d="M70.4603 61.2969C71.1721 61.2969 73.5144 61.2969 73.5144 61.2969C73.5144 61.2969 73.5144 63.3759 73.5144 64.3509C73.5144 65.1121 73.5144 67.405 73.5144 67.405C73.5144 67.405 71.3861 67.405 70.4603 67.405C68.773 67.405 67.4062 66.037 67.4062 64.3509C67.4062 62.6646 68.773 61.2969 70.4603 61.2969Z" fill="#3A3A3A"/>
<path d="M79.6237 61.2969H73.5156V67.405H79.6237V61.2969Z" fill="#3A3A3A"/>
<path d="M85.7331 61.2969H79.625V67.405H85.7331V61.2969Z" fill="#3A3A3A"/>
<path d="M91.8386 61.2969H85.7305V67.405C89.1039 67.405 91.8386 64.6703 91.8386 61.2969Z" fill="#3A3A3A"/>
<path d="M101.003 61.2969C102.69 61.2969 104.057 62.6642 104.057 64.3509C104.057 66.0377 102.69 67.405 101.003 67.405C99.3166 67.405 97.9492 66.0377 97.9492 64.3509C97.9492 62.6642 99.3166 61.2969 101.003 61.2969Z" fill="#3A3A3A"/>
<path d="M131.542 61.2969C132.254 61.2969 134.596 61.2969 134.596 61.2969C134.596 61.2969 134.596 63.3759 134.596 64.3509C134.596 65.1121 134.596 67.405 134.596 67.405C134.596 67.405 132.468 67.405 131.542 67.405C129.855 67.405 128.488 66.037 128.488 64.3509C128.488 62.6646 129.855 61.2969 131.542 61.2969Z" fill="#3A3A3A"/>
<path d="M140.706 61.2969H134.598V67.405H140.706V61.2969Z" fill="#3A3A3A"/>
<path d="M146.815 61.2969H140.707V67.405H146.815V61.2969Z" fill="#3A3A3A"/>
<path d="M165.139 61.2969H159.031V67.405H165.139V61.2969Z" fill="#3A3A3A"/>
<path d="M177.352 67.405H183.46V61.2969C180.086 61.2969 177.352 64.0315 177.352 67.405Z" fill="#3A3A3A"/>
<path d="M189.569 61.2969H183.461V67.405H189.569V61.2969Z" fill="#3A3A3A"/>
<path d="M195.678 61.2969H189.57V67.405H195.678V61.2969Z" fill="#3A3A3A"/>
<path d="M201.788 61.2969H195.68V67.405H201.788V61.2969Z" fill="#3A3A3A"/>
<path d="M6.32686 67.4053H0.21875V73.5134H6.32686V67.4053Z" fill="#3A3A3A"/>
<path d="M30.7565 67.4053H24.6484V73.5134H30.7565V67.4053Z" fill="#3A3A3A"/>
<path d="M49.0847 73.5134V67.4053H42.9766C42.9766 70.7787 45.7112 73.5134 49.0847 73.5134Z" fill="#3A3A3A"/>
<path d="M55.194 67.4053H49.0859V73.5134H55.194V67.4053Z" fill="#3A3A3A"/>
<path d="M61.2995 67.4053H55.1914V73.5134H61.2995V67.4053Z" fill="#3A3A3A"/>
<path d="M61.3008 67.4053V73.5134H67.4089C67.4089 70.1399 64.6742 67.4053 61.3008 67.4053Z" fill="#3A3A3A"/>
<path d="M140.706 67.4053H134.598V73.5134H140.706V67.4053Z" fill="#3A3A3A"/>
<path d="M146.815 67.4053H140.707V73.5134C144.08 73.5134 146.815 70.7787 146.815 67.4053Z" fill="#3A3A3A"/>
<path d="M165.139 73.5134V67.4053H159.031C159.031 70.7787 161.766 73.5134 165.139 73.5134Z" fill="#3A3A3A"/>
<path d="M171.245 67.4053H165.137V73.5134H171.245V67.4053Z" fill="#3A3A3A"/>
<path d="M177.354 67.4053H171.246V73.5134H177.354V67.4053Z" fill="#3A3A3A"/>
<path d="M183.46 67.4053H177.352V73.5134C180.725 73.5134 183.46 70.7787 183.46 67.4053Z" fill="#3A3A3A"/>
<path d="M195.678 67.4053H189.57V73.5134H195.678V67.4053Z" fill="#3A3A3A"/>
<path d="M201.788 67.4053H195.68V73.5134C199.053 73.5134 201.788 70.7787 201.788 67.4053Z" fill="#3A3A3A"/>
<path d="M6.32686 79.6208V73.5127H0.21875C0.218762 76.8861 2.95339 79.6208 6.32686 79.6208Z" fill="#3A3A3A"/>
<path d="M12.4362 73.5127H6.32812V79.6208H12.4362V73.5127Z" fill="#3A3A3A"/>
<path d="M18.5456 73.5127H12.4375V79.6208H18.5456V73.5127Z" fill="#3A3A3A"/>
<path d="M24.6511 73.5127H18.543V79.6208H24.6511V73.5127Z" fill="#3A3A3A"/>
<path d="M30.7565 73.5127H24.6484V79.6208H30.7565V73.5127Z" fill="#3A3A3A"/>
<path d="M36.8659 73.5127H30.7578V79.6208H36.8659V73.5127Z" fill="#3A3A3A"/>
<path d="M39.9212 79.6208C39.2094 79.6208 36.8672 79.6208 36.8672 79.6208C36.8672 79.6208 36.8672 77.5415 36.8672 76.5667C36.8672 75.8054 36.8672 73.5127 36.8672 73.5127C36.8672 73.5127 38.996 73.5127 39.9212 73.5127C41.6079 73.5127 42.9753 74.88 42.9753 76.5667C42.9753 78.2534 41.6079 79.6208 39.9212 79.6208Z" fill="#3A3A3A"/>
<path d="M49.0859 76.5667C49.0859 75.8549 49.0859 73.5127 49.0859 73.5127C49.0859 73.5127 51.1651 73.5127 52.14 73.5127C52.9014 73.5127 55.194 73.5127 55.194 73.5127C55.194 73.5127 55.194 75.6415 55.194 76.5667C55.194 78.2534 53.8266 79.6208 52.14 79.6208C50.4533 79.6208 49.0859 78.2534 49.0859 76.5667Z" fill="#3A3A3A"/>
<path d="M67.4089 73.5127H61.3008V79.6208H67.4089V73.5127Z" fill="#3A3A3A"/>
<path d="M134.598 76.5667C134.598 75.8549 134.598 73.5127 134.598 73.5127C134.598 73.5127 136.677 73.5127 137.652 73.5127C138.413 73.5127 140.706 73.5127 140.706 73.5127C140.706 73.5127 140.706 75.6415 140.706 76.5667C140.706 78.2534 139.338 79.6208 137.652 79.6208C135.965 79.6208 134.598 78.2534 134.598 76.5667Z" fill="#3A3A3A"/>
<path d="M149.867 73.5127C150.578 73.5127 152.921 73.5127 152.921 73.5127C152.921 73.5127 152.921 75.5917 152.921 76.5667C152.921 77.3279 152.921 79.6208 152.921 79.6208C152.921 79.6208 150.792 79.6208 149.867 79.6208C148.179 79.6208 146.812 78.2528 146.812 76.5667C146.812 74.8805 148.179 73.5127 149.867 73.5127Z" fill="#3A3A3A"/>
<path d="M155.976 79.6208C155.264 79.6208 152.922 79.6208 152.922 79.6208C152.922 79.6208 152.922 77.5415 152.922 76.5667C152.922 75.8054 152.922 73.5127 152.922 73.5127C152.922 73.5127 155.051 73.5127 155.976 73.5127C157.663 73.5127 159.03 74.88 159.03 76.5667C159.03 78.2534 157.663 79.6208 155.976 79.6208Z" fill="#3A3A3A"/>
<path d="M171.246 76.5667C171.246 75.8549 171.246 73.5127 171.246 73.5127C171.246 73.5127 173.325 73.5127 174.3 73.5127C175.062 73.5127 177.354 73.5127 177.354 73.5127C177.354 73.5127 177.354 75.6415 177.354 76.5667C177.354 78.2534 175.987 79.6208 174.3 79.6208C172.613 79.6208 171.246 78.2534 171.246 76.5667Z" fill="#3A3A3A"/>
<path d="M189.57 76.5667C189.57 75.8549 189.57 73.5127 189.57 73.5127C189.57 73.5127 191.65 73.5127 192.624 73.5127C193.386 73.5127 195.678 73.5127 195.678 73.5127C195.678 73.5127 195.678 75.6415 195.678 76.5667C195.678 78.2534 194.311 79.6208 192.624 79.6208C190.938 79.6208 189.57 78.2534 189.57 76.5667Z" fill="#3A3A3A"/>
<path d="M30.7578 82.6751C30.7578 81.9633 30.7578 79.6211 30.7578 79.6211C30.7578 79.6211 32.837 79.6211 33.8119 79.6211C34.5732 79.6211 36.8659 79.6211 36.8659 79.6211C36.8659 79.6211 36.8659 81.7499 36.8659 82.6751C36.8659 84.3618 35.4985 85.7292 33.8119 85.7292C32.1252 85.7292 30.7578 84.3618 30.7578 82.6751Z" fill="#3A3A3A"/>
<path d="M49.0847 82.6751C49.0847 83.3869 49.0847 85.7292 49.0847 85.7292C49.0847 85.7292 47.0055 85.7292 46.0306 85.7291C45.2693 85.7292 42.9766 85.7291 42.9766 85.7291C42.9766 85.7291 42.9766 83.6005 42.9766 82.6751C42.9766 80.9885 44.3439 79.6211 46.0305 79.6211C47.7172 79.6211 49.0847 80.9885 49.0847 82.6751Z" fill="#3A3A3A"/>
<path d="M58.2455 79.6211C58.9573 79.6211 61.2995 79.6211 61.2995 79.6211C61.2995 79.6211 61.2995 81.7001 61.2995 82.6751C61.2995 83.4363 61.2995 85.7292 61.2995 85.7292C61.2995 85.7292 59.1712 85.7292 58.2455 85.7292C56.5582 85.7292 55.1914 84.3612 55.1914 82.6751C55.1914 80.9889 56.5582 79.6211 58.2455 79.6211Z" fill="#3A3A3A"/>
<path d="M67.4089 79.6211H61.3008V85.7292H67.4089V79.6211Z" fill="#3A3A3A"/>
<path d="M180.406 79.6211C181.117 79.6211 183.46 79.6211 183.46 79.6211C183.46 79.6211 183.46 81.7001 183.46 82.6751C183.46 83.4363 183.46 85.7292 183.46 85.7292C183.46 85.7292 181.331 85.7292 180.406 85.7292C178.718 85.7292 177.352 84.3612 177.352 82.6751C177.352 80.9889 178.718 79.6211 180.406 79.6211Z" fill="#3A3A3A"/>
<path d="M186.515 85.7292C185.803 85.7292 183.461 85.7292 183.461 85.7292C183.461 85.7292 183.461 83.6499 183.461 82.6751C183.461 81.9138 183.461 79.6211 183.461 79.6211C183.461 79.6211 185.59 79.6211 186.515 79.6211C188.202 79.6211 189.569 80.9884 189.569 82.6751C189.569 84.3618 188.202 85.7292 186.515 85.7292Z" fill="#3A3A3A"/>
<path d="M0.21875 91.8376H6.32686V85.7295C2.95348 85.7295 0.21875 88.4641 0.21875 91.8376Z" fill="#3A3A3A"/>
<path d="M12.4362 85.7295H6.32812V91.8376H12.4362V85.7295Z" fill="#3A3A3A"/>
<path d="M15.4916 91.8376C14.7797 91.8376 12.4375 91.8376 12.4375 91.8376C12.4375 91.8376 12.4375 89.7583 12.4375 88.7835C12.4375 88.0222 12.4375 85.7295 12.4375 85.7295C12.4375 85.7295 14.5663 85.7295 15.4916 85.7295C17.1782 85.7295 18.5456 87.0968 18.5456 88.7835C18.5456 90.4702 17.1782 91.8376 15.4916 91.8376Z" fill="#3A3A3A"/>
<path d="M39.9212 85.7295C40.6331 85.7295 42.9753 85.7295 42.9753 85.7295C42.9753 85.7295 42.9753 87.8085 42.9753 88.7835C42.9753 89.5447 42.9753 91.8376 42.9753 91.8376C42.9753 91.8376 40.847 91.8376 39.9212 91.8376C38.2339 91.8376 36.8672 90.4696 36.8672 88.7835C36.8672 87.0973 38.2339 85.7295 39.9212 85.7295Z" fill="#3A3A3A"/>
<path d="M49.0847 85.7295H42.9766V91.8376H49.0847V85.7295Z" fill="#3A3A3A"/>
<path d="M67.4089 85.7295H61.3008V91.8376H67.4089V85.7295Z" fill="#3A3A3A"/>
<path d="M149.867 85.7295C150.578 85.7295 152.921 85.7295 152.921 85.7295C152.921 85.7295 152.921 87.8085 152.921 88.7835C152.921 89.5447 152.921 91.8376 152.921 91.8376C152.921 91.8376 150.792 91.8376 149.867 91.8376C148.179 91.8376 146.812 90.4696 146.812 88.7835C146.812 87.0973 148.179 85.7295 149.867 85.7295Z" fill="#3A3A3A"/>
<path d="M152.922 85.7295V91.8376H159.03C159.03 88.4641 156.295 85.7295 152.922 85.7295Z" fill="#3A3A3A"/>
<path d="M177.354 88.7835C177.354 89.4953 177.354 91.8376 177.354 91.8376C177.354 91.8376 175.275 91.8376 174.3 91.8375C173.539 91.8376 171.246 91.8375 171.246 91.8375C171.246 91.8375 171.246 89.7089 171.246 88.7835C171.246 87.0969 172.613 85.7295 174.3 85.7295C175.987 85.7295 177.354 87.0969 177.354 88.7835Z" fill="#3A3A3A"/>
<path d="M6.32686 91.8379H0.21875V97.946H6.32686V91.8379Z" fill="#3A3A3A"/>
<path d="M18.543 97.946H24.6511V91.8379C21.2777 91.8379 18.543 94.5725 18.543 97.946Z" fill="#3A3A3A"/>
<path d="M24.6484 91.8379V97.946H30.7565C30.7565 94.5725 28.0218 91.8379 24.6484 91.8379Z" fill="#3A3A3A"/>
<path d="M49.0847 91.8379H42.9766V97.946H49.0847V91.8379Z" fill="#3A3A3A"/>
<path d="M49.0859 91.8379V97.946H55.194C55.194 94.5725 52.4593 91.8379 49.0859 91.8379Z" fill="#3A3A3A"/>
<path d="M67.4089 91.8379H61.3008V97.946H67.4089V91.8379Z" fill="#3A3A3A"/>
<path d="M137.652 91.8379C139.338 91.8379 140.706 93.2053 140.706 94.8919C140.706 96.5787 139.338 97.946 137.652 97.946C135.965 97.946 134.598 96.5787 134.598 94.8919C134.598 93.2053 135.965 91.8379 137.652 91.8379Z" fill="#3A3A3A"/>
<path d="M159.03 97.946V91.8379H152.922C152.922 95.2113 155.657 97.946 159.03 97.946Z" fill="#3A3A3A"/>
<path d="M165.139 91.8379H159.031V97.946H165.139V91.8379Z" fill="#3A3A3A"/>
<path d="M171.245 91.8379H165.137V97.946H171.245V91.8379Z" fill="#3A3A3A"/>
<path d="M177.354 91.8379H171.246V97.946H177.354V91.8379Z" fill="#3A3A3A"/>
<path d="M189.569 94.8919C189.569 95.6037 189.569 97.946 189.569 97.946C189.569 97.946 187.49 97.946 186.515 97.9459C185.754 97.946 183.461 97.9459 183.461 97.9459C183.461 97.9459 183.461 95.8173 183.461 94.8919C183.461 93.2053 184.828 91.8379 186.515 91.8379C188.202 91.8379 189.569 93.2053 189.569 94.8919Z" fill="#3A3A3A"/>
<path d="M198.734 91.8379C200.421 91.8379 201.788 93.2053 201.788 94.8919C201.788 96.5787 200.421 97.946 198.734 97.946C197.047 97.946 195.68 96.5787 195.68 94.8919C195.68 93.2053 197.047 91.8379 198.734 91.8379Z" fill="#3A3A3A"/>
<path d="M6.32686 97.9453H0.21875V104.053H6.32686V97.9453Z" fill="#3A3A3A"/>
<path d="M12.4362 97.9453H6.32812V104.053H12.4362V97.9453Z" fill="#3A3A3A"/>
<path d="M18.5456 97.9453H12.4375V104.053H18.5456V97.9453Z" fill="#3A3A3A"/>
<path d="M24.6511 97.9453H18.543V104.053H24.6511V97.9453Z" fill="#3A3A3A"/>
<path d="M30.7565 97.9453H24.6484V104.053H30.7565V97.9453Z" fill="#3A3A3A"/>
<path d="M36.8659 97.9453H30.7578V104.053H36.8659V97.9453Z" fill="#3A3A3A"/>
<path d="M42.9753 97.9453H36.8672V104.053H42.9753V97.9453Z" fill="#3A3A3A"/>
<path d="M49.0847 97.9453H42.9766V104.053H49.0847V97.9453Z" fill="#3A3A3A"/>
<path d="M55.194 97.9453H49.0859V104.053H55.194V97.9453Z" fill="#3A3A3A"/>
<path d="M61.2995 97.9453H55.1914V104.053H61.2995V97.9453Z" fill="#3A3A3A"/>
<path d="M67.4089 97.9453H61.3008V104.053C64.6742 104.053 67.4089 101.319 67.4089 97.9453Z" fill="#3A3A3A"/>
<path d="M149.867 97.9453C151.553 97.9453 152.921 99.3127 152.921 100.999C152.921 102.686 151.553 104.053 149.867 104.053C148.18 104.053 146.812 102.686 146.812 100.999C146.812 99.3127 148.18 97.9453 149.867 97.9453Z" fill="#3A3A3A"/>
<path d="M165.139 97.9453H159.031V104.053H165.139V97.9453Z" fill="#3A3A3A"/>
<path d="M177.354 97.9453H171.246V104.053H177.354V97.9453Z" fill="#3A3A3A"/>
<path d="M189.569 97.9453H183.461V104.053H189.569V97.9453Z" fill="#3A3A3A"/>
<path d="M192.624 104.053C191.913 104.053 189.57 104.053 189.57 104.053C189.57 104.053 189.57 101.974 189.57 100.999C189.57 100.238 189.57 97.9453 189.57 97.9453C189.57 97.9453 191.699 97.9453 192.624 97.9453C194.311 97.9453 195.678 99.3127 195.678 100.999C195.678 102.686 194.311 104.053 192.624 104.053Z" fill="#3A3A3A"/>
<path d="M6.32686 110.162V104.054H0.21875C0.218762 107.427 2.95339 110.162 6.32686 110.162Z" fill="#3A3A3A"/>
<path d="M12.4362 104.054H6.32812V110.162H12.4362V104.054Z" fill="#3A3A3A"/>
<path d="M18.5456 104.054H12.4375V110.162C15.8109 110.162 18.5456 107.427 18.5456 104.054Z" fill="#3A3A3A"/>
<path d="M30.7565 104.054H24.6484V110.162H30.7565V104.054Z" fill="#3A3A3A"/>
<path d="M36.8659 104.054H30.7578V110.162H36.8659V104.054Z" fill="#3A3A3A"/>
<path d="M55.194 104.054H49.0859V110.162H55.194V104.054Z" fill="#3A3A3A"/>
<path d="M61.2995 104.054H55.1914V110.162C58.5648 110.162 61.2995 107.427 61.2995 104.054Z" fill="#3A3A3A"/>
<path d="M137.652 104.054C138.364 104.054 140.706 104.054 140.706 104.054C140.706 104.054 140.706 106.133 140.706 107.108C140.706 107.869 140.706 110.162 140.706 110.162C140.706 110.162 138.577 110.162 137.652 110.162C135.964 110.162 134.598 108.794 134.598 107.108C134.598 105.421 135.964 104.054 137.652 104.054Z" fill="#3A3A3A"/>
<path d="M143.761 110.162C143.049 110.162 140.707 110.162 140.707 110.162C140.707 110.162 140.707 108.083 140.707 107.108C140.707 106.346 140.707 104.054 140.707 104.054C140.707 104.054 142.836 104.054 143.761 104.054C145.448 104.054 146.815 105.421 146.815 107.108C146.815 108.794 145.448 110.162 143.761 110.162Z" fill="#3A3A3A"/>
<path d="M165.139 110.162V104.054H159.031C159.031 107.427 161.766 110.162 165.139 110.162Z" fill="#3A3A3A"/>
<path d="M171.245 104.054H165.137V110.162H171.245V104.054Z" fill="#3A3A3A"/>
<path d="M177.354 104.054H171.246V110.162C174.62 110.162 177.354 107.427 177.354 104.054Z" fill="#3A3A3A"/>
<path d="M189.569 104.054H183.461V110.162H189.569V104.054Z" fill="#3A3A3A"/>
<path d="M198.734 104.054C200.421 104.054 201.788 105.421 201.788 107.108C201.788 108.795 200.421 110.162 198.734 110.162C197.047 110.162 195.68 108.795 195.68 107.108C195.68 105.421 197.047 104.054 198.734 104.054Z" fill="#3A3A3A"/>
<path d="M30.7565 110.162H24.6484V116.27H30.7565V110.162Z" fill="#3A3A3A"/>
<path d="M36.8659 110.162H30.7578V116.27H36.8659V110.162Z" fill="#3A3A3A"/>
<path d="M39.9212 116.27C39.2094 116.27 36.8672 116.27 36.8672 116.27C36.8672 116.27 36.8672 114.191 36.8672 113.216C36.8672 112.455 36.8672 110.162 36.8672 110.162C36.8672 110.162 38.996 110.162 39.9212 110.162C41.6079 110.162 42.9753 111.529 42.9753 113.216C42.9753 114.903 41.6079 116.27 39.9212 116.27Z" fill="#3A3A3A"/>
<path d="M49.0859 113.216C49.0859 112.504 49.0859 110.162 49.0859 110.162C49.0859 110.162 51.1651 110.162 52.14 110.162C52.9014 110.162 55.194 110.162 55.194 110.162C55.194 110.162 55.194 112.291 55.194 113.216C55.194 114.903 53.8266 116.27 52.14 116.27C50.4533 116.27 49.0859 114.903 49.0859 113.216Z" fill="#3A3A3A"/>
<path d="M64.3548 110.162C66.0416 110.162 67.4089 111.529 67.4089 113.216C67.4089 114.903 66.0416 116.27 64.3548 116.27C62.6681 116.27 61.3008 114.903 61.3008 113.216C61.3008 111.529 62.6681 110.162 64.3548 110.162Z" fill="#3A3A3A"/>
<path d="M155.976 110.162C157.663 110.162 159.03 111.529 159.03 113.216C159.03 114.903 157.663 116.27 155.976 116.27C154.289 116.27 152.922 114.903 152.922 113.216C152.922 111.529 154.289 110.162 155.976 110.162Z" fill="#3A3A3A"/>
<path d="M183.461 113.216C183.461 112.504 183.461 110.162 183.461 110.162C183.461 110.162 185.54 110.162 186.515 110.162C187.276 110.162 189.569 110.162 189.569 110.162C189.569 110.162 189.569 112.291 189.569 113.216C189.569 114.903 188.202 116.27 186.515 116.27C184.828 116.27 183.461 114.903 183.461 113.216Z" fill="#3A3A3A"/>
<path d="M3.2728 116.27C4.95958 116.27 6.32686 117.637 6.32686 119.324C6.32686 121.01 4.95958 122.378 3.2728 122.378C1.58611 122.378 0.21875 121.01 0.21875 119.324C0.21875 117.637 1.58611 116.27 3.2728 116.27Z" fill="#3A3A3A"/>
<path d="M18.543 122.378H24.6511V116.27C21.2777 116.27 18.543 119.004 18.543 122.378Z" fill="#3A3A3A"/>
<path d="M30.7565 116.27H24.6484V122.378H30.7565V116.27Z" fill="#3A3A3A"/>
<path d="M46.0306 116.27C47.7174 116.27 49.0847 117.637 49.0847 119.324C49.0847 121.01 47.7174 122.378 46.0306 122.378C44.3439 122.378 42.9766 121.01 42.9766 119.324C42.9766 117.637 44.3439 116.27 46.0306 116.27Z" fill="#3A3A3A"/>
<path d="M61.2995 119.324C61.2995 120.035 61.2995 122.378 61.2995 122.378C61.2995 122.378 59.2204 122.378 58.2455 122.377C57.4841 122.378 55.1914 122.377 55.1914 122.377C55.1914 122.377 55.1914 120.249 55.1914 119.324C55.1915 117.637 56.5588 116.27 58.2454 116.27C59.9321 116.27 61.2995 117.637 61.2995 119.324Z" fill="#3A3A3A"/>
<path d="M162.085 116.27C163.772 116.27 165.139 117.637 165.139 119.324C165.139 121.01 163.772 122.378 162.085 122.378C160.399 122.378 159.031 121.01 159.031 119.324C159.031 117.637 160.399 116.27 162.085 116.27Z" fill="#3A3A3A"/>
<path d="M174.3 116.27C175.987 116.27 177.354 117.637 177.354 119.324C177.354 121.01 175.987 122.378 174.3 122.378C172.613 122.378 171.246 121.01 171.246 119.324C171.246 117.637 172.613 116.27 174.3 116.27Z" fill="#3A3A3A"/>
<path d="M201.788 119.324C201.788 120.035 201.788 122.378 201.788 122.378C201.788 122.378 199.709 122.378 198.734 122.377C197.972 122.378 195.68 122.377 195.68 122.377C195.68 122.377 195.68 120.249 195.68 119.324C195.68 117.637 197.047 116.27 198.734 116.27C200.42 116.27 201.788 117.637 201.788 119.324Z" fill="#3A3A3A"/>
<path d="M12.4375 128.486H18.5456V122.378C15.1722 122.378 12.4375 125.113 12.4375 128.486Z" fill="#3A3A3A"/>
<path d="M24.6511 122.378H18.543V128.486H24.6511V122.378Z" fill="#3A3A3A"/>
<path d="M30.7565 122.378H24.6484V128.486H30.7565V122.378Z" fill="#3A3A3A"/>
<path d="M39.9212 122.378C41.608 122.378 42.9753 123.745 42.9753 125.432C42.9753 127.119 41.608 128.486 39.9212 128.486C38.2345 128.486 36.8672 127.119 36.8672 125.432C36.8672 123.745 38.2345 122.378 39.9212 122.378Z" fill="#3A3A3A"/>
<path d="M55.1914 125.432C55.1914 124.72 55.1914 122.378 55.1914 122.378C55.1914 122.378 57.2706 122.378 58.2455 122.378C59.0068 122.378 61.2995 122.378 61.2995 122.378C61.2995 122.378 61.2995 124.507 61.2995 125.432C61.2995 127.119 59.9321 128.486 58.2455 128.486C56.5588 128.486 55.1914 127.119 55.1914 125.432Z" fill="#3A3A3A"/>
<path d="M155.976 122.378C157.663 122.378 159.03 123.745 159.03 125.432C159.03 127.119 157.663 128.486 155.976 128.486C154.289 128.486 152.922 127.119 152.922 125.432C152.922 123.745 154.289 122.378 155.976 122.378Z" fill="#3A3A3A"/>
<path d="M180.406 122.378C181.117 122.378 183.46 122.378 183.46 122.378C183.46 122.378 183.46 124.457 183.46 125.432C183.46 126.193 183.46 128.486 183.46 128.486C183.46 128.486 181.331 128.486 180.406 128.486C178.718 128.486 177.352 127.118 177.352 125.432C177.352 123.746 178.718 122.378 180.406 122.378Z" fill="#3A3A3A"/>
<path d="M189.569 122.378H183.461V128.486H189.569V122.378Z" fill="#3A3A3A"/>
<path d="M195.678 122.378H189.57V128.486H195.678V122.378Z" fill="#3A3A3A"/>
<path d="M201.788 122.378H195.68V128.486H201.788V122.378Z" fill="#3A3A3A"/>
<path d="M3.2728 128.486C3.98464 128.486 6.32686 128.486 6.32686 128.486C6.32686 128.486 6.32686 130.565 6.32686 131.54C6.32686 132.302 6.32686 134.594 6.32686 134.594C6.32686 134.594 4.19856 134.594 3.2728 134.594C1.58551 134.594 0.21875 133.226 0.21875 131.54C0.21875 129.854 1.58551 128.486 3.2728 128.486Z" fill="#3A3A3A"/>
<path d="M12.4362 128.486H6.32812V134.594H12.4362V128.486Z" fill="#3A3A3A"/>
<path d="M18.5456 128.486H12.4375V134.594H18.5456V128.486Z" fill="#3A3A3A"/>
<path d="M24.6511 128.486H18.543V134.594H24.6511V128.486Z" fill="#3A3A3A"/>
<path d="M30.7565 128.486H24.6484V134.594H30.7565V128.486Z" fill="#3A3A3A"/>
<path d="M33.8119 134.594C33.1 134.594 30.7578 134.594 30.7578 134.594C30.7578 134.594 30.7578 132.515 30.7578 131.54C30.7578 130.779 30.7578 128.486 30.7578 128.486C30.7578 128.486 32.8866 128.486 33.8119 128.486C35.4985 128.486 36.8659 129.854 36.8659 131.54C36.8659 133.227 35.4985 134.594 33.8119 134.594Z" fill="#3A3A3A"/>
<path d="M42.9766 134.594H49.0847V128.486C45.7113 128.486 42.9766 131.221 42.9766 134.594Z" fill="#3A3A3A"/>
<path d="M52.14 134.594C51.4281 134.594 49.0859 134.594 49.0859 134.594C49.0859 134.594 49.0859 132.515 49.0859 131.54C49.0859 130.779 49.0859 128.486 49.0859 128.486C49.0859 128.486 51.2147 128.486 52.14 128.486C53.8266 128.486 55.194 129.854 55.194 131.54C55.194 133.227 53.8266 134.594 52.14 134.594Z" fill="#3A3A3A"/>
<path d="M137.652 128.486C139.338 128.486 140.706 129.854 140.706 131.54C140.706 133.227 139.338 134.594 137.652 134.594C135.965 134.594 134.598 133.227 134.598 131.54C134.598 129.854 135.965 128.486 137.652 128.486Z" fill="#3A3A3A"/>
<path d="M201.788 128.486H195.68V134.594H201.788V128.486Z" fill="#3A3A3A"/>
<path d="M12.4375 137.648C12.4375 136.936 12.4375 134.594 12.4375 134.594C12.4375 134.594 14.5167 134.594 15.4916 134.594C16.2529 134.594 18.5456 134.594 18.5456 134.594C18.5456 134.594 18.5456 136.723 18.5456 137.648C18.5456 139.334 17.1782 140.702 15.4916 140.702C13.8048 140.702 12.4375 139.334 12.4375 137.648Z" fill="#3A3A3A"/>
<path d="M30.7565 134.594H24.6484V140.702H30.7565V134.594Z" fill="#3A3A3A"/>
<path d="M39.9212 134.594C40.6331 134.594 42.9753 134.594 42.9753 134.594C42.9753 134.594 42.9753 136.673 42.9753 137.648C42.9753 138.409 42.9753 140.702 42.9753 140.702C42.9753 140.702 40.847 140.702 39.9212 140.702C38.2339 140.702 36.8672 139.334 36.8672 137.648C36.8672 135.962 38.2339 134.594 39.9212 134.594Z" fill="#3A3A3A"/>
<path d="M49.0847 134.594H42.9766V140.702C46.35 140.702 49.0847 137.967 49.0847 134.594Z" fill="#3A3A3A"/>
<path d="M58.2455 134.594C59.9322 134.594 61.2995 135.961 61.2995 137.648C61.2995 139.335 59.9322 140.702 58.2455 140.702C56.5588 140.702 55.1914 139.335 55.1914 137.648C55.1914 135.961 56.5588 134.594 58.2455 134.594Z" fill="#3A3A3A"/>
<path d="M91.8386 137.648C91.8386 138.36 91.8386 140.702 91.8386 140.702C91.8386 140.702 89.7594 140.702 88.7845 140.702C88.0232 140.702 85.7305 140.702 85.7305 140.702C85.7305 140.702 85.7305 138.573 85.7305 137.648C85.7305 135.961 87.0978 134.594 88.7844 134.594C90.4711 134.594 91.8386 135.961 91.8386 137.648Z" fill="#3A3A3A"/>
<path d="M110.164 140.702H116.272V134.594C112.899 134.594 110.164 137.328 110.164 140.702Z" fill="#3A3A3A"/>
<path d="M119.327 140.702C118.616 140.702 116.273 140.702 116.273 140.702C116.273 140.702 116.273 138.623 116.273 137.648C116.273 136.886 116.273 134.594 116.273 134.594C116.273 134.594 118.402 134.594 119.327 134.594C121.014 134.594 122.382 135.961 122.382 137.648C122.382 139.334 121.014 140.702 119.327 140.702Z" fill="#3A3A3A"/>
<path d="M162.085 134.594C163.772 134.594 165.139 135.961 165.139 137.648C165.139 139.335 163.772 140.702 162.085 140.702C160.399 140.702 159.031 139.335 159.031 137.648C159.031 135.961 160.399 134.594 162.085 134.594Z" fill="#3A3A3A"/>
<path d="M174.3 134.594C175.987 134.594 177.354 135.961 177.354 137.648C177.354 139.335 175.987 140.702 174.3 140.702C172.613 140.702 171.246 139.335 171.246 137.648C171.246 135.961 172.613 134.594 174.3 134.594Z" fill="#3A3A3A"/>
<path d="M186.515 134.594C187.227 134.594 189.569 134.594 189.569 134.594C189.569 134.594 189.569 136.673 189.569 137.648C189.569 138.409 189.569 140.702 189.569 140.702C189.569 140.702 187.441 140.702 186.515 140.702C184.828 140.702 183.461 139.334 183.461 137.648C183.461 135.962 184.828 134.594 186.515 134.594Z" fill="#3A3A3A"/>
<path d="M195.678 134.594H189.57V140.702H195.678V134.594Z" fill="#3A3A3A"/>
<path d="M201.788 134.594H195.68V140.702C199.053 140.702 201.788 137.967 201.788 134.594Z" fill="#3A3A3A"/>
<path d="M9.38218 140.702C11.069 140.702 12.4362 142.07 12.4362 143.756C12.4362 145.443 11.069 146.81 9.38218 146.81C7.69549 146.81 6.32812 145.443 6.32812 143.756C6.32812 142.07 7.69549 140.702 9.38218 140.702Z" fill="#3A3A3A"/>
<path d="M21.597 140.702C22.3089 140.702 24.6511 140.702 24.6511 140.702C24.6511 140.702 24.6511 142.781 24.6511 143.756C24.6511 144.517 24.6511 146.81 24.6511 146.81C24.6511 146.81 22.5228 146.81 21.597 146.81C19.9097 146.81 18.543 145.442 18.543 143.756C18.543 142.07 19.9097 140.702 21.597 140.702Z" fill="#3A3A3A"/>
<path d="M30.7565 140.702H24.6484V146.81C28.0218 146.81 30.7565 144.076 30.7565 140.702Z" fill="#3A3A3A"/>
<path d="M64.3548 140.702C66.0416 140.702 67.4089 142.07 67.4089 143.756C67.4089 145.443 66.0416 146.81 64.3548 146.81C62.6681 146.81 61.3008 145.443 61.3008 143.756C61.3008 142.07 62.6681 140.702 64.3548 140.702Z" fill="#3A3A3A"/>
<path d="M76.5697 140.702C78.2565 140.702 79.6237 142.07 79.6237 143.756C79.6237 145.443 78.2565 146.81 76.5697 146.81C74.883 146.81 73.5156 145.443 73.5156 143.756C73.5156 142.07 74.883 140.702 76.5697 140.702Z" fill="#3A3A3A"/>
<path d="M91.8386 140.702H85.7305V146.81H91.8386V140.702Z" fill="#3A3A3A"/>
<path d="M97.948 140.702H91.8398V146.81H97.948V140.702Z" fill="#3A3A3A"/>
<path d="M101.003 146.81C100.291 146.81 97.9492 146.81 97.9492 146.81C97.9492 146.81 97.9492 144.731 97.9492 143.756C97.9492 142.995 97.9492 140.702 97.9492 140.702C97.9492 140.702 100.078 140.702 101.003 140.702C102.69 140.702 104.057 142.069 104.057 143.756C104.057 145.443 102.69 146.81 101.003 146.81Z" fill="#3A3A3A"/>
<path d="M110.164 143.756C110.164 143.044 110.164 140.702 110.164 140.702C110.164 140.702 112.243 140.702 113.218 140.702C113.979 140.702 116.272 140.702 116.272 140.702C116.272 140.702 116.272 142.831 116.272 143.756C116.272 145.443 114.905 146.81 113.218 146.81C111.531 146.81 110.164 145.443 110.164 143.756Z" fill="#3A3A3A"/>
<path d="M125.437 140.702C127.124 140.702 128.491 142.07 128.491 143.756C128.491 145.443 127.124 146.81 125.437 146.81C123.75 146.81 122.383 145.443 122.383 143.756C122.383 142.07 123.75 140.702 125.437 140.702Z" fill="#3A3A3A"/>
<path d="M137.652 140.702C138.364 140.702 140.706 140.702 140.706 140.702C140.706 140.702 140.706 142.781 140.706 143.756C140.706 144.517 140.706 146.81 140.706 146.81C140.706 146.81 138.577 146.81 137.652 146.81C135.964 146.81 134.598 145.442 134.598 143.756C134.598 142.07 135.964 140.702 137.652 140.702Z" fill="#3A3A3A"/>
<path d="M146.815 140.702H140.707V146.81H146.815V140.702Z" fill="#3A3A3A"/>
<path d="M152.921 140.702H146.812V146.81H152.921V140.702Z" fill="#3A3A3A"/>
<path d="M152.922 140.702V146.81H159.03C159.03 143.437 156.295 140.702 152.922 140.702Z" fill="#3A3A3A"/>
<path d="M171.245 143.756C171.245 144.468 171.245 146.81 171.245 146.81C171.245 146.81 169.166 146.81 168.191 146.81C167.429 146.81 165.137 146.81 165.137 146.81C165.137 146.81 165.137 144.682 165.137 143.756C165.137 142.07 166.504 140.702 168.191 140.702C169.877 140.702 171.245 142.07 171.245 143.756Z" fill="#3A3A3A"/>
<path d="M3.2728 146.811C4.95958 146.811 6.32686 148.178 6.32686 149.865C6.32686 151.551 4.95958 152.919 3.2728 152.919C1.58611 152.919 0.21875 151.551 0.21875 149.865C0.21875 148.178 1.58611 146.811 3.2728 146.811Z" fill="#3A3A3A"/>
<path d="M33.8119 146.811C34.5237 146.811 36.8659 146.811 36.8659 146.811C36.8659 146.811 36.8659 148.89 36.8659 149.865C36.8659 150.626 36.8659 152.919 36.8659 152.919C36.8659 152.919 34.7376 152.919 33.8119 152.919C32.1246 152.919 30.7578 151.551 30.7578 149.865C30.7578 148.178 32.1246 146.811 33.8119 146.811Z" fill="#3A3A3A"/>
<path d="M39.9212 152.919C39.2094 152.919 36.8672 152.919 36.8672 152.919C36.8672 152.919 36.8672 150.839 36.8672 149.865C36.8672 149.103 36.8672 146.811 36.8672 146.811C36.8672 146.811 38.996 146.811 39.9212 146.811C41.6079 146.811 42.9753 148.178 42.9753 149.865C42.9753 151.551 41.6079 152.919 39.9212 152.919Z" fill="#3A3A3A"/>
<path d="M49.0859 152.919H55.194V146.811C51.8207 146.811 49.0859 149.545 49.0859 152.919Z" fill="#3A3A3A"/>
<path d="M55.1914 146.811V152.919H61.2995C61.2995 149.545 58.5648 146.811 55.1914 146.811Z" fill="#3A3A3A"/>
<path d="M73.5144 149.865C73.5144 150.576 73.5144 152.919 73.5144 152.919C73.5144 152.919 71.4352 152.919 70.4603 152.919C69.6989 152.919 67.4062 152.919 67.4062 152.919C67.4062 152.919 67.4062 150.79 67.4062 149.865C67.4063 148.178 68.7736 146.811 70.4602 146.811C72.1469 146.811 73.5144 148.178 73.5144 149.865Z" fill="#3A3A3A"/>
<path d="M91.8386 146.811H85.7305V152.919H91.8386V146.811Z" fill="#3A3A3A"/>
<path d="M97.948 146.811H91.8398V152.919C95.2133 152.919 97.948 150.184 97.948 146.811Z" fill="#3A3A3A"/>
<path d="M119.327 146.811C121.014 146.811 122.382 148.178 122.382 149.865C122.382 151.551 121.014 152.919 119.327 152.919C117.641 152.919 116.273 151.551 116.273 149.865C116.273 148.178 117.641 146.811 119.327 146.811Z" fill="#3A3A3A"/>
<path d="M146.815 152.919V146.811H140.707C140.707 150.184 143.442 152.919 146.815 152.919Z" fill="#3A3A3A"/>
<path d="M152.921 146.811H146.812V152.919H152.921V146.811Z" fill="#3A3A3A"/>
<path d="M159.03 146.811H152.922V152.919H159.03V146.811Z" fill="#3A3A3A"/>
<path d="M165.139 146.811H159.031V152.919H165.139V146.811Z" fill="#3A3A3A"/>
<path d="M171.245 146.811H165.137V152.919H171.245V146.811Z" fill="#3A3A3A"/>
<path d="M171.246 146.811V152.919H177.354C177.354 149.545 174.62 146.811 171.246 146.811Z" fill="#3A3A3A"/>
<path d="M195.678 149.865C195.678 150.576 195.678 152.919 195.678 152.919C195.678 152.919 193.599 152.919 192.624 152.919C191.863 152.919 189.57 152.919 189.57 152.919C189.57 152.919 189.57 150.79 189.57 149.865C189.57 148.178 190.938 146.811 192.624 146.811C194.311 146.811 195.678 148.178 195.678 149.865Z" fill="#3A3A3A"/>
<path d="M55.194 152.918H49.0859V159.026H55.194V152.918Z" fill="#3A3A3A"/>
<path d="M61.2995 152.918H55.1914V159.026C58.5648 159.026 61.2995 156.291 61.2995 152.918Z" fill="#3A3A3A"/>
<path d="M73.5144 152.918H67.4062V159.026H73.5144V152.918Z" fill="#3A3A3A"/>
<path d="M76.5697 159.026C75.8578 159.026 73.5156 159.026 73.5156 159.026C73.5156 159.026 73.5156 156.947 73.5156 155.972C73.5156 155.211 73.5156 152.918 73.5156 152.918C73.5156 152.918 75.6444 152.918 76.5697 152.918C78.2563 152.918 79.6237 154.285 79.6237 155.972C79.6237 157.659 78.2563 159.026 76.5697 159.026Z" fill="#3A3A3A"/>
<path d="M85.7305 155.973C85.7305 155.261 85.7305 152.919 85.7305 152.919C85.7305 152.919 87.8097 152.919 88.7845 152.919C89.5459 152.919 91.8386 152.919 91.8386 152.919C91.8386 152.919 91.8386 155.048 91.8386 155.973C91.8386 157.66 90.4711 159.027 88.7845 159.027C87.0978 159.027 85.7305 157.66 85.7305 155.973Z" fill="#3A3A3A"/>
<path d="M101.003 152.918C101.715 152.918 104.057 152.918 104.057 152.918C104.057 152.918 104.057 154.997 104.057 155.972C104.057 156.733 104.057 159.026 104.057 159.026C104.057 159.026 101.929 159.026 101.003 159.026C99.316 159.026 97.9492 157.658 97.9492 155.972C97.9492 154.286 99.316 152.918 101.003 152.918Z" fill="#3A3A3A"/>
<path d="M107.109 159.027C106.397 159.027 104.055 159.027 104.055 159.027C104.055 159.027 104.055 156.948 104.055 155.973C104.055 155.212 104.055 152.919 104.055 152.919C104.055 152.919 106.183 152.919 107.109 152.919C108.795 152.919 110.163 154.286 110.163 155.973C110.163 157.66 108.795 159.027 107.109 159.027Z" fill="#3A3A3A"/>
<path d="M140.706 155.972C140.706 156.684 140.706 159.026 140.706 159.026C140.706 159.026 138.627 159.026 137.652 159.026C136.89 159.026 134.598 159.026 134.598 159.026C134.598 159.026 134.598 156.897 134.598 155.972C134.598 154.285 135.965 152.918 137.652 152.918C139.338 152.918 140.706 154.285 140.706 155.972Z" fill="#3A3A3A"/>
<path d="M152.921 152.918H146.812V159.026H152.921V152.918Z" fill="#3A3A3A"/>
<path d="M177.354 152.918H171.246V159.026H177.354V152.918Z" fill="#3A3A3A"/>
<path d="M186.515 152.918C187.227 152.918 189.569 152.918 189.569 152.918C189.569 152.918 189.569 154.997 189.569 155.972C189.569 156.733 189.569 159.026 189.569 159.026C189.569 159.026 187.441 159.026 186.515 159.026C184.828 159.026 183.461 157.658 183.461 155.972C183.461 154.286 184.828 152.918 186.515 152.918Z" fill="#3A3A3A"/>
<path d="M195.678 152.919H189.57V159.027C192.944 159.027 195.678 156.292 195.678 152.919Z" fill="#3A3A3A"/>
<path d="M49.0859 162.08C49.0859 161.369 49.0859 159.026 49.0859 159.026C49.0859 159.026 51.1651 159.026 52.14 159.026C52.9014 159.026 55.194 159.026 55.194 159.026C55.194 159.026 55.194 161.155 55.194 162.08C55.194 163.767 53.8266 165.134 52.14 165.134C50.4533 165.134 49.0859 163.767 49.0859 162.08Z" fill="#3A3A3A"/>
<path d="M67.4062 162.08C67.4062 161.369 67.4062 159.026 67.4062 159.026C67.4062 159.026 69.4855 159.026 70.4603 159.026C71.2217 159.026 73.5144 159.026 73.5144 159.026C73.5144 159.026 73.5144 161.155 73.5144 162.08C73.5144 163.767 72.1469 165.134 70.4603 165.134C68.7736 165.134 67.4062 163.767 67.4062 162.08Z" fill="#3A3A3A"/>
<path d="M82.6791 159.026C84.3658 159.026 85.7331 160.394 85.7331 162.08C85.7331 163.767 84.3658 165.134 82.6791 165.134C80.9924 165.134 79.625 163.767 79.625 162.08C79.625 160.394 80.9924 159.026 82.6791 159.026Z" fill="#3A3A3A"/>
<path d="M122.382 162.08C122.382 162.792 122.382 165.134 122.382 165.134C122.382 165.134 120.302 165.134 119.327 165.134C118.566 165.134 116.273 165.134 116.273 165.134C116.273 165.134 116.273 163.006 116.273 162.08C116.274 160.394 117.641 159.026 119.327 159.026C121.014 159.026 122.382 160.394 122.382 162.08Z" fill="#3A3A3A"/>
<path d="M140.706 159.026H134.598V165.134H140.706V159.026Z" fill="#3A3A3A"/>
<path d="M146.815 159.026H140.707V165.134H146.815V159.026Z" fill="#3A3A3A"/>
<path d="M152.921 159.026H146.812V165.134H152.921V159.026Z" fill="#3A3A3A"/>
<path d="M162.085 159.026C163.772 159.026 165.139 160.394 165.139 162.08C165.139 163.767 163.772 165.134 162.085 165.134C160.399 165.134 159.031 163.767 159.031 162.08C159.031 160.394 160.399 159.026 162.085 159.026Z" fill="#3A3A3A"/>
<path d="M177.354 159.026H171.246V165.134H177.354V159.026Z" fill="#3A3A3A"/>
<path d="M91.8386 168.189C91.8386 168.901 91.8386 171.243 91.8386 171.243C91.8386 171.243 89.7594 171.243 88.7845 171.243C88.0232 171.243 85.7305 171.243 85.7305 171.243C85.7305 171.243 85.7305 169.114 85.7305 168.189C85.7305 166.502 87.0978 165.135 88.7844 165.135C90.4711 165.135 91.8386 166.502 91.8386 168.189Z" fill="#3A3A3A"/>
<path d="M110.163 168.189C110.163 168.901 110.163 171.243 110.163 171.243C110.163 171.243 108.084 171.243 107.109 171.243C106.347 171.243 104.055 171.243 104.055 171.243C104.055 171.243 104.055 169.114 104.055 168.189C104.055 166.502 105.422 165.135 107.109 165.135C108.795 165.135 110.163 166.502 110.163 168.189Z" fill="#3A3A3A"/>
<path d="M122.382 171.243V165.135H116.273C116.273 168.508 119.008 171.243 122.382 171.243Z" fill="#3A3A3A"/>
<path d="M128.491 165.135H122.383V171.243H128.491V165.135Z" fill="#3A3A3A"/>
<path d="M134.596 165.135H128.488V171.243H134.596V165.135Z" fill="#3A3A3A"/>
<path d="M140.706 165.135H134.598V171.243C137.971 171.243 140.706 168.508 140.706 165.135Z" fill="#3A3A3A"/>
<path d="M152.921 165.135H146.812V171.243H152.921V165.135Z" fill="#3A3A3A"/>
<path d="M177.354 165.135H171.246V171.243H177.354V165.135Z" fill="#3A3A3A"/>
<path d="M183.46 165.135H177.352V171.243H183.46V165.135Z" fill="#3A3A3A"/>
<path d="M189.569 165.135H183.461V171.243H189.569V165.135Z" fill="#3A3A3A"/>
<path d="M195.678 165.135H189.57V171.243H195.678V165.135Z" fill="#3A3A3A"/>
<path d="M198.734 171.243C198.022 171.243 195.68 171.243 195.68 171.243C195.68 171.243 195.68 169.164 195.68 168.189C195.68 167.427 195.68 165.135 195.68 165.135C195.68 165.135 197.808 165.135 198.734 165.135C200.42 165.135 201.788 166.502 201.788 168.189C201.788 169.875 200.42 171.243 198.734 171.243Z" fill="#3A3A3A"/>
<path d="M58.2455 171.243C59.9322 171.243 61.2995 172.611 61.2995 174.297C61.2995 175.984 59.9322 177.351 58.2455 177.351C56.5588 177.351 55.1914 175.984 55.1914 174.297C55.1914 172.611 56.5588 171.243 58.2455 171.243Z" fill="#3A3A3A"/>
<path d="M73.5156 177.351H79.6237V171.243C76.2504 171.243 73.5156 173.978 73.5156 177.351Z" fill="#3A3A3A"/>
<path d="M85.7331 171.243H79.625V177.351H85.7331V171.243Z" fill="#3A3A3A"/>
<path d="M91.8386 171.243H85.7305V177.351H91.8386V171.243Z" fill="#3A3A3A"/>
<path d="M97.948 171.243H91.8398V177.351H97.948V171.243Z" fill="#3A3A3A"/>
<path d="M104.057 171.243H97.9492V177.351H104.057V171.243Z" fill="#3A3A3A"/>
<path d="M110.163 171.243H104.055V177.351H110.163V171.243Z" fill="#3A3A3A"/>
<path d="M143.761 171.243C144.473 171.243 146.815 171.243 146.815 171.243C146.815 171.243 146.815 173.322 146.815 174.297C146.815 175.058 146.815 177.351 146.815 177.351C146.815 177.351 144.687 177.351 143.761 177.351C142.074 177.351 140.707 175.983 140.707 174.297C140.707 172.611 142.074 171.243 143.761 171.243Z" fill="#3A3A3A"/>
<path d="M152.921 171.243H146.812V177.351H152.921V171.243Z" fill="#3A3A3A"/>
<path d="M159.03 171.243H152.922V177.351H159.03V171.243Z" fill="#3A3A3A"/>
<path d="M165.139 171.243H159.031V177.351H165.139V171.243Z" fill="#3A3A3A"/>
<path d="M171.245 171.243H165.137V177.351H171.245V171.243Z" fill="#3A3A3A"/>
<path d="M177.354 171.243H171.246V177.351H177.354V171.243Z" fill="#3A3A3A"/>
<path d="M183.46 171.243H177.352V177.351H183.46V171.243Z" fill="#3A3A3A"/>
<path d="M189.569 171.243H183.461V177.351H189.569V171.243Z" fill="#3A3A3A"/>
<path d="M195.678 171.243H189.57V177.351C192.944 177.351 195.678 174.617 195.678 171.243Z" fill="#3A3A3A"/>
<path d="M55.194 180.405C55.194 181.116 55.194 183.459 55.194 183.459C55.194 183.459 53.1149 183.459 52.14 183.459C51.3786 183.459 49.0859 183.459 49.0859 183.459C49.0859 183.459 49.0859 181.33 49.0859 180.405C49.086 178.718 50.4533 177.351 52.1399 177.351C53.8266 177.351 55.194 178.718 55.194 180.405Z" fill="#3A3A3A"/>
<path d="M61.3008 183.459H67.4089V177.351C64.0355 177.351 61.3008 180.085 61.3008 183.459Z" fill="#3A3A3A"/>
<path d="M73.5144 177.351H67.4062V183.459H73.5144V177.351Z" fill="#3A3A3A"/>
<path d="M79.6237 177.351H73.5156V183.459C76.889 183.459 79.6237 180.724 79.6237 177.351Z" fill="#3A3A3A"/>
<path d="M91.8398 180.405C91.8398 179.693 91.8398 177.351 91.8398 177.351C91.8398 177.351 93.9191 177.351 94.8939 177.351C95.6553 177.351 97.948 177.351 97.948 177.351C97.948 177.351 97.948 179.479 97.948 180.405C97.948 182.091 96.5805 183.459 94.8939 183.459C93.2072 183.459 91.8398 182.091 91.8398 180.405Z" fill="#3A3A3A"/>
<path d="M110.163 177.351H104.055V183.459H110.163V177.351Z" fill="#3A3A3A"/>
<path d="M113.218 183.459C112.506 183.459 110.164 183.459 110.164 183.459C110.164 183.459 110.164 181.379 110.164 180.405C110.164 179.643 110.164 177.351 110.164 177.351C110.164 177.351 112.293 177.351 113.218 177.351C114.905 177.351 116.272 178.718 116.272 180.405C116.272 182.091 114.905 183.459 113.218 183.459Z" fill="#3A3A3A"/>
<path d="M134.596 180.405C134.596 181.116 134.596 183.459 134.596 183.459C134.596 183.459 132.517 183.459 131.542 183.459C130.781 183.459 128.488 183.459 128.488 183.459C128.488 183.459 128.488 181.33 128.488 180.405C128.488 178.718 129.856 177.351 131.542 177.351C133.229 177.351 134.596 178.718 134.596 180.405Z" fill="#3A3A3A"/>
<path d="M152.921 177.351H146.812V183.459H152.921V177.351Z" fill="#3A3A3A"/>
<path d="M165.137 180.405C165.137 179.693 165.137 177.351 165.137 177.351C165.137 177.351 167.216 177.351 168.191 177.351C168.952 177.351 171.245 177.351 171.245 177.351C171.245 177.351 171.245 179.479 171.245 180.405C171.245 182.091 169.877 183.459 168.191 183.459C166.504 183.459 165.137 182.091 165.137 180.405Z" fill="#3A3A3A"/>
<path d="M189.569 177.351H183.461V183.459H189.569V177.351Z" fill="#3A3A3A"/>
<path d="M49.0859 186.513C49.0859 185.801 49.0859 183.459 49.0859 183.459C49.0859 183.459 51.1651 183.459 52.14 183.459C52.9014 183.459 55.194 183.459 55.194 183.459C55.194 183.459 55.194 185.588 55.194 186.513C55.194 188.2 53.8266 189.567 52.14 189.567C50.4533 189.567 49.0859 188.2 49.0859 186.513Z" fill="#3A3A3A"/>
<path d="M67.4089 183.459H61.3008V189.567H67.4089V183.459Z" fill="#3A3A3A"/>
<path d="M82.6791 183.459C83.3909 183.459 85.7331 183.459 85.7331 183.459C85.7331 183.459 85.7331 185.538 85.7331 186.513C85.7331 187.274 85.7331 189.567 85.7331 189.567C85.7331 189.567 83.6048 189.567 82.6791 189.567C80.9918 189.567 79.625 188.199 79.625 186.513C79.625 184.827 80.9918 183.459 82.6791 183.459Z" fill="#3A3A3A"/>
<path d="M85.7305 183.459V189.567H91.8386C91.8386 186.194 89.1039 183.459 85.7305 183.459Z" fill="#3A3A3A"/>
<path d="M97.9492 189.567H104.057V183.459C100.684 183.459 97.9492 186.194 97.9492 189.567Z" fill="#3A3A3A"/>
<path d="M110.163 183.459H104.055V189.567C107.428 189.567 110.163 186.832 110.163 183.459Z" fill="#3A3A3A"/>
<path d="M119.327 183.459C121.014 183.459 122.382 184.826 122.382 186.513C122.382 188.2 121.014 189.567 119.327 189.567C117.641 189.567 116.273 188.2 116.273 186.513C116.273 184.826 117.641 183.459 119.327 183.459Z" fill="#3A3A3A"/>
<path d="M128.488 186.513C128.488 185.801 128.488 183.459 128.488 183.459C128.488 183.459 130.567 183.459 131.542 183.459C132.304 183.459 134.596 183.459 134.596 183.459C134.596 183.459 134.596 185.588 134.596 186.513C134.596 188.2 133.229 189.567 131.542 189.567C129.856 189.567 128.488 188.2 128.488 186.513Z" fill="#3A3A3A"/>
<path d="M152.921 183.459H146.812V189.567H152.921V183.459Z" fill="#3A3A3A"/>
<path d="M159.03 183.459H152.922V189.567H159.03V183.459Z" fill="#3A3A3A"/>
<path d="M162.085 189.567C161.373 189.567 159.031 189.567 159.031 189.567C159.031 189.567 159.031 187.488 159.031 186.513C159.031 185.752 159.031 183.459 159.031 183.459C159.031 183.459 161.16 183.459 162.085 183.459C163.772 183.459 165.139 184.826 165.139 186.513C165.139 188.2 163.772 189.567 162.085 189.567Z" fill="#3A3A3A"/>
<path d="M177.352 189.567H183.46V183.459C180.086 183.459 177.352 186.194 177.352 189.567Z" fill="#3A3A3A"/>
<path d="M189.569 183.459H183.461V189.567C186.834 189.567 189.569 186.832 189.569 183.459Z" fill="#3A3A3A"/>
<path d="M55.1914 195.675H61.2995V189.567C57.9261 189.567 55.1914 192.302 55.1914 195.675Z" fill="#3A3A3A"/>
<path d="M67.4089 189.567H61.3008V195.675H67.4089V189.567Z" fill="#3A3A3A"/>
<path d="M76.5697 189.567C78.2565 189.567 79.6237 190.935 79.6237 192.621C79.6237 194.308 78.2565 195.675 76.5697 195.675C74.883 195.675 73.5156 194.308 73.5156 192.621C73.5156 190.935 74.883 189.567 76.5697 189.567Z" fill="#3A3A3A"/>
<path d="M91.8386 195.675V189.567H85.7305C85.7305 192.941 88.4651 195.675 91.8386 195.675Z" fill="#3A3A3A"/>
<path d="M97.948 189.567H91.8398V195.675H97.948V189.567Z" fill="#3A3A3A"/>
<path d="M104.057 189.567H97.9492V195.675C101.323 195.675 104.057 192.941 104.057 189.567Z" fill="#3A3A3A"/>
<path d="M116.272 192.621C116.272 193.333 116.272 195.675 116.272 195.675C116.272 195.675 114.193 195.675 113.218 195.675C112.457 195.675 110.164 195.675 110.164 195.675C110.164 195.675 110.164 193.547 110.164 192.621C110.164 190.935 111.531 189.567 113.218 189.567C114.905 189.567 116.272 190.935 116.272 192.621Z" fill="#3A3A3A"/>
<path d="M125.437 189.567C127.124 189.567 128.491 190.935 128.491 192.621C128.491 194.308 127.124 195.675 125.437 195.675C123.75 195.675 122.383 194.308 122.383 192.621C122.383 190.935 123.75 189.567 125.437 189.567Z" fill="#3A3A3A"/>
<path d="M140.707 195.675H146.815V189.567C143.442 189.567 140.707 192.302 140.707 195.675Z" fill="#3A3A3A"/>
<path d="M152.921 189.567H146.812V195.675H152.921V189.567Z" fill="#3A3A3A"/>
<path d="M159.03 189.567H152.922V195.675C156.295 195.675 159.03 192.941 159.03 189.567Z" fill="#3A3A3A"/>
<path d="M183.46 189.567H177.352V195.675H183.46V189.567Z" fill="#3A3A3A"/>
<path d="M198.734 189.567C200.421 189.567 201.788 190.935 201.788 192.621C201.788 194.308 200.421 195.675 198.734 195.675C197.047 195.675 195.68 194.308 195.68 192.621C195.68 190.935 197.047 189.567 198.734 189.567Z" fill="#3A3A3A"/>
<path d="M61.2995 201.784V195.676H55.1914C55.1914 199.049 57.926 201.784 61.2995 201.784Z" fill="#3A3A3A"/>
<path d="M67.4089 195.676H61.3008V201.784C64.6742 201.784 67.4089 199.049 67.4089 195.676Z" fill="#3A3A3A"/>
<path d="M91.8398 198.73C91.8398 198.018 91.8398 195.676 91.8398 195.676C91.8398 195.676 93.9191 195.676 94.8939 195.676C95.6553 195.676 97.948 195.676 97.948 195.676C97.948 195.676 97.948 197.805 97.948 198.73C97.948 200.416 96.5805 201.784 94.8939 201.784C93.2072 201.784 91.8398 200.416 91.8398 198.73Z" fill="#3A3A3A"/>
<path d="M107.109 195.675C107.821 195.675 110.163 195.675 110.163 195.675C110.163 195.675 110.163 197.754 110.163 198.729C110.163 199.49 110.163 201.783 110.163 201.783C110.163 201.783 108.034 201.783 107.109 201.783C105.421 201.783 104.055 200.415 104.055 198.729C104.055 197.043 105.421 195.675 107.109 195.675Z" fill="#3A3A3A"/>
<path d="M116.272 195.676H110.164V201.784C113.537 201.784 116.272 199.049 116.272 195.676Z" fill="#3A3A3A"/>
<path d="M137.652 195.676C138.364 195.676 140.706 195.676 140.706 195.676C140.706 195.676 140.706 197.755 140.706 198.73C140.706 199.491 140.706 201.784 140.706 201.784C140.706 201.784 138.577 201.784 137.652 201.784C135.964 201.784 134.598 200.416 134.598 198.73C134.598 197.044 135.964 195.676 137.652 195.676Z" fill="#3A3A3A"/>
<path d="M146.815 195.675H140.707V201.783C144.08 201.783 146.815 199.048 146.815 195.675Z" fill="#3A3A3A"/>
<path d="M162.085 195.676C162.797 195.676 165.139 195.676 165.139 195.676C165.139 195.676 165.139 197.755 165.139 198.73C165.139 199.491 165.139 201.784 165.139 201.784C165.139 201.784 163.011 201.784 162.085 201.784C160.398 201.784 159.031 200.416 159.031 198.73C159.031 197.044 160.398 195.676 162.085 195.676Z" fill="#3A3A3A"/>
<path d="M171.245 195.676H165.137V201.784H171.245V195.676Z" fill="#3A3A3A"/>
<path d="M177.354 195.676H171.246V201.784H177.354V195.676Z" fill="#3A3A3A"/>
<path d="M183.46 195.676H177.352V201.784H183.46V195.676Z" fill="#3A3A3A"/>
<path d="M186.515 201.784C185.803 201.784 183.461 201.784 183.461 201.784C183.461 201.784 183.461 199.705 183.461 198.73C183.461 197.968 183.461 195.676 183.461 195.676C183.461 195.676 185.59 195.676 186.515 195.676C188.202 195.676 189.569 197.043 189.569 198.73C189.569 200.416 188.202 201.784 186.515 201.784Z" fill="#3A3A3A"/>
<path d="M21.5998 0.634766C10.0249 0.634766 0.640625 10.019 0.640625 21.594C0.640625 33.1689 10.0249 42.5532 21.5998 42.5532C33.1747 42.5532 42.559 33.1689 42.559 21.594C42.559 10.019 33.1747 0.634766 21.5998 0.634766ZM21.5998 36.2654C13.51 36.2654 6.92838 29.6838 6.92838 21.594C6.92838 13.5041 13.51 6.92252 21.5998 6.92252C29.6897 6.92252 36.2713 13.5041 36.2713 21.594C36.2713 29.6838 29.6897 36.2654 21.5998 36.2654Z" fill="#C5594D"/>
<path d="M180.408 0.634766C168.833 0.634766 159.449 10.019 159.449 21.594C159.449 33.1689 168.833 42.5532 180.408 42.5532C191.983 42.5532 201.368 33.1689 201.368 21.594C201.368 10.019 191.983 0.634766 180.408 0.634766ZM180.408 36.2654C172.319 36.2654 165.737 29.6838 165.737 21.594C165.737 13.5041 172.319 6.92252 180.408 6.92252C188.498 6.92252 195.08 13.5041 195.08 21.594C195.08 29.6838 188.498 36.2654 180.408 36.2654Z" fill="#C5594D"/>
<path d="M21.5998 159.445C10.0249 159.445 0.640625 168.83 0.640625 180.405C0.640625 191.979 10.0249 201.364 21.5998 201.364C33.1747 201.364 42.559 191.979 42.559 180.405C42.559 168.83 33.1747 159.445 21.5998 159.445ZM21.5998 195.076C13.51 195.076 6.92838 188.494 6.92838 180.405C6.92838 172.315 13.51 165.733 21.5998 165.733C29.6897 165.733 36.2713 172.315 36.2713 180.405C36.2713 188.494 29.6897 195.076 21.5998 195.076Z" fill="#C5594D"/>
<path d="M21.42 30.3967C26.3809 30.3967 30.4025 26.3751 30.4025 21.4142C30.4025 16.4532 26.3809 12.4316 21.42 12.4316C16.4591 12.4316 12.4375 16.4532 12.4375 21.4142C12.4375 26.3751 16.4591 30.3967 21.42 30.3967Z" fill="#3A3A3A"/>
<path d="M180.229 30.3967C185.19 30.3967 189.211 26.3751 189.211 21.4142C189.211 16.4532 185.19 12.4316 180.229 12.4316C175.268 12.4316 171.246 16.4532 171.246 21.4142C171.246 26.3751 175.268 30.3967 180.229 30.3967Z" fill="#3A3A3A"/>
<path d="M21.42 189.208C26.3809 189.208 30.4025 185.187 30.4025 180.226C30.4025 175.265 26.3809 171.243 21.42 171.243C16.4591 171.243 12.4375 175.265 12.4375 180.226C12.4375 185.187 16.4591 189.208 21.42 189.208Z" fill="#3A3A3A"/>
<g clip-path="url(#clip0_487_3379)">
<mask id="mask0_487_3379" style="mask-type:luminance" maskUnits="userSpaceOnUse" x="67" y="67" width="68" height="68">
<path d="M134.595 67.4053H67.4062V134.594H134.595V67.4053Z" fill="white"/>
</mask>
<g mask="url(#mask0_487_3379)">
<path d="M101.001 67.4053C82.4468 67.4053 67.4062 82.4459 67.4062 101C67.4062 119.554 82.4468 134.594 101.001 134.594C119.555 134.594 134.595 119.554 134.595 101C134.595 82.4459 119.555 67.4053 101.001 67.4053ZM113.921 105.308C113.921 105.308 116.892 108.24 117.623 109.602C117.644 109.629 117.655 109.658 117.662 109.672C117.959 110.172 118.029 110.56 117.882 110.851C117.637 111.334 116.797 111.572 116.51 111.593H111.261C110.897 111.593 110.134 111.498 109.211 110.861C108.5 110.364 107.8 109.549 107.118 108.754C106.1 107.572 105.218 106.55 104.329 106.55C104.216 106.55 104.104 106.568 103.996 106.603C103.324 106.819 102.464 107.778 102.464 110.333C102.464 111.131 101.834 111.589 101.389 111.589H98.9852C98.1663 111.589 93.9005 111.302 90.1211 107.316C85.4948 102.435 81.3305 92.6432 81.2955 92.5521C81.0331 91.9188 81.5755 91.5793 82.1669 91.5793H87.4685C88.1754 91.5793 88.4064 92.0099 88.5673 92.3913C88.7563 92.8357 89.4492 94.6028 90.5865 96.5906C92.4306 99.831 93.561 101.147 94.4673 101.147C94.6374 101.145 94.8042 101.102 94.9538 101.021C96.1365 100.363 95.9161 96.146 95.8637 95.2714C95.8637 95.1068 95.8602 93.3851 95.2547 92.5593C94.8209 91.9608 94.0825 91.7332 93.6346 91.6494C93.8159 91.3992 94.0546 91.1963 94.331 91.058C95.1428 90.652 96.6057 90.5925 98.0579 90.5925H98.8663C100.441 90.6135 100.847 90.715 101.417 90.8585C102.572 91.1349 102.596 91.8802 102.495 94.4315C102.464 95.1558 102.432 95.9747 102.432 96.9404C102.432 97.1505 102.422 97.3745 102.422 97.6123C102.387 98.9108 102.345 100.384 103.261 100.989C103.381 101.064 103.519 101.104 103.66 101.105C103.979 101.105 104.938 101.105 107.534 96.65C108.335 95.2161 109.031 93.7263 109.617 92.1919C109.669 92.1009 109.823 91.8209 110.005 91.7123C110.139 91.6439 110.288 91.6091 110.439 91.6108H116.671C117.35 91.6108 117.816 91.7123 117.903 91.9748C118.057 92.3913 117.875 93.6615 115.03 97.5144L113.76 99.1908C111.181 102.571 111.181 102.742 113.921 105.308Z" fill="#C5594D"/>
</g>
</g>
<defs>
<clipPath id="clip0_487_3379">
<rect width="67.1892" height="67.1892" fill="white" transform="translate(67.4062 67.4053)"/>
</clipPath>
</defs>
</svg>
