<svg width="198" height="160" viewBox="0 0 198 160" fill="none" xmlns="http://www.w3.org/2000/svg">
<path d="M194.447 87.948L185.693 134.481C185.049 137.904 183.434 140.901 181.183 143.245C175.435 151.257 148.7 153.23 117.895 147.435C87.0913 141.64 63.454 130.35 60.549 120.861C59.1938 117.777 58.721 114.273 59.3892 110.72L68.2191 63.7835C68.2733 63.4956 68.3345 63.2129 68.4035 62.9318C70.5526 53.9755 79.4431 48.2003 88.6722 49.9365C91.6875 50.5037 94.3788 51.8064 96.5907 53.6192L172.572 67.913C175.053 67.2432 177.724 67.1074 180.426 67.6156C189.519 69.3262 195.651 77.7054 194.637 86.6792C194.59 87.1006 194.527 87.5248 194.447 87.948Z" fill="url(#paint0_linear_2019_1858)"/>
<path d="M194.447 87.948L185.693 134.481C185.049 137.904 183.434 140.901 181.183 143.245C175.435 151.257 148.7 153.23 117.895 147.435C87.0913 141.64 63.454 130.35 60.549 120.861C59.1938 117.777 58.721 114.273 59.3892 110.72L68.2191 63.7835C68.2733 63.4956 68.3345 63.2129 68.4035 62.9318C70.5526 53.9755 79.4431 48.2003 88.6722 49.9365C91.6875 50.5037 94.3788 51.8064 96.5907 53.6192L172.572 67.913C175.053 67.2432 177.724 67.1074 180.426 67.6156C189.519 69.3262 195.651 77.7054 194.637 86.6792C194.59 87.1006 194.527 87.5248 194.447 87.948Z" fill="#E8E8E8"/>
<path d="M68.3804 62.9274L68.4038 62.9318C68.3347 63.2129 68.2735 63.4956 68.2193 63.7835L68.3804 62.9274Z" fill="#1E1E1E"/>
<path d="M185.176 73.9899C185.176 73.9899 189.471 78.8699 190.065 82.4274C190.659 85.9848 180.947 136.774 179.253 139.901C177.559 143.028 172.385 145.342 172.385 145.342C172.385 145.342 177.262 141.249 178.125 137.496C178.989 133.742 186.276 88.2898 186.13 84.0343C185.984 79.7787 186.007 74.6164 185.176 73.9899Z" fill="#A9A9A9"/>
<path d="M185.041 136.942C184.39 139.402 183.043 140.942 183.043 140.942C151.44 138.88 127.442 135.781 109.412 132.509C96.8678 130.235 87.2105 127.878 79.8889 125.732C64.6377 121.26 59.5109 117.703 59.5109 117.703C58.9266 115.692 59.1809 111.83 59.1809 111.83L68.5703 61.9186C68.5703 61.9186 74.3191 65.6133 90.3308 70.2263C97.7913 72.3741 107.48 74.7231 119.857 76.9894C138.343 80.3771 162.825 83.584 194.827 85.6704C194.827 85.6704 185.693 134.481 185.041 136.942Z" fill="white"/>
<path d="M90.3308 70.2263L79.8889 125.732C64.6377 121.26 59.5109 117.703 59.5109 117.703C58.9266 115.692 59.1809 111.83 59.1809 111.83L68.5703 61.9186C68.5703 61.9186 74.3191 65.6133 90.3308 70.2263Z" fill="#444444"/>
<path d="M119.857 76.9894L109.412 132.509C96.8676 130.235 87.2103 127.878 79.8886 125.732L90.3306 70.2263C97.7911 72.3741 107.48 74.7231 119.857 76.9894Z" fill="#CC4444"/>
<path d="M194.447 87.948L185.693 134.481C185.049 137.904 183.434 140.901 181.183 143.245C175.435 151.257 148.7 153.23 117.895 147.435C87.0913 141.64 63.454 130.35 60.549 120.861C59.1938 117.777 58.721 114.273 59.3892 110.72L68.2191 63.7835C68.2733 63.4956 68.3345 63.2129 68.4035 62.9318C70.5526 53.9755 79.4431 48.2003 88.6722 49.9365C91.6875 50.5037 94.3788 51.8064 96.5907 53.6192L172.572 67.913C175.053 67.2432 177.724 67.1074 180.426 67.6156C189.519 69.3262 195.651 77.7054 194.637 86.6792C194.59 87.1006 194.527 87.5248 194.447 87.948Z" stroke="#3F3F3F" stroke-width="2" stroke-miterlimit="10"/>
<path d="M195.282 46.2945L190.644 70.9467C190.382 72.3381 164.878 68.7088 133.678 62.8394C102.479 56.97 77.3989 51.0834 77.6607 49.6919L82.2983 25.0398L195.282 46.2945Z" fill="#1E1E1E"/>
<path d="M195.282 46.2945L190.644 70.9467C190.382 72.3381 164.878 68.7088 133.678 62.8394C102.479 56.97 77.3989 51.0834 77.6607 49.6919L82.2983 25.0398L195.282 46.2945Z" fill="url(#paint1_linear_2019_1858)" fill-opacity="0.2"/>
<path d="M195.282 46.2945L190.644 70.9467C190.382 72.3381 164.878 68.7088 133.678 62.8394C102.479 56.97 77.3989 51.0834 77.6607 49.6919L82.2983 25.0398L195.282 46.2945Z" stroke="#3F3F3F" stroke-miterlimit="10"/>
<path d="M138.387 38.3699C169.482 44.2196 194.925 47.7099 195.215 46.1656C195.506 44.6214 170.534 38.6274 139.439 32.7777C108.343 26.928 82.9002 23.4377 82.6097 24.982C82.3192 26.5262 107.291 32.5202 138.387 38.3699Z" fill="#696969" stroke="#3F3F3F" stroke-width="2" stroke-miterlimit="10"/>
<path d="M159.332 96.6037C163.654 97.4166 167.416 99.7952 169.922 103.296C172.428 106.797 173.378 111.012 172.599 115.153C171.82 119.295 169.398 122.869 165.79 125.226C162.183 127.581 157.814 128.426 153.493 127.613C149.172 126.8 145.415 124.423 142.909 120.922C140.404 117.421 139.453 113.206 140.232 109.064C141.011 104.923 143.427 101.347 147.035 98.9906C150.642 96.6357 155.011 95.7907 159.332 96.6037ZM159.734 94.4701C149.567 92.5575 139.839 98.9034 138.006 108.646C136.173 118.388 142.931 127.835 153.097 129.748C163.264 131.66 172.992 125.314 174.825 115.572C176.658 105.83 169.9 96.3827 159.734 94.4701Z" fill="#010101"/>
<path d="M158.175 102.723C160.641 103.187 163.021 101.98 164.045 99.9174C163.4 99.5379 162.724 99.2047 162.021 98.9184C161.433 100.142 160.027 100.862 158.576 100.59C157.126 100.317 156.079 99.1352 155.975 97.7809C155.21 97.7911 154.459 97.856 153.726 97.9762C153.936 100.271 155.709 102.259 158.175 102.723Z" fill="#D42219"/>
<path d="M161.008 119.984C161.699 116.312 165.377 113.913 169.209 114.634C169.823 114.749 170.405 114.939 170.942 115.188C170.973 115.056 170.997 114.924 171.022 114.791C171.138 114.176 171.212 113.568 171.24 112.959C170.716 112.762 170.173 112.61 169.604 112.503C164.535 111.549 159.689 114.714 158.776 119.568C158.348 121.841 158.863 124.085 160.047 125.922C160.811 125.752 161.555 125.52 162.274 125.231C161.163 123.763 160.651 121.886 161.008 119.984Z" fill="#D42219"/>
<path d="M144.631 104.187C144.412 104.146 144.201 104.112 143.986 104.084C143.541 104.732 143.151 105.421 142.818 106.149C143.287 106.179 143.755 106.233 144.229 106.323C150.068 107.421 153.962 112.866 152.91 118.461C152.451 120.9 151.127 122.97 149.297 124.438C150.009 124.825 150.765 125.161 151.552 125.429C153.358 123.714 154.647 121.465 155.135 118.871C156.416 112.093 151.712 105.517 144.629 104.185L144.631 104.187Z" fill="#D42219"/>
<path d="M157.366 119.299C158.418 113.704 164.026 110.047 169.864 111.145C170.338 111.234 170.796 111.349 171.241 111.496C171.195 110.697 171.082 109.916 170.904 109.148C170.693 109.096 170.478 109.05 170.266 109.01C163.188 107.678 156.41 112.094 155.134 118.879C154.646 121.473 155.03 124.034 156.089 126.29C156.921 126.321 157.746 126.288 158.55 126.187C157.386 124.147 156.905 121.738 157.363 119.301L157.366 119.299Z" fill="#D42219"/>
<path d="M157.485 106.389C161.405 107.127 165.195 105.4 167.135 102.33C166.601 101.789 166.027 101.279 165.403 100.819C164.012 103.363 160.998 104.839 157.885 104.253C154.772 103.668 152.5 101.201 152.129 98.326C151.386 98.5304 150.666 98.7952 149.972 99.1049C150.658 102.67 153.562 105.649 157.482 106.387L157.485 106.389Z" fill="#D42219"/>
<path d="M147.668 117.475C148.201 114.644 146.241 111.9 143.284 111.343C142.709 111.235 142.147 111.222 141.599 111.279C141.569 112.017 141.599 112.749 141.684 113.47C142.066 113.397 142.471 113.393 142.884 113.471C144.607 113.795 145.755 115.396 145.444 117.05C145.259 118.034 144.597 118.814 143.726 119.218C144.122 119.849 144.562 120.452 145.05 121.018C146.38 120.3 147.374 119.04 147.668 117.475Z" fill="#D42219"/>
<path d="M156.828 109.883C161.775 110.814 166.568 108.938 169.45 105.41C169.059 104.719 168.617 104.063 168.116 103.443C165.814 106.747 161.586 108.569 157.23 107.75C152.873 106.93 149.603 103.698 148.657 99.7879C147.971 100.185 147.313 100.634 146.7 101.137C148.098 105.464 151.881 108.953 156.828 109.883Z" fill="#D42219"/>
<path d="M164.833 120.704C165.143 119.051 166.795 117.975 168.518 118.3C168.925 118.376 169.301 118.527 169.638 118.728C169.978 118.088 170.278 117.418 170.513 116.718C170.024 116.46 169.494 116.274 168.919 116.166C165.964 115.61 163.139 117.454 162.607 120.285C162.312 121.85 162.78 123.387 163.757 124.543C164.418 124.194 165.047 123.79 165.645 123.348C164.978 122.656 164.647 121.689 164.833 120.704Z" fill="#D42219"/>
<path d="M143.573 109.811C147.405 110.532 149.96 114.104 149.269 117.776C148.911 119.678 147.751 121.24 146.184 122.204C146.749 122.728 147.356 123.215 148.007 123.658C149.778 122.376 151.072 120.472 151.501 118.194C152.414 113.339 149.044 108.629 143.98 107.676C143.411 107.569 142.85 107.516 142.291 107.507C142.102 108.083 141.943 108.678 141.828 109.293C141.803 109.426 141.778 109.557 141.759 109.692C142.349 109.655 142.959 109.693 143.573 109.809L143.573 109.811Z" fill="#D42219"/>
<path d="M80.1293 48.3293L83.9609 27.9617C83.9609 27.9617 169.216 48.2803 190.002 48.3286C187.313 49.1795 92.2496 32.0263 89.7268 31.4476C87.204 30.869 81.4387 43.0429 80.1274 48.329L80.1293 48.3293Z" fill="#A9A9A9"/>
<path d="M145.649 149.289C108.277 147.375 73.0526 130.725 73.0526 130.725C116.411 137.003 145.649 149.289 145.649 149.289Z" fill="#A9A9A9"/>
<path d="M50.0162 15.2605C58.4638 15.2605 65.5927 9.68492 67.6951 2.08361C65.3251 1.21544 62.8788 0.520902 60.3751 0C59.1901 4.49519 54.9854 7.81353 50.0162 7.81353C45.0279 7.81353 40.8423 4.49519 39.6574 0C37.1346 0.520902 34.6882 1.21544 32.3374 2.08361C34.4589 9.68492 41.5686 15.2605 50.0162 15.2605Z" fill="#C5594D"/>
<path d="M70.142 71.634C70.142 58.8237 80.8257 48.4056 93.9558 48.4056C96.0582 48.4056 98.1032 48.6757 100.034 49.1773C100.053 48.7143 100.053 48.2513 100.053 47.7883C100.053 45.6468 99.9188 43.5439 99.6322 41.4795C97.7783 41.1516 95.8862 40.9779 93.9367 40.9779C76.5637 40.9779 62.4971 54.7143 62.4971 71.6533C62.4971 79.5826 65.5933 86.8173 70.658 92.2579C73.0853 91.1968 75.3978 89.9427 77.5957 88.5151C73.0088 84.2707 70.142 78.2707 70.142 71.634Z" fill="#C5594D"/>
<path d="M6.09691 28.7842C5.35153 28.7842 4.62527 28.8035 3.899 28.8421C2.82871 31.3115 1.96866 33.8775 1.31885 36.5399C2.88605 36.3469 4.47237 36.2312 6.09691 36.2312C26.1074 36.2312 42.3911 52.109 42.3911 71.6332C42.3911 80.1413 39.2949 87.9548 34.1537 94.0706C36.7529 94.9195 39.4669 95.5754 42.2382 95.9806C47.15 89.0545 50.0168 80.6622 50.0168 71.6139C50.036 47.9611 30.3695 28.7842 6.09691 28.7842Z" fill="#C5594D"/>
<path d="M57.6615 71.6332C57.6615 52.109 73.9451 36.2312 93.9557 36.2312C95.5802 36.2312 97.1665 36.3276 98.7337 36.5399C98.0839 33.8775 97.2238 31.3115 96.1536 28.8421C95.4273 28.8035 94.6819 28.7842 93.9557 28.7842C69.7022 28.7842 50.0166 47.9611 50.0166 71.6332C50.0166 80.6815 52.8834 89.0738 57.7953 95.9999C60.5666 95.5754 63.2805 94.9388 65.8798 94.0899C60.7577 87.9548 57.6615 80.1413 57.6615 71.6332Z" fill="#C5594D"/>
<path d="M50.0162 28.0516C63.4521 28.0516 74.9195 19.8329 79.43 8.2573C77.3276 6.77176 75.1106 5.42128 72.7598 4.26372C69.74 13.7171 60.6808 20.6046 50.0162 20.6046C39.3516 20.6046 30.2924 13.7364 27.2726 4.28301C24.9409 5.44057 22.7239 6.79106 20.6216 8.27659C25.113 19.8522 36.5803 28.0516 50.0162 28.0516Z" fill="#C5594D"/>
<path d="M24.4257 71.6337C24.4257 61.7558 16.2265 53.7494 6.09703 53.7494C4.12846 53.7494 2.25547 54.0581 0.478027 54.5983C0.84116 57.1063 1.39541 59.5565 2.12168 61.9295C3.34486 61.4472 4.68272 61.1771 6.09703 61.1771C12.0027 61.1771 16.7999 65.8459 16.7999 71.6144C16.7999 75.0485 15.0989 78.0967 12.4614 80.0067C14.1624 81.8781 15.9972 83.6337 17.9657 85.235C21.922 81.9746 24.4257 77.0935 24.4257 71.6337Z" fill="#C5594D"/>
<path d="M50.0172 40.2443C66.9698 40.2443 81.6671 30.8874 89.0062 17.1703C87.2861 15.0867 85.4131 13.1574 83.3681 11.3825C77.8064 23.9806 64.9439 32.7974 50.0172 32.7974C35.0906 32.7974 22.2471 23.9806 16.6855 11.4018C14.6596 13.1767 12.7675 15.106 11.0474 17.1896C18.3674 30.8874 33.0647 40.2443 50.0172 40.2443Z" fill="#C5594D"/>
<path d="M83.2532 71.6337C83.2532 65.8652 88.0504 61.1964 93.9561 61.1964C95.3513 61.1964 96.6891 61.4665 97.9314 61.9295C98.6577 59.5565 99.2311 57.1063 99.5751 54.5983C97.7976 54.0388 95.9247 53.7494 93.9561 53.7494C83.8266 53.7494 75.6274 61.7558 75.6274 71.6337C75.6274 77.0935 78.1311 81.9746 82.0874 85.2543C84.0559 83.653 85.8907 81.8974 87.5917 80.026C84.9542 78.116 83.2532 75.0678 83.2532 71.6337Z" fill="#C5594D"/>
<path d="M6.0968 48.4052C19.2269 48.4052 29.9107 58.8232 29.9107 71.6336C29.9107 78.2703 27.0438 84.2703 22.4569 88.5147C24.6548 89.923 26.9674 91.177 29.3946 92.2574C34.4594 86.8169 37.5556 79.5822 37.5556 71.6336C37.5556 54.6946 23.4698 40.9582 6.11592 40.9582C4.16647 40.9582 2.27436 41.1319 0.420469 41.4598C0.152897 43.5241 0 45.6271 0 47.7685C0 48.2316 -2.91914e-07 48.6946 0.019112 49.1576C1.94945 48.656 3.99446 48.4052 6.0968 48.4052Z" fill="#C5594D"/>
<defs>
<linearGradient id="paint0_linear_2019_1858" x1="81.5" y1="61.5" x2="138.5" y2="142" gradientUnits="userSpaceOnUse">
<stop stop-color="#BFBDBD"/>
<stop offset="1" stop-color="#595858"/>
</linearGradient>
<linearGradient id="paint1_linear_2019_1858" x1="79.7425" y1="38.6259" x2="192.726" y2="59.8806" gradientUnits="userSpaceOnUse">
<stop stop-color="#FCFCFC"/>
<stop offset="1"/>
</linearGradient>
</defs>
</svg>
