<svg width="100" height="100" viewBox="0 0 100 100" fill="none" xmlns="http://www.w3.org/2000/svg">
<path d="M61.3089 59.112C60.9664 57.2063 59.6114 55.6352 57.7624 54.9975C56.5164 53.9391 53.3265 56.3747 52.3224 58.358C51.4327 60.1144 51.4126 62.2198 52.2692 63.8541C53.8132 66.8016 57.214 66.81 59.5094 64.5161C60.957 63.0656 61.6464 60.9948 61.3089 59.112ZM57.9491 62.9565C56.7136 64.192 55.0669 64.4407 54.2223 62.8287C53.6917 61.8162 53.7175 60.4849 54.2898 59.3547C54.8183 58.3121 55.7999 57.4518 56.9136 57.0354C58.1082 57.5383 58.9114 58.2416 59.1375 59.5026C59.3464 60.6673 58.8797 62.0245 57.9491 62.9565Z" fill="white"/>
<path d="M36.4535 50.5923C36.1864 50.3625 35.8144 50.2634 35.4496 50.3625C33.5511 50.8695 31.8909 52.2108 31.0099 53.9514C30.1202 55.7078 30.1001 57.8131 30.9567 59.4474C31.557 60.5934 32.5027 61.3747 33.6171 61.649C35.2261 62.0432 37.0094 61.2965 38.1955 60.108C39.6445 58.659 40.3346 56.5895 39.9964 54.7053C39.6539 52.7996 38.3003 51.2299 36.4535 50.5923ZM36.6351 58.5498C35.8941 59.2909 34.8687 59.6844 34.1435 59.5063C33.6581 59.3871 33.2086 58.9922 32.9098 58.422C32.3792 57.4096 32.405 56.0783 32.9773 54.948C33.5051 53.9054 34.486 53.0466 35.599 52.6287C36.7837 53.1026 37.6019 53.8519 37.825 55.096C38.0346 56.2607 37.5679 57.6164 36.6351 58.5498Z" fill="white"/>
<path d="M48.5062 43.542C47.9138 43.4142 47.325 43.8005 47.2022 44.398C45.3259 53.4498 43.2141 62.5994 40.9249 71.5938C40.7748 72.184 41.1317 72.7843 41.7219 72.9337C42.3263 73.086 42.9159 72.7161 43.0633 72.1366C45.3604 63.1121 47.4793 53.9295 49.3621 44.846C49.4856 44.25 49.1022 43.6655 48.5062 43.542Z" fill="white"/>
<path d="M56.5263 21.7516C55.9068 21.1104 55.7364 20.95 55.3609 20.9071C48.9372 20.1709 39.6342 19.7238 31.9387 19.0887C31.9261 19.0406 31.9297 18.991 31.9104 18.944C30.3429 15.1368 27.974 9.38371 22.2295 7.05576C18.3865 5.50044 13.1159 6.94087 9.69723 10.4867C6.44944 13.8529 5.24525 19.1867 6.70004 23.7607C7.67957 26.8383 9.73986 29.5357 12.605 31.5847C11.1513 37.6617 9.88796 43.754 8.1508 49.808C19.3268 65.6305 27.1837 79.1408 37.5565 93.3911C39.2967 93.7289 41.0703 93.5234 43.3137 93.2591C43.5538 93.3216 43.7974 93.4027 44.1886 93.1469C46.7447 91.4753 49.5061 89.5997 52.3499 87.6362C53.4556 88.7962 54.7593 90.1492 55.6502 91.1001C56.6122 91.1909 57.5504 91.1439 58.5024 91.1766C58.9643 91.4317 59.4167 91.3347 59.7303 91.076C69.9628 82.6564 83.3286 70.2939 93.4884 61.9357C93.9288 61.5738 94.1113 60.7811 93.6134 60.2655C80.6618 46.8634 69.1162 34.7793 56.5263 21.7516ZM8.80253 23.0915C7.58613 19.2685 8.58352 14.818 11.2841 12.0176C14.1047 9.09505 18.3578 7.86573 21.4009 9.1008C25.8646 10.9089 28.0422 15.4233 29.4899 18.872C28.1782 18.7488 27.2489 18.7667 21.3851 17.3326C20.9705 17.2304 20.5068 17.3786 20.2323 17.7567C18.4635 19.5997 16.3114 22.1684 14.5917 23.9185C14.0832 25.6905 13.622 27.4665 13.1786 29.2438C11.0754 27.5524 9.55299 25.4501 8.80253 23.0915ZM43.925 90.6764C33.4213 77.1652 22.5856 62.6128 14.0824 47.516C15.2166 42.8488 16.2558 38.5039 17.4194 34.1137C18.976 34.6986 20.6692 35.1635 22.5642 35.5039C22.4724 37.1809 23.1137 39.1126 24.5805 40.3508C26.4953 41.9674 29.548 42.25 32.016 40.954C34.4301 39.6816 36.04 37.0032 35.9323 34.4383C35.806 31.4864 32.1996 28.502 30.1742 28.6435C27.649 28.6868 24.1754 31.0304 23.0966 33.3569C21.1945 33.023 19.5152 32.5616 17.9924 31.9725C19.118 27.877 20.3785 23.7738 21.8649 19.713C29.8379 21.5818 40.3595 23.285 47.7868 25.0762C48.9343 27.7591 78.1129 66.8701 78.2229 67.0206C67.6244 74.0174 54.4546 83.7274 43.925 90.6764ZM28.1248 33.9342C27.1855 33.8739 26.3033 33.7883 25.4481 33.6893C26.4458 32.3405 28.6332 30.953 30.0887 30.8552C32.4932 31.6032 33.6756 33.2935 33.7278 34.5316C33.8004 36.2478 32.6479 38.1277 30.9884 39.0008C29.3527 39.8625 27.256 39.7232 26.0037 38.6648C25.2613 38.0379 24.7201 37.0481 24.8854 35.8433C25.748 35.9487 27.6525 36.1372 28.0552 36.1372C28.6325 36.1372 29.1179 35.6891 29.1552 35.1046C29.194 34.4972 28.733 33.973 28.1248 33.9342ZM59.1751 88.6696C58.0339 87.5574 56.8829 86.4293 55.7266 85.2924C64.2479 79.3462 73.0625 73.0239 80.3802 68.2403C80.8936 67.9048 81.1003 67.2205 80.5404 66.4552C69.7147 51.6421 60.3805 38.6502 49.6709 23.9991C49.1673 23.3115 49.0287 23.1068 48.6262 23.0082C47.608 22.7594 46.5064 22.5086 45.3526 22.2567C48.7536 22.4984 52.0416 22.7583 54.7988 23.0653C55.564 24.382 91.0445 60.7818 91.2141 60.9573C81.3129 69.175 69.0102 80.5092 59.1751 88.6696Z" fill="white"/>
</svg>
