<svg width="32" height="32" viewBox="0 0 32 32" fill="none" xmlns="http://www.w3.org/2000/svg">
<g clip-path="url(#clip0_2137_952)">
<mask id="mask0_2137_952" style="mask-type:luminance" maskUnits="userSpaceOnUse" x="0" y="0" width="32" height="32">
<path d="M32 0H0V32H32V0Z" fill="white"/>
</mask>
<g mask="url(#mask0_2137_952)">
<path d="M17 29C23.6274 29 29 23.6274 29 17C29 10.3726 23.6274 5 17 5C10.3726 5 5 10.3726 5 17C5 23.6274 10.3726 29 17 29Z" fill="white"/>
<path d="M27.312 4.68459C21.0627 -1.56285 10.932 -1.56135 4.68459 4.68802C-1.56285 10.9374 -1.56135 21.068 4.68802 27.3155C10.9374 33.5629 21.068 33.5614 27.3155 27.312C30.3158 24.3107 32.001 20.2404 32 15.9966C31.9991 11.7535 30.3128 7.68446 27.312 4.68459ZM24.2315 22.2878L24.2293 22.29V22.2846L23.4186 23.09C22.3702 24.1517 20.8433 24.5885 19.392 24.242C17.9298 23.8506 16.5398 23.2276 15.2746 22.3967C14.0993 21.6455 13.01 20.7673 12.0266 19.778C11.1218 18.8798 10.309 17.8935 9.59996 16.834C8.82446 15.6938 8.21065 14.4518 7.77596 13.1433C7.27765 11.606 7.69059 9.91921 8.84265 8.78596L9.79196 7.83665C10.0559 7.57152 10.4848 7.57059 10.7498 7.83452L10.752 7.83665L13.7493 10.834C14.0144 11.0979 14.0153 11.5268 13.7514 11.7918L13.7493 11.794L11.9893 13.554C11.4843 14.0535 11.4208 14.8472 11.84 15.4207C12.4765 16.2943 13.181 17.1163 13.9466 17.8793C14.8003 18.7367 15.7284 19.5166 16.72 20.21C17.2929 20.6096 18.0696 20.5423 18.5653 20.05L20.2666 18.322C20.5305 18.0569 20.9594 18.056 21.2245 18.3199L21.2266 18.322L24.2293 21.33C24.4945 21.5939 24.4954 22.0227 24.2315 22.2878Z" fill="#C5594D"/>
</g>
</g>
<defs>
<clipPath id="clip0_2137_952">
<rect width="32" height="32" fill="white"/>
</clipPath>
</defs>
</svg>
