<svg width="100" height="100" viewBox="0 0 100 100" fill="none" xmlns="http://www.w3.org/2000/svg">
<path fill-rule="evenodd" clip-rule="evenodd" d="M82.845 65.0015C71.2958 75.7725 57.7322 92.0497 40.2584 86.8399C35.5068 86.2771 30.5682 86.1311 25.8474 86.7697C25.8562 82.2877 25.7386 77.1897 25.6294 72.7091C27.3946 72.5299 28.9556 72.0051 30.7136 71.5833C33.1406 70.8257 36.0408 68.6259 38.801 68.7053C40.81 68.7267 42.45 69.7559 44.361 70.2155C44.361 70.2157 51.259 72.3315 51.259 72.3315C53.2178 73.0125 52.6634 74.0805 52.7456 75.6219C51.378 76.5099 50.5682 76.2461 49.0984 75.5523C47.3034 75.2129 45.0746 74.1987 43.2708 74.1481C43.2708 74.1461 43.2608 74.1481 43.2608 74.1511C43.1576 74.2181 43.1264 74.0961 43.013 74.1809C42.9272 74.2451 42.6262 74.0831 42.339 74.1393C42.1112 74.1837 41.9942 74.0181 41.883 74.1135C41.6322 74.3289 41.5932 74.1589 41.4966 74.2999C41.4156 74.4179 41.3958 74.3199 41.3678 74.3733C41.3182 74.4595 41.2786 74.4685 41.229 74.4991C41.403 77.2345 45.1694 77.4425 47.2348 78.0195C49.562 78.4807 51.9964 79.5383 53.7564 77.1849L53.9644 76.5257C60.5608 76.3147 69.8354 70.3173 75.6 67.3761C75.6 67.3759 81.0112 64.3927 81.0112 64.3927C81.798 63.7163 83.0262 63.8823 82.845 65.0015ZM26.0556 72.1125C25.9466 72.0847 25.7682 72.1333 25.6194 72.1551V72.4565C25.7682 72.4119 25.9068 72.3653 26.0556 72.3177C25.5938 72.3639 25.8506 72.3277 26.0556 72.1125ZM85.63 64.0609C84.9764 60.9571 81.438 60.3793 79.1682 62.1771C71.363 66.3729 63.778 71.9341 55.174 74.0133C55.042 71.1657 52.4414 70.0745 49.9608 69.5595C34.8922 64.4131 38.7536 67.6195 25.6198 72.0609C25.6198 72.0609 25.6198 72.0619 25.6098 72.0619C25.808 67.5133 20.4794 69.5839 18.0576 69.8687C17.8276 69.9505 18.1872 69.9663 18.236 70.0243C18.1882 70.1275 17.9932 70.1597 18.2062 70.2255C18.0636 70.2509 17.7584 70.2779 17.6512 70.3553C18.3884 70.8347 19.309 70.5057 20.109 70.7199C20.6318 70.9251 23.2178 70.3717 23.4786 71.3097C23.3178 75.7249 23.284 84.5887 23.112 89.0571C23.0894 89.3773 22.4402 89.2793 22.22 89.2909C21.2052 89.3651 18.651 89.2537 17.5916 89.2821C17.0496 89.2459 17.4816 83.3143 17.3338 82.8193C17.4084 80.0459 17.2546 77.3995 16.9574 74.6269C17.1236 73.1845 16.092 70.7633 17.6512 70.0887C14.1524 67.9059 14.5802 77.5803 14.4698 79.6477C14.8798 82.9791 12.4286 92.4751 17.7902 92.2245C21.9648 91.9437 26.62 93.3987 25.8774 87.2651C29.0236 88.1225 32.9178 87.9643 36.0658 88.5833C40.884 89.0627 45.2668 90.9955 50.1194 90.8233C63.4414 88.7851 73.779 77.4851 83.2718 68.7345C84.403 67.5733 86.202 65.9161 85.63 64.0609ZM77.0272 40.8715C77.0074 40.7269 77.0074 40.7269 76.9876 40.6595L77.1164 40.2977C77.1874 40.2633 77.2032 39.9835 77.3246 40.0421C77.3848 40.0711 77.4494 39.9111 77.5328 39.9143C77.6936 39.9203 77.7162 39.7861 77.7508 39.7845C77.808 39.7817 77.8102 39.7127 77.8102 39.7359C77.8498 39.7637 77.8796 39.6735 77.9192 39.6229L78.0184 39.6081C78.1534 39.4741 78.4808 39.4793 78.5636 39.5109C78.7342 39.5387 79.7874 39.4085 79.9016 39.4525C80.6546 39.3109 81.6636 39.6975 82.419 39.7231C82.4716 39.6773 82.4686 39.8183 82.4984 39.8261C83.0084 39.9783 82.7522 40.0985 83.0138 39.9679L83.0534 40.0819C83.229 40.0763 83.3504 40.2381 83.2814 40.4763C83.193 42.4125 80.9188 41.9593 79.545 42.3851C79.545 42.3871 79.535 42.3891 79.535 42.3911C78.1946 42.6741 77.1866 42.2361 77.0272 40.8715ZM26.1646 18.1309L26.2934 17.8623C26.7278 17.7103 26.4632 17.5447 26.8682 17.4957C27.3276 17.4035 27.8792 17.2289 28.2558 17.5949C28.3388 17.5949 28.27 17.6521 28.3054 17.6445C29.7408 18.7403 32.8616 20.1057 30.6146 22.0627C30.5834 22.0439 30.493 22.1565 30.4362 22.1401C30.3512 22.1155 30.178 22.3081 30.1092 22.1767C30.0754 22.1119 29.941 22.1917 29.8812 22.1261C29.7752 22.0101 29.6644 22.0957 29.6434 22.0725C29.5986 22.0235 29.5766 22.0885 29.574 22.0655C29.5642 22.0209 29.4748 22.0585 29.4154 22.0695C28.2408 21.3329 27.062 20.0635 26.442 18.8505C26.4762 18.7935 26.3182 18.6301 26.333 18.4333C26.34 18.3401 26.1286 18.4259 26.224 18.3085C26.3104 18.2021 26.1882 18.1995 26.1646 18.1309ZM16.9772 41.5275C17.0314 39.7071 18.7034 39.8975 19.9604 39.6437C21.187 39.4633 23.0992 38.9227 23.4788 40.7039L23.568 41.2143L23.4392 41.5741C23.3352 41.6345 23.3564 41.8829 23.2112 41.8299C23.126 41.7987 23.2078 41.9151 22.8842 41.9875C22.7996 42.0053 22.8184 42.0637 22.7752 42.0895C22.6804 42.1035 22.7336 42.1475 22.7058 42.1361C22.6662 42.1103 22.6364 42.1985 22.5968 42.2491C21.1372 42.6099 19.3774 42.3771 17.899 42.1501C17.8482 42.1957 17.8198 42.0469 17.8198 42.0461C17.2582 41.8959 17.5616 41.7727 17.2846 41.9043C17.1334 41.5561 17.1408 42.0205 16.9772 41.5275ZM48.6028 10.5431C48.7312 9.90688 48.8604 9.29908 48.9298 8.66988C48.9514 8.64828 48.8628 8.58568 48.9992 8.57088C49.0744 8.56268 49.0668 8.29468 49.2172 8.19428C49.292 8.14428 49.0724 8.03868 49.2272 8.02588C49.317 8.01848 49.317 7.94688 49.3164 7.94668C49.1852 7.90288 49.5576 7.66268 49.7228 7.82768C50.1776 7.66748 51.2082 8.43508 51.1698 8.97728C51.2336 9.04128 51.1348 9.03448 51.1698 9.04668C51.3808 9.78428 51.3468 10.7171 51.596 11.4451C51.6776 12.2607 51.742 11.8871 51.5762 12.7533C51.5412 13.6173 50.2152 14.1215 49.495 13.8117C49.4532 13.7249 49.1976 13.7443 49.2472 13.6025C49.267 13.5459 49.1178 13.5067 49.0886 13.2983C49.0754 13.2033 49.0102 13.2667 48.9894 13.1903C48.469 12.7117 48.7656 11.3097 48.6028 10.5431ZM68.8608 21.0299C68.8146 20.9141 68.9358 20.9533 68.9202 20.8187C68.9018 20.6589 69.049 20.6029 69.0094 20.5135C68.9678 20.4195 69.0094 20.5087 69.0094 20.3669C69.449 19.1097 71.0354 18.0439 72.1314 17.2291C72.1314 17.1597 72.2326 17.2585 72.2602 17.2469L72.3692 17.1895C72.6284 17.0463 72.6634 17.2447 72.7062 16.9993L72.8152 17.0479C73.0192 16.9767 72.755 17.0191 72.944 16.9657C72.9582 16.9617 73.2612 17.0377 73.2612 17.2283C73.7082 17.5359 73.8752 18.6655 73.4792 19.0549C73.4792 19.1365 73.427 19.0683 73.4296 19.1015C72.4626 20.5749 70.588 23.7843 68.93 21.2373C68.9498 21.2003 68.93 21.1369 68.8608 21.0299ZM37.9982 36.3165C41.1746 37.9265 46.196 40.4333 49.3758 42.0361C48.196 44.7881 48.6748 48.2991 48.7612 51.2235C49.059 54.6995 48.7048 58.4715 49.465 62.1117C44.2174 59.3929 37.0404 55.6951 31.7444 52.9531C31.771 46.3843 31.4824 39.1227 30.9714 32.6853L37.9982 36.3165ZM51.358 41.7971C56.9716 38.7445 63.443 35.3333 69.1282 32.3105C68.9686 38.9871 68.6444 46.2911 68.6624 53.0331C64.4116 55.2463 55.431 59.6145 51.1796 61.8765C51.6888 55.3745 52.0548 48.4327 51.031 41.9685L51.358 41.7971ZM29.6136 29.2707C28.4112 29.8655 28.5542 31.6705 29.9804 32.1617C28.7048 39.1599 28.9142 46.5411 28.791 53.8319C28.782 54.9045 29.6914 55.2289 30.5452 55.6753C36.5542 58.8143 43.5448 62.3059 49.5444 65.3343C50.2738 65.6833 50.7356 65.3345 51.368 65.0013C57.188 61.7965 64.126 58.2473 69.9112 55.1033C72.5866 55.2743 70.1502 34.6647 69.9906 31.8425C71.0084 31.5621 71.5278 30.2249 70.4662 29.6501C64.1646 26.4543 57.2778 22.9405 50.605 20.6727C50.704 20.7769 50.8726 20.8265 50.942 20.9395C50.7512 21.0413 50.673 20.9073 50.9122 21.1229C50.7574 21.0585 50.2704 20.8443 50.1392 20.8463C55.2758 24.3099 61.6514 27.5361 67.1562 30.5927C61.4856 33.5289 55.7374 36.1951 50.1194 39.2439C44.9918 36.5733 38.5856 33.2845 33.4294 30.6135C38.985 27.4739 45.05 24.3181 50.1392 20.5807C43.1398 21.7147 36.1898 26.2247 29.6136 29.2707Z" fill="white"/>
</svg>
