<svg width="25" height="24" viewBox="0 0 25 24" fill="none" xmlns="http://www.w3.org/2000/svg">
<path d="M2.57031 8.61749V21.2362C2.57031 22.3466 3.47375 23.25 4.58411 23.25H20.4169C21.5272 23.25 22.4307 22.3466 22.4307 21.2362V8.54242C22.4307 8.47925 22.4146 8.41718 22.3842 8.36169L19.6504 3.38928C19.5845 3.26953 19.4589 3.19501 19.3219 3.19501H17.229C16.1427 1.66127 14.3916 0.75 12.5005 0.75C10.6085 0.75 8.85703 1.66187 7.77202 3.19501H5.67908C5.54138 3.19501 5.41504 3.27045 5.34949 3.39148L2.61572 8.43896C2.58569 8.49371 2.57031 8.55505 2.57031 8.61749ZM12.5005 1.5C14.2074 1.5 15.785 2.35071 16.7207 3.77582C16.7211 3.77637 16.7214 3.77692 16.7218 3.77747C17.2697 4.60272 17.5593 5.56439 17.5593 6.55884C17.5593 9.34607 15.2899 11.6136 12.5005 11.6136C9.71106 11.6136 7.44165 9.34607 7.44165 6.55884C7.44165 5.56439 7.73132 4.60272 8.28027 3.77582C9.21594 2.35071 10.7936 1.5 12.5005 1.5ZM5.90247 3.94501H7.31897C6.90925 4.75182 6.69165 5.64262 6.69165 6.55884C6.69165 9.7597 9.29761 12.3636 12.5005 12.3636C15.7034 12.3636 18.3093 9.7597 18.3093 6.55884C18.3093 5.64265 18.0917 4.75182 17.6821 3.94501H19.1L21.6807 8.63873V21.2362C21.6807 21.9331 21.1138 22.5 20.4169 22.5H4.58411C3.96809 22.5 3.45533 22.0565 3.34421 21.4724H14.9567C15.1639 21.4724 15.3317 21.3045 15.3317 21.0974C15.3317 20.8903 15.1639 20.7224 14.9567 20.7224H3.32031V8.71252L5.90247 3.94501Z" fill="#C5594D"/>
<path d="M12.4995 10.6875C14.7781 10.6875 16.6318 8.83539 16.6318 6.55884C16.6318 5.25934 16.0382 4.06128 15.0044 3.27246C14.283 2.71875 13.4169 2.42615 12.4995 2.42615C11.5822 2.42615 10.7161 2.71875 9.99573 3.27191C8.96082 4.06128 8.36719 5.25934 8.36719 6.55884C8.36719 8.83539 10.2209 10.6875 12.4995 10.6875ZM10.4513 3.86755C11.0405 3.41528 11.7488 3.17615 12.4995 3.17615C13.2502 3.17615 13.9585 3.41528 14.5485 3.8681C15.3959 4.51447 15.8818 5.49518 15.8818 6.55884C15.8818 8.42175 14.3646 9.9375 12.4995 9.9375C10.6344 9.9375 9.11719 8.42175 9.11719 6.55884C9.11719 5.49518 9.60315 4.51447 10.4513 3.86755Z" fill="#C5594D"/>
<path d="M12.5001 8.73395C12.8802 8.73395 13.1897 8.42468 13.1897 8.04437C13.1897 7.80254 13.064 7.59027 12.8751 7.46716V5.31042C12.8751 5.10333 12.7074 4.93542 12.5001 4.93542C12.2928 4.93542 12.1251 5.10333 12.1251 5.31042V7.46716C11.9362 7.59027 11.8105 7.80254 11.8105 8.04437C11.8105 8.42468 12.12 8.73395 12.5001 8.73395Z" fill="#C5594D"/>
<path d="M4.625 17.2742C4.83228 17.2742 5 17.1063 5 16.8992V11.2863C5 11.0792 4.83228 10.9113 4.625 10.9113C4.41772 10.9113 4.25 11.0792 4.25 11.2863V16.8992C4.25 17.1063 4.41772 17.2742 4.625 17.2742Z" fill="#C5594D"/>
<path d="M4.625 18.9919C4.83228 18.9919 5 18.824 5 18.6169V18.3992C5 18.1921 4.83228 18.0242 4.625 18.0242C4.41772 18.0242 4.25 18.1921 4.25 18.3992V18.6169C4.25 18.824 4.41772 18.9919 4.625 18.9919Z" fill="#C5594D"/>
</svg>
