<svg width="32" height="32" viewBox="0 0 32 32" fill="none" xmlns="http://www.w3.org/2000/svg">
<g clip-path="url(#clip0_2137_939)">
<mask id="mask0_2137_939" style="mask-type:luminance" maskUnits="userSpaceOnUse" x="0" y="0" width="32" height="32">
<path d="M32 0H0V32H32V0Z" fill="white"/>
</mask>
<g mask="url(#mask0_2137_939)">
<path d="M16 0.375C7.37056 0.375 0.375 7.37056 0.375 16C0.375 24.6294 7.37056 31.625 16 31.625C24.6294 31.625 31.625 24.6294 31.625 16C31.625 7.37056 24.6294 0.375 16 0.375ZM16.2019 25.4517C14.4523 25.4517 12.8375 24.9842 11.4244 24.2494L5.90675 25.986L7.7235 20.7761C6.84881 19.3066 6.3105 17.5699 6.3105 15.7666C6.3105 10.3563 10.7515 6.01475 16.2019 6.01475C21.6523 5.94794 26.0933 10.2898 26.0933 15.6998C26.0933 21.1099 21.6523 25.4517 16.2019 25.4517Z" fill="#C5594D"/>
<path d="M16.2019 7.48438C11.6263 7.48438 7.85815 11.158 7.85815 15.7C7.85784 17.4362 8.42496 19.125 9.47315 20.5091L8.46378 23.5816L11.6937 22.5797C13.0563 23.4609 14.6466 23.9252 16.2693 23.9156C20.8448 23.9156 24.613 20.2419 24.613 15.7C24.5456 11.158 20.7775 7.48438 16.2019 7.48438ZM21.1447 18.5556L21.0438 19.0377C20.9866 19.3082 20.8764 19.5647 20.7197 19.7925C20.563 20.0204 20.3628 20.2149 20.1307 20.3651C19.5324 20.7408 18.7641 20.9287 17.7817 20.6532C14.7401 19.7953 13.0209 17.7917 12.0952 16.5394C11.1694 15.2871 10.8105 14.0347 11.0435 13.0144C11.201 12.3319 11.7047 11.7996 12.0196 11.5304C12.1757 11.3988 12.3762 11.3317 12.5801 11.3429L13.2287 11.3804C13.2915 11.3843 13.3519 11.4057 13.4031 11.4423C13.4543 11.4788 13.4943 11.5289 13.5184 11.587L14.463 13.791C14.487 13.849 14.4945 13.9125 14.4844 13.9744C14.4744 14.0363 14.4474 14.0943 14.4063 14.1417L13.5813 15.0871C13.549 15.1246 13.5288 15.1709 13.5232 15.2201C13.5176 15.2692 13.527 15.3189 13.55 15.3626C14.6395 17.4414 16.6169 18.268 17.2088 18.4746C17.2577 18.492 17.3108 18.4935 17.3605 18.4789C17.4103 18.4643 17.4542 18.4344 17.4859 18.3934L18.3484 17.2789C18.3955 17.2187 18.4615 17.1762 18.5358 17.158C18.61 17.1399 18.6882 17.1472 18.7577 17.1789L20.9555 18.1807C21.0245 18.213 21.0806 18.2675 21.1149 18.3355C21.1492 18.4035 21.1597 18.481 21.1447 18.5556Z" fill="#C5594D"/>
</g>
</g>
<defs>
<clipPath id="clip0_2137_939">
<rect width="32" height="32" fill="white"/>
</clipPath>
</defs>
</svg>
