<svg width="47" height="46" viewBox="0 0 47 46" fill="none" xmlns="http://www.w3.org/2000/svg">
<path d="M23.4488 2.76934C28.954 2.76934 34.1325 4.86723 38.0252 8.66787C41.918 12.4685 44.0632 17.5336 44.0632 22.9149C44.0632 28.2961 41.9109 33.354 38.0181 37.1619C34.1254 40.9697 28.9469 43.0604 23.4417 43.0604C17.9364 43.0604 12.7651 40.9625 8.87232 37.1619C4.97958 33.3612 2.83431 28.2961 2.83431 22.9149C2.83431 17.5336 4.97958 12.4757 8.87232 8.66787C12.7651 4.86005 17.9435 2.76934 23.4488 2.76934ZM23.4488 -0.00390625C10.499 -0.00390625 0 10.2557 0 22.9149C0 35.5741 10.499 45.8336 23.4488 45.8336C36.3985 45.8336 46.8976 35.5741 46.8976 22.9149C46.8976 10.2557 36.3985 -0.00390625 23.4488 -0.00390625Z" fill="#3A3A3A"/>
<path d="M23.4419 10.8311C26.5816 10.8311 29.2313 8.75882 30.0126 5.9336C29.1318 5.61093 28.2226 5.35279 27.292 5.15918C26.8516 6.82993 25.2888 8.06327 23.4419 8.06327C21.5878 8.06327 20.0322 6.82993 19.5917 5.15918C18.6541 5.35279 17.7448 5.61093 16.8711 5.9336C17.6596 8.75882 20.3021 10.8311 23.4419 10.8311Z" fill="#CC1919"/>
<path d="M30.9215 31.7837C30.9215 27.0225 34.8924 23.1503 39.7725 23.1503C40.5539 23.1503 41.314 23.2507 42.0314 23.4372C42.0385 23.2651 42.0385 23.093 42.0385 22.9209C42.0385 22.1249 41.9888 21.3433 41.8823 20.5761C41.1932 20.4542 40.49 20.3896 39.7654 20.3896C33.3083 20.3896 28.0801 25.4951 28.0801 31.7909C28.0801 34.738 29.2309 37.427 31.1133 39.4491C32.0154 39.0547 32.875 38.5886 33.6919 38.058C31.987 36.4805 30.9215 34.2504 30.9215 31.7837Z" fill="#CC1919"/>
<path d="M7.11768 15.8577C6.84064 15.8577 6.57071 15.8648 6.30077 15.8792C5.90298 16.797 5.58332 17.7507 5.3418 18.7402C5.92429 18.6685 6.51388 18.6255 7.11768 18.6255C14.5551 18.6255 20.6073 24.5269 20.6073 31.7836C20.6073 34.9458 19.4565 37.8499 17.5457 40.123C18.5118 40.4385 19.5205 40.6823 20.5505 40.8329C22.3761 38.2586 23.4416 35.1394 23.4416 31.7764C23.4487 22.9852 16.1392 15.8577 7.11768 15.8577Z" fill="#CC1919"/>
<path d="M26.2828 31.7836C26.2828 24.5269 32.335 18.6255 39.7724 18.6255C40.3762 18.6255 40.9658 18.6614 41.5483 18.7402C41.3068 17.7507 40.9872 16.797 40.5894 15.8792C40.3194 15.8648 40.0424 15.8577 39.7724 15.8577C30.7581 15.8577 23.4414 22.9852 23.4414 31.7836C23.4414 35.1466 24.5069 38.2658 26.3325 40.84C27.3626 40.6823 28.3713 40.4457 29.3373 40.1301C27.4336 37.8499 26.2828 34.9458 26.2828 31.7836Z" fill="#CC1919"/>
<path d="M23.4409 15.5855C28.4347 15.5855 32.6968 12.5308 34.3732 8.22845C33.5918 7.67632 32.7678 7.17438 31.8941 6.74414C30.7717 10.2577 27.4046 12.8176 23.4409 12.8176C19.4771 12.8176 16.11 10.2649 14.9877 6.75131C14.121 7.18155 13.297 7.68349 12.5156 8.23563C14.185 12.538 18.4471 15.5855 23.4409 15.5855Z" fill="#CC1919"/>
<path d="M13.93 31.7836C13.93 28.1123 10.8826 25.1365 7.11774 25.1365C6.38607 25.1365 5.68993 25.2512 5.0293 25.452C5.16426 26.3842 5.37027 27.2948 5.6402 28.1768C6.09483 27.9975 6.59208 27.8972 7.11774 27.8972C9.31273 27.8972 11.0957 29.6324 11.0957 31.7764C11.0957 33.0528 10.4635 34.1858 9.48322 34.8957C10.1154 35.5912 10.7974 36.2437 11.529 36.8389C12.9995 35.6271 13.93 33.8129 13.93 31.7836Z" fill="#CC1919"/>
<path d="M23.4412 20.1169C29.742 20.1169 35.2046 16.6391 37.9324 11.5408C37.2931 10.7664 36.5969 10.0493 35.8368 9.38965C33.7697 14.0721 28.989 17.349 23.4412 17.349C17.8933 17.349 13.1197 14.0721 11.0526 9.39682C10.2996 10.0565 9.59635 10.7736 8.95703 11.548C11.6777 16.6391 17.1403 20.1169 23.4412 20.1169Z" fill="#CC1919"/>
<path d="M35.7943 31.7839C35.7943 29.6399 37.5773 27.9046 39.7723 27.9046C40.2908 27.9046 40.7881 28.005 41.2498 28.1771C41.5197 27.2951 41.7328 26.3844 41.8607 25.4522C41.2001 25.2443 40.5039 25.1367 39.7723 25.1367C36.0074 25.1367 32.96 28.1125 32.96 31.7839C32.96 33.8131 33.8905 35.6273 35.361 36.8463C36.0926 36.2512 36.7746 35.5986 37.4068 34.9031C36.4265 34.1932 35.7943 33.0602 35.7943 31.7839Z" fill="#CC1919"/>
<path d="M7.11759 23.1507C11.9977 23.1507 15.9686 27.0228 15.9686 31.7841C15.9686 34.2508 14.9031 36.4808 13.1982 38.0583C14.0151 38.5818 14.8747 39.0479 15.7768 39.4494C17.6592 37.4273 18.81 34.7384 18.81 31.7841C18.81 25.4883 13.5747 20.3828 7.1247 20.3828C6.40013 20.3828 5.69688 20.4473 5.00784 20.5692C4.90839 21.3365 4.85156 22.1181 4.85156 22.914C4.85156 23.0861 4.85156 23.2582 4.85867 23.4303C5.57612 23.2439 6.3362 23.1507 7.11759 23.1507Z" fill="#CC1919"/>
</svg>
