<svg width="209" height="48" viewBox="0 0 209 48" fill="none" xmlns="http://www.w3.org/2000/svg">
<path d="M67.3044 23.5482L73.0562 16.7361C73.1442 16.6357 73.2616 16.5784 73.3937 16.5712C73.5257 16.5569 73.6504 16.5927 73.7531 16.6716C73.8705 16.7505 73.9439 16.858 73.9732 16.9943C74.0026 17.1305 73.9586 17.2739 73.8412 17.4317L67.8473 24.4374V30.9268C67.8473 31.063 67.796 31.1849 67.6859 31.2781C67.5832 31.3713 67.4512 31.4215 67.3044 31.4215C67.165 31.4215 67.0403 31.3713 66.9376 31.2781C66.8276 31.1849 66.7762 31.063 66.7762 30.9268V24.4374L60.7237 17.4245C60.6283 17.317 60.5843 17.1951 60.5916 17.0516C60.5989 16.9154 60.665 16.7935 60.7897 16.6931C60.9071 16.6071 61.0318 16.5712 61.1785 16.5856C61.3179 16.5999 61.4353 16.6573 61.5307 16.7648L67.3044 23.5482Z" fill="#3A3A3A"/>
<path d="M92.9082 27.6928H84.3246L82.7766 31.1132C82.7106 31.2423 82.6152 31.3355 82.4831 31.3857C82.3511 31.4359 82.2117 31.4359 82.0649 31.3785C81.9255 31.314 81.8302 31.2208 81.7788 31.0917C81.7275 30.9626 81.7348 30.8336 81.8008 30.7045L88.1175 16.8581C88.2202 16.6573 88.3889 16.5569 88.6237 16.5569C88.8511 16.5569 89.0125 16.6573 89.1006 16.8581L95.4246 30.7116C95.4833 30.8407 95.4906 30.9698 95.4466 31.0917C95.4026 31.2136 95.3219 31.3068 95.1898 31.3713C95.0504 31.4287 94.911 31.4359 94.7643 31.3857C94.6176 31.3355 94.5149 31.2423 94.4488 31.1132L92.9082 27.6928ZM84.7501 26.6818H92.468L88.6237 18.1703L84.7501 26.6818Z" fill="#3A3A3A"/>
<path d="M108.608 25.0684L118.248 16.7146C118.366 16.6142 118.49 16.564 118.637 16.5784C118.784 16.5927 118.901 16.6429 118.997 16.7433C119.107 16.8437 119.151 16.9656 119.136 17.0946C119.121 17.2309 119.063 17.3528 118.945 17.4604L111.88 23.5482L119.261 30.5467C119.378 30.6543 119.429 30.7762 119.429 30.9196C119.422 31.0558 119.371 31.1777 119.261 31.2638C119.165 31.357 119.041 31.4072 118.901 31.4072C118.762 31.4143 118.637 31.3641 118.534 31.2638L111.103 24.2222L108.594 26.3949V30.9196C108.594 31.0558 108.542 31.1777 108.439 31.2709C108.337 31.3641 108.212 31.4143 108.065 31.4143C107.919 31.4143 107.794 31.3641 107.691 31.2709C107.588 31.1777 107.537 31.0558 107.537 30.9196V17.066C107.537 16.9297 107.588 16.8078 107.691 16.7074C107.794 16.6142 107.919 16.564 108.065 16.564C108.212 16.564 108.337 16.6142 108.439 16.7074C108.542 16.8078 108.594 16.9226 108.594 17.066V25.0684H108.608Z" fill="#3A3A3A"/>
<path d="M132.782 30.9196C132.782 31.0558 132.731 31.1777 132.628 31.271C132.525 31.3642 132.401 31.4144 132.254 31.4144C132.107 31.4144 131.982 31.3642 131.88 31.271C131.777 31.1777 131.726 31.0558 131.726 30.9196V17.066C131.726 16.9154 131.777 16.8007 131.88 16.7075C131.982 16.6143 132.107 16.5712 132.254 16.5712C132.401 16.5712 132.525 16.6143 132.628 16.7075C132.731 16.8007 132.782 16.9226 132.782 17.066V30.9196Z" fill="#3A3A3A"/>
<path d="M160.748 30.9196C160.748 31.0558 160.697 31.1777 160.587 31.2709C160.477 31.3641 160.352 31.4143 160.205 31.4143C160.066 31.4143 159.941 31.3641 159.838 31.2709C159.736 31.1777 159.677 31.0558 159.677 30.9196V18.4427L153.991 25.1472L153.94 25.2189C153.91 25.2405 153.881 25.2691 153.83 25.2978L153.808 25.3193C153.742 25.348 153.69 25.3695 153.661 25.3767C153.5 25.4197 153.353 25.3695 153.221 25.2405C153.17 25.2046 153.133 25.1544 153.096 25.0899L147.432 18.4427V30.9196C147.432 31.0558 147.381 31.1777 147.278 31.2709C147.176 31.3641 147.051 31.4143 146.904 31.4143C146.757 31.4143 146.633 31.3641 146.53 31.2709C146.427 31.1777 146.376 31.0558 146.376 30.9196V17.066C146.376 16.9297 146.427 16.8078 146.53 16.7074C146.633 16.6142 146.757 16.564 146.904 16.564C146.919 16.564 146.941 16.564 146.956 16.5712C146.97 16.5784 146.985 16.5784 147.007 16.5784C147.014 16.5784 147.022 16.5855 147.036 16.5927C147.051 16.5927 147.073 16.5999 147.11 16.6142C147.168 16.6357 147.227 16.6716 147.293 16.7218L153.58 24.1147L159.838 16.7218C159.868 16.6931 159.919 16.6572 159.985 16.6286C160.066 16.5927 160.146 16.5712 160.22 16.5712C160.381 16.5712 160.513 16.6214 160.616 16.7146C160.711 16.815 160.763 16.9297 160.763 17.0731V30.9196H160.748Z" fill="#3A3A3A"/>
<path d="M183.976 27.6928H175.385L173.837 31.1132C173.771 31.2423 173.675 31.3355 173.543 31.3857C173.411 31.4359 173.272 31.4359 173.125 31.3785C172.986 31.314 172.89 31.2208 172.846 31.0917C172.795 30.9626 172.802 30.8336 172.868 30.7045L179.185 16.8581C179.288 16.6573 179.456 16.5569 179.691 16.5569C179.919 16.5569 180.08 16.6573 180.168 16.8581L186.499 30.7116C186.558 30.8407 186.565 30.9698 186.521 31.0917C186.477 31.2136 186.397 31.3068 186.265 31.3713C186.125 31.4287 185.986 31.4359 185.839 31.3857C185.692 31.3355 185.59 31.2423 185.524 31.1132L183.976 27.6928ZM175.817 26.6818H183.535L179.691 18.1631L175.817 26.6818Z" fill="#3A3A3A"/>
<path d="M199.675 30.4105L208.471 30.4248C208.611 30.4248 208.736 30.4678 208.838 30.561C208.941 30.6543 209 30.769 209 30.9124C209 31.063 208.948 31.1849 208.838 31.2853C208.736 31.3857 208.611 31.4359 208.471 31.4215H199.184H199.147H199.096H199.059C198.927 31.4 198.824 31.3426 198.736 31.2566C198.655 31.1705 198.611 31.0558 198.611 30.9267V17.0731C198.611 16.9226 198.663 16.8078 198.765 16.7074C198.868 16.6142 198.993 16.564 199.14 16.564C199.286 16.564 199.411 16.6142 199.514 16.7074C199.616 16.8078 199.668 16.9297 199.668 17.0731V30.4105H199.675Z" fill="#3A3A3A"/>
<path d="M23.4488 3.7697C28.954 3.7697 34.1325 5.8676 38.0252 9.66823C41.918 13.4689 44.0632 18.534 44.0632 23.9152C44.0632 29.2965 41.9109 34.3544 38.0181 38.1622C34.1254 41.9701 28.9469 44.0608 23.4417 44.0608C17.9364 44.0608 12.7651 41.9629 8.87232 38.1622C4.97958 34.3616 2.83431 29.2965 2.83431 23.9152C2.83431 18.534 4.97958 13.4761 8.87232 9.66823C12.7651 5.86041 17.9435 3.7697 23.4488 3.7697ZM23.4488 0.99646C10.499 0.99646 0 11.256 0 23.9152C0 36.5744 10.499 46.834 23.4488 46.834C36.3985 46.834 46.8976 36.5744 46.8976 23.9152C46.8976 11.256 36.3985 0.99646 23.4488 0.99646Z" fill="#3A3A3A"/>
<path d="M23.4419 11.8315C26.5816 11.8315 29.2313 9.75919 30.0126 6.93397C29.1318 6.61129 28.2226 6.35315 27.292 6.15955C26.8516 7.8303 25.2888 9.06364 23.4419 9.06364C21.5878 9.06364 20.0322 7.8303 19.5917 6.15955C18.6541 6.35315 17.7448 6.61129 16.8711 6.93397C17.6596 9.75919 20.3021 11.8315 23.4419 11.8315Z" fill="#CC1919"/>
<path d="M30.9215 32.7841C30.9215 28.0228 34.8924 24.1507 39.7725 24.1507C40.5539 24.1507 41.314 24.2511 42.0314 24.4375C42.0385 24.2654 42.0385 24.0933 42.0385 23.9212C42.0385 23.1253 41.9888 22.3437 41.8823 21.5765C41.1932 21.4546 40.49 21.39 39.7654 21.39C33.3083 21.39 28.0801 26.4955 28.0801 32.7913C28.0801 35.7384 29.2309 38.4274 31.1133 40.4495C32.0154 40.0551 32.875 39.589 33.6919 39.0584C31.987 37.4808 30.9215 35.2508 30.9215 32.7841Z" fill="#CC1919"/>
<path d="M7.11768 16.858C6.84064 16.858 6.57071 16.8651 6.30077 16.8795C5.90298 17.7973 5.58332 18.751 5.3418 19.7406C5.92429 19.6688 6.51388 19.6258 7.11768 19.6258C14.5551 19.6258 20.6073 25.5272 20.6073 32.7839C20.6073 35.9461 19.4565 38.8502 17.5457 41.1233C18.5118 41.4388 19.5205 41.6826 20.5505 41.8332C22.3761 39.2589 23.4416 36.1397 23.4416 32.7767C23.4487 23.9855 16.1392 16.858 7.11768 16.858Z" fill="#CC1919"/>
<path d="M26.2828 32.7839C26.2828 25.5272 32.335 19.6258 39.7724 19.6258C40.3762 19.6258 40.9658 19.6617 41.5483 19.7406C41.3068 18.751 40.9872 17.7973 40.5894 16.8795C40.3194 16.8651 40.0424 16.858 39.7724 16.858C30.7581 16.858 23.4414 23.9855 23.4414 32.7839C23.4414 36.1469 24.5069 39.2661 26.3325 41.8403C27.3626 41.6826 28.3713 41.446 29.3373 41.1305C27.4336 38.8502 26.2828 35.9461 26.2828 32.7839Z" fill="#CC1919"/>
<path d="M23.4418 16.5856C28.4356 16.5856 32.6978 13.5309 34.3742 9.22858C33.5928 8.67644 32.7688 8.1745 31.8951 7.74426C30.7727 11.2579 27.4056 13.8178 23.4418 13.8178C19.4781 13.8178 16.111 11.265 14.9886 7.75143C14.122 8.18167 13.298 8.68361 12.5166 9.23575C14.1859 13.5381 18.4481 16.5856 23.4418 16.5856Z" fill="#CC1919"/>
<path d="M13.93 32.784C13.93 29.1126 10.8826 26.1368 7.11774 26.1368C6.38607 26.1368 5.68993 26.2516 5.0293 26.4523C5.16426 27.3845 5.37027 28.2952 5.6402 29.1772C6.09483 28.9979 6.59208 28.8975 7.11774 28.8975C9.31273 28.8975 11.0957 30.6328 11.0957 32.7768C11.0957 34.0532 10.4635 35.1861 9.48322 35.896C10.1154 36.5916 10.7974 37.2441 11.529 37.8393C12.9995 36.6274 13.93 34.8133 13.93 32.784Z" fill="#CC1919"/>
<path d="M23.4412 21.1174C29.742 21.1174 35.2046 17.6396 37.9324 12.5413C37.2931 11.7669 36.5969 11.0498 35.8368 10.3901C33.7697 15.0725 28.989 18.3495 23.4412 18.3495C17.8933 18.3495 13.1197 15.0725 11.0526 10.3973C10.2996 11.057 9.59635 11.7741 8.95703 12.5485C11.6777 17.6396 17.1403 21.1174 23.4412 21.1174Z" fill="#CC1919"/>
<path d="M35.7943 32.784C35.7943 30.64 37.5773 28.9047 39.7723 28.9047C40.2908 28.9047 40.7881 29.0051 41.2498 29.1772C41.5197 28.2952 41.7328 27.3845 41.8607 26.4523C41.2001 26.2444 40.5039 26.1368 39.7723 26.1368C36.0074 26.1368 32.96 29.1126 32.96 32.784C32.96 34.8133 33.8905 36.6274 35.361 37.8464C36.0926 37.2513 36.7746 36.5987 37.4068 35.9032C36.4265 35.1933 35.7943 34.0604 35.7943 32.784Z" fill="#CC1919"/>
<path d="M7.11759 24.1505C11.9977 24.1505 15.9686 28.0227 15.9686 32.7839C15.9686 35.2506 14.9031 37.4807 13.1982 39.0582C14.0151 39.5817 14.8747 40.0478 15.7768 40.4493C17.6592 38.4272 18.81 35.7382 18.81 32.7839C18.81 26.4882 13.5747 21.3827 7.1247 21.3827C6.40013 21.3827 5.69688 21.4472 5.00784 21.5691C4.90839 22.3364 4.85156 23.118 4.85156 23.9139C4.85156 24.086 4.85156 24.2581 4.85867 24.4302C5.57612 24.2438 6.3362 24.1505 7.11759 24.1505Z" fill="#CC1919"/>
</svg>
