<svg width="171" height="171" viewBox="0 0 171 171" fill="none" xmlns="http://www.w3.org/2000/svg">
<path d="M50.8379 13.8648H55.4595V9.24316C52.9071 9.24317 50.8379 11.3123 50.8379 13.8648Z" fill="#C5594D"/>
<path d="M55.4609 9.24316V13.8648H60.0826C60.0826 11.3123 58.0134 9.24316 55.4609 9.24316Z" fill="#C5594D"/>
<path d="M78.5684 13.8648H83.19V9.24316C80.6376 9.24317 78.5684 11.3123 78.5684 13.8648Z" fill="#C5594D"/>
<path d="M87.8111 9.24316H83.1895V13.8648H87.8111V9.24316Z" fill="#C5594D"/>
<path d="M87.8125 9.24316V13.8648H92.4341C92.4341 11.3123 90.3649 9.24316 87.8125 9.24316Z" fill="#C5594D"/>
<path d="M108.61 9.24316C109.886 9.24316 110.92 10.2778 110.92 11.554C110.92 12.8303 109.886 13.8648 108.61 13.8648C107.333 13.8648 106.299 12.8303 106.299 11.554C106.299 10.2778 107.333 9.24316 108.61 9.24316Z" fill="#C5594D"/>
<path d="M115.541 13.8648H120.163V9.24316C117.61 9.24317 115.541 11.3123 115.541 13.8648Z" fill="#C5594D"/>
<path d="M122.473 13.8648C121.934 13.8648 120.162 13.8648 120.162 13.8648C120.162 13.8648 120.162 12.2915 120.162 11.554C120.162 10.9779 120.162 9.24316 120.162 9.24316C120.162 9.24316 121.773 9.24316 122.473 9.24316C123.749 9.24316 124.784 10.2778 124.784 11.554C124.784 12.8301 123.749 13.8648 122.473 13.8648Z" fill="#C5594D"/>
<path d="M55.4595 18.4864V13.8647H50.8379C50.8379 16.4172 52.907 18.4864 55.4595 18.4864Z" fill="#C5594D"/>
<path d="M60.0826 13.8647H55.4609V18.4864H60.0826V13.8647Z" fill="#C5594D"/>
<path d="M62.3928 18.4864C61.8542 18.4864 60.082 18.4864 60.082 18.4864C60.082 18.4864 60.082 16.9131 60.082 16.1756C60.082 15.5995 60.082 13.8647 60.082 13.8647C60.082 13.8647 61.6928 13.8647 62.3928 13.8647C63.669 13.8647 64.7037 14.8993 64.7037 16.1756C64.7037 17.4517 63.669 18.4864 62.3928 18.4864Z" fill="#C5594D"/>
<path d="M83.19 18.4864V13.8647H78.5684C78.5684 16.4172 80.6375 18.4864 83.19 18.4864Z" fill="#C5594D"/>
<path d="M87.8111 13.8647H83.1895V18.4864H87.8111V13.8647Z" fill="#C5594D"/>
<path d="M92.4341 13.8647H87.8125V18.4864H92.4341V13.8647Z" fill="#C5594D"/>
<path d="M103.987 13.8647C105.263 13.8647 106.297 14.8993 106.297 16.1756C106.297 17.4518 105.263 18.4864 103.987 18.4864C102.71 18.4864 101.676 17.4518 101.676 16.1756C101.676 14.8993 102.71 13.8647 103.987 13.8647Z" fill="#C5594D"/>
<path d="M120.163 13.8647H115.541V18.4864H120.163V13.8647Z" fill="#C5594D"/>
<path d="M92.4341 23.1079V18.4863H87.8125C87.8125 21.0388 89.8816 23.1079 92.4341 23.1079Z" fill="#C5594D"/>
<path d="M97.0552 18.4863H92.4336V23.1079H97.0552V18.4863Z" fill="#C5594D"/>
<path d="M97.0547 18.4863V23.1079H101.676C101.676 20.5555 99.6071 18.4863 97.0547 18.4863Z" fill="#C5594D"/>
<path d="M120.163 18.4863H115.541V23.1079H120.163V18.4863Z" fill="#C5594D"/>
<path d="M69.3247 25.4187C69.3247 25.9573 69.3247 27.7295 69.3247 27.7295C69.3247 27.7295 67.7516 27.7295 67.0139 27.7294C66.4379 27.7295 64.7031 27.7294 64.7031 27.7294C64.7031 27.7294 64.7031 26.1189 64.7031 25.4187C64.7032 24.1425 65.7377 23.1079 67.0139 23.1079C68.2901 23.1079 69.3247 24.1425 69.3247 25.4187Z" fill="#C5594D"/>
<path d="M73.9473 27.7295H78.5689V23.1079C76.0165 23.1079 73.9473 25.177 73.9473 27.7295Z" fill="#C5594D"/>
<path d="M78.5684 23.1079V27.7295H83.19C83.19 25.177 81.1208 23.1079 78.5684 23.1079Z" fill="#C5594D"/>
<path d="M97.0547 25.4187C97.0547 24.8801 97.0547 23.1079 97.0547 23.1079C97.0547 23.1079 98.6279 23.1079 99.3655 23.1079C99.9416 23.1079 101.676 23.1079 101.676 23.1079C101.676 23.1079 101.676 24.7186 101.676 25.4187C101.676 26.6949 100.642 27.7295 99.3655 27.7295C98.0893 27.7295 97.0547 26.6949 97.0547 25.4187Z" fill="#C5594D"/>
<path d="M113.231 23.1079C113.769 23.1079 115.542 23.1079 115.542 23.1079C115.542 23.1079 115.542 24.6809 115.542 25.4187C115.542 25.9946 115.542 27.7295 115.542 27.7295C115.542 27.7295 113.931 27.7295 113.231 27.7295C111.954 27.7295 110.92 26.6945 110.92 25.4187C110.92 24.1428 111.954 23.1079 113.231 23.1079Z" fill="#C5594D"/>
<path d="M120.163 23.1079H115.541V27.7295H120.163V23.1079Z" fill="#C5594D"/>
<path d="M120.162 23.1079V27.7295H124.784C124.784 25.177 122.715 23.1079 120.162 23.1079Z" fill="#C5594D"/>
<path d="M48.5276 27.7295C49.0662 27.7295 50.8384 27.7295 50.8384 27.7295C50.8384 27.7295 50.8384 29.3025 50.8384 30.0403C50.8384 30.6162 50.8384 32.3511 50.8384 32.3511C50.8384 32.3511 49.2281 32.3511 48.5276 32.3511C47.2509 32.3511 46.2168 31.3161 46.2168 30.0403C46.2168 28.7644 47.2509 27.7295 48.5276 27.7295Z" fill="#C5594D"/>
<path d="M55.4595 27.7295H50.8379V32.3511H55.4595V27.7295Z" fill="#C5594D"/>
<path d="M60.0826 27.7295H55.4609V32.3511H60.0826V27.7295Z" fill="#C5594D"/>
<path d="M64.7037 27.7297H60.082V32.3514H64.7037V27.7297Z" fill="#C5594D"/>
<path d="M69.3247 27.7295H64.7031V32.3511H69.3247V27.7295Z" fill="#C5594D"/>
<path d="M73.9478 27.7295H69.3262V32.3511H73.9478V27.7295Z" fill="#C5594D"/>
<path d="M78.5689 27.7295H73.9473V32.3511H78.5689V27.7295Z" fill="#C5594D"/>
<path d="M83.19 27.7297H78.5684V32.3514H83.19V27.7297Z" fill="#C5594D"/>
<path d="M83.1895 27.7295V32.3511H87.8111C87.8111 29.7986 85.7419 27.7295 83.1895 27.7295Z" fill="#C5594D"/>
<path d="M94.7444 27.7295C96.0207 27.7295 97.0552 28.7641 97.0552 30.0403C97.0552 31.3166 96.0207 32.3511 94.7444 32.3511C93.4682 32.3511 92.4336 31.3166 92.4336 30.0403C92.4336 28.7641 93.4682 27.7295 94.7444 27.7295Z" fill="#C5594D"/>
<path d="M103.987 27.7295C105.263 27.7295 106.297 28.7641 106.297 30.0403C106.297 31.3166 105.263 32.3511 103.987 32.3511C102.71 32.3511 101.676 31.3166 101.676 30.0403C101.676 28.7641 102.71 27.7295 103.987 27.7295Z" fill="#C5594D"/>
<path d="M120.163 27.7295H115.541V32.3511H120.163V27.7295Z" fill="#C5594D"/>
<path d="M124.784 27.7295H120.162V32.3511C122.715 32.3511 124.784 30.2819 124.784 27.7295Z" fill="#C5594D"/>
<path d="M60.0826 32.3511H55.4609V36.9727H60.0826V32.3511Z" fill="#C5594D"/>
<path d="M64.7037 32.3513H60.082V36.9729H64.7037V32.3513Z" fill="#C5594D"/>
<path d="M69.3247 32.3511H64.7031V36.9727H69.3247V32.3511Z" fill="#C5594D"/>
<path d="M73.9478 32.3511H69.3262V36.9727C71.8786 36.9727 73.9478 34.9035 73.9478 32.3511Z" fill="#C5594D"/>
<path d="M87.8111 32.3511H83.1895V36.9727H87.8111V32.3511Z" fill="#C5594D"/>
<path d="M99.3655 32.3511C100.642 32.3511 101.676 33.3857 101.676 34.6619C101.676 35.9382 100.642 36.9727 99.3655 36.9727C98.0893 36.9727 97.0547 35.9382 97.0547 34.6619C97.0547 33.3857 98.0893 32.3511 99.3655 32.3511Z" fill="#C5594D"/>
<path d="M115.541 34.6619C115.541 34.1233 115.541 32.3511 115.541 32.3511C115.541 32.3511 117.114 32.3511 117.852 32.3511C118.428 32.3511 120.163 32.3511 120.163 32.3511C120.163 32.3511 120.163 33.9618 120.163 34.6619C120.163 35.938 119.128 36.9727 117.852 36.9727C116.576 36.9727 115.541 35.938 115.541 34.6619Z" fill="#C5594D"/>
<path d="M50.8384 39.2835C50.8384 39.822 50.8384 41.5943 50.8384 41.5943C50.8384 41.5943 49.2653 41.5943 48.5276 41.5942C47.9515 41.5943 46.2168 41.5942 46.2168 41.5942C46.2168 41.5942 46.2168 39.9836 46.2168 39.2834C46.2169 38.0073 47.2514 36.9727 48.5276 36.9727C49.8038 36.9727 50.8384 38.0073 50.8384 39.2835Z" fill="#C5594D"/>
<path d="M55.4609 39.2835C55.4609 38.7449 55.4609 36.9727 55.4609 36.9727C55.4609 36.9727 57.0341 36.9727 57.7717 36.9727C58.3478 36.9727 60.0826 36.9727 60.0826 36.9727C60.0826 36.9727 60.0826 38.5834 60.0826 39.2835C60.0826 40.5596 59.0479 41.5943 57.7717 41.5943C56.4955 41.5943 55.4609 40.5596 55.4609 39.2835Z" fill="#C5594D"/>
<path d="M69.3247 36.9727H64.7031V41.5943H69.3247V36.9727Z" fill="#C5594D"/>
<path d="M76.2581 36.9727C77.5344 36.9727 78.5689 38.0073 78.5689 39.2835C78.5689 40.5597 77.5344 41.5943 76.2581 41.5943C74.9819 41.5943 73.9473 40.5597 73.9473 39.2835C73.9473 38.0073 74.9819 36.9727 76.2581 36.9727Z" fill="#C5594D"/>
<path d="M83.1895 39.2835C83.1895 38.7449 83.1895 36.9727 83.1895 36.9727C83.1895 36.9727 84.7627 36.9727 85.5003 36.9727C86.0763 36.9727 87.8111 36.9727 87.8111 36.9727C87.8111 36.9727 87.8111 38.5834 87.8111 39.2835C87.8111 40.5596 86.7764 41.5943 85.5003 41.5943C84.224 41.5943 83.1895 40.5596 83.1895 39.2835Z" fill="#C5594D"/>
<path d="M97.0552 39.2835C97.0552 39.822 97.0552 41.5943 97.0552 41.5943C97.0552 41.5943 95.4821 41.5943 94.7444 41.5942C94.1683 41.5943 92.4336 41.5942 92.4336 41.5942C92.4336 41.5942 92.4336 39.9836 92.4336 39.2834C92.4336 38.0073 93.4682 36.9727 94.7443 36.9727C96.0206 36.9727 97.0552 38.0073 97.0552 39.2835Z" fill="#C5594D"/>
<path d="M103.987 36.9727C105.263 36.9727 106.297 38.0073 106.297 39.2835C106.297 40.5597 105.263 41.5943 103.987 41.5943C102.71 41.5943 101.676 40.5597 101.676 39.2835C101.676 38.0073 102.71 36.9727 103.987 36.9727Z" fill="#C5594D"/>
<path d="M115.542 39.2837C115.542 39.8223 115.542 41.5945 115.542 41.5945C115.542 41.5945 113.968 41.5945 113.231 41.5944C112.655 41.5945 110.92 41.5944 110.92 41.5944C110.92 41.5944 110.92 39.9839 110.92 39.2837C110.92 38.0075 111.955 36.9729 113.231 36.9729C114.507 36.9729 115.542 38.0075 115.542 39.2837Z" fill="#C5594D"/>
<path d="M124.784 39.2835C124.784 39.822 124.784 41.5943 124.784 41.5943C124.784 41.5943 123.211 41.5943 122.473 41.5942C121.897 41.5943 120.162 41.5942 120.162 41.5942C120.162 41.5942 120.162 39.9836 120.162 39.2834C120.162 38.0073 121.197 36.9727 122.473 36.9727C123.749 36.9727 124.784 38.0073 124.784 39.2835Z" fill="#C5594D"/>
<path d="M50.8384 41.5947H46.2168V46.2163H50.8384V41.5947Z" fill="#C5594D"/>
<path d="M53.1487 46.2163C52.6101 46.2163 50.8379 46.2163 50.8379 46.2163C50.8379 46.2163 50.8379 44.6431 50.8379 43.9055C50.8379 43.3295 50.8379 41.5947 50.8379 41.5947C50.8379 41.5947 52.4486 41.5947 53.1487 41.5947C54.4249 41.5947 55.4595 42.6293 55.4595 43.9055C55.4595 45.1817 54.4249 46.2163 53.1487 46.2163Z" fill="#C5594D"/>
<path d="M60.082 46.2161H64.7037V41.5945C62.1512 41.5945 60.082 43.6636 60.082 46.2161Z" fill="#C5594D"/>
<path d="M69.3247 41.5947H64.7031V46.2163H69.3247V41.5947Z" fill="#C5594D"/>
<path d="M69.3262 41.5947V46.2163H73.9478C73.9478 43.6639 71.8786 41.5947 69.3262 41.5947Z" fill="#C5594D"/>
<path d="M97.0552 46.2163V41.5947H92.4336C92.4336 44.1472 94.5027 46.2163 97.0552 46.2163Z" fill="#C5594D"/>
<path d="M97.0547 41.5947V46.2163H101.676C101.676 43.6639 99.6071 41.5947 97.0547 41.5947Z" fill="#C5594D"/>
<path d="M110.92 43.9053C110.92 43.3667 110.92 41.5945 110.92 41.5945C110.92 41.5945 112.493 41.5945 113.231 41.5945C113.807 41.5945 115.542 41.5945 115.542 41.5945C115.542 41.5945 115.542 43.2052 115.542 43.9053C115.542 45.1815 114.507 46.2161 113.231 46.2161C111.955 46.2161 110.92 45.1815 110.92 43.9053Z" fill="#C5594D"/>
<path d="M124.784 41.5947H120.162V46.2163H124.784V41.5947Z" fill="#C5594D"/>
<path d="M20.7991 46.2163C21.3377 46.2163 23.1099 46.2163 23.1099 46.2163C23.1099 46.2163 23.1099 47.7893 23.1099 48.5271C23.1099 49.103 23.1099 50.8379 23.1099 50.8379C23.1099 50.8379 21.4996 50.8379 20.7991 50.8379C19.5224 50.8379 18.4883 49.8029 18.4883 48.5271C18.4883 47.2512 19.5224 46.2163 20.7991 46.2163Z" fill="#C5594D"/>
<path d="M23.1094 46.2163V50.8379H27.731C27.731 48.2854 25.6618 46.2163 23.1094 46.2163Z" fill="#C5594D"/>
<path d="M39.2854 46.2163C39.824 46.2163 41.5962 46.2163 41.5962 46.2163C41.5962 46.2163 41.5962 47.7893 41.5962 48.5271C41.5962 49.103 41.5962 50.8379 41.5962 50.8379C41.5962 50.8379 39.9859 50.8379 39.2854 50.8379C38.0088 50.8379 36.9746 49.8029 36.9746 48.5271C36.9746 47.2512 38.0088 46.2163 39.2854 46.2163Z" fill="#C5594D"/>
<path d="M46.2173 46.2161H41.5957V50.8377H46.2173V46.2161Z" fill="#C5594D"/>
<path d="M50.8384 46.2163H46.2168V50.8379C48.7692 50.8379 50.8384 48.7688 50.8384 46.2163Z" fill="#C5594D"/>
<path d="M57.7717 46.2163C58.3104 46.2163 60.0826 46.2163 60.0826 46.2163C60.0826 46.2163 60.0826 47.7893 60.0826 48.5271C60.0826 49.103 60.0826 50.8379 60.0826 50.8379C60.0826 50.8379 58.4722 50.8379 57.7717 50.8379C56.4951 50.8379 55.4609 49.8029 55.4609 48.5271C55.4609 47.2512 56.4951 46.2163 57.7717 46.2163Z" fill="#C5594D"/>
<path d="M64.7037 46.2161H60.082V50.8377C62.6345 50.8377 64.7037 48.7685 64.7037 46.2161Z" fill="#C5594D"/>
<path d="M73.9478 50.8379V46.2163H69.3262C69.3262 48.7688 71.3953 50.8379 73.9478 50.8379Z" fill="#C5594D"/>
<path d="M78.5689 46.2163H73.9473V50.8379H78.5689V46.2163Z" fill="#C5594D"/>
<path d="M83.19 46.2161H78.5684V50.8377H83.19V46.2161Z" fill="#C5594D"/>
<path d="M85.5003 50.8379C84.9617 50.8379 83.1895 50.8379 83.1895 50.8379C83.1895 50.8379 83.1895 49.2647 83.1895 48.5271C83.1895 47.951 83.1895 46.2163 83.1895 46.2163C83.1895 46.2163 84.8002 46.2163 85.5003 46.2163C86.7764 46.2163 87.8111 47.2509 87.8111 48.5271C87.8111 49.8033 86.7764 50.8379 85.5003 50.8379Z" fill="#C5594D"/>
<path d="M97.0547 48.5271C97.0547 47.9885 97.0547 46.2163 97.0547 46.2163C97.0547 46.2163 98.6279 46.2163 99.3655 46.2163C99.9416 46.2163 101.676 46.2163 101.676 46.2163C101.676 46.2163 101.676 47.827 101.676 48.5271C101.676 49.8033 100.642 50.8379 99.3655 50.8379C98.0893 50.8379 97.0547 49.8033 97.0547 48.5271Z" fill="#C5594D"/>
<path d="M110.92 48.5271C110.92 49.0657 110.92 50.8379 110.92 50.8379C110.92 50.8379 109.347 50.8379 108.61 50.8378C108.034 50.8379 106.299 50.8378 106.299 50.8378C106.299 50.8378 106.299 49.2273 106.299 48.5271C106.299 47.2509 107.333 46.2163 108.61 46.2163C109.886 46.2163 110.92 47.2509 110.92 48.5271Z" fill="#C5594D"/>
<path d="M115.541 50.8379H120.163V46.2163C117.61 46.2163 115.541 48.2854 115.541 50.8379Z" fill="#C5594D"/>
<path d="M124.784 46.2163H120.162V50.8379H124.784V46.2163Z" fill="#C5594D"/>
<path d="M129.407 46.2163H124.785V50.8379H129.407V46.2163Z" fill="#C5594D"/>
<path d="M129.406 46.2161V50.8377H134.028C134.028 48.2852 131.959 46.2161 129.406 46.2161Z" fill="#C5594D"/>
<path d="M140.961 46.2163C142.237 46.2163 143.272 47.2509 143.272 48.5271C143.272 49.8034 142.237 50.8379 140.961 50.8379C139.685 50.8379 138.65 49.8034 138.65 48.5271C138.65 47.2509 139.685 46.2163 140.961 46.2163Z" fill="#C5594D"/>
<path d="M13.8658 53.1485C13.8658 53.687 13.8658 55.4593 13.8658 55.4593C13.8658 55.4593 12.2926 55.4593 11.555 55.4592C10.9789 55.4593 9.24414 55.4592 9.24414 55.4592C9.24414 55.4592 9.24414 53.8486 9.24414 53.1484C9.2442 51.8723 10.2787 50.8376 11.5549 50.8376C12.8311 50.8376 13.8658 51.8722 13.8658 53.1485Z" fill="#C5594D"/>
<path d="M27.731 55.4595V50.8379H23.1094C23.1094 53.3903 25.1785 55.4595 27.731 55.4595Z" fill="#C5594D"/>
<path d="M32.3521 50.8376H27.7305V55.4593H32.3521V50.8376Z" fill="#C5594D"/>
<path d="M34.6624 55.4595C34.1238 55.4595 32.3516 55.4595 32.3516 55.4595C32.3516 55.4595 32.3516 53.8862 32.3516 53.1487C32.3516 52.5726 32.3516 50.8379 32.3516 50.8379C32.3516 50.8379 33.9623 50.8379 34.6624 50.8379C35.9385 50.8379 36.9732 51.8725 36.9732 53.1487C36.9732 54.4249 35.9385 55.4595 34.6624 55.4595Z" fill="#C5594D"/>
<path d="M78.5689 55.4595V50.8379H73.9473C73.9473 53.3903 76.0164 55.4595 78.5689 55.4595Z" fill="#C5594D"/>
<path d="M83.19 50.8376H78.5684V55.4593C81.1208 55.4593 83.19 53.3901 83.19 50.8376Z" fill="#C5594D"/>
<path d="M87.8125 55.4595H92.4341V50.8379C89.8817 50.8379 87.8125 52.907 87.8125 55.4595Z" fill="#C5594D"/>
<path d="M94.7444 55.4595C94.2058 55.4595 92.4336 55.4595 92.4336 55.4595C92.4336 55.4595 92.4336 53.8862 92.4336 53.1487C92.4336 52.5726 92.4336 50.8379 92.4336 50.8379C92.4336 50.8379 94.0443 50.8379 94.7444 50.8379C96.0206 50.8379 97.0552 51.8725 97.0552 53.1487C97.0552 54.4249 96.0206 55.4595 94.7444 55.4595Z" fill="#C5594D"/>
<path d="M103.987 50.8379C104.525 50.8379 106.297 50.8379 106.297 50.8379C106.297 50.8379 106.297 52.4109 106.297 53.1487C106.297 53.7246 106.297 55.4595 106.297 55.4595C106.297 55.4595 104.687 55.4595 103.987 55.4595C102.71 55.4595 101.676 54.4245 101.676 53.1487C101.676 51.8728 102.71 50.8379 103.987 50.8379Z" fill="#C5594D"/>
<path d="M110.92 50.8379H106.299V55.4595C108.851 55.4595 110.92 53.3903 110.92 50.8379Z" fill="#C5594D"/>
<path d="M120.163 50.8379H115.541V55.4595H120.163V50.8379Z" fill="#C5594D"/>
<path d="M129.407 50.8379H124.785V55.4595H129.407V50.8379Z" fill="#C5594D"/>
<path d="M134.028 50.8376H129.406V55.4593H134.028V50.8376Z" fill="#C5594D"/>
<path d="M145.582 50.8379C146.859 50.8379 147.893 51.8725 147.893 53.1487C147.893 54.425 146.859 55.4595 145.582 55.4595C144.306 55.4595 143.271 54.425 143.271 53.1487C143.271 51.8725 144.306 50.8379 145.582 50.8379Z" fill="#C5594D"/>
<path d="M161.758 53.1487C161.758 53.6873 161.758 55.4595 161.758 55.4595C161.758 55.4595 160.185 55.4595 159.448 55.4594C158.871 55.4595 157.137 55.4594 157.137 55.4594C157.137 55.4594 157.137 53.8488 157.137 53.1486C157.137 51.8725 158.171 50.8379 159.447 50.8379C160.724 50.8379 161.758 51.8725 161.758 53.1487Z" fill="#C5594D"/>
<path d="M9.24414 57.7703C9.24414 57.2317 9.24414 55.4595 9.24414 55.4595C9.24414 55.4595 10.8173 55.4595 11.555 55.4595C12.131 55.4595 13.8658 55.4595 13.8658 55.4595C13.8658 55.4595 13.8658 57.0702 13.8658 57.7703C13.8658 59.0464 12.8311 60.0811 11.555 60.0811C10.2787 60.0811 9.24414 59.0464 9.24414 57.7703Z" fill="#C5594D"/>
<path d="M32.3521 55.4595H27.7305V60.0811H32.3521V55.4595Z" fill="#C5594D"/>
<path d="M39.2854 55.4595C40.5617 55.4595 41.5962 56.4941 41.5962 57.7703C41.5962 59.0466 40.5617 60.0811 39.2854 60.0811C38.0092 60.0811 36.9746 59.0466 36.9746 57.7703C36.9746 56.4941 38.0092 55.4595 39.2854 55.4595Z" fill="#C5594D"/>
<path d="M50.8379 60.0811H55.4595V55.4595C52.9071 55.4595 50.8379 57.5286 50.8379 60.0811Z" fill="#C5594D"/>
<path d="M60.0826 55.4595H55.4609V60.0811H60.0826V55.4595Z" fill="#C5594D"/>
<path d="M62.3928 60.0811C61.8542 60.0811 60.082 60.0811 60.082 60.0811C60.082 60.0811 60.082 58.5078 60.082 57.7703C60.082 57.1942 60.082 55.4595 60.082 55.4595C60.082 55.4595 61.6928 55.4595 62.3928 55.4595C63.669 55.4595 64.7037 56.4941 64.7037 57.7703C64.7037 59.0464 63.669 60.0811 62.3928 60.0811Z" fill="#C5594D"/>
<path d="M87.8125 57.7703C87.8125 57.2317 87.8125 55.4595 87.8125 55.4595C87.8125 55.4595 89.3857 55.4595 90.1233 55.4595C90.6994 55.4595 92.4341 55.4595 92.4341 55.4595C92.4341 55.4595 92.4341 57.0702 92.4341 57.7703C92.4341 59.0464 91.3995 60.0811 90.1233 60.0811C88.8471 60.0811 87.8125 59.0464 87.8125 57.7703Z" fill="#C5594D"/>
<path d="M115.541 57.7703C115.541 57.2317 115.541 55.4595 115.541 55.4595C115.541 55.4595 117.114 55.4595 117.852 55.4595C118.428 55.4595 120.163 55.4595 120.163 55.4595C120.163 55.4595 120.163 57.0702 120.163 57.7703C120.163 59.0464 119.128 60.0811 117.852 60.0811C116.576 60.0811 115.541 59.0464 115.541 57.7703Z" fill="#C5594D"/>
<path d="M129.407 60.0811V55.4595H124.785C124.785 58.0119 126.854 60.0811 129.407 60.0811Z" fill="#C5594D"/>
<path d="M134.028 55.4595H129.406V60.0811C131.959 60.0811 134.028 58.0119 134.028 55.4595Z" fill="#C5594D"/>
<path d="M157.137 57.7703C157.137 57.2317 157.137 55.4595 157.137 55.4595C157.137 55.4595 158.71 55.4595 159.448 55.4595C160.024 55.4595 161.758 55.4595 161.758 55.4595C161.758 55.4595 161.758 57.0702 161.758 57.7703C161.758 59.0464 160.724 60.0811 159.448 60.0811C158.171 60.0811 157.137 59.0464 157.137 57.7703Z" fill="#C5594D"/>
<path d="M13.8652 64.7027H18.4869V60.0811C15.9344 60.0811 13.8652 62.1502 13.8652 64.7027Z" fill="#C5594D"/>
<path d="M20.7991 64.7027C20.2605 64.7027 18.4883 64.7027 18.4883 64.7027C18.4883 64.7027 18.4883 63.1294 18.4883 62.3919C18.4883 61.8158 18.4883 60.0811 18.4883 60.0811C18.4883 60.0811 20.099 60.0811 20.7991 60.0811C22.0753 60.0811 23.1099 61.1156 23.1099 62.3919C23.1099 63.668 22.0753 64.7027 20.7991 64.7027Z" fill="#C5594D"/>
<path d="M32.3521 64.7027V60.0811H27.7305C27.7305 62.6335 29.7996 64.7027 32.3521 64.7027Z" fill="#C5594D"/>
<path d="M32.3516 60.0811V64.7027H36.9732C36.9732 62.1502 34.904 60.0811 32.3516 60.0811Z" fill="#C5594D"/>
<path d="M48.5276 60.0811C49.0662 60.0811 50.8384 60.0811 50.8384 60.0811C50.8384 60.0811 50.8384 61.6541 50.8384 62.3919C50.8384 62.9678 50.8384 64.7027 50.8384 64.7027C50.8384 64.7027 49.2281 64.7027 48.5276 64.7027C47.2509 64.7027 46.2168 63.6676 46.2168 62.3919C46.2168 61.116 47.2509 60.0811 48.5276 60.0811Z" fill="#C5594D"/>
<path d="M55.4595 60.0811H50.8379V64.7027H55.4595V60.0811Z" fill="#C5594D"/>
<path d="M60.0826 60.0811H55.4609V64.7027H60.0826V60.0811Z" fill="#C5594D"/>
<path d="M124.784 62.3919C124.784 62.9304 124.784 64.7027 124.784 64.7027C124.784 64.7027 123.211 64.7027 122.473 64.7026C121.897 64.7027 120.162 64.7026 120.162 64.7026C120.162 64.7026 120.162 63.092 120.162 62.3918C120.162 61.1157 121.197 60.0811 122.473 60.0811C123.749 60.0811 124.784 61.1157 124.784 62.3919Z" fill="#C5594D"/>
<path d="M136.338 60.0811C136.877 60.0811 138.649 60.0811 138.649 60.0811C138.649 60.0811 138.649 61.6541 138.649 62.3919C138.649 62.9678 138.649 64.7027 138.649 64.7027C138.649 64.7027 137.039 64.7027 136.338 64.7027C135.061 64.7027 134.027 63.6676 134.027 62.3919C134.027 61.116 135.061 60.0811 136.338 60.0811Z" fill="#C5594D"/>
<path d="M143.272 60.0811H138.65V64.7027H143.272V60.0811Z" fill="#C5594D"/>
<path d="M145.582 64.7027C145.044 64.7027 143.271 64.7027 143.271 64.7027C143.271 64.7027 143.271 63.1294 143.271 62.3919C143.271 61.8158 143.271 60.0811 143.271 60.0811C143.271 60.0811 144.882 60.0811 145.582 60.0811C146.858 60.0811 147.893 61.1156 147.893 62.3919C147.893 63.668 146.858 64.7027 145.582 64.7027Z" fill="#C5594D"/>
<path d="M157.135 62.3919C157.135 62.9304 157.135 64.7027 157.135 64.7027C157.135 64.7027 155.562 64.7027 154.824 64.7026C154.248 64.7027 152.514 64.7026 152.514 64.7026C152.514 64.7026 152.514 63.092 152.514 62.3918C152.514 61.1157 153.548 60.0811 154.824 60.0811C156.101 60.0811 157.135 61.1157 157.135 62.3919Z" fill="#C5594D"/>
<path d="M9.24414 69.3243H13.8658V64.7026C11.3133 64.7026 9.24414 66.7718 9.24414 69.3243Z" fill="#C5594D"/>
<path d="M18.4869 64.7026H13.8652V69.3243C16.4177 69.3243 18.4869 67.2551 18.4869 64.7026Z" fill="#C5594D"/>
<path d="M36.9732 64.7026H32.3516V69.3243H36.9732V64.7026Z" fill="#C5594D"/>
<path d="M41.5962 64.7026H36.9746V69.3243H41.5962V64.7026Z" fill="#C5594D"/>
<path d="M41.5957 64.7026V69.3243H46.2173C46.2173 66.7718 44.1482 64.7026 41.5957 64.7026Z" fill="#C5594D"/>
<path d="M55.4595 64.7026H50.8379V69.3243H55.4595V64.7026Z" fill="#C5594D"/>
<path d="M60.0826 64.7026H55.4609V69.3243H60.0826V64.7026Z" fill="#C5594D"/>
<path d="M117.852 64.7026C118.39 64.7026 120.163 64.7026 120.163 64.7026C120.163 64.7026 120.163 66.2757 120.163 67.0134C120.163 67.5893 120.163 69.3243 120.163 69.3243C120.163 69.3243 118.552 69.3243 117.852 69.3243C116.575 69.3243 115.541 68.2892 115.541 67.0134C115.541 65.7375 116.575 64.7026 117.852 64.7026Z" fill="#C5594D"/>
<path d="M124.784 64.7026H120.162V69.3243H124.784V64.7026Z" fill="#C5594D"/>
<path d="M152.514 67.0134C152.514 66.4748 152.514 64.7026 152.514 64.7026C152.514 64.7026 154.087 64.7026 154.824 64.7026C155.401 64.7026 157.135 64.7026 157.135 64.7026C157.135 64.7026 157.135 66.3134 157.135 67.0134C157.135 68.2896 156.101 69.3243 154.824 69.3243C153.548 69.3243 152.514 68.2896 152.514 67.0134Z" fill="#C5594D"/>
<path d="M13.8658 69.3242H9.24414V73.9458H13.8658V69.3242Z" fill="#C5594D"/>
<path d="M23.1094 73.9458H27.731V69.3242C25.1786 69.3242 23.1094 71.3934 23.1094 73.9458Z" fill="#C5594D"/>
<path d="M32.3521 69.3242H27.7305V73.9458H32.3521V69.3242Z" fill="#C5594D"/>
<path d="M36.9732 69.3242H32.3516V73.9458H36.9732V69.3242Z" fill="#C5594D"/>
<path d="M46.2173 69.3242H41.5957V73.9458H46.2173V69.3242Z" fill="#C5594D"/>
<path d="M50.8384 69.3242H46.2168V73.9458H50.8384V69.3242Z" fill="#C5594D"/>
<path d="M55.4595 69.3242H50.8379V73.9458H55.4595V69.3242Z" fill="#C5594D"/>
<path d="M60.0826 69.3242H55.4609V73.9458C58.0134 73.9458 60.0826 71.8767 60.0826 69.3242Z" fill="#C5594D"/>
<path d="M113.231 69.3242C114.507 69.3242 115.542 70.3588 115.542 71.635C115.542 72.9113 114.507 73.9458 113.231 73.9458C111.955 73.9458 110.92 72.9113 110.92 71.635C110.92 70.3588 111.955 69.3242 113.231 69.3242Z" fill="#C5594D"/>
<path d="M124.784 69.3242H120.162V73.9458H124.784V69.3242Z" fill="#C5594D"/>
<path d="M147.893 71.635C147.893 72.1736 147.893 73.9458 147.893 73.9458C147.893 73.9458 146.32 73.9458 145.582 73.9457C145.006 73.9458 143.271 73.9457 143.271 73.9457C143.271 73.9457 143.271 72.3352 143.271 71.635C143.272 70.3588 144.306 69.3242 145.582 69.3242C146.858 69.3242 147.893 70.3588 147.893 71.635Z" fill="#C5594D"/>
<path d="M13.8658 78.5674V73.9458H9.24414C9.24415 76.4982 11.3133 78.5674 13.8658 78.5674Z" fill="#C5594D"/>
<path d="M18.4869 73.9458H13.8652V78.5674H18.4869V73.9458Z" fill="#C5594D"/>
<path d="M23.1099 73.9458H18.4883V78.5674H23.1099V73.9458Z" fill="#C5594D"/>
<path d="M27.731 73.9458H23.1094V78.5674C25.6618 78.5674 27.731 76.4982 27.731 73.9458Z" fill="#C5594D"/>
<path d="M36.9732 78.5674V73.9458H32.3516C32.3516 76.4982 34.4207 78.5674 36.9732 78.5674Z" fill="#C5594D"/>
<path d="M41.5962 73.9458H36.9746V78.5674H41.5962V73.9458Z" fill="#C5594D"/>
<path d="M46.2173 73.9458H41.5957V78.5674H46.2173V73.9458Z" fill="#C5594D"/>
<path d="M50.8384 73.9458H46.2168V78.5674H50.8384V73.9458Z" fill="#C5594D"/>
<path d="M55.4595 73.9458H50.8379V78.5674C53.3903 78.5674 55.4595 76.4982 55.4595 73.9458Z" fill="#C5594D"/>
<path d="M124.784 73.9458H120.162V78.5674H124.784V73.9458Z" fill="#C5594D"/>
<path d="M129.406 78.5674H134.028V73.9458C131.475 73.9458 129.406 76.0149 129.406 78.5674Z" fill="#C5594D"/>
<path d="M138.649 73.9458H134.027V78.5674H138.649V73.9458Z" fill="#C5594D"/>
<path d="M143.272 73.9458H138.65V78.5674H143.272V73.9458Z" fill="#C5594D"/>
<path d="M147.893 73.9458H143.271V78.5674C145.824 78.5674 147.893 76.4982 147.893 73.9458Z" fill="#C5594D"/>
<path d="M13.8652 80.8782C13.8652 80.3396 13.8652 78.5674 13.8652 78.5674C13.8652 78.5674 15.4384 78.5674 16.176 78.5674C16.7521 78.5674 18.4869 78.5674 18.4869 78.5674C18.4869 78.5674 18.4869 80.1781 18.4869 80.8782C18.4869 82.1544 17.4522 83.189 16.176 83.189C14.8998 83.189 13.8652 82.1544 13.8652 80.8782Z" fill="#C5594D"/>
<path d="M30.0413 78.5674C31.3176 78.5674 32.3521 79.602 32.3521 80.8782C32.3521 82.1545 31.3176 83.189 30.0413 83.189C28.7651 83.189 27.7305 82.1545 27.7305 80.8782C27.7305 79.602 28.7651 78.5674 30.0413 78.5674Z" fill="#C5594D"/>
<path d="M46.2173 78.5674H41.5957V83.189H46.2173V78.5674Z" fill="#C5594D"/>
<path d="M57.7717 78.5674C59.048 78.5674 60.0826 79.602 60.0826 80.8782C60.0826 82.1545 59.048 83.189 57.7717 83.189C56.4955 83.189 55.4609 82.1545 55.4609 80.8782C55.4609 79.602 56.4955 78.5674 57.7717 78.5674Z" fill="#C5594D"/>
<path d="M113.231 78.5674C114.507 78.5674 115.542 79.602 115.542 80.8782C115.542 82.1545 114.507 83.189 113.231 83.189C111.955 83.189 110.92 82.1545 110.92 80.8782C110.92 79.602 111.955 78.5674 113.231 78.5674Z" fill="#C5594D"/>
<path d="M124.784 78.5674H120.162V83.189H124.784V78.5674Z" fill="#C5594D"/>
<path d="M129.407 78.5674H124.785V83.189H129.407V78.5674Z" fill="#C5594D"/>
<path d="M134.028 78.5674H129.406V83.189H134.028V78.5674Z" fill="#C5594D"/>
<path d="M138.649 78.5674H134.027V83.189H138.649V78.5674Z" fill="#C5594D"/>
<path d="M150.203 78.5674C150.742 78.5674 152.514 78.5674 152.514 78.5674C152.514 78.5674 152.514 80.1404 152.514 80.8782C152.514 81.4541 152.514 83.189 152.514 83.189C152.514 83.189 150.904 83.189 150.203 83.189C148.927 83.189 147.893 82.154 147.893 80.8782C147.893 79.6023 148.927 78.5674 150.203 78.5674Z" fill="#C5594D"/>
<path d="M154.824 83.189C154.286 83.189 152.514 83.189 152.514 83.189C152.514 83.189 152.514 81.6157 152.514 80.8782C152.514 80.3021 152.514 78.5674 152.514 78.5674C152.514 78.5674 154.124 78.5674 154.824 78.5674C156.101 78.5674 157.135 79.602 157.135 80.8782C157.135 82.1544 156.101 83.189 154.824 83.189Z" fill="#C5594D"/>
<path d="M11.555 83.1892C12.8312 83.1892 13.8658 84.2238 13.8658 85.5C13.8658 86.7763 12.8312 87.8108 11.555 87.8108C10.2787 87.8108 9.24414 86.7763 9.24414 85.5C9.24414 84.2238 10.2787 83.1892 11.555 83.1892Z" fill="#C5594D"/>
<path d="M39.2854 83.189C39.824 83.189 41.5962 83.189 41.5962 83.189C41.5962 83.189 41.5962 84.762 41.5962 85.4998C41.5962 86.0757 41.5962 87.8106 41.5962 87.8106C41.5962 87.8106 39.9859 87.8106 39.2854 87.8106C38.0088 87.8106 36.9746 86.7755 36.9746 85.4998C36.9746 84.2239 38.0088 83.189 39.2854 83.189Z" fill="#C5594D"/>
<path d="M46.2173 83.1892H41.5957V87.8108H46.2173V83.1892Z" fill="#C5594D"/>
<path d="M50.8384 83.189H46.2168V87.8106H50.8384V83.189Z" fill="#C5594D"/>
<path d="M53.1487 87.8106C52.6101 87.8106 50.8379 87.8106 50.8379 87.8106C50.8379 87.8106 50.8379 86.2373 50.8379 85.4998C50.8379 84.9237 50.8379 83.189 50.8379 83.189C50.8379 83.189 52.4486 83.189 53.1487 83.189C54.4249 83.189 55.4595 84.2236 55.4595 85.4998C55.4595 86.7759 54.4249 87.8106 53.1487 87.8106Z" fill="#C5594D"/>
<path d="M124.784 87.8106V83.189H120.162C120.162 85.7414 122.231 87.8106 124.784 87.8106Z" fill="#C5594D"/>
<path d="M129.407 83.189H124.785V87.8106H129.407V83.189Z" fill="#C5594D"/>
<path d="M134.028 83.1892H129.406V87.8108H134.028V83.1892Z" fill="#C5594D"/>
<path d="M138.649 83.189H134.027V87.8106H138.649V83.189Z" fill="#C5594D"/>
<path d="M18.4869 90.1214C18.4869 90.6599 18.4869 92.4322 18.4869 92.4322C18.4869 92.4322 16.9137 92.4322 16.176 92.4321C15.6 92.4322 13.8652 92.4321 13.8652 92.4321C13.8652 92.4321 13.8652 90.8215 13.8652 90.1213C13.8653 88.8452 14.8998 87.8105 16.176 87.8105C17.4522 87.8105 18.4869 88.8451 18.4869 90.1214Z" fill="#C5594D"/>
<path d="M34.6624 87.8105C35.9387 87.8105 36.9732 88.8451 36.9732 90.1214C36.9732 91.3976 35.9387 92.4322 34.6624 92.4322C33.3862 92.4322 32.3516 91.3976 32.3516 90.1214C32.3516 88.8451 33.3862 87.8105 34.6624 87.8105Z" fill="#C5594D"/>
<path d="M41.5957 90.1216C41.5957 89.583 41.5957 87.8108 41.5957 87.8108C41.5957 87.8108 43.1689 87.8108 43.9065 87.8108C44.4826 87.8108 46.2173 87.8108 46.2173 87.8108C46.2173 87.8108 46.2173 89.4215 46.2173 90.1216C46.2173 91.3978 45.1827 92.4324 43.9065 92.4324C42.6303 92.4324 41.5957 91.3978 41.5957 90.1216Z" fill="#C5594D"/>
<path d="M113.231 87.8108C113.769 87.8108 115.542 87.8108 115.542 87.8108C115.542 87.8108 115.542 89.3838 115.542 90.1216C115.542 90.6975 115.542 92.4324 115.542 92.4324C115.542 92.4324 113.931 92.4324 113.231 92.4324C111.954 92.4324 110.92 91.3974 110.92 90.1216C110.92 88.8457 111.954 87.8108 113.231 87.8108Z" fill="#C5594D"/>
<path d="M117.852 92.4322C117.313 92.4322 115.541 92.4322 115.541 92.4322C115.541 92.4322 115.541 90.8589 115.541 90.1214C115.541 89.5453 115.541 87.8105 115.541 87.8105C115.541 87.8105 117.152 87.8105 117.852 87.8105C119.128 87.8105 120.163 88.8451 120.163 90.1214C120.163 91.3975 119.128 92.4322 117.852 92.4322Z" fill="#C5594D"/>
<path d="M129.407 87.8105H124.785V92.4322H129.407V87.8105Z" fill="#C5594D"/>
<path d="M134.028 87.8108H129.406V92.4324H134.028V87.8108Z" fill="#C5594D"/>
<path d="M138.649 87.8105H134.027V92.4322H138.649V87.8105Z" fill="#C5594D"/>
<path d="M140.961 92.4322C140.423 92.4322 138.65 92.4322 138.65 92.4322C138.65 92.4322 138.65 90.8589 138.65 90.1214C138.65 89.5453 138.65 87.8105 138.65 87.8105C138.65 87.8105 140.261 87.8105 140.961 87.8105C142.237 87.8105 143.272 88.8451 143.272 90.1214C143.272 91.3975 142.237 92.4322 140.961 92.4322Z" fill="#C5594D"/>
<path d="M147.893 92.4324H152.514V87.8108C149.962 87.8108 147.893 89.8799 147.893 92.4324Z" fill="#C5594D"/>
<path d="M152.514 87.8105V92.4322H157.135C157.135 89.8797 155.066 87.8105 152.514 87.8105Z" fill="#C5594D"/>
<path d="M18.4869 92.4321H13.8652V97.0538H18.4869V92.4321Z" fill="#C5594D"/>
<path d="M23.1099 92.4321H18.4883V97.0538H23.1099V92.4321Z" fill="#C5594D"/>
<path d="M27.731 92.4321H23.1094V97.0538H27.731V92.4321Z" fill="#C5594D"/>
<path d="M27.7305 92.4324V97.054H32.3521C32.3521 94.5015 30.2829 92.4324 27.7305 92.4324Z" fill="#C5594D"/>
<path d="M39.2854 92.4321C40.5617 92.4321 41.5962 93.4667 41.5962 94.7429C41.5962 96.0192 40.5617 97.0538 39.2854 97.0538C38.0092 97.0538 36.9746 96.0192 36.9746 94.7429C36.9746 93.4667 38.0092 92.4321 39.2854 92.4321Z" fill="#C5594D"/>
<path d="M48.5276 92.4321C49.0662 92.4321 50.8384 92.4321 50.8384 92.4321C50.8384 92.4321 50.8384 94.0052 50.8384 94.7429C50.8384 95.3188 50.8384 97.0538 50.8384 97.0538C50.8384 97.0538 49.2281 97.0538 48.5276 97.0538C47.2509 97.0538 46.2168 96.0187 46.2168 94.7429C46.2168 93.467 47.2509 92.4321 48.5276 92.4321Z" fill="#C5594D"/>
<path d="M55.4595 92.4321H50.8379V97.0538H55.4595V92.4321Z" fill="#C5594D"/>
<path d="M57.7717 97.0538C57.2331 97.0538 55.4609 97.0538 55.4609 97.0538C55.4609 97.0538 55.4609 95.4805 55.4609 94.7429C55.4609 94.1669 55.4609 92.4321 55.4609 92.4321C55.4609 92.4321 57.0717 92.4321 57.7717 92.4321C59.0479 92.4321 60.0826 93.4667 60.0826 94.7429C60.0826 96.0191 59.0479 97.0538 57.7717 97.0538Z" fill="#C5594D"/>
<path d="M129.407 97.0538V92.4321H124.785C124.785 94.9846 126.854 97.0538 129.407 97.0538Z" fill="#C5594D"/>
<path d="M134.028 92.4324H129.406V97.054H134.028V92.4324Z" fill="#C5594D"/>
<path d="M138.649 92.4321H134.027V97.0538H138.649V92.4321Z" fill="#C5594D"/>
<path d="M152.514 97.054V92.4324H147.893C147.893 94.9848 149.962 97.054 152.514 97.054Z" fill="#C5594D"/>
<path d="M157.135 92.4321H152.514V97.0538H157.135V92.4321Z" fill="#C5594D"/>
<path d="M159.448 97.0538C158.909 97.0538 157.137 97.0538 157.137 97.0538C157.137 97.0538 157.137 95.4805 157.137 94.7429C157.137 94.1669 157.137 92.4321 157.137 92.4321C157.137 92.4321 158.747 92.4321 159.448 92.4321C160.724 92.4321 161.758 93.4667 161.758 94.7429C161.758 96.0191 160.724 97.0538 159.448 97.0538Z" fill="#C5594D"/>
<path d="M9.24414 101.676H13.8658V97.054C11.3133 97.054 9.24414 99.1231 9.24414 101.676Z" fill="#C5594D"/>
<path d="M18.4869 97.0542H13.8652V101.676C16.4177 101.676 18.4869 99.6066 18.4869 97.0542Z" fill="#C5594D"/>
<path d="M32.3521 97.054H27.7305V101.676H32.3521V97.054Z" fill="#C5594D"/>
<path d="M34.6624 101.676C34.1238 101.676 32.3516 101.676 32.3516 101.676C32.3516 101.676 32.3516 100.103 32.3516 99.365C32.3516 98.7889 32.3516 97.0542 32.3516 97.0542C32.3516 97.0542 33.9623 97.0542 34.6624 97.0542C35.9385 97.0542 36.9732 98.0888 36.9732 99.365C36.9732 100.641 35.9385 101.676 34.6624 101.676Z" fill="#C5594D"/>
<path d="M55.4595 97.0542H50.8379V101.676H55.4595V97.0542Z" fill="#C5594D"/>
<path d="M113.231 97.054C114.507 97.054 115.542 98.0886 115.542 99.3648C115.542 100.641 114.507 101.676 113.231 101.676C111.955 101.676 110.92 100.641 110.92 99.3648C110.92 98.0886 111.955 97.054 113.231 97.054Z" fill="#C5594D"/>
<path d="M138.649 101.676V97.0542H134.027C134.027 99.6066 136.096 101.676 138.649 101.676Z" fill="#C5594D"/>
<path d="M140.961 101.676C140.423 101.676 138.65 101.676 138.65 101.676C138.65 101.676 138.65 100.103 138.65 99.365C138.65 98.7889 138.65 97.0542 138.65 97.0542C138.65 97.0542 140.261 97.0542 140.961 97.0542C142.237 97.0542 143.272 98.0888 143.272 99.365C143.272 100.641 142.237 101.676 140.961 101.676Z" fill="#C5594D"/>
<path d="M13.8658 101.676H9.24414V106.297H13.8658V101.676Z" fill="#C5594D"/>
<path d="M20.7991 101.676C21.3377 101.676 23.1099 101.676 23.1099 101.676C23.1099 101.676 23.1099 103.249 23.1099 103.987C23.1099 104.562 23.1099 106.297 23.1099 106.297C23.1099 106.297 21.4996 106.297 20.7991 106.297C19.5224 106.297 18.4883 105.262 18.4883 103.987C18.4883 102.711 19.5224 101.676 20.7991 101.676Z" fill="#C5594D"/>
<path d="M27.731 101.676H23.1094V106.297H27.731V101.676Z" fill="#C5594D"/>
<path d="M32.3521 101.676H27.7305V106.297H32.3521V101.676Z" fill="#C5594D"/>
<path d="M39.2854 101.676C40.5617 101.676 41.5962 102.71 41.5962 103.987C41.5962 105.263 40.5617 106.297 39.2854 106.297C38.0092 106.297 36.9746 105.263 36.9746 103.987C36.9746 102.71 38.0092 101.676 39.2854 101.676Z" fill="#C5594D"/>
<path d="M46.2168 106.297H50.8384V101.676C48.286 101.676 46.2168 103.745 46.2168 106.297Z" fill="#C5594D"/>
<path d="M55.4595 101.676H50.8379V106.297C53.3903 106.297 55.4595 104.228 55.4595 101.676Z" fill="#C5594D"/>
<path d="M124.784 103.987C124.784 104.525 124.784 106.297 124.784 106.297C124.784 106.297 123.211 106.297 122.473 106.297C121.897 106.297 120.162 106.297 120.162 106.297C120.162 106.297 120.162 104.687 120.162 103.987C120.162 102.71 121.197 101.676 122.473 101.676C123.749 101.676 124.784 102.71 124.784 103.987Z" fill="#C5594D"/>
<path d="M131.717 101.676C132.993 101.676 134.028 102.71 134.028 103.986C134.028 105.263 132.993 106.297 131.717 106.297C130.441 106.297 129.406 105.263 129.406 103.986C129.406 102.71 130.441 101.676 131.717 101.676Z" fill="#C5594D"/>
<path d="M143.271 106.297H147.893V101.676C145.341 101.676 143.271 103.745 143.271 106.297Z" fill="#C5594D"/>
<path d="M150.203 106.297C149.665 106.297 147.893 106.297 147.893 106.297C147.893 106.297 147.893 104.724 147.893 103.986C147.893 103.41 147.893 101.676 147.893 101.676C147.893 101.676 149.503 101.676 150.203 101.676C151.48 101.676 152.514 102.71 152.514 103.986C152.514 105.263 151.48 106.297 150.203 106.297Z" fill="#C5594D"/>
<path d="M161.758 103.987C161.758 104.525 161.758 106.297 161.758 106.297C161.758 106.297 160.185 106.297 159.448 106.297C158.871 106.297 157.137 106.297 157.137 106.297C157.137 106.297 157.137 104.687 157.137 103.987C157.137 102.71 158.171 101.676 159.447 101.676C160.724 101.676 161.758 102.71 161.758 103.987Z" fill="#C5594D"/>
<path d="M9.24414 108.608C9.24414 108.069 9.24414 106.297 9.24414 106.297C9.24414 106.297 10.8173 106.297 11.555 106.297C12.131 106.297 13.8658 106.297 13.8658 106.297C13.8658 106.297 13.8658 107.908 13.8658 108.608C13.8658 109.884 12.8311 110.919 11.555 110.919C10.2787 110.919 9.24414 109.884 9.24414 108.608Z" fill="#C5594D"/>
<path d="M32.3521 106.297H27.7305V110.919H32.3521V106.297Z" fill="#C5594D"/>
<path d="M34.6624 110.919C34.1238 110.919 32.3516 110.919 32.3516 110.919C32.3516 110.919 32.3516 109.346 32.3516 108.608C32.3516 108.032 32.3516 106.297 32.3516 106.297C32.3516 106.297 33.9623 106.297 34.6624 106.297C35.9385 106.297 36.9732 107.332 36.9732 108.608C36.9732 109.884 35.9385 110.919 34.6624 110.919Z" fill="#C5594D"/>
<path d="M43.9065 106.297C44.4451 106.297 46.2173 106.297 46.2173 106.297C46.2173 106.297 46.2173 107.87 46.2173 108.608C46.2173 109.184 46.2173 110.919 46.2173 110.919C46.2173 110.919 44.607 110.919 43.9065 110.919C42.6298 110.919 41.5957 109.884 41.5957 108.608C41.5957 107.332 42.6298 106.297 43.9065 106.297Z" fill="#C5594D"/>
<path d="M50.8384 106.297H46.2168V110.919C48.7692 110.919 50.8384 108.85 50.8384 106.297Z" fill="#C5594D"/>
<path d="M57.7717 106.297C59.048 106.297 60.0826 107.332 60.0826 108.608C60.0826 109.884 59.048 110.919 57.7717 110.919C56.4955 110.919 55.4609 109.884 55.4609 108.608C55.4609 107.332 56.4955 106.297 57.7717 106.297Z" fill="#C5594D"/>
<path d="M124.784 106.297H120.162V110.919H124.784V106.297Z" fill="#C5594D"/>
<path d="M147.893 106.297H143.271V110.919H147.893V106.297Z" fill="#C5594D"/>
<path d="M161.758 106.297H157.137V110.919H161.758V106.297Z" fill="#C5594D"/>
<path d="M23.1094 115.541H27.731V110.919C25.1786 110.919 23.1094 112.988 23.1094 115.541Z" fill="#C5594D"/>
<path d="M32.3521 110.919H27.7305V115.541H32.3521V110.919Z" fill="#C5594D"/>
<path d="M39.2854 110.919C40.5617 110.919 41.5962 111.954 41.5962 113.23C41.5962 114.506 40.5617 115.541 39.2854 115.541C38.0092 115.541 36.9746 114.506 36.9746 113.23C36.9746 111.954 38.0092 110.919 39.2854 110.919Z" fill="#C5594D"/>
<path d="M62.3928 110.919C63.6691 110.919 64.7037 111.954 64.7037 113.23C64.7037 114.506 63.6691 115.541 62.3928 115.541C61.1166 115.541 60.082 114.506 60.082 113.23C60.082 111.954 61.1166 110.919 62.3928 110.919Z" fill="#C5594D"/>
<path d="M71.637 110.919C72.1756 110.919 73.9478 110.919 73.9478 110.919C73.9478 110.919 73.9478 112.492 73.9478 113.23C73.9478 113.806 73.9478 115.541 73.9478 115.541C73.9478 115.541 72.3374 115.541 71.637 115.541C70.3603 115.541 69.3262 114.506 69.3262 113.23C69.3262 111.954 70.3603 110.919 71.637 110.919Z" fill="#C5594D"/>
<path d="M78.5689 110.919H73.9473V115.541H78.5689V110.919Z" fill="#C5594D"/>
<path d="M83.19 110.919H78.5684V115.541H83.19V110.919Z" fill="#C5594D"/>
<path d="M83.1895 110.919V115.541H87.8111C87.8111 112.988 85.7419 110.919 83.1895 110.919Z" fill="#C5594D"/>
<path d="M108.61 110.919C109.886 110.919 110.92 111.954 110.92 113.23C110.92 114.506 109.886 115.541 108.61 115.541C107.333 115.541 106.299 114.506 106.299 113.23C106.299 111.954 107.333 110.919 108.61 110.919Z" fill="#C5594D"/>
<path d="M117.852 110.919C118.39 110.919 120.163 110.919 120.163 110.919C120.163 110.919 120.163 112.492 120.163 113.23C120.163 113.806 120.163 115.541 120.163 115.541C120.163 115.541 118.552 115.541 117.852 115.541C116.575 115.541 115.541 114.506 115.541 113.23C115.541 111.954 116.575 110.919 117.852 110.919Z" fill="#C5594D"/>
<path d="M124.784 110.919H120.162V115.541C122.715 115.541 124.784 113.471 124.784 110.919Z" fill="#C5594D"/>
<path d="M131.717 110.919C132.256 110.919 134.028 110.919 134.028 110.919C134.028 110.919 134.028 112.492 134.028 113.23C134.028 113.806 134.028 115.541 134.028 115.541C134.028 115.541 132.418 115.541 131.717 115.541C130.44 115.541 129.406 114.506 129.406 113.23C129.406 111.954 130.44 110.919 131.717 110.919Z" fill="#C5594D"/>
<path d="M134.027 110.919V115.541H138.649C138.649 112.988 136.58 110.919 134.027 110.919Z" fill="#C5594D"/>
<path d="M147.893 110.919H143.271V115.541H147.893V110.919Z" fill="#C5594D"/>
<path d="M152.514 110.919H147.893V115.541H152.514V110.919Z" fill="#C5594D"/>
<path d="M157.135 110.919H152.514V115.541H157.135V110.919Z" fill="#C5594D"/>
<path d="M161.758 110.919H157.137V115.541C159.689 115.541 161.758 113.471 161.758 110.919Z" fill="#C5594D"/>
<path d="M16.176 115.541C16.7146 115.541 18.4869 115.541 18.4869 115.541C18.4869 115.541 18.4869 117.114 18.4869 117.851C18.4869 118.427 18.4869 120.162 18.4869 120.162C18.4869 120.162 16.8765 120.162 16.176 120.162C14.8994 120.162 13.8652 119.127 13.8652 117.851C13.8652 116.575 14.8994 115.541 16.176 115.541Z" fill="#C5594D"/>
<path d="M23.1099 115.541H18.4883V120.162H23.1099V115.541Z" fill="#C5594D"/>
<path d="M27.731 115.541H23.1094V120.162H27.731V115.541Z" fill="#C5594D"/>
<path d="M32.3521 115.541H27.7305V120.162H32.3521V115.541Z" fill="#C5594D"/>
<path d="M32.3516 115.541V120.162H36.9732C36.9732 117.61 34.904 115.541 32.3516 115.541Z" fill="#C5594D"/>
<path d="M46.2168 120.162H50.8384V115.541C48.286 115.541 46.2168 117.61 46.2168 120.162Z" fill="#C5594D"/>
<path d="M50.8379 115.541V120.162H55.4595C55.4595 117.61 53.3903 115.541 50.8379 115.541Z" fill="#C5594D"/>
<path d="M69.3247 117.851C69.3247 118.39 69.3247 120.162 69.3247 120.162C69.3247 120.162 67.7516 120.162 67.0139 120.162C66.4379 120.162 64.7031 120.162 64.7031 120.162C64.7031 120.162 64.7031 118.551 64.7031 117.851C64.7032 116.575 65.7377 115.541 67.0139 115.541C68.2901 115.541 69.3247 116.575 69.3247 117.851Z" fill="#C5594D"/>
<path d="M78.5689 120.162V115.541H73.9473C73.9473 118.093 76.0164 120.162 78.5689 120.162Z" fill="#C5594D"/>
<path d="M83.19 115.541H78.5684V120.162H83.19V115.541Z" fill="#C5594D"/>
<path d="M87.8111 115.541H83.1895V120.162H87.8111V115.541Z" fill="#C5594D"/>
<path d="M92.4341 115.541H87.8125V120.162H92.4341V115.541Z" fill="#C5594D"/>
<path d="M92.4336 115.541V120.162H97.0552C97.0552 117.61 94.986 115.541 92.4336 115.541Z" fill="#C5594D"/>
<path d="M103.987 115.541C105.263 115.541 106.297 116.575 106.297 117.851C106.297 119.128 105.263 120.162 103.987 120.162C102.71 120.162 101.676 119.128 101.676 117.851C101.676 116.575 102.71 115.541 103.987 115.541Z" fill="#C5594D"/>
<path d="M113.231 115.541C114.507 115.541 115.542 116.575 115.542 117.851C115.542 119.128 114.507 120.162 113.231 120.162C111.955 120.162 110.92 119.128 110.92 117.851C110.92 116.575 111.955 115.541 113.231 115.541Z" fill="#C5594D"/>
<path d="M129.407 117.851C129.407 118.39 129.407 120.162 129.407 120.162C129.407 120.162 127.834 120.162 127.096 120.162C126.52 120.162 124.785 120.162 124.785 120.162C124.785 120.162 124.785 118.551 124.785 117.851C124.785 116.575 125.82 115.541 127.096 115.541C128.372 115.541 129.407 116.575 129.407 117.851Z" fill="#C5594D"/>
<path d="M138.649 115.541H134.027V120.162H138.649V115.541Z" fill="#C5594D"/>
<path d="M143.271 117.851C143.271 117.313 143.271 115.541 143.271 115.541C143.271 115.541 144.845 115.541 145.582 115.541C146.158 115.541 147.893 115.541 147.893 115.541C147.893 115.541 147.893 117.151 147.893 117.851C147.893 119.127 146.858 120.162 145.582 120.162C144.306 120.162 143.271 119.127 143.271 117.851Z" fill="#C5594D"/>
<path d="M11.555 120.162C12.8312 120.162 13.8658 121.197 13.8658 122.473C13.8658 123.749 12.8312 124.784 11.555 124.784C10.2787 124.784 9.24414 123.749 9.24414 122.473C9.24414 121.197 10.2787 120.162 11.555 120.162Z" fill="#C5594D"/>
<path d="M23.1099 124.784V120.162H18.4883C18.4883 122.715 20.5574 124.784 23.1099 124.784Z" fill="#C5594D"/>
<path d="M27.731 120.162H23.1094V124.784H27.731V120.162Z" fill="#C5594D"/>
<path d="M32.3521 120.162H27.7305V124.784H32.3521V120.162Z" fill="#C5594D"/>
<path d="M36.9732 120.162H32.3516V124.784H36.9732V120.162Z" fill="#C5594D"/>
<path d="M41.5962 120.162H36.9746V124.784H41.5962V120.162Z" fill="#C5594D"/>
<path d="M46.2173 120.162H41.5957V124.784H46.2173V120.162Z" fill="#C5594D"/>
<path d="M50.8384 120.162H46.2168V124.784H50.8384V120.162Z" fill="#C5594D"/>
<path d="M55.4595 120.162H50.8379V124.784H55.4595V120.162Z" fill="#C5594D"/>
<path d="M57.7717 124.784C57.2331 124.784 55.4609 124.784 55.4609 124.784C55.4609 124.784 55.4609 123.21 55.4609 122.473C55.4609 121.897 55.4609 120.162 55.4609 120.162C55.4609 120.162 57.0717 120.162 57.7717 120.162C59.0479 120.162 60.0826 121.197 60.0826 122.473C60.0826 123.749 59.0479 124.784 57.7717 124.784Z" fill="#C5594D"/>
<path d="M69.3247 120.162H64.7031V124.784H69.3247V120.162Z" fill="#C5594D"/>
<path d="M83.19 120.162H78.5684V124.784H83.19V120.162Z" fill="#C5594D"/>
<path d="M87.8111 120.162H83.1895V124.784H87.8111V120.162Z" fill="#C5594D"/>
<path d="M92.4336 122.473C92.4336 121.934 92.4336 120.162 92.4336 120.162C92.4336 120.162 94.0068 120.162 94.7444 120.162C95.3205 120.162 97.0552 120.162 97.0552 120.162C97.0552 120.162 97.0552 121.773 97.0552 122.473C97.0552 123.749 96.0206 124.784 94.7444 124.784C93.4682 124.784 92.4336 123.749 92.4336 122.473Z" fill="#C5594D"/>
<path d="M110.92 122.473C110.92 123.011 110.92 124.784 110.92 124.784C110.92 124.784 109.347 124.784 108.61 124.784C108.034 124.784 106.299 124.784 106.299 124.784C106.299 124.784 106.299 123.173 106.299 122.473C106.299 121.197 107.333 120.162 108.61 120.162C109.886 120.162 110.92 121.197 110.92 122.473Z" fill="#C5594D"/>
<path d="M120.162 124.784H124.784V120.162C122.231 120.162 120.162 122.231 120.162 124.784Z" fill="#C5594D"/>
<path d="M129.407 120.162H124.785V124.784H129.407V120.162Z" fill="#C5594D"/>
<path d="M134.028 120.162H129.406V124.784H134.028V120.162Z" fill="#C5594D"/>
<path d="M138.649 120.162H134.027V124.784H138.649V120.162Z" fill="#C5594D"/>
<path d="M138.65 120.162V124.784H143.272C143.272 122.231 141.203 120.162 138.65 120.162Z" fill="#C5594D"/>
<path d="M159.448 120.162C160.724 120.162 161.758 121.197 161.758 122.473C161.758 123.749 160.724 124.784 159.448 124.784C158.171 124.784 157.137 123.749 157.137 122.473C157.137 121.197 158.171 120.162 159.448 120.162Z" fill="#C5594D"/>
<path d="M50.8384 124.784H46.2168V129.405H50.8384V124.784Z" fill="#C5594D"/>
<path d="M62.3928 124.784C62.9314 124.784 64.7037 124.784 64.7037 124.784C64.7037 124.784 64.7037 126.357 64.7037 127.095C64.7037 127.67 64.7037 129.405 64.7037 129.405C64.7037 129.405 63.0933 129.405 62.3928 129.405C61.1162 129.405 60.082 128.37 60.082 127.095C60.082 125.819 61.1162 124.784 62.3928 124.784Z" fill="#C5594D"/>
<path d="M69.3247 124.784H64.7031V129.405C67.2556 129.405 69.3247 127.336 69.3247 124.784Z" fill="#C5594D"/>
<path d="M83.19 129.405V124.784H78.5684C78.5684 127.336 80.6375 129.405 83.19 129.405Z" fill="#C5594D"/>
<path d="M87.8111 124.784H83.1895V129.405H87.8111V124.784Z" fill="#C5594D"/>
<path d="M90.1233 129.405C89.5847 129.405 87.8125 129.405 87.8125 129.405C87.8125 129.405 87.8125 127.832 87.8125 127.095C87.8125 126.518 87.8125 124.784 87.8125 124.784C87.8125 124.784 89.4232 124.784 90.1233 124.784C91.3995 124.784 92.4341 125.818 92.4341 127.095C92.4341 128.371 91.3995 129.405 90.1233 129.405Z" fill="#C5594D"/>
<path d="M99.3655 124.784C100.642 124.784 101.676 125.818 101.676 127.095C101.676 128.371 100.642 129.405 99.3655 129.405C98.0893 129.405 97.0547 128.371 97.0547 127.095C97.0547 125.818 98.0893 124.784 99.3655 124.784Z" fill="#C5594D"/>
<path d="M110.92 124.784H106.299V129.405H110.92V124.784Z" fill="#C5594D"/>
<path d="M115.541 129.405H120.163V124.784C117.61 124.784 115.541 126.853 115.541 129.405Z" fill="#C5594D"/>
<path d="M124.784 124.784H120.162V129.405H124.784V124.784Z" fill="#C5594D"/>
<path d="M143.272 124.784H138.65V129.405H143.272V124.784Z" fill="#C5594D"/>
<path d="M143.271 124.784V129.405H147.893C147.893 126.853 145.824 124.784 143.271 124.784Z" fill="#C5594D"/>
<path d="M154.824 124.784C156.101 124.784 157.135 125.818 157.135 127.095C157.135 128.371 156.101 129.405 154.824 129.405C153.548 129.405 152.514 128.371 152.514 127.095C152.514 125.818 153.548 124.784 154.824 124.784Z" fill="#C5594D"/>
<path d="M50.8384 134.027V129.405H46.2168C46.2168 131.958 48.2859 134.027 50.8384 134.027Z" fill="#C5594D"/>
<path d="M55.4595 129.405H50.8379V134.027H55.4595V129.405Z" fill="#C5594D"/>
<path d="M55.4609 129.405V134.027H60.0826C60.0826 131.474 58.0134 129.405 55.4609 129.405Z" fill="#C5594D"/>
<path d="M76.2581 129.405C77.5344 129.405 78.5689 130.44 78.5689 131.716C78.5689 132.992 77.5344 134.027 76.2581 134.027C74.9819 134.027 73.9473 132.992 73.9473 131.716C73.9473 130.44 74.9819 129.405 76.2581 129.405Z" fill="#C5594D"/>
<path d="M101.676 134.027H106.297V129.405C103.745 129.405 101.676 131.474 101.676 134.027Z" fill="#C5594D"/>
<path d="M110.92 129.405H106.299V134.027C108.851 134.027 110.92 131.958 110.92 129.405Z" fill="#C5594D"/>
<path d="M120.163 129.405H115.541V134.027H120.163V129.405Z" fill="#C5594D"/>
<path d="M124.784 129.405H120.162V134.027H124.784V129.405Z" fill="#C5594D"/>
<path d="M131.717 129.405C132.993 129.405 134.028 130.44 134.028 131.716C134.028 132.992 132.993 134.027 131.717 134.027C130.441 134.027 129.406 132.992 129.406 131.716C129.406 130.44 130.441 129.405 131.717 129.405Z" fill="#C5594D"/>
<path d="M143.272 129.405H138.65V134.027H143.272V129.405Z" fill="#C5594D"/>
<path d="M147.893 129.405H143.271V134.027H147.893V129.405Z" fill="#C5594D"/>
<path d="M55.4595 138.648V134.027H50.8379C50.8379 136.579 52.907 138.648 55.4595 138.648Z" fill="#C5594D"/>
<path d="M60.0826 134.027H55.4609V138.648H60.0826V134.027Z" fill="#C5594D"/>
<path d="M64.7037 134.027H60.082V138.648H64.7037V134.027Z" fill="#C5594D"/>
<path d="M69.3247 134.027H64.7031V138.648H69.3247V134.027Z" fill="#C5594D"/>
<path d="M69.3262 134.027V138.648H73.9478C73.9478 136.096 71.8786 134.027 69.3262 134.027Z" fill="#C5594D"/>
<path d="M85.5003 134.027C86.7765 134.027 87.8111 135.061 87.8111 136.338C87.8111 137.614 86.7765 138.648 85.5003 138.648C84.224 138.648 83.1895 137.614 83.1895 136.338C83.1895 135.061 84.224 134.027 85.5003 134.027Z" fill="#C5594D"/>
<path d="M99.3655 134.027C99.9041 134.027 101.676 134.027 101.676 134.027C101.676 134.027 101.676 135.6 101.676 136.338C101.676 136.914 101.676 138.648 101.676 138.648C101.676 138.648 100.066 138.648 99.3655 138.648C98.0888 138.648 97.0547 137.613 97.0547 136.338C97.0547 135.062 98.0888 134.027 99.3655 134.027Z" fill="#C5594D"/>
<path d="M106.297 134.027H101.676V138.648C104.228 138.648 106.297 136.579 106.297 134.027Z" fill="#C5594D"/>
<path d="M120.163 134.027H115.541V138.648H120.163V134.027Z" fill="#C5594D"/>
<path d="M124.784 134.027H120.162V138.648H124.784V134.027Z" fill="#C5594D"/>
<path d="M143.272 134.027H138.65V138.648H143.272V134.027Z" fill="#C5594D"/>
<path d="M147.893 134.027H143.271V138.648H147.893V134.027Z" fill="#C5594D"/>
<path d="M152.514 134.027H147.893V138.648H152.514V134.027Z" fill="#C5594D"/>
<path d="M157.135 134.027H152.514V138.648H157.135V134.027Z" fill="#C5594D"/>
<path d="M159.448 138.648C158.909 138.648 157.137 138.648 157.137 138.648C157.137 138.648 157.137 137.075 157.137 136.338C157.137 135.762 157.137 134.027 157.137 134.027C157.137 134.027 158.747 134.027 159.448 134.027C160.724 134.027 161.758 135.061 161.758 136.338C161.758 137.614 160.724 138.648 159.448 138.648Z" fill="#C5594D"/>
<path d="M60.0826 138.648H55.4609V143.27H60.0826V138.648Z" fill="#C5594D"/>
<path d="M64.7037 138.649H60.082V143.27H64.7037V138.649Z" fill="#C5594D"/>
<path d="M69.3247 138.648H64.7031V143.27H69.3247V138.648Z" fill="#C5594D"/>
<path d="M73.9478 138.648H69.3262V143.27H73.9478V138.648Z" fill="#C5594D"/>
<path d="M80.8792 138.649C82.1554 138.649 83.19 139.683 83.19 140.959C83.19 142.236 82.1554 143.27 80.8792 143.27C79.603 143.27 78.5684 142.236 78.5684 140.959C78.5684 139.683 79.603 138.649 80.8792 138.649Z" fill="#C5594D"/>
<path d="M87.8125 143.27H92.4341V138.648C89.8817 138.648 87.8125 140.718 87.8125 143.27Z" fill="#C5594D"/>
<path d="M92.4336 138.648V143.27H97.0552C97.0552 140.718 94.986 138.648 92.4336 138.648Z" fill="#C5594D"/>
<path d="M110.92 143.27H115.542V138.649C112.989 138.649 110.92 140.718 110.92 143.27Z" fill="#C5594D"/>
<path d="M120.163 138.648H115.541V143.27H120.163V138.648Z" fill="#C5594D"/>
<path d="M124.784 138.648H120.162V143.27H124.784V138.648Z" fill="#C5594D"/>
<path d="M129.407 138.648H124.785V143.27H129.407V138.648Z" fill="#C5594D"/>
<path d="M134.028 138.649H129.406V143.27H134.028V138.649Z" fill="#C5594D"/>
<path d="M138.649 138.648H134.027V143.27H138.649V138.648Z" fill="#C5594D"/>
<path d="M143.272 138.648H138.65V143.27H143.272V138.648Z" fill="#C5594D"/>
<path d="M147.893 138.648H143.271V143.27H147.893V138.648Z" fill="#C5594D"/>
<path d="M152.514 138.649H147.893V143.27H152.514V138.649Z" fill="#C5594D"/>
<path d="M157.135 138.648H152.514V143.27C155.066 143.27 157.135 141.201 157.135 138.648Z" fill="#C5594D"/>
<path d="M46.2168 147.892H50.8384V143.27C48.286 143.27 46.2168 145.339 46.2168 147.892Z" fill="#C5594D"/>
<path d="M55.4595 143.27H50.8379V147.892H55.4595V143.27Z" fill="#C5594D"/>
<path d="M60.0826 143.27H55.4609V147.892C58.0134 147.892 60.0826 145.822 60.0826 143.27Z" fill="#C5594D"/>
<path d="M69.3262 145.581C69.3262 145.042 69.3262 143.27 69.3262 143.27C69.3262 143.27 70.8994 143.27 71.637 143.27C72.2131 143.27 73.9478 143.27 73.9478 143.27C73.9478 143.27 73.9478 144.881 73.9478 145.581C73.9478 146.857 72.9131 147.892 71.637 147.892C70.3608 147.892 69.3262 146.857 69.3262 145.581Z" fill="#C5594D"/>
<path d="M92.4341 143.27H87.8125V147.892H92.4341V143.27Z" fill="#C5594D"/>
<path d="M97.0552 143.27H92.4336V147.892H97.0552V143.27Z" fill="#C5594D"/>
<path d="M101.676 143.27H97.0547V147.892H101.676V143.27Z" fill="#C5594D"/>
<path d="M106.297 143.27H101.676V147.892H106.297V143.27Z" fill="#C5594D"/>
<path d="M110.92 143.27H106.299V147.892H110.92V143.27Z" fill="#C5594D"/>
<path d="M115.542 143.27H110.92V147.892H115.542V143.27Z" fill="#C5594D"/>
<path d="M120.163 143.27H115.541V147.892H120.163V143.27Z" fill="#C5594D"/>
<path d="M124.784 143.27H120.162V147.892H124.784V143.27Z" fill="#C5594D"/>
<path d="M134.027 145.581C134.027 145.042 134.027 143.27 134.027 143.27C134.027 143.27 135.601 143.27 136.338 143.27C136.914 143.27 138.649 143.27 138.649 143.27C138.649 143.27 138.649 144.881 138.649 145.581C138.649 146.857 137.614 147.892 136.338 147.892C135.062 147.892 134.027 146.857 134.027 145.581Z" fill="#C5594D"/>
<path d="M147.893 147.892V143.27H143.271C143.271 145.822 145.341 147.892 147.893 147.892Z" fill="#C5594D"/>
<path d="M152.514 143.27H147.893V147.892C150.445 147.892 152.514 145.823 152.514 143.27Z" fill="#C5594D"/>
<path d="M50.8384 152.513V147.892H46.2168C46.2168 150.444 48.2859 152.513 50.8384 152.513Z" fill="#C5594D"/>
<path d="M55.4595 147.892H50.8379V152.513H55.4595V147.892Z" fill="#C5594D"/>
<path d="M69.3247 150.202C69.3247 150.741 69.3247 152.513 69.3247 152.513C69.3247 152.513 67.7516 152.513 67.0139 152.513C66.4379 152.513 64.7031 152.513 64.7031 152.513C64.7031 152.513 64.7031 150.903 64.7031 150.202C64.7032 148.926 65.7377 147.892 67.0139 147.892C68.2901 147.892 69.3247 148.926 69.3247 150.202Z" fill="#C5594D"/>
<path d="M76.2581 147.892C76.7967 147.892 78.5689 147.892 78.5689 147.892C78.5689 147.892 78.5689 149.465 78.5689 150.202C78.5689 150.778 78.5689 152.513 78.5689 152.513C78.5689 152.513 76.9585 152.513 76.2581 152.513C74.9814 152.513 73.9473 151.478 73.9473 150.202C73.9473 148.927 74.9814 147.892 76.2581 147.892Z" fill="#C5594D"/>
<path d="M83.19 147.892H78.5684V152.513H83.19V147.892Z" fill="#C5594D"/>
<path d="M87.8111 147.892H83.1895V152.513H87.8111V147.892Z" fill="#C5594D"/>
<path d="M92.4341 147.892H87.8125V152.513H92.4341V147.892Z" fill="#C5594D"/>
<path d="M110.92 152.513V147.892H106.299C106.299 150.444 108.368 152.513 110.92 152.513Z" fill="#C5594D"/>
<path d="M115.542 147.892H110.92V152.513C113.472 152.513 115.542 150.444 115.542 147.892Z" fill="#C5594D"/>
<path d="M124.784 147.892H120.162V152.513H124.784V147.892Z" fill="#C5594D"/>
<path d="M129.407 147.892H124.785V152.513H129.407V147.892Z" fill="#C5594D"/>
<path d="M131.717 152.513C131.178 152.513 129.406 152.513 129.406 152.513C129.406 152.513 129.406 150.94 129.406 150.203C129.406 149.627 129.406 147.892 129.406 147.892C129.406 147.892 131.017 147.892 131.717 147.892C132.993 147.892 134.028 148.926 134.028 150.203C134.028 151.479 132.993 152.513 131.717 152.513Z" fill="#C5594D"/>
<path d="M55.4595 152.514H50.8379V157.135H55.4595V152.514Z" fill="#C5594D"/>
<path d="M69.3247 157.135V152.514H64.7031C64.7031 155.066 66.7723 157.135 69.3247 157.135Z" fill="#C5594D"/>
<path d="M69.3262 152.514V157.135H73.9478C73.9478 154.583 71.8786 152.514 69.3262 152.514Z" fill="#C5594D"/>
<path d="M87.8111 152.514H83.1895V157.135H87.8111V152.514Z" fill="#C5594D"/>
<path d="M92.4341 152.514H87.8125V157.135H92.4341V152.514Z" fill="#C5594D"/>
<path d="M97.0552 152.514H92.4336V157.135H97.0552V152.514Z" fill="#C5594D"/>
<path d="M101.676 152.514H97.0547V157.135H101.676V152.514Z" fill="#C5594D"/>
<path d="M101.676 152.514V157.135H106.297C106.297 154.583 104.228 152.514 101.676 152.514Z" fill="#C5594D"/>
<path d="M124.784 157.135V152.514H120.162C120.162 155.066 122.231 157.135 124.784 157.135Z" fill="#C5594D"/>
<path d="M129.407 152.514H124.785V157.135C127.338 157.135 129.407 155.066 129.407 152.514Z" fill="#C5594D"/>
<path d="M150.203 152.513C151.48 152.513 152.514 153.548 152.514 154.824C152.514 156.101 151.48 157.135 150.203 157.135C148.927 157.135 147.893 156.101 147.893 154.824C147.893 153.548 148.927 152.513 150.203 152.513Z" fill="#C5594D"/>
<path d="M159.448 152.514C160.724 152.514 161.758 153.548 161.758 154.824C161.758 156.101 160.724 157.135 159.448 157.135C158.171 157.135 157.137 156.101 157.137 154.824C157.137 153.548 158.171 152.514 159.448 152.514Z" fill="#C5594D"/>
<path d="M50.8379 159.446C50.8379 158.907 50.8379 157.135 50.8379 157.135C50.8379 157.135 52.4111 157.135 53.1487 157.135C53.7248 157.135 55.4595 157.135 55.4595 157.135C55.4595 157.135 55.4595 158.746 55.4595 159.446C55.4595 160.722 54.4249 161.757 53.1487 161.757C51.8725 161.757 50.8379 160.722 50.8379 159.446Z" fill="#C5594D"/>
<path d="M69.3262 159.446C69.3262 158.907 69.3262 157.135 69.3262 157.135C69.3262 157.135 70.8994 157.135 71.637 157.135C72.2131 157.135 73.9478 157.135 73.9478 157.135C73.9478 157.135 73.9478 158.746 73.9478 159.446C73.9478 160.722 72.9131 161.757 71.637 161.757C70.3608 161.757 69.3262 160.722 69.3262 159.446Z" fill="#C5594D"/>
<path d="M87.8111 161.757V157.135H83.1895C83.1895 159.688 85.2586 161.757 87.8111 161.757Z" fill="#C5594D"/>
<path d="M92.4341 157.135H87.8125V161.757C90.3649 161.757 92.4341 159.688 92.4341 157.135Z" fill="#C5594D"/>
<path d="M101.676 161.757V157.135H97.0547C97.0547 159.688 99.1238 161.757 101.676 161.757Z" fill="#C5594D"/>
<path d="M106.297 157.135H101.676V161.757C104.228 161.757 106.297 159.688 106.297 157.135Z" fill="#C5594D"/>
<path d="M113.231 157.135C113.769 157.135 115.542 157.135 115.542 157.135C115.542 157.135 115.542 158.708 115.542 159.446C115.542 160.022 115.542 161.757 115.542 161.757C115.542 161.757 113.931 161.757 113.231 161.757C111.954 161.757 110.92 160.722 110.92 159.446C110.92 158.17 111.954 157.135 113.231 157.135Z" fill="#C5594D"/>
<path d="M117.852 161.757C117.313 161.757 115.541 161.757 115.541 161.757C115.541 161.757 115.541 160.184 115.541 159.446C115.541 158.87 115.541 157.135 115.541 157.135C115.541 157.135 117.152 157.135 117.852 157.135C119.128 157.135 120.163 158.17 120.163 159.446C120.163 160.722 119.128 161.757 117.852 161.757Z" fill="#C5594D"/>
<path d="M131.717 157.135C132.256 157.135 134.028 157.135 134.028 157.135C134.028 157.135 134.028 158.708 134.028 159.446C134.028 160.022 134.028 161.757 134.028 161.757C134.028 161.757 132.418 161.757 131.717 161.757C130.44 161.757 129.406 160.722 129.406 159.446C129.406 158.17 130.44 157.135 131.717 157.135Z" fill="#C5594D"/>
<path d="M138.649 157.135H134.027V161.757H138.649V157.135Z" fill="#C5594D"/>
<path d="M140.961 161.757C140.423 161.757 138.65 161.757 138.65 161.757C138.65 161.757 138.65 160.184 138.65 159.446C138.65 158.87 138.65 157.135 138.65 157.135C138.65 157.135 140.261 157.135 140.961 157.135C142.237 157.135 143.272 158.17 143.272 159.446C143.272 160.722 142.237 161.757 140.961 161.757Z" fill="#C5594D"/>
<path d="M25.4191 9.56055C16.661 9.56055 9.56055 16.661 9.56055 25.4191C9.56055 34.1771 16.661 41.2776 25.4191 41.2776C34.1771 41.2776 41.2776 34.1771 41.2776 25.4191C41.2776 16.661 34.1771 9.56055 25.4191 9.56055ZM25.4191 36.52C19.298 36.52 14.3181 31.5401 14.3181 25.4191C14.3181 19.298 19.298 14.3181 25.4191 14.3181C31.5401 14.3181 36.52 19.298 36.52 25.4191C36.52 31.5401 31.5401 36.52 25.4191 36.52Z" fill="#C5594D"/>
<path d="M145.581 9.56055C136.823 9.56055 129.723 16.661 129.723 25.4191C129.723 34.1771 136.823 41.2776 145.581 41.2776C154.339 41.2776 161.44 34.1771 161.44 25.4191C161.44 16.661 154.339 9.56055 145.581 9.56055ZM145.581 36.52C139.46 36.52 134.48 31.5401 134.48 25.4191C134.48 19.298 139.46 14.3181 145.581 14.3181C151.702 14.3181 156.682 19.298 156.682 25.4191C156.682 31.5401 151.702 36.52 145.581 36.52Z" fill="#C5594D"/>
<path d="M25.4191 129.723C16.661 129.723 9.56055 136.823 9.56055 145.581C9.56055 154.339 16.661 161.44 25.4191 161.44C34.1771 161.44 41.2776 154.339 41.2776 145.581C41.2776 136.823 34.1771 129.723 25.4191 129.723ZM25.4191 156.682C19.298 156.682 14.3181 151.702 14.3181 145.581C14.3181 139.46 19.298 134.48 25.4191 134.48C31.5401 134.48 36.52 139.46 36.52 145.581C36.52 151.702 31.5401 156.682 25.4191 156.682Z" fill="#C5594D"/>
<path d="M25.2848 32.0793C29.0384 32.0793 32.0813 29.0364 32.0813 25.2828C32.0813 21.5292 29.0384 18.4863 25.2848 18.4863C21.5312 18.4863 18.4883 21.5292 18.4883 25.2828C18.4883 29.0364 21.5312 32.0793 25.2848 32.0793Z" fill="black"/>
<path d="M145.447 32.0793C149.2 32.0793 152.243 29.0364 152.243 25.2828C152.243 21.5292 149.2 18.4863 145.447 18.4863C141.693 18.4863 138.65 21.5292 138.65 25.2828C138.65 29.0364 141.693 32.0793 145.447 32.0793Z" fill="black"/>
<path d="M25.2848 152.241C29.0384 152.241 32.0813 149.199 32.0813 145.445C32.0813 141.691 29.0384 138.648 25.2848 138.648C21.5312 138.648 18.4883 141.691 18.4883 145.445C18.4883 149.199 21.5312 152.241 25.2848 152.241Z" fill="black"/>
<g clip-path="url(#clip0_458_19294)">
<mask id="mask0_458_19294" style="mask-type:luminance" maskUnits="userSpaceOnUse" x="60" y="60" width="51" height="51">
<path d="M110.92 60.0811H60.082V110.919H110.92V60.0811Z" fill="white"/>
</mask>
<g mask="url(#mask0_458_19294)">
<path d="M85.5009 60.0811C80.4736 60.0811 75.5591 61.5718 71.379 64.3649C67.1988 67.158 63.9408 71.1279 62.0169 75.7726C60.093 80.4173 59.5897 85.5281 60.5705 90.459C61.5513 95.3897 63.9722 99.919 67.5271 103.474C71.082 107.029 75.6112 109.45 80.5419 110.431C85.4728 111.411 90.5837 110.908 95.2283 108.984C99.8731 107.06 103.843 103.802 106.636 99.6219C109.429 95.4418 110.92 90.5273 110.92 85.5C110.92 82.162 110.262 78.8566 108.985 75.7726C107.708 72.6886 105.835 69.8864 103.475 67.5261C101.114 65.1657 98.3123 63.2934 95.2283 62.016C92.1443 60.7385 88.8389 60.0811 85.5009 60.0811ZM93.5842 98.5958C93.4893 98.8332 93.3448 99.0477 93.1602 99.2246C92.9756 99.4016 92.7553 99.537 92.5139 99.6217C92.2727 99.7064 92.0161 99.7387 91.7614 99.716C91.5067 99.6935 91.2597 99.6165 91.0372 99.4905L84.1359 94.1271L79.708 98.2145C79.6052 98.2904 79.485 98.3392 79.3584 98.3565C79.2319 98.3738 79.103 98.3591 78.9836 98.3136L79.8325 90.7159L79.858 90.7388L79.8758 90.5888C79.8758 90.5888 92.2929 79.2824 92.7987 78.802C93.3121 78.3217 93.1419 78.2174 93.1419 78.2174C93.1724 77.6328 92.2243 78.2174 92.2243 78.2174L75.7706 88.8019L68.9202 86.4684C68.9202 86.4684 67.8679 86.0922 67.7687 85.2611C67.6645 84.4374 68.9533 83.9902 68.9533 83.9902L96.1947 73.1667C96.1947 73.1667 98.4341 72.1703 98.4341 73.8225L93.5842 98.5958Z" fill="#C5594D"/>
</g>
</g>
<defs>
<clipPath id="clip0_458_19294">
<rect width="50.8378" height="50.8378" fill="white" transform="translate(60.082 60.0811)"/>
</clipPath>
</defs>
</svg>
