<svg width="153" height="153" viewBox="0 0 153 153" fill="none" xmlns="http://www.w3.org/2000/svg">
<path d="M41.8379 4.86491H46.4595V0.243286C43.9071 0.243295 41.8379 2.31242 41.8379 4.86491Z" fill="white"/>
<path d="M46.4595 0.243286V4.86491H51.0811C51.0811 2.31241 49.0119 0.243286 46.4595 0.243286Z" fill="white"/>
<path d="M69.5674 4.86491H74.189V0.243286C71.6366 0.243295 69.5674 2.31242 69.5674 4.86491Z" fill="white"/>
<path d="M78.8106 0.243286H74.189V4.86491H78.8106V0.243286Z" fill="white"/>
<path d="M78.8105 0.243286V4.86491H83.4322C83.4322 2.31241 81.363 0.243286 78.8105 0.243286Z" fill="white"/>
<path d="M99.6082 0.243286C100.884 0.243286 101.919 1.27788 101.919 2.5541C101.919 3.83038 100.884 4.86491 99.6082 4.86491C98.332 4.86491 97.2974 3.83038 97.2974 2.5541C97.2974 1.27788 98.332 0.243286 99.6082 0.243286Z" fill="white"/>
<path d="M106.541 4.86491H111.162V0.243286C108.61 0.243295 106.541 2.31242 106.541 4.86491Z" fill="white"/>
<path d="M113.473 4.86491C112.934 4.86491 111.162 4.86491 111.162 4.86491C111.162 4.86491 111.162 3.29164 111.162 2.5541C111.162 1.97802 111.162 0.243286 111.162 0.243286C111.162 0.243286 112.773 0.243286 113.473 0.243286C114.749 0.243286 115.784 1.27787 115.784 2.5541C115.784 3.83026 114.749 4.86491 113.473 4.86491Z" fill="white"/>
<path d="M46.4595 9.48649V4.86487H41.8379C41.8379 7.41732 43.907 9.48649 46.4595 9.48649Z" fill="white"/>
<path d="M51.0811 4.86487H46.4595V9.48649H51.0811V4.86487Z" fill="white"/>
<path d="M53.3919 9.48649C52.8533 9.48649 51.0811 9.48649 51.0811 9.48649C51.0811 9.48649 51.0811 7.91323 51.0811 7.17568C51.0811 6.5996 51.0811 4.86487 51.0811 4.86487C51.0811 4.86487 52.6918 4.86487 53.3919 4.86487C54.668 4.86487 55.7027 5.89946 55.7027 7.17568C55.7027 8.45184 54.668 9.48649 53.3919 9.48649Z" fill="white"/>
<path d="M74.189 9.48649V4.86487H69.5674C69.5674 7.41732 71.6365 9.48649 74.189 9.48649Z" fill="white"/>
<path d="M78.8106 4.86487H74.189V9.48649H78.8106V4.86487Z" fill="white"/>
<path d="M83.4322 4.86487H78.8105V9.48649H83.4322V4.86487Z" fill="white"/>
<path d="M94.9866 4.86487C96.2629 4.86487 97.2974 5.89946 97.2974 7.17568C97.2974 8.45196 96.2629 9.48649 94.9866 9.48649C93.7104 9.48649 92.6758 8.45196 92.6758 7.17568C92.6758 5.89946 93.7104 4.86487 94.9866 4.86487Z" fill="white"/>
<path d="M111.162 4.86487H106.541V9.48649H111.162V4.86487Z" fill="white"/>
<path d="M83.4322 14.1082V9.48657H78.8105C78.8106 12.039 80.8797 14.1082 83.4322 14.1082Z" fill="white"/>
<path d="M88.0538 9.48657H83.4321V14.1082H88.0538V9.48657Z" fill="white"/>
<path d="M88.0542 9.48657V14.1082H92.6758C92.6758 11.5557 90.6066 9.48657 88.0542 9.48657Z" fill="white"/>
<path d="M111.162 9.48657H106.541V14.1082H111.162V9.48657Z" fill="white"/>
<path d="M60.3243 16.419C60.3243 16.9575 60.3243 18.7298 60.3243 18.7298C60.3243 18.7298 58.7511 18.7298 58.0134 18.7297C57.4374 18.7298 55.7026 18.7297 55.7026 18.7297C55.7026 18.7297 55.7026 17.1191 55.7026 16.4189C55.7027 15.1428 56.7372 14.1082 58.0134 14.1082C59.2896 14.1082 60.3243 15.1428 60.3243 16.419Z" fill="white"/>
<path d="M64.9458 18.7298H69.5674V14.1082C67.015 14.1082 64.9458 16.1773 64.9458 18.7298Z" fill="white"/>
<path d="M69.5674 14.1082V18.7298H74.189C74.189 16.1773 72.1198 14.1082 69.5674 14.1082Z" fill="white"/>
<path d="M88.0542 16.419C88.0542 15.8804 88.0542 14.1082 88.0542 14.1082C88.0542 14.1082 89.6274 14.1082 90.365 14.1082C90.9411 14.1082 92.6758 14.1082 92.6758 14.1082C92.6758 14.1082 92.6758 15.7189 92.6758 16.419C92.6758 17.6951 91.6412 18.7298 90.365 18.7298C89.0888 18.7298 88.0542 17.6951 88.0542 16.419Z" fill="white"/>
<path d="M104.23 14.1082C104.768 14.1082 106.541 14.1082 106.541 14.1082C106.541 14.1082 106.541 15.6812 106.541 16.419C106.541 16.9949 106.541 18.7298 106.541 18.7298C106.541 18.7298 104.93 18.7298 104.23 18.7298C102.953 18.7298 101.919 17.6947 101.919 16.419C101.919 15.1431 102.953 14.1082 104.23 14.1082Z" fill="white"/>
<path d="M111.162 14.1082H106.541V18.7298H111.162V14.1082Z" fill="white"/>
<path d="M111.162 14.1082V18.7298H115.784C115.784 16.1773 113.715 14.1082 111.162 14.1082Z" fill="white"/>
<path d="M39.5271 18.7297C40.0657 18.7297 41.8379 18.7297 41.8379 18.7297C41.8379 18.7297 41.8379 20.3028 41.8379 21.0405C41.8379 21.6164 41.8379 23.3514 41.8379 23.3514C41.8379 23.3514 40.2276 23.3514 39.5271 23.3514C38.2505 23.3514 37.2163 22.3163 37.2163 21.0405C37.2163 19.7646 38.2505 18.7297 39.5271 18.7297Z" fill="white"/>
<path d="M46.4595 18.7297H41.8379V23.3514H46.4595V18.7297Z" fill="white"/>
<path d="M51.0811 18.7297H46.4595V23.3514H51.0811V18.7297Z" fill="white"/>
<path d="M55.7027 18.7297H51.0811V23.3514H55.7027V18.7297Z" fill="white"/>
<path d="M60.3243 18.7297H55.7026V23.3514H60.3243V18.7297Z" fill="white"/>
<path d="M64.9458 18.7297H60.3242V23.3514H64.9458V18.7297Z" fill="white"/>
<path d="M69.5674 18.7297H64.9458V23.3514H69.5674V18.7297Z" fill="white"/>
<path d="M74.189 18.7297H69.5674V23.3514H74.189V18.7297Z" fill="white"/>
<path d="M74.189 18.7297V23.3514H78.8106C78.8106 20.7989 76.7414 18.7297 74.189 18.7297Z" fill="white"/>
<path d="M85.7429 18.7297C87.0192 18.7297 88.0538 19.7643 88.0538 21.0405C88.0538 22.3168 87.0192 23.3514 85.7429 23.3514C84.4667 23.3514 83.4321 22.3168 83.4321 21.0405C83.4321 19.7643 84.4667 18.7297 85.7429 18.7297Z" fill="white"/>
<path d="M94.9866 18.7297C96.2629 18.7297 97.2974 19.7643 97.2974 21.0405C97.2974 22.3168 96.2629 23.3514 94.9866 23.3514C93.7104 23.3514 92.6758 22.3168 92.6758 21.0405C92.6758 19.7643 93.7104 18.7297 94.9866 18.7297Z" fill="white"/>
<path d="M111.162 18.7297H106.541V23.3514H111.162V18.7297Z" fill="white"/>
<path d="M115.784 18.7297H111.162V23.3514C113.715 23.3514 115.784 21.2822 115.784 18.7297Z" fill="white"/>
<path d="M51.0811 23.3514H46.4595V27.9731H51.0811V23.3514Z" fill="white"/>
<path d="M55.7027 23.3514H51.0811V27.9731H55.7027V23.3514Z" fill="white"/>
<path d="M60.3243 23.3514H55.7026V27.9731H60.3243V23.3514Z" fill="white"/>
<path d="M64.9458 23.3514H60.3242V27.9731C62.8767 27.9731 64.9458 25.9039 64.9458 23.3514Z" fill="white"/>
<path d="M78.8106 23.3514H74.189V27.9731H78.8106V23.3514Z" fill="white"/>
<path d="M90.365 23.3514C91.6413 23.3514 92.6758 24.386 92.6758 25.6623C92.6758 26.9385 91.6413 27.9731 90.365 27.9731C89.0888 27.9731 88.0542 26.9385 88.0542 25.6623C88.0542 24.386 89.0888 23.3514 90.365 23.3514Z" fill="white"/>
<path d="M106.541 25.6623C106.541 25.1236 106.541 23.3514 106.541 23.3514C106.541 23.3514 108.114 23.3514 108.851 23.3514C109.427 23.3514 111.162 23.3514 111.162 23.3514C111.162 23.3514 111.162 24.9622 111.162 25.6623C111.162 26.9384 110.127 27.9731 108.851 27.9731C107.575 27.9731 106.541 26.9384 106.541 25.6623Z" fill="white"/>
<path d="M41.8379 30.2838C41.8379 30.8224 41.8379 32.5946 41.8379 32.5946C41.8379 32.5946 40.2648 32.5946 39.5271 32.5945C38.951 32.5946 37.2163 32.5945 37.2163 32.5945C37.2163 32.5945 37.2163 30.984 37.2163 30.2838C37.2164 29.0076 38.2509 27.973 39.5271 27.973C40.8033 27.973 41.8379 29.0076 41.8379 30.2838Z" fill="white"/>
<path d="M46.4595 30.2838C46.4595 29.7452 46.4595 27.973 46.4595 27.973C46.4595 27.973 48.0327 27.973 48.7703 27.973C49.3464 27.973 51.0811 27.973 51.0811 27.973C51.0811 27.973 51.0811 29.5838 51.0811 30.2838C51.0811 31.56 50.0464 32.5946 48.7703 32.5946C47.4941 32.5946 46.4595 31.56 46.4595 30.2838Z" fill="white"/>
<path d="M60.3243 27.973H55.7026V32.5946H60.3243V27.973Z" fill="white"/>
<path d="M67.2566 27.973C68.5329 27.973 69.5674 29.0076 69.5674 30.2838C69.5674 31.5601 68.5329 32.5946 67.2566 32.5946C65.9804 32.5946 64.9458 31.5601 64.9458 30.2838C64.9458 29.0076 65.9804 27.973 67.2566 27.973Z" fill="white"/>
<path d="M74.189 30.2838C74.189 29.7452 74.189 27.973 74.189 27.973C74.189 27.973 75.7622 27.973 76.4998 27.973C77.0759 27.973 78.8106 27.973 78.8106 27.973C78.8106 27.973 78.8106 29.5838 78.8106 30.2838C78.8106 31.56 77.7759 32.5946 76.4998 32.5946C75.2236 32.5946 74.189 31.56 74.189 30.2838Z" fill="white"/>
<path d="M88.0538 30.2838C88.0538 30.8224 88.0538 32.5946 88.0538 32.5946C88.0538 32.5946 86.4806 32.5946 85.7429 32.5945C85.1669 32.5946 83.4321 32.5945 83.4321 32.5945C83.4321 32.5945 83.4321 30.984 83.4321 30.2838C83.4322 29.0076 84.4667 27.973 85.7429 27.973C87.0191 27.973 88.0538 29.0076 88.0538 30.2838Z" fill="white"/>
<path d="M94.9866 27.973C96.2629 27.973 97.2974 29.0076 97.2974 30.2838C97.2974 31.5601 96.2629 32.5946 94.9866 32.5946C93.7104 32.5946 92.6758 31.5601 92.6758 30.2838C92.6758 29.0076 93.7104 27.973 94.9866 27.973Z" fill="white"/>
<path d="M106.541 30.2838C106.541 30.8224 106.541 32.5946 106.541 32.5946C106.541 32.5946 104.967 32.5946 104.23 32.5945C103.654 32.5946 101.919 32.5945 101.919 32.5945C101.919 32.5945 101.919 30.984 101.919 30.2838C101.919 29.0076 102.954 27.973 104.23 27.973C105.506 27.973 106.541 29.0076 106.541 30.2838Z" fill="white"/>
<path d="M115.784 30.2838C115.784 30.8224 115.784 32.5946 115.784 32.5946C115.784 32.5946 114.211 32.5946 113.473 32.5945C112.897 32.5946 111.162 32.5945 111.162 32.5945C111.162 32.5945 111.162 30.984 111.162 30.2838C111.162 29.0076 112.197 27.973 113.473 27.973C114.749 27.973 115.784 29.0076 115.784 30.2838Z" fill="white"/>
<path d="M41.8379 32.5946H37.2163V37.2162H41.8379V32.5946Z" fill="white"/>
<path d="M44.1487 37.2162C43.6101 37.2162 41.8379 37.2162 41.8379 37.2162C41.8379 37.2162 41.8379 35.643 41.8379 34.9054C41.8379 34.3293 41.8379 32.5946 41.8379 32.5946C41.8379 32.5946 43.4486 32.5946 44.1487 32.5946C45.4249 32.5946 46.4595 33.6292 46.4595 34.9054C46.4595 36.1816 45.4249 37.2162 44.1487 37.2162Z" fill="white"/>
<path d="M51.0811 37.2162H55.7027V32.5946C53.1503 32.5946 51.0811 34.6637 51.0811 37.2162Z" fill="white"/>
<path d="M60.3243 32.5946H55.7026V37.2162H60.3243V32.5946Z" fill="white"/>
<path d="M60.3242 32.5946V37.2162H64.9458C64.9458 34.6637 62.8767 32.5946 60.3242 32.5946Z" fill="white"/>
<path d="M88.0538 37.2162V32.5946H83.4321C83.4321 35.1471 85.5013 37.2162 88.0538 37.2162Z" fill="white"/>
<path d="M88.0542 32.5946V37.2162H92.6758C92.6758 34.6637 90.6066 32.5946 88.0542 32.5946Z" fill="white"/>
<path d="M101.919 34.9054C101.919 34.3668 101.919 32.5946 101.919 32.5946C101.919 32.5946 103.492 32.5946 104.23 32.5946C104.806 32.5946 106.541 32.5946 106.541 32.5946C106.541 32.5946 106.541 34.2053 106.541 34.9054C106.541 36.1816 105.506 37.2162 104.23 37.2162C102.954 37.2162 101.919 36.1816 101.919 34.9054Z" fill="white"/>
<path d="M115.784 32.5946H111.162V37.2162H115.784V32.5946Z" fill="white"/>
<path d="M11.7971 37.2163C12.3357 37.2163 14.1079 37.2163 14.1079 37.2163C14.1079 37.2163 14.1079 38.7893 14.1079 39.5271C14.1079 40.103 14.1079 41.8379 14.1079 41.8379C14.1079 41.8379 12.4976 41.8379 11.7971 41.8379C10.5205 41.8379 9.48633 40.8029 9.48633 39.5271C9.48633 38.2512 10.5205 37.2163 11.7971 37.2163Z" fill="white"/>
<path d="M14.1079 37.2163V41.8379H18.7295C18.7295 39.2854 16.6604 37.2163 14.1079 37.2163Z" fill="white"/>
<path d="M30.2835 37.2163C30.8221 37.2163 32.5943 37.2163 32.5943 37.2163C32.5943 37.2163 32.5943 38.7893 32.5943 39.5271C32.5943 40.103 32.5943 41.8379 32.5943 41.8379C32.5943 41.8379 30.9839 41.8379 30.2835 41.8379C29.0068 41.8379 27.9727 40.8029 27.9727 39.5271C27.9727 38.2512 29.0068 37.2163 30.2835 37.2163Z" fill="white"/>
<path d="M37.2163 37.2163H32.5947V41.8379H37.2163V37.2163Z" fill="white"/>
<path d="M41.8379 37.2163H37.2163V41.8379C39.7688 41.8379 41.8379 39.7688 41.8379 37.2163Z" fill="white"/>
<path d="M48.7703 37.2163C49.3089 37.2163 51.0811 37.2163 51.0811 37.2163C51.0811 37.2163 51.0811 38.7893 51.0811 39.5271C51.0811 40.103 51.0811 41.8379 51.0811 41.8379C51.0811 41.8379 49.4707 41.8379 48.7703 41.8379C47.4936 41.8379 46.4595 40.8029 46.4595 39.5271C46.4595 38.2512 47.4936 37.2163 48.7703 37.2163Z" fill="white"/>
<path d="M55.7027 37.2163H51.0811V41.8379C53.6335 41.8379 55.7027 39.7688 55.7027 37.2163Z" fill="white"/>
<path d="M64.9458 41.8379V37.2163H60.3242C60.3242 39.7688 62.3933 41.8379 64.9458 41.8379Z" fill="white"/>
<path d="M69.5674 37.2163H64.9458V41.8379H69.5674V37.2163Z" fill="white"/>
<path d="M74.189 37.2163H69.5674V41.8379H74.189V37.2163Z" fill="white"/>
<path d="M76.4998 41.8379C75.9612 41.8379 74.189 41.8379 74.189 41.8379C74.189 41.8379 74.189 40.2647 74.189 39.5271C74.189 38.951 74.189 37.2163 74.189 37.2163C74.189 37.2163 75.7997 37.2163 76.4998 37.2163C77.7759 37.2163 78.8106 38.2509 78.8106 39.5271C78.8106 40.8033 77.7759 41.8379 76.4998 41.8379Z" fill="white"/>
<path d="M88.0542 39.5271C88.0542 38.9885 88.0542 37.2163 88.0542 37.2163C88.0542 37.2163 89.6274 37.2163 90.365 37.2163C90.9411 37.2163 92.6758 37.2163 92.6758 37.2163C92.6758 37.2163 92.6758 38.827 92.6758 39.5271C92.6758 40.8033 91.6412 41.8379 90.365 41.8379C89.0888 41.8379 88.0542 40.8033 88.0542 39.5271Z" fill="white"/>
<path d="M101.919 39.5271C101.919 40.0657 101.919 41.8379 101.919 41.8379C101.919 41.8379 100.346 41.8379 99.6082 41.8378C99.0321 41.8379 97.2974 41.8378 97.2974 41.8378C97.2974 41.8378 97.2974 40.2273 97.2974 39.5271C97.2974 38.2509 98.332 37.2163 99.6081 37.2163C100.884 37.2163 101.919 38.2509 101.919 39.5271Z" fill="white"/>
<path d="M106.541 41.8379H111.162V37.2163C108.61 37.2163 106.541 39.2854 106.541 41.8379Z" fill="white"/>
<path d="M115.784 37.2163H111.162V41.8379H115.784V37.2163Z" fill="white"/>
<path d="M120.405 37.2163H115.784V41.8379H120.405V37.2163Z" fill="white"/>
<path d="M120.405 37.2163V41.8379H125.027C125.027 39.2854 122.958 37.2163 120.405 37.2163Z" fill="white"/>
<path d="M131.959 37.2163C133.236 37.2163 134.27 38.2509 134.27 39.5271C134.27 40.8034 133.236 41.8379 131.959 41.8379C130.683 41.8379 129.648 40.8034 129.648 39.5271C129.648 38.2509 130.683 37.2163 131.959 37.2163Z" fill="white"/>
<path d="M4.86479 44.1487C4.86479 44.6873 4.86479 46.4595 4.86479 46.4595C4.86479 46.4595 3.29164 46.4595 2.55397 46.4594C1.9779 46.4595 0.243164 46.4594 0.243164 46.4594C0.243164 46.4594 0.243164 44.8488 0.243164 44.1486C0.24322 42.8725 1.27775 41.8379 2.55392 41.8379C3.83013 41.8379 4.86479 42.8725 4.86479 44.1487Z" fill="white"/>
<path d="M18.7295 46.4595V41.8379H14.1079C14.1079 44.3903 16.177 46.4595 18.7295 46.4595Z" fill="white"/>
<path d="M23.3511 41.8379H18.7295V46.4595H23.3511V41.8379Z" fill="white"/>
<path d="M25.6619 46.4595C25.1233 46.4595 23.3511 46.4595 23.3511 46.4595C23.3511 46.4595 23.3511 44.8862 23.3511 44.1487C23.3511 43.5726 23.3511 41.8379 23.3511 41.8379C23.3511 41.8379 24.9618 41.8379 25.6619 41.8379C26.938 41.8379 27.9727 42.8725 27.9727 44.1487C27.9727 45.4249 26.938 46.4595 25.6619 46.4595Z" fill="white"/>
<path d="M69.5674 46.4595V41.8379H64.9458C64.9458 44.3903 67.0149 46.4595 69.5674 46.4595Z" fill="white"/>
<path d="M74.189 41.8379H69.5674V46.4595C72.1198 46.4595 74.189 44.3903 74.189 41.8379Z" fill="white"/>
<path d="M78.8105 46.4595H83.4322V41.8379C80.8797 41.8379 78.8105 43.907 78.8105 46.4595Z" fill="white"/>
<path d="M85.7429 46.4595C85.2043 46.4595 83.4321 46.4595 83.4321 46.4595C83.4321 46.4595 83.4321 44.8862 83.4321 44.1487C83.4321 43.5726 83.4321 41.8379 83.4321 41.8379C83.4321 41.8379 85.0429 41.8379 85.7429 41.8379C87.0191 41.8379 88.0538 42.8725 88.0538 44.1487C88.0538 45.4249 87.0191 46.4595 85.7429 46.4595Z" fill="white"/>
<path d="M94.9866 41.8379C95.5252 41.8379 97.2974 41.8379 97.2974 41.8379C97.2974 41.8379 97.2974 43.4109 97.2974 44.1487C97.2974 44.7246 97.2974 46.4595 97.2974 46.4595C97.2974 46.4595 95.6871 46.4595 94.9866 46.4595C93.7099 46.4595 92.6758 45.4245 92.6758 44.1487C92.6758 42.8728 93.7099 41.8379 94.9866 41.8379Z" fill="white"/>
<path d="M101.919 41.8379H97.2974V46.4595C99.8498 46.4595 101.919 44.3903 101.919 41.8379Z" fill="white"/>
<path d="M111.162 41.8379H106.541V46.4595H111.162V41.8379Z" fill="white"/>
<path d="M120.405 41.8379H115.784V46.4595H120.405V41.8379Z" fill="white"/>
<path d="M125.027 41.8379H120.405V46.4595H125.027V41.8379Z" fill="white"/>
<path d="M136.581 41.8379C137.857 41.8379 138.892 42.8725 138.892 44.1487C138.892 45.425 137.857 46.4595 136.581 46.4595C135.305 46.4595 134.27 45.425 134.27 44.1487C134.27 42.8725 135.305 41.8379 136.581 41.8379Z" fill="white"/>
<path d="M152.757 44.1487C152.757 44.6873 152.757 46.4595 152.757 46.4595C152.757 46.4595 151.184 46.4595 150.446 46.4594C149.87 46.4595 148.135 46.4594 148.135 46.4594C148.135 46.4594 148.135 44.8488 148.135 44.1486C148.135 42.8725 149.17 41.8379 150.446 41.8379C151.722 41.8379 152.757 42.8725 152.757 44.1487Z" fill="white"/>
<path d="M0.243164 48.7703C0.243164 48.2317 0.243164 46.4595 0.243164 46.4595C0.243164 46.4595 1.81637 46.4595 2.55397 46.4595C3.13005 46.4595 4.86479 46.4595 4.86479 46.4595C4.86479 46.4595 4.86479 48.0702 4.86479 48.7703C4.86479 50.0464 3.83013 51.0811 2.55397 51.0811C1.27775 51.0811 0.243164 50.0464 0.243164 48.7703Z" fill="white"/>
<path d="M23.3511 46.4595H18.7295V51.0811H23.3511V46.4595Z" fill="white"/>
<path d="M30.2835 46.4595C31.5597 46.4595 32.5943 47.4941 32.5943 48.7703C32.5943 50.0466 31.5597 51.0811 30.2835 51.0811C29.0073 51.0811 27.9727 50.0466 27.9727 48.7703C27.9727 47.4941 29.0073 46.4595 30.2835 46.4595Z" fill="white"/>
<path d="M41.8379 51.0811H46.4595V46.4595C43.9071 46.4595 41.8379 48.5286 41.8379 51.0811Z" fill="white"/>
<path d="M51.0811 46.4595H46.4595V51.0811H51.0811V46.4595Z" fill="white"/>
<path d="M53.3919 51.0811C52.8533 51.0811 51.0811 51.0811 51.0811 51.0811C51.0811 51.0811 51.0811 49.5078 51.0811 48.7703C51.0811 48.1942 51.0811 46.4595 51.0811 46.4595C51.0811 46.4595 52.6918 46.4595 53.3919 46.4595C54.668 46.4595 55.7027 47.4941 55.7027 48.7703C55.7027 50.0464 54.668 51.0811 53.3919 51.0811Z" fill="white"/>
<path d="M78.8105 48.7703C78.8105 48.2317 78.8105 46.4595 78.8105 46.4595C78.8105 46.4595 80.3838 46.4595 81.1214 46.4595C81.6974 46.4595 83.4322 46.4595 83.4322 46.4595C83.4322 46.4595 83.4322 48.0702 83.4322 48.7703C83.4322 50.0464 82.3975 51.0811 81.1214 51.0811C79.8451 51.0811 78.8105 50.0464 78.8105 48.7703Z" fill="white"/>
<path d="M106.541 48.7703C106.541 48.2317 106.541 46.4595 106.541 46.4595C106.541 46.4595 108.114 46.4595 108.851 46.4595C109.427 46.4595 111.162 46.4595 111.162 46.4595C111.162 46.4595 111.162 48.0702 111.162 48.7703C111.162 50.0464 110.127 51.0811 108.851 51.0811C107.575 51.0811 106.541 50.0464 106.541 48.7703Z" fill="white"/>
<path d="M120.405 51.0811V46.4595H115.784C115.784 49.0119 117.853 51.0811 120.405 51.0811Z" fill="white"/>
<path d="M125.027 46.4595H120.405V51.0811C122.958 51.0811 125.027 49.0119 125.027 46.4595Z" fill="white"/>
<path d="M148.135 48.7703C148.135 48.2317 148.135 46.4595 148.135 46.4595C148.135 46.4595 149.708 46.4595 150.446 46.4595C151.022 46.4595 152.757 46.4595 152.757 46.4595C152.757 46.4595 152.757 48.0702 152.757 48.7703C152.757 50.0464 151.722 51.0811 150.446 51.0811C149.17 51.0811 148.135 50.0464 148.135 48.7703Z" fill="white"/>
<path d="M4.86475 55.7028H9.48637V51.0812C6.93395 51.0812 4.86475 53.1503 4.86475 55.7028Z" fill="white"/>
<path d="M11.7971 55.7028C11.2585 55.7028 9.48633 55.7028 9.48633 55.7028C9.48633 55.7028 9.48633 54.1295 9.48633 53.392C9.48633 52.8159 9.48633 51.0812 9.48633 51.0812C9.48633 51.0812 11.0971 51.0812 11.7971 51.0812C13.0733 51.0812 14.1079 52.1158 14.1079 53.392C14.1079 54.6681 13.0733 55.7028 11.7971 55.7028Z" fill="white"/>
<path d="M23.3511 55.7028V51.0812H18.7295C18.7295 53.6336 20.7986 55.7028 23.3511 55.7028Z" fill="white"/>
<path d="M23.3511 51.0812V55.7028H27.9727C27.9727 53.1503 25.9035 51.0812 23.3511 51.0812Z" fill="white"/>
<path d="M39.5271 51.0812C40.0657 51.0812 41.8379 51.0812 41.8379 51.0812C41.8379 51.0812 41.8379 52.6542 41.8379 53.392C41.8379 53.9679 41.8379 55.7028 41.8379 55.7028C41.8379 55.7028 40.2276 55.7028 39.5271 55.7028C38.2505 55.7028 37.2163 54.6677 37.2163 53.392C37.2163 52.1161 38.2505 51.0812 39.5271 51.0812Z" fill="white"/>
<path d="M46.4595 51.0812H41.8379V55.7028H46.4595V51.0812Z" fill="white"/>
<path d="M51.0811 51.0812H46.4595V55.7028H51.0811V51.0812Z" fill="white"/>
<path d="M115.784 53.392C115.784 53.9306 115.784 55.7028 115.784 55.7028C115.784 55.7028 114.211 55.7028 113.473 55.7027C112.897 55.7028 111.162 55.7027 111.162 55.7027C111.162 55.7027 111.162 54.0921 111.162 53.3919C111.162 52.1158 112.197 51.0812 113.473 51.0812C114.749 51.0812 115.784 52.1158 115.784 53.392Z" fill="white"/>
<path d="M127.338 51.0812C127.876 51.0812 129.648 51.0812 129.648 51.0812C129.648 51.0812 129.648 52.6542 129.648 53.392C129.648 53.9679 129.648 55.7028 129.648 55.7028C129.648 55.7028 128.038 55.7028 127.338 55.7028C126.061 55.7028 125.027 54.6677 125.027 53.392C125.027 52.1161 126.061 51.0812 127.338 51.0812Z" fill="white"/>
<path d="M134.27 51.0812H129.648V55.7028H134.27V51.0812Z" fill="white"/>
<path d="M136.581 55.7028C136.042 55.7028 134.27 55.7028 134.27 55.7028C134.27 55.7028 134.27 54.1295 134.27 53.392C134.27 52.8159 134.27 51.0812 134.27 51.0812C134.27 51.0812 135.881 51.0812 136.581 51.0812C137.857 51.0812 138.892 52.1158 138.892 53.392C138.892 54.6681 137.857 55.7028 136.581 55.7028Z" fill="white"/>
<path d="M148.135 53.392C148.135 53.9306 148.135 55.7028 148.135 55.7028C148.135 55.7028 146.562 55.7028 145.824 55.7027C145.248 55.7028 143.514 55.7027 143.514 55.7027C143.514 55.7027 143.514 54.0921 143.514 53.3919C143.514 52.1158 144.548 51.0812 145.824 51.0812C147.101 51.0812 148.135 52.1158 148.135 53.392Z" fill="white"/>
<path d="M0.243164 60.3244H4.86479V55.7028C2.31237 55.7028 0.243164 57.7719 0.243164 60.3244Z" fill="white"/>
<path d="M9.48637 55.7028H4.86475V60.3244C7.41719 60.3244 9.48637 58.2552 9.48637 55.7028Z" fill="white"/>
<path d="M27.9727 55.7028H23.3511V60.3244H27.9727V55.7028Z" fill="white"/>
<path d="M32.5943 55.7028H27.9727V60.3244H32.5943V55.7028Z" fill="white"/>
<path d="M32.5947 55.7028V60.3244H37.2163C37.2163 57.7719 35.1472 55.7028 32.5947 55.7028Z" fill="white"/>
<path d="M46.4595 55.7028H41.8379V60.3244H46.4595V55.7028Z" fill="white"/>
<path d="M51.0811 55.7028H46.4595V60.3244H51.0811V55.7028Z" fill="white"/>
<path d="M108.851 55.7028C109.39 55.7028 111.162 55.7028 111.162 55.7028C111.162 55.7028 111.162 57.2758 111.162 58.0136C111.162 58.5895 111.162 60.3244 111.162 60.3244C111.162 60.3244 109.552 60.3244 108.851 60.3244C107.575 60.3244 106.541 59.2893 106.541 58.0136C106.541 56.7377 107.575 55.7028 108.851 55.7028Z" fill="white"/>
<path d="M115.784 55.7028H111.162V60.3244H115.784V55.7028Z" fill="white"/>
<path d="M143.514 58.0136C143.514 57.475 143.514 55.7028 143.514 55.7028C143.514 55.7028 145.087 55.7028 145.824 55.7028C146.401 55.7028 148.135 55.7028 148.135 55.7028C148.135 55.7028 148.135 57.3135 148.135 58.0136C148.135 59.2897 147.101 60.3244 145.824 60.3244C144.548 60.3244 143.514 59.2897 143.514 58.0136Z" fill="white"/>
<path d="M4.86479 60.3243H0.243164V64.946H4.86479V60.3243Z" fill="white"/>
<path d="M14.1079 64.946H18.7295V60.3243C16.1771 60.3244 14.1079 62.3935 14.1079 64.946Z" fill="white"/>
<path d="M23.3511 60.3243H18.7295V64.946H23.3511V60.3243Z" fill="white"/>
<path d="M27.9727 60.3243H23.3511V64.946H27.9727V60.3243Z" fill="white"/>
<path d="M37.2163 60.3243H32.5947V64.946H37.2163V60.3243Z" fill="white"/>
<path d="M41.8379 60.3243H37.2163V64.946H41.8379V60.3243Z" fill="white"/>
<path d="M46.4595 60.3243H41.8379V64.946H46.4595V60.3243Z" fill="white"/>
<path d="M51.0811 60.3243H46.4595V64.946C49.0119 64.946 51.0811 62.8768 51.0811 60.3243Z" fill="white"/>
<path d="M104.23 60.3243C105.506 60.3243 106.541 61.3589 106.541 62.6352C106.541 63.9114 105.506 64.946 104.23 64.946C102.954 64.946 101.919 63.9114 101.919 62.6352C101.919 61.3589 102.954 60.3243 104.23 60.3243Z" fill="white"/>
<path d="M115.784 60.3243H111.162V64.946H115.784V60.3243Z" fill="white"/>
<path d="M138.892 62.6352C138.892 63.1737 138.892 64.946 138.892 64.946C138.892 64.946 137.318 64.946 136.581 64.9459C136.005 64.946 134.27 64.9459 134.27 64.9459C134.27 64.9459 134.27 63.3353 134.27 62.6351C134.27 61.3589 135.305 60.3243 136.581 60.3243C137.857 60.3243 138.892 61.3589 138.892 62.6352Z" fill="white"/>
<path d="M4.86479 69.5677V64.946H0.243164C0.243173 67.4985 2.31229 69.5677 4.86479 69.5677Z" fill="white"/>
<path d="M9.48637 64.946H4.86475V69.5677H9.48637V64.946Z" fill="white"/>
<path d="M14.1079 64.946H9.48633V69.5677H14.1079V64.946Z" fill="white"/>
<path d="M18.7295 64.946H14.1079V69.5677C16.6604 69.5677 18.7295 67.4985 18.7295 64.946Z" fill="white"/>
<path d="M27.9727 69.5677V64.946H23.3511C23.3511 67.4985 25.4202 69.5677 27.9727 69.5677Z" fill="white"/>
<path d="M32.5943 64.946H27.9727V69.5677H32.5943V64.946Z" fill="white"/>
<path d="M37.2163 64.946H32.5947V69.5677H37.2163V64.946Z" fill="white"/>
<path d="M41.8379 64.946H37.2163V69.5677H41.8379V64.946Z" fill="white"/>
<path d="M46.4595 64.946H41.8379V69.5677C44.3903 69.5677 46.4595 67.4985 46.4595 64.946Z" fill="white"/>
<path d="M115.784 64.946H111.162V69.5677H115.784V64.946Z" fill="white"/>
<path d="M120.405 69.5677H125.027V64.946C122.474 64.9461 120.405 67.0152 120.405 69.5677Z" fill="white"/>
<path d="M129.648 64.946H125.027V69.5677H129.648V64.946Z" fill="white"/>
<path d="M134.27 64.946H129.648V69.5677H134.27V64.946Z" fill="white"/>
<path d="M138.892 64.946H134.27V69.5677C136.822 69.5677 138.892 67.4985 138.892 64.946Z" fill="white"/>
<path d="M4.86475 71.8784C4.86475 71.3398 4.86475 69.5676 4.86475 69.5676C4.86475 69.5676 6.43796 69.5676 7.17556 69.5676C7.75163 69.5676 9.48637 69.5676 9.48637 69.5676C9.48637 69.5676 9.48637 71.1784 9.48637 71.8784C9.48637 73.1546 8.45172 74.1892 7.17556 74.1892C5.89933 74.1892 4.86475 73.1546 4.86475 71.8784Z" fill="white"/>
<path d="M21.0403 69.5676C22.3166 69.5676 23.3511 70.6022 23.3511 71.8784C23.3511 73.1547 22.3166 74.1892 21.0403 74.1892C19.7641 74.1892 18.7295 73.1547 18.7295 71.8784C18.7295 70.6022 19.7641 69.5676 21.0403 69.5676Z" fill="white"/>
<path d="M37.2163 69.5676H32.5947V74.1892H37.2163V69.5676Z" fill="white"/>
<path d="M48.7703 69.5676C50.0466 69.5676 51.0811 70.6022 51.0811 71.8784C51.0811 73.1547 50.0466 74.1892 48.7703 74.1892C47.4941 74.1892 46.4595 73.1547 46.4595 71.8784C46.4595 70.6022 47.4941 69.5676 48.7703 69.5676Z" fill="white"/>
<path d="M104.23 69.5676C105.506 69.5676 106.541 70.6022 106.541 71.8784C106.541 73.1547 105.506 74.1892 104.23 74.1892C102.954 74.1892 101.919 73.1547 101.919 71.8784C101.919 70.6022 102.954 69.5676 104.23 69.5676Z" fill="white"/>
<path d="M115.784 69.5676H111.162V74.1892H115.784V69.5676Z" fill="white"/>
<path d="M120.405 69.5676H115.784V74.1892H120.405V69.5676Z" fill="white"/>
<path d="M125.027 69.5676H120.405V74.1892H125.027V69.5676Z" fill="white"/>
<path d="M129.648 69.5676H125.027V74.1892H129.648V69.5676Z" fill="white"/>
<path d="M141.202 69.5676C141.741 69.5676 143.513 69.5676 143.513 69.5676C143.513 69.5676 143.513 71.1407 143.513 71.8784C143.513 72.4543 143.513 74.1892 143.513 74.1892C143.513 74.1892 141.903 74.1892 141.202 74.1892C139.926 74.1892 138.892 73.1542 138.892 71.8784C138.892 70.6025 139.926 69.5676 141.202 69.5676Z" fill="white"/>
<path d="M145.824 74.1892C145.286 74.1892 143.514 74.1892 143.514 74.1892C143.514 74.1892 143.514 72.616 143.514 71.8784C143.514 71.3024 143.514 69.5676 143.514 69.5676C143.514 69.5676 145.124 69.5676 145.824 69.5676C147.101 69.5676 148.135 70.6022 148.135 71.8784C148.135 73.1546 147.101 74.1892 145.824 74.1892Z" fill="white"/>
<path d="M2.55397 74.1892C3.83025 74.1892 4.86479 75.2238 4.86479 76.5C4.86479 77.7763 3.83025 78.8108 2.55397 78.8108C1.27776 78.8108 0.243164 77.7763 0.243164 76.5C0.243164 75.2238 1.27776 74.1892 2.55397 74.1892Z" fill="white"/>
<path d="M30.2835 74.1892C30.8221 74.1892 32.5943 74.1892 32.5943 74.1892C32.5943 74.1892 32.5943 75.7622 32.5943 76.5C32.5943 77.0759 32.5943 78.8108 32.5943 78.8108C32.5943 78.8108 30.9839 78.8108 30.2835 78.8108C29.0068 78.8108 27.9727 77.7758 27.9727 76.5C27.9727 75.2241 29.0068 74.1892 30.2835 74.1892Z" fill="white"/>
<path d="M37.2163 74.1892H32.5947V78.8108H37.2163V74.1892Z" fill="white"/>
<path d="M41.8379 74.1892H37.2163V78.8108H41.8379V74.1892Z" fill="white"/>
<path d="M44.1487 78.8108C43.6101 78.8108 41.8379 78.8108 41.8379 78.8108C41.8379 78.8108 41.8379 77.2376 41.8379 76.5C41.8379 75.9239 41.8379 74.1892 41.8379 74.1892C41.8379 74.1892 43.4486 74.1892 44.1487 74.1892C45.4249 74.1892 46.4595 75.2238 46.4595 76.5C46.4595 77.7762 45.4249 78.8108 44.1487 78.8108Z" fill="white"/>
<path d="M115.784 78.8108V74.1892H111.162C111.162 76.7417 113.231 78.8108 115.784 78.8108Z" fill="white"/>
<path d="M120.405 74.1892H115.784V78.8108H120.405V74.1892Z" fill="white"/>
<path d="M125.027 74.1892H120.405V78.8108H125.027V74.1892Z" fill="white"/>
<path d="M129.648 74.1892H125.027V78.8108H129.648V74.1892Z" fill="white"/>
<path d="M9.48637 81.1216C9.48637 81.6602 9.48637 83.4324 9.48637 83.4324C9.48637 83.4324 7.91322 83.4324 7.17556 83.4323C6.59948 83.4324 4.86475 83.4323 4.86475 83.4323C4.86475 83.4323 4.86475 81.8217 4.86475 81.1215C4.8648 79.8454 5.89933 78.8108 7.1755 78.8108C8.45172 78.8108 9.48637 79.8454 9.48637 81.1216Z" fill="white"/>
<path d="M25.6619 78.8108C26.9382 78.8108 27.9727 79.8454 27.9727 81.1216C27.9727 82.3979 26.9382 83.4324 25.6619 83.4324C24.3857 83.4324 23.3511 82.3979 23.3511 81.1216C23.3511 79.8454 24.3857 78.8108 25.6619 78.8108Z" fill="white"/>
<path d="M32.5947 81.1216C32.5947 80.583 32.5947 78.8108 32.5947 78.8108C32.5947 78.8108 34.1679 78.8108 34.9055 78.8108C35.4816 78.8108 37.2163 78.8108 37.2163 78.8108C37.2163 78.8108 37.2163 80.4215 37.2163 81.1216C37.2163 82.3978 36.1817 83.4324 34.9055 83.4324C33.6293 83.4324 32.5947 82.3978 32.5947 81.1216Z" fill="white"/>
<path d="M104.23 78.8108C104.768 78.8108 106.541 78.8108 106.541 78.8108C106.541 78.8108 106.541 80.3838 106.541 81.1216C106.541 81.6975 106.541 83.4324 106.541 83.4324C106.541 83.4324 104.93 83.4324 104.23 83.4324C102.953 83.4324 101.919 82.3974 101.919 81.1216C101.919 79.8457 102.953 78.8108 104.23 78.8108Z" fill="white"/>
<path d="M108.851 83.4324C108.313 83.4324 106.541 83.4324 106.541 83.4324C106.541 83.4324 106.541 81.8591 106.541 81.1216C106.541 80.5455 106.541 78.8108 106.541 78.8108C106.541 78.8108 108.151 78.8108 108.851 78.8108C110.127 78.8108 111.162 79.8454 111.162 81.1216C111.162 82.3978 110.127 83.4324 108.851 83.4324Z" fill="white"/>
<path d="M120.405 78.8108H115.784V83.4324H120.405V78.8108Z" fill="white"/>
<path d="M125.027 78.8108H120.405V83.4324H125.027V78.8108Z" fill="white"/>
<path d="M129.648 78.8108H125.027V83.4324H129.648V78.8108Z" fill="white"/>
<path d="M131.959 83.4324C131.421 83.4324 129.648 83.4324 129.648 83.4324C129.648 83.4324 129.648 81.8591 129.648 81.1216C129.648 80.5455 129.648 78.8108 129.648 78.8108C129.648 78.8108 131.259 78.8108 131.959 78.8108C133.235 78.8108 134.27 79.8454 134.27 81.1216C134.27 82.3978 133.235 83.4324 131.959 83.4324Z" fill="white"/>
<path d="M138.892 83.4324H143.513V78.8108C140.961 78.8108 138.892 80.8799 138.892 83.4324Z" fill="white"/>
<path d="M143.514 78.8108V83.4324H148.135C148.135 80.8799 146.066 78.8108 143.514 78.8108Z" fill="white"/>
<path d="M9.48637 83.4325H4.86475V88.0541H9.48637V83.4325Z" fill="white"/>
<path d="M14.1079 83.4325H9.48633V88.0541H14.1079V83.4325Z" fill="white"/>
<path d="M18.7295 83.4325H14.1079V88.0541H18.7295V83.4325Z" fill="white"/>
<path d="M18.7295 83.4325V88.0541H23.3511C23.3511 85.5016 21.2819 83.4325 18.7295 83.4325Z" fill="white"/>
<path d="M30.2835 83.4325C31.5597 83.4325 32.5943 84.4671 32.5943 85.7433C32.5943 87.0196 31.5597 88.0541 30.2835 88.0541C29.0073 88.0541 27.9727 87.0196 27.9727 85.7433C27.9727 84.4671 29.0073 83.4325 30.2835 83.4325Z" fill="white"/>
<path d="M39.5271 83.4325C40.0657 83.4325 41.8379 83.4325 41.8379 83.4325C41.8379 83.4325 41.8379 85.0055 41.8379 85.7433C41.8379 86.3192 41.8379 88.0541 41.8379 88.0541C41.8379 88.0541 40.2276 88.0541 39.5271 88.0541C38.2505 88.0541 37.2163 87.0191 37.2163 85.7433C37.2163 84.4674 38.2505 83.4325 39.5271 83.4325Z" fill="white"/>
<path d="M46.4595 83.4325H41.8379V88.0541H46.4595V83.4325Z" fill="white"/>
<path d="M48.7703 88.0541C48.2317 88.0541 46.4595 88.0541 46.4595 88.0541C46.4595 88.0541 46.4595 86.4809 46.4595 85.7433C46.4595 85.1672 46.4595 83.4325 46.4595 83.4325C46.4595 83.4325 48.0702 83.4325 48.7703 83.4325C50.0464 83.4325 51.0811 84.4671 51.0811 85.7433C51.0811 87.0195 50.0464 88.0541 48.7703 88.0541Z" fill="white"/>
<path d="M120.405 88.0541V83.4325H115.784C115.784 85.9849 117.853 88.0541 120.405 88.0541Z" fill="white"/>
<path d="M125.027 83.4325H120.405V88.0541H125.027V83.4325Z" fill="white"/>
<path d="M129.648 83.4325H125.027V88.0541H129.648V83.4325Z" fill="white"/>
<path d="M143.513 88.0541V83.4325H138.892C138.892 85.9849 140.961 88.0541 143.513 88.0541Z" fill="white"/>
<path d="M148.135 83.4325H143.514V88.0541H148.135V83.4325Z" fill="white"/>
<path d="M150.446 88.0541C149.907 88.0541 148.135 88.0541 148.135 88.0541C148.135 88.0541 148.135 86.4809 148.135 85.7433C148.135 85.1672 148.135 83.4325 148.135 83.4325C148.135 83.4325 149.746 83.4325 150.446 83.4325C151.722 83.4325 152.757 84.4671 152.757 85.7433C152.757 87.0195 151.722 88.0541 150.446 88.0541Z" fill="white"/>
<path d="M0.243164 92.6757H4.86479V88.0541C2.31237 88.0541 0.243164 90.1232 0.243164 92.6757Z" fill="white"/>
<path d="M9.48637 88.0541H4.86475V92.6757C7.41719 92.6757 9.48637 90.6065 9.48637 88.0541Z" fill="white"/>
<path d="M23.3511 88.0541H18.7295V92.6757H23.3511V88.0541Z" fill="white"/>
<path d="M25.6619 92.6757C25.1233 92.6757 23.3511 92.6757 23.3511 92.6757C23.3511 92.6757 23.3511 91.1024 23.3511 90.3649C23.3511 89.7888 23.3511 88.0541 23.3511 88.0541C23.3511 88.0541 24.9618 88.0541 25.6619 88.0541C26.938 88.0541 27.9727 89.0887 27.9727 90.3649C27.9727 91.641 26.938 92.6757 25.6619 92.6757Z" fill="white"/>
<path d="M46.4595 88.0541H41.8379V92.6757H46.4595V88.0541Z" fill="white"/>
<path d="M104.23 88.0541C105.506 88.0541 106.541 89.0887 106.541 90.3649C106.541 91.6412 105.506 92.6757 104.23 92.6757C102.954 92.6757 101.919 91.6412 101.919 90.3649C101.919 89.0887 102.954 88.0541 104.23 88.0541Z" fill="white"/>
<path d="M129.648 92.6757V88.0541H125.027C125.027 90.6065 127.096 92.6757 129.648 92.6757Z" fill="white"/>
<path d="M131.959 92.6757C131.421 92.6757 129.648 92.6757 129.648 92.6757C129.648 92.6757 129.648 91.1024 129.648 90.3649C129.648 89.7888 129.648 88.0541 129.648 88.0541C129.648 88.0541 131.259 88.0541 131.959 88.0541C133.235 88.0541 134.27 89.0887 134.27 90.3649C134.27 91.641 133.235 92.6757 131.959 92.6757Z" fill="white"/>
<path d="M4.86479 92.6758H0.243164V97.2974H4.86479V92.6758Z" fill="white"/>
<path d="M11.7971 92.6758C12.3357 92.6758 14.1079 92.6758 14.1079 92.6758C14.1079 92.6758 14.1079 94.2488 14.1079 94.9866C14.1079 95.5625 14.1079 97.2974 14.1079 97.2974C14.1079 97.2974 12.4976 97.2974 11.7971 97.2974C10.5205 97.2974 9.48633 96.2624 9.48633 94.9866C9.48633 93.7107 10.5205 92.6758 11.7971 92.6758Z" fill="white"/>
<path d="M18.7295 92.6758H14.1079V97.2974H18.7295V92.6758Z" fill="white"/>
<path d="M23.3511 92.6758H18.7295V97.2974H23.3511V92.6758Z" fill="white"/>
<path d="M30.2835 92.6758C31.5597 92.6758 32.5943 93.7104 32.5943 94.9866C32.5943 96.2629 31.5597 97.2974 30.2835 97.2974C29.0073 97.2974 27.9727 96.2629 27.9727 94.9866C27.9727 93.7104 29.0073 92.6758 30.2835 92.6758Z" fill="white"/>
<path d="M37.2163 97.2974H41.8379V92.6758C39.2855 92.6758 37.2163 94.7449 37.2163 97.2974Z" fill="white"/>
<path d="M46.4595 92.6758H41.8379V97.2974C44.3903 97.2974 46.4595 95.2282 46.4595 92.6758Z" fill="white"/>
<path d="M115.784 94.9866C115.784 95.5252 115.784 97.2974 115.784 97.2974C115.784 97.2974 114.211 97.2974 113.473 97.2973C112.897 97.2974 111.162 97.2973 111.162 97.2973C111.162 97.2973 111.162 95.6867 111.162 94.9865C111.162 93.7104 112.197 92.6758 113.473 92.6758C114.749 92.6758 115.784 93.7104 115.784 94.9866Z" fill="white"/>
<path d="M122.716 92.6758C123.992 92.6758 125.027 93.7104 125.027 94.9866C125.027 96.2629 123.992 97.2974 122.716 97.2974C121.44 97.2974 120.405 96.2629 120.405 94.9866C120.405 93.7104 121.44 92.6758 122.716 92.6758Z" fill="white"/>
<path d="M134.27 97.2974H138.892V92.6758C136.339 92.6758 134.27 94.7449 134.27 97.2974Z" fill="white"/>
<path d="M141.202 97.2974C140.664 97.2974 138.892 97.2974 138.892 97.2974C138.892 97.2974 138.892 95.7241 138.892 94.9866C138.892 94.4105 138.892 92.6758 138.892 92.6758C138.892 92.6758 140.502 92.6758 141.202 92.6758C142.479 92.6758 143.513 93.7104 143.513 94.9866C143.513 96.2628 142.479 97.2974 141.202 97.2974Z" fill="white"/>
<path d="M152.757 94.9866C152.757 95.5252 152.757 97.2974 152.757 97.2974C152.757 97.2974 151.184 97.2974 150.446 97.2973C149.87 97.2974 148.135 97.2973 148.135 97.2973C148.135 97.2973 148.135 95.6867 148.135 94.9865C148.135 93.7104 149.17 92.6758 150.446 92.6758C151.722 92.6758 152.757 93.7104 152.757 94.9866Z" fill="white"/>
<path d="M0.243164 99.6082C0.243164 99.0696 0.243164 97.2974 0.243164 97.2974C0.243164 97.2974 1.81637 97.2974 2.55397 97.2974C3.13005 97.2974 4.86479 97.2974 4.86479 97.2974C4.86479 97.2974 4.86479 98.9081 4.86479 99.6082C4.86479 100.884 3.83013 101.919 2.55397 101.919C1.27775 101.919 0.243164 100.884 0.243164 99.6082Z" fill="white"/>
<path d="M23.3511 97.2974H18.7295V101.919H23.3511V97.2974Z" fill="white"/>
<path d="M25.6619 101.919C25.1233 101.919 23.3511 101.919 23.3511 101.919C23.3511 101.919 23.3511 100.346 23.3511 99.6082C23.3511 99.0321 23.3511 97.2974 23.3511 97.2974C23.3511 97.2974 24.9618 97.2974 25.6619 97.2974C26.938 97.2974 27.9727 98.332 27.9727 99.6082C27.9727 100.884 26.938 101.919 25.6619 101.919Z" fill="white"/>
<path d="M34.9055 97.2974C35.4441 97.2974 37.2163 97.2974 37.2163 97.2974C37.2163 97.2974 37.2163 98.8704 37.2163 99.6082C37.2163 100.184 37.2163 101.919 37.2163 101.919C37.2163 101.919 35.606 101.919 34.9055 101.919C33.6289 101.919 32.5947 100.884 32.5947 99.6082C32.5947 98.3323 33.6289 97.2974 34.9055 97.2974Z" fill="white"/>
<path d="M41.8379 97.2974H37.2163V101.919C39.7688 101.919 41.8379 99.8498 41.8379 97.2974Z" fill="white"/>
<path d="M48.7703 97.2974C50.0466 97.2974 51.0811 98.332 51.0811 99.6082C51.0811 100.884 50.0466 101.919 48.7703 101.919C47.4941 101.919 46.4595 100.884 46.4595 99.6082C46.4595 98.332 47.4941 97.2974 48.7703 97.2974Z" fill="white"/>
<path d="M115.784 97.2974H111.162V101.919H115.784V97.2974Z" fill="white"/>
<path d="M138.892 97.2974H134.27V101.919H138.892V97.2974Z" fill="white"/>
<path d="M152.757 97.2974H148.135V101.919H152.757V97.2974Z" fill="white"/>
<path d="M14.1079 106.541H18.7295V101.919C16.1771 101.919 14.1079 103.988 14.1079 106.541Z" fill="white"/>
<path d="M23.3511 101.919H18.7295V106.541H23.3511V101.919Z" fill="white"/>
<path d="M30.2835 101.919C31.5597 101.919 32.5943 102.954 32.5943 104.23C32.5943 105.506 31.5597 106.541 30.2835 106.541C29.0073 106.541 27.9727 105.506 27.9727 104.23C27.9727 102.954 29.0073 101.919 30.2835 101.919Z" fill="white"/>
<path d="M53.3919 101.919C54.6681 101.919 55.7027 102.954 55.7027 104.23C55.7027 105.506 54.6681 106.541 53.3919 106.541C52.1157 106.541 51.0811 105.506 51.0811 104.23C51.0811 102.954 52.1157 101.919 53.3919 101.919Z" fill="white"/>
<path d="M62.635 101.919C63.1736 101.919 64.9458 101.919 64.9458 101.919C64.9458 101.919 64.9458 103.492 64.9458 104.23C64.9458 104.806 64.9458 106.541 64.9458 106.541C64.9458 106.541 63.3355 106.541 62.635 106.541C61.3584 106.541 60.3242 105.506 60.3242 104.23C60.3242 102.954 61.3584 101.919 62.635 101.919Z" fill="white"/>
<path d="M69.5674 101.919H64.9458V106.541H69.5674V101.919Z" fill="white"/>
<path d="M74.189 101.919H69.5674V106.541H74.189V101.919Z" fill="white"/>
<path d="M74.189 101.919V106.541H78.8106C78.8106 103.988 76.7414 101.919 74.189 101.919Z" fill="white"/>
<path d="M99.6082 101.919C100.884 101.919 101.919 102.954 101.919 104.23C101.919 105.506 100.884 106.541 99.6082 106.541C98.332 106.541 97.2974 105.506 97.2974 104.23C97.2974 102.954 98.332 101.919 99.6082 101.919Z" fill="white"/>
<path d="M108.851 101.919C109.39 101.919 111.162 101.919 111.162 101.919C111.162 101.919 111.162 103.492 111.162 104.23C111.162 104.806 111.162 106.541 111.162 106.541C111.162 106.541 109.552 106.541 108.851 106.541C107.575 106.541 106.541 105.506 106.541 104.23C106.541 102.954 107.575 101.919 108.851 101.919Z" fill="white"/>
<path d="M115.784 101.919H111.162V106.541C113.715 106.541 115.784 104.471 115.784 101.919Z" fill="white"/>
<path d="M122.716 101.919C123.255 101.919 125.027 101.919 125.027 101.919C125.027 101.919 125.027 103.492 125.027 104.23C125.027 104.806 125.027 106.541 125.027 106.541C125.027 106.541 123.417 106.541 122.716 106.541C121.439 106.541 120.405 105.506 120.405 104.23C120.405 102.954 121.439 101.919 122.716 101.919Z" fill="white"/>
<path d="M125.027 101.919V106.541H129.648C129.648 103.988 127.579 101.919 125.027 101.919Z" fill="white"/>
<path d="M138.892 101.919H134.27V106.541H138.892V101.919Z" fill="white"/>
<path d="M143.513 101.919H138.892V106.541H143.513V101.919Z" fill="white"/>
<path d="M148.135 101.919H143.514V106.541H148.135V101.919Z" fill="white"/>
<path d="M152.757 101.919H148.135V106.541C150.688 106.541 152.757 104.471 152.757 101.919Z" fill="white"/>
<path d="M7.17556 106.541C7.71416 106.541 9.48637 106.541 9.48637 106.541C9.48637 106.541 9.48637 108.114 9.48637 108.851C9.48637 109.427 9.48637 111.162 9.48637 111.162C9.48637 111.162 7.87602 111.162 7.17556 111.162C5.89889 111.162 4.86475 110.127 4.86475 108.851C4.86475 107.575 5.89889 106.541 7.17556 106.541Z" fill="white"/>
<path d="M14.1079 106.541H9.48633V111.162H14.1079V106.541Z" fill="white"/>
<path d="M18.7295 106.541H14.1079V111.162H18.7295V106.541Z" fill="white"/>
<path d="M23.3511 106.541H18.7295V111.162H23.3511V106.541Z" fill="white"/>
<path d="M23.3511 106.541V111.162H27.9727C27.9727 108.61 25.9035 106.541 23.3511 106.541Z" fill="white"/>
<path d="M37.2163 111.162H41.8379V106.541C39.2855 106.541 37.2163 108.61 37.2163 111.162Z" fill="white"/>
<path d="M41.8379 106.541V111.162H46.4595C46.4595 108.61 44.3903 106.541 41.8379 106.541Z" fill="white"/>
<path d="M60.3243 108.851C60.3243 109.39 60.3243 111.162 60.3243 111.162C60.3243 111.162 58.7511 111.162 58.0134 111.162C57.4374 111.162 55.7026 111.162 55.7026 111.162C55.7026 111.162 55.7026 109.551 55.7026 108.851C55.7027 107.575 56.7372 106.541 58.0134 106.541C59.2896 106.541 60.3243 107.575 60.3243 108.851Z" fill="white"/>
<path d="M69.5674 111.162V106.541H64.9458C64.9458 109.093 67.0149 111.162 69.5674 111.162Z" fill="white"/>
<path d="M74.189 106.541H69.5674V111.162H74.189V106.541Z" fill="white"/>
<path d="M78.8106 106.541H74.189V111.162H78.8106V106.541Z" fill="white"/>
<path d="M83.4322 106.541H78.8105V111.162H83.4322V106.541Z" fill="white"/>
<path d="M83.4321 106.541V111.162H88.0538C88.0538 108.61 85.9846 106.541 83.4321 106.541Z" fill="white"/>
<path d="M94.9866 106.541C96.2629 106.541 97.2974 107.575 97.2974 108.851C97.2974 110.128 96.2629 111.162 94.9866 111.162C93.7104 111.162 92.6758 110.128 92.6758 108.851C92.6758 107.575 93.7104 106.541 94.9866 106.541Z" fill="white"/>
<path d="M104.23 106.541C105.506 106.541 106.541 107.575 106.541 108.851C106.541 110.128 105.506 111.162 104.23 111.162C102.954 111.162 101.919 110.128 101.919 108.851C101.919 107.575 102.954 106.541 104.23 106.541Z" fill="white"/>
<path d="M120.405 108.851C120.405 109.39 120.405 111.162 120.405 111.162C120.405 111.162 118.832 111.162 118.095 111.162C117.518 111.162 115.784 111.162 115.784 111.162C115.784 111.162 115.784 109.551 115.784 108.851C115.784 107.575 116.818 106.541 118.094 106.541C119.371 106.541 120.405 107.575 120.405 108.851Z" fill="white"/>
<path d="M129.648 106.541H125.027V111.162H129.648V106.541Z" fill="white"/>
<path d="M134.27 108.851C134.27 108.313 134.27 106.541 134.27 106.541C134.27 106.541 135.843 106.541 136.581 106.541C137.157 106.541 138.892 106.541 138.892 106.541C138.892 106.541 138.892 108.151 138.892 108.851C138.892 110.127 137.857 111.162 136.581 111.162C135.305 111.162 134.27 110.127 134.27 108.851Z" fill="white"/>
<path d="M2.55397 111.162C3.83025 111.162 4.86479 112.197 4.86479 113.473C4.86479 114.749 3.83025 115.784 2.55397 115.784C1.27776 115.784 0.243164 114.749 0.243164 113.473C0.243164 112.197 1.27776 111.162 2.55397 111.162Z" fill="white"/>
<path d="M14.1079 115.784V111.162H9.48633C9.48634 113.715 11.5555 115.784 14.1079 115.784Z" fill="white"/>
<path d="M18.7295 111.162H14.1079V115.784H18.7295V111.162Z" fill="white"/>
<path d="M23.3511 111.162H18.7295V115.784H23.3511V111.162Z" fill="white"/>
<path d="M27.9727 111.162H23.3511V115.784H27.9727V111.162Z" fill="white"/>
<path d="M32.5943 111.162H27.9727V115.784H32.5943V111.162Z" fill="white"/>
<path d="M37.2163 111.162H32.5947V115.784H37.2163V111.162Z" fill="white"/>
<path d="M41.8379 111.162H37.2163V115.784H41.8379V111.162Z" fill="white"/>
<path d="M46.4595 111.162H41.8379V115.784H46.4595V111.162Z" fill="white"/>
<path d="M48.7703 115.784C48.2317 115.784 46.4595 115.784 46.4595 115.784C46.4595 115.784 46.4595 114.211 46.4595 113.473C46.4595 112.897 46.4595 111.162 46.4595 111.162C46.4595 111.162 48.0702 111.162 48.7703 111.162C50.0464 111.162 51.0811 112.197 51.0811 113.473C51.0811 114.749 50.0464 115.784 48.7703 115.784Z" fill="white"/>
<path d="M60.3243 111.162H55.7026V115.784H60.3243V111.162Z" fill="white"/>
<path d="M74.189 111.162H69.5674V115.784H74.189V111.162Z" fill="white"/>
<path d="M78.8106 111.162H74.189V115.784H78.8106V111.162Z" fill="white"/>
<path d="M83.4321 113.473C83.4321 112.934 83.4321 111.162 83.4321 111.162C83.4321 111.162 85.0053 111.162 85.7429 111.162C86.319 111.162 88.0538 111.162 88.0538 111.162C88.0538 111.162 88.0538 112.773 88.0538 113.473C88.0538 114.749 87.0191 115.784 85.7429 115.784C84.4667 115.784 83.4321 114.749 83.4321 113.473Z" fill="white"/>
<path d="M101.919 113.473C101.919 114.012 101.919 115.784 101.919 115.784C101.919 115.784 100.346 115.784 99.6082 115.784C99.0321 115.784 97.2974 115.784 97.2974 115.784C97.2974 115.784 97.2974 114.173 97.2974 113.473C97.2974 112.197 98.332 111.162 99.6081 111.162C100.884 111.162 101.919 112.197 101.919 113.473Z" fill="white"/>
<path d="M111.162 115.784H115.784V111.162C113.231 111.162 111.162 113.231 111.162 115.784Z" fill="white"/>
<path d="M120.405 111.162H115.784V115.784H120.405V111.162Z" fill="white"/>
<path d="M125.027 111.162H120.405V115.784H125.027V111.162Z" fill="white"/>
<path d="M129.648 111.162H125.027V115.784H129.648V111.162Z" fill="white"/>
<path d="M129.648 111.162V115.784H134.27C134.27 113.231 132.201 111.162 129.648 111.162Z" fill="white"/>
<path d="M150.446 111.162C151.722 111.162 152.757 112.197 152.757 113.473C152.757 114.749 151.722 115.784 150.446 115.784C149.17 115.784 148.135 114.749 148.135 113.473C148.135 112.197 149.17 111.162 150.446 111.162Z" fill="white"/>
<path d="M41.8379 115.784H37.2163V120.405H41.8379V115.784Z" fill="white"/>
<path d="M53.3919 115.784C53.9305 115.784 55.7027 115.784 55.7027 115.784C55.7027 115.784 55.7027 117.357 55.7027 118.095C55.7027 118.671 55.7027 120.405 55.7027 120.405C55.7027 120.405 54.0923 120.405 53.3919 120.405C52.1152 120.405 51.0811 119.37 51.0811 118.095C51.0811 116.819 52.1152 115.784 53.3919 115.784Z" fill="white"/>
<path d="M60.3243 115.784H55.7026V120.405C58.2551 120.405 60.3243 118.336 60.3243 115.784Z" fill="white"/>
<path d="M74.189 120.405V115.784H69.5674C69.5674 118.336 71.6365 120.405 74.189 120.405Z" fill="white"/>
<path d="M78.8106 115.784H74.189V120.405H78.8106V115.784Z" fill="white"/>
<path d="M81.1214 120.405C80.5827 120.405 78.8105 120.405 78.8105 120.405C78.8105 120.405 78.8105 118.832 78.8105 118.095C78.8105 117.519 78.8105 115.784 78.8105 115.784C78.8105 115.784 80.4213 115.784 81.1214 115.784C82.3975 115.784 83.4322 116.818 83.4322 118.095C83.4322 119.371 82.3975 120.405 81.1214 120.405Z" fill="white"/>
<path d="M90.365 115.784C91.6413 115.784 92.6758 116.818 92.6758 118.095C92.6758 119.371 91.6413 120.405 90.365 120.405C89.0888 120.405 88.0542 119.371 88.0542 118.095C88.0542 116.818 89.0888 115.784 90.365 115.784Z" fill="white"/>
<path d="M101.919 115.784H97.2974V120.405H101.919V115.784Z" fill="white"/>
<path d="M106.541 120.405H111.162V115.784C108.61 115.784 106.541 117.853 106.541 120.405Z" fill="white"/>
<path d="M115.784 115.784H111.162V120.405H115.784V115.784Z" fill="white"/>
<path d="M134.27 115.784H129.648V120.405H134.27V115.784Z" fill="white"/>
<path d="M134.27 115.784V120.405H138.892C138.892 117.853 136.822 115.784 134.27 115.784Z" fill="white"/>
<path d="M145.824 115.784C147.101 115.784 148.135 116.818 148.135 118.095C148.135 119.371 147.101 120.405 145.824 120.405C144.548 120.405 143.514 119.371 143.514 118.095C143.514 116.818 144.548 115.784 145.824 115.784Z" fill="white"/>
<path d="M41.8379 125.027V120.405H37.2163C37.2163 122.958 39.2854 125.027 41.8379 125.027Z" fill="white"/>
<path d="M46.4595 120.405H41.8379V125.027H46.4595V120.405Z" fill="white"/>
<path d="M46.4595 120.405V125.027H51.0811C51.0811 122.475 49.0119 120.405 46.4595 120.405Z" fill="white"/>
<path d="M67.2566 120.405C68.5329 120.405 69.5674 121.44 69.5674 122.716C69.5674 123.992 68.5329 125.027 67.2566 125.027C65.9804 125.027 64.9458 123.992 64.9458 122.716C64.9458 121.44 65.9804 120.405 67.2566 120.405Z" fill="white"/>
<path d="M92.6758 125.027H97.2974V120.405C94.745 120.405 92.6758 122.475 92.6758 125.027Z" fill="white"/>
<path d="M101.919 120.405H97.2974V125.027C99.8498 125.027 101.919 122.958 101.919 120.405Z" fill="white"/>
<path d="M111.162 120.405H106.541V125.027H111.162V120.405Z" fill="white"/>
<path d="M115.784 120.405H111.162V125.027H115.784V120.405Z" fill="white"/>
<path d="M122.716 120.405C123.992 120.405 125.027 121.44 125.027 122.716C125.027 123.992 123.992 125.027 122.716 125.027C121.44 125.027 120.405 123.992 120.405 122.716C120.405 121.44 121.44 120.405 122.716 120.405Z" fill="white"/>
<path d="M134.27 120.405H129.648V125.027H134.27V120.405Z" fill="white"/>
<path d="M138.892 120.405H134.27V125.027H138.892V120.405Z" fill="white"/>
<path d="M46.4595 129.649V125.027H41.8379C41.8379 127.58 43.907 129.649 46.4595 129.649Z" fill="white"/>
<path d="M51.0811 125.027H46.4595V129.649H51.0811V125.027Z" fill="white"/>
<path d="M55.7027 125.027H51.0811V129.649H55.7027V125.027Z" fill="white"/>
<path d="M60.3243 125.027H55.7026V129.649H60.3243V125.027Z" fill="white"/>
<path d="M60.3242 125.027V129.649H64.9458C64.9458 127.096 62.8767 125.027 60.3242 125.027Z" fill="white"/>
<path d="M76.4998 125.027C77.7761 125.027 78.8106 126.062 78.8106 127.338C78.8106 128.614 77.7761 129.649 76.4998 129.649C75.2236 129.649 74.189 128.614 74.189 127.338C74.189 126.062 75.2236 125.027 76.4998 125.027Z" fill="white"/>
<path d="M90.365 125.027C90.9036 125.027 92.6758 125.027 92.6758 125.027C92.6758 125.027 92.6758 126.6 92.6758 127.338C92.6758 127.914 92.6758 129.649 92.6758 129.649C92.6758 129.649 91.0655 129.649 90.365 129.649C89.0883 129.649 88.0542 128.614 88.0542 127.338C88.0542 126.062 89.0883 125.027 90.365 125.027Z" fill="white"/>
<path d="M97.2974 125.027H92.6758V129.649C95.2282 129.649 97.2974 127.58 97.2974 125.027Z" fill="white"/>
<path d="M111.162 125.027H106.541V129.649H111.162V125.027Z" fill="white"/>
<path d="M115.784 125.027H111.162V129.649H115.784V125.027Z" fill="white"/>
<path d="M134.27 125.027H129.648V129.649H134.27V125.027Z" fill="white"/>
<path d="M138.892 125.027H134.27V129.649H138.892V125.027Z" fill="white"/>
<path d="M143.513 125.027H138.892V129.649H143.513V125.027Z" fill="white"/>
<path d="M148.135 125.027H143.514V129.649H148.135V125.027Z" fill="white"/>
<path d="M150.446 129.649C149.907 129.649 148.135 129.649 148.135 129.649C148.135 129.649 148.135 128.075 148.135 127.338C148.135 126.762 148.135 125.027 148.135 125.027C148.135 125.027 149.746 125.027 150.446 125.027C151.722 125.027 152.757 126.062 152.757 127.338C152.757 128.614 151.722 129.649 150.446 129.649Z" fill="white"/>
<path d="M51.0811 129.649H46.4595V134.27H51.0811V129.649Z" fill="white"/>
<path d="M55.7027 129.649H51.0811V134.27H55.7027V129.649Z" fill="white"/>
<path d="M60.3243 129.649H55.7026V134.27H60.3243V129.649Z" fill="white"/>
<path d="M64.9458 129.649H60.3242V134.27H64.9458V129.649Z" fill="white"/>
<path d="M71.8782 129.649C73.1545 129.649 74.189 130.683 74.189 131.959C74.189 133.236 73.1545 134.27 71.8782 134.27C70.602 134.27 69.5674 133.236 69.5674 131.959C69.5674 130.683 70.602 129.649 71.8782 129.649Z" fill="white"/>
<path d="M78.8105 134.27H83.4322V129.649C80.8797 129.649 78.8105 131.718 78.8105 134.27Z" fill="white"/>
<path d="M83.4321 129.649V134.27H88.0538C88.0538 131.718 85.9846 129.649 83.4321 129.649Z" fill="white"/>
<path d="M101.919 134.27H106.541V129.649C103.988 129.649 101.919 131.718 101.919 134.27Z" fill="white"/>
<path d="M111.162 129.649H106.541V134.27H111.162V129.649Z" fill="white"/>
<path d="M115.784 129.649H111.162V134.27H115.784V129.649Z" fill="white"/>
<path d="M120.405 129.649H115.784V134.27H120.405V129.649Z" fill="white"/>
<path d="M125.027 129.649H120.405V134.27H125.027V129.649Z" fill="white"/>
<path d="M129.648 129.649H125.027V134.27H129.648V129.649Z" fill="white"/>
<path d="M134.27 129.649H129.648V134.27H134.27V129.649Z" fill="white"/>
<path d="M138.892 129.649H134.27V134.27H138.892V129.649Z" fill="white"/>
<path d="M143.513 129.649H138.892V134.27H143.513V129.649Z" fill="white"/>
<path d="M148.135 129.649H143.514V134.27C146.066 134.27 148.135 132.201 148.135 129.649Z" fill="white"/>
<path d="M37.2163 138.892H41.8379V134.27C39.2855 134.27 37.2163 136.339 37.2163 138.892Z" fill="white"/>
<path d="M46.4595 134.27H41.8379V138.892H46.4595V134.27Z" fill="white"/>
<path d="M51.0811 134.27H46.4595V138.892C49.0119 138.892 51.0811 136.823 51.0811 134.27Z" fill="white"/>
<path d="M60.3242 136.581C60.3242 136.042 60.3242 134.27 60.3242 134.27C60.3242 134.27 61.8974 134.27 62.635 134.27C63.2111 134.27 64.9458 134.27 64.9458 134.27C64.9458 134.27 64.9458 135.881 64.9458 136.581C64.9458 137.857 63.9112 138.892 62.635 138.892C61.3588 138.892 60.3242 137.857 60.3242 136.581Z" fill="white"/>
<path d="M83.4322 134.27H78.8105V138.892H83.4322V134.27Z" fill="white"/>
<path d="M88.0538 134.27H83.4321V138.892H88.0538V134.27Z" fill="white"/>
<path d="M92.6758 134.27H88.0542V138.892H92.6758V134.27Z" fill="white"/>
<path d="M97.2974 134.27H92.6758V138.892H97.2974V134.27Z" fill="white"/>
<path d="M101.919 134.27H97.2974V138.892H101.919V134.27Z" fill="white"/>
<path d="M106.541 134.27H101.919V138.892H106.541V134.27Z" fill="white"/>
<path d="M111.162 134.27H106.541V138.892H111.162V134.27Z" fill="white"/>
<path d="M115.784 134.27H111.162V138.892H115.784V134.27Z" fill="white"/>
<path d="M125.027 136.581C125.027 136.042 125.027 134.27 125.027 134.27C125.027 134.27 126.6 134.27 127.338 134.27C127.914 134.27 129.648 134.27 129.648 134.27C129.648 134.27 129.648 135.881 129.648 136.581C129.648 137.857 128.614 138.892 127.338 138.892C126.061 138.892 125.027 137.857 125.027 136.581Z" fill="white"/>
<path d="M138.892 138.892V134.27H134.27C134.27 136.823 136.339 138.892 138.892 138.892Z" fill="white"/>
<path d="M143.513 134.27H138.892V138.892C141.444 138.892 143.513 136.823 143.513 134.27Z" fill="white"/>
<path d="M41.8379 143.514V138.892H37.2163C37.2163 141.444 39.2854 143.514 41.8379 143.514Z" fill="white"/>
<path d="M46.4595 138.892H41.8379V143.514H46.4595V138.892Z" fill="white"/>
<path d="M60.3243 141.203C60.3243 141.741 60.3243 143.514 60.3243 143.514C60.3243 143.514 58.7511 143.514 58.0134 143.513C57.4374 143.514 55.7026 143.513 55.7026 143.513C55.7026 143.513 55.7026 141.903 55.7026 141.203C55.7027 139.927 56.7372 138.892 58.0134 138.892C59.2896 138.892 60.3243 139.927 60.3243 141.203Z" fill="white"/>
<path d="M67.2566 138.892C67.7952 138.892 69.5674 138.892 69.5674 138.892C69.5674 138.892 69.5674 140.465 69.5674 141.203C69.5674 141.779 69.5674 143.514 69.5674 143.514C69.5674 143.514 67.9571 143.514 67.2566 143.514C65.9799 143.514 64.9458 142.479 64.9458 141.203C64.9458 139.927 65.9799 138.892 67.2566 138.892Z" fill="white"/>
<path d="M74.189 138.892H69.5674V143.514H74.189V138.892Z" fill="white"/>
<path d="M78.8106 138.892H74.189V143.514H78.8106V138.892Z" fill="white"/>
<path d="M83.4322 138.892H78.8105V143.514H83.4322V138.892Z" fill="white"/>
<path d="M101.919 143.514V138.892H97.2974C97.2974 141.444 99.3665 143.514 101.919 143.514Z" fill="white"/>
<path d="M106.541 138.892H101.919V143.514C104.471 143.514 106.541 141.444 106.541 138.892Z" fill="white"/>
<path d="M115.784 138.892H111.162V143.514H115.784V138.892Z" fill="white"/>
<path d="M120.405 138.892H115.784V143.514H120.405V138.892Z" fill="white"/>
<path d="M122.716 143.514C122.177 143.514 120.405 143.514 120.405 143.514C120.405 143.514 120.405 141.94 120.405 141.203C120.405 140.627 120.405 138.892 120.405 138.892C120.405 138.892 122.016 138.892 122.716 138.892C123.992 138.892 125.027 139.927 125.027 141.203C125.027 142.479 123.992 143.514 122.716 143.514Z" fill="white"/>
<path d="M46.4595 143.514H41.8379V148.135H46.4595V143.514Z" fill="white"/>
<path d="M60.3243 148.135V143.514H55.7026C55.7026 146.066 57.7718 148.135 60.3243 148.135Z" fill="white"/>
<path d="M60.3242 143.514V148.135H64.9458C64.9458 145.583 62.8767 143.514 60.3242 143.514Z" fill="white"/>
<path d="M78.8106 143.514H74.189V148.135H78.8106V143.514Z" fill="white"/>
<path d="M83.4322 143.514H78.8105V148.135H83.4322V143.514Z" fill="white"/>
<path d="M88.0538 143.514H83.4321V148.135H88.0538V143.514Z" fill="white"/>
<path d="M92.6758 143.514H88.0542V148.135H92.6758V143.514Z" fill="white"/>
<path d="M92.6758 143.514V148.135H97.2974C97.2974 145.583 95.2282 143.514 92.6758 143.514Z" fill="white"/>
<path d="M115.784 148.135V143.514H111.162C111.162 146.066 113.231 148.135 115.784 148.135Z" fill="white"/>
<path d="M120.405 143.514H115.784V148.135C118.336 148.135 120.405 146.066 120.405 143.514Z" fill="white"/>
<path d="M141.202 143.514C142.479 143.514 143.513 144.548 143.513 145.824C143.513 147.101 142.479 148.135 141.202 148.135C139.926 148.135 138.892 147.101 138.892 145.824C138.892 144.548 139.926 143.514 141.202 143.514Z" fill="white"/>
<path d="M150.446 143.514C151.722 143.514 152.757 144.548 152.757 145.824C152.757 147.101 151.722 148.135 150.446 148.135C149.17 148.135 148.135 147.101 148.135 145.824C148.135 144.548 149.17 143.514 150.446 143.514Z" fill="white"/>
<path d="M41.8379 150.446C41.8379 149.907 41.8379 148.135 41.8379 148.135C41.8379 148.135 43.4111 148.135 44.1487 148.135C44.7248 148.135 46.4595 148.135 46.4595 148.135C46.4595 148.135 46.4595 149.746 46.4595 150.446C46.4595 151.722 45.4249 152.757 44.1487 152.757C42.8725 152.757 41.8379 151.722 41.8379 150.446Z" fill="white"/>
<path d="M60.3242 150.446C60.3242 149.907 60.3242 148.135 60.3242 148.135C60.3242 148.135 61.8974 148.135 62.635 148.135C63.2111 148.135 64.9458 148.135 64.9458 148.135C64.9458 148.135 64.9458 149.746 64.9458 150.446C64.9458 151.722 63.9112 152.757 62.635 152.757C61.3588 152.757 60.3242 151.722 60.3242 150.446Z" fill="white"/>
<path d="M78.8106 152.757V148.135H74.189C74.189 150.688 76.2581 152.757 78.8106 152.757Z" fill="white"/>
<path d="M83.4322 148.135H78.8105V152.757C81.363 152.757 83.4322 150.688 83.4322 148.135Z" fill="white"/>
<path d="M92.6758 152.757V148.135H88.0542C88.0542 150.688 90.1233 152.757 92.6758 152.757Z" fill="white"/>
<path d="M97.2974 148.135H92.6758V152.757C95.2282 152.757 97.2974 150.688 97.2974 148.135Z" fill="white"/>
<path d="M104.23 148.135C104.768 148.135 106.541 148.135 106.541 148.135C106.541 148.135 106.541 149.708 106.541 150.446C106.541 151.022 106.541 152.757 106.541 152.757C106.541 152.757 104.93 152.757 104.23 152.757C102.953 152.757 101.919 151.722 101.919 150.446C101.919 149.17 102.953 148.135 104.23 148.135Z" fill="white"/>
<path d="M108.851 152.757C108.313 152.757 106.541 152.757 106.541 152.757C106.541 152.757 106.541 151.183 106.541 150.446C106.541 149.87 106.541 148.135 106.541 148.135C106.541 148.135 108.151 148.135 108.851 148.135C110.127 148.135 111.162 149.17 111.162 150.446C111.162 151.722 110.127 152.757 108.851 152.757Z" fill="white"/>
<path d="M122.716 148.135C123.255 148.135 125.027 148.135 125.027 148.135C125.027 148.135 125.027 149.708 125.027 150.446C125.027 151.022 125.027 152.757 125.027 152.757C125.027 152.757 123.417 152.757 122.716 152.757C121.439 152.757 120.405 151.722 120.405 150.446C120.405 149.17 121.439 148.135 122.716 148.135Z" fill="white"/>
<path d="M129.648 148.135H125.027V152.757H129.648V148.135Z" fill="white"/>
<path d="M131.959 152.757C131.421 152.757 129.648 152.757 129.648 152.757C129.648 152.757 129.648 151.183 129.648 150.446C129.648 149.87 129.648 148.135 129.648 148.135C129.648 148.135 131.259 148.135 131.959 148.135C133.235 148.135 134.27 149.17 134.27 150.446C134.27 151.722 133.235 152.757 131.959 152.757Z" fill="white"/>
<path d="M16.4191 0.560425C7.66103 0.560425 0.560547 7.66091 0.560547 16.4189C0.560547 25.1769 7.66103 32.2774 16.4191 32.2774C25.1771 32.2774 32.2776 25.1769 32.2776 16.4189C32.2776 7.66091 25.1771 0.560425 16.4191 0.560425ZM16.4191 27.5199C10.298 27.5199 5.3181 22.54 5.3181 16.4189C5.3181 10.2979 10.298 5.31798 16.4191 5.31798C22.5401 5.31798 27.52 10.2979 27.52 16.4189C27.52 22.54 22.5401 27.5199 16.4191 27.5199Z" fill="white"/>
<path d="M136.581 0.560425C127.823 0.560425 120.723 7.66091 120.723 16.4189C120.723 25.1769 127.823 32.2774 136.581 32.2774C145.339 32.2774 152.44 25.1769 152.44 16.4189C152.44 7.66091 145.339 0.560425 136.581 0.560425ZM136.581 27.5199C130.46 27.5199 125.48 22.54 125.48 16.4189C125.48 10.2979 130.46 5.31798 136.581 5.31798C142.702 5.31798 147.682 10.2979 147.682 16.4189C147.682 22.54 142.702 27.5199 136.581 27.5199Z" fill="white"/>
<path d="M16.4191 120.723C7.66103 120.723 0.560547 127.823 0.560547 136.581C0.560547 145.339 7.66103 152.44 16.4191 152.44C25.1771 152.44 32.2776 145.339 32.2776 136.581C32.2776 127.823 25.1771 120.723 16.4191 120.723ZM16.4191 147.682C10.298 147.682 5.3181 142.702 5.3181 136.581C5.3181 130.46 10.298 125.48 16.4191 125.48C22.5401 125.48 27.52 130.46 27.52 136.581C27.52 142.702 22.5401 147.682 16.4191 147.682Z" fill="white"/>
<path d="M16.2828 23.0796C20.0364 23.0796 23.0793 20.0367 23.0793 16.2831C23.0793 12.5295 20.0364 9.48657 16.2828 9.48657C12.5292 9.48657 9.48633 12.5295 9.48633 16.2831C9.48633 20.0367 12.5292 23.0796 16.2828 23.0796Z" fill="white"/>
<path d="M136.445 23.0796C140.199 23.0796 143.241 20.0367 143.241 16.2831C143.241 12.5295 140.199 9.48657 136.445 9.48657C132.691 9.48657 129.648 12.5295 129.648 16.2831C129.648 20.0367 132.691 23.0796 136.445 23.0796Z" fill="white"/>
<path d="M16.2828 143.242C20.0364 143.242 23.0793 140.199 23.0793 136.445C23.0793 132.692 20.0364 129.649 16.2828 129.649C12.5292 129.649 9.48633 132.692 9.48633 136.445C9.48633 140.199 12.5292 143.242 16.2828 143.242Z" fill="white"/>
<g clip-path="url(#clip0_458_16133)">
<mask id="mask0_458_16133" style="mask-type:luminance" maskUnits="userSpaceOnUse" x="51" y="51" width="51" height="51">
<path d="M101.919 51.0812H51.0811V101.919H101.919V51.0812Z" fill="white"/>
</mask>
<g mask="url(#mask0_458_16133)">
<path d="M76.5 51.0812C71.4726 51.0812 66.5581 52.572 62.378 55.365C58.1979 58.1581 54.9399 62.128 53.016 66.7727C51.0921 71.4174 50.5887 76.5282 51.5695 81.4591C52.5503 86.3899 54.9712 90.9191 58.5261 94.474C62.081 98.0288 66.6102 100.45 71.5409 101.431C76.4718 102.411 81.5827 101.908 86.2273 99.9841C90.8721 98.0602 94.842 94.8023 97.635 90.622C100.428 86.442 101.919 81.5275 101.919 76.5001C101.919 73.1621 101.261 69.8567 99.984 66.7727C98.7066 63.6887 96.8342 60.8866 94.4739 58.5262C92.1135 56.1658 89.3113 54.2935 86.2273 53.0161C83.1433 51.7387 79.838 51.0812 76.5 51.0812ZM84.5832 89.5959C84.4884 89.8333 84.3438 90.0478 84.1592 90.2247C83.9746 90.4017 83.7543 90.5371 83.5129 90.6218C83.2717 90.7066 83.0152 90.7388 82.7604 90.7161C82.5057 90.6936 82.2587 90.6166 82.0363 90.4906L75.1349 85.1272L70.707 89.2146C70.6042 89.2905 70.484 89.3394 70.3574 89.3567C70.2309 89.374 70.102 89.3592 69.9826 89.3138L70.8316 81.716L70.857 81.7389L70.8748 81.5889C70.8748 81.5889 83.2919 70.2826 83.7977 69.8021C84.3112 69.3219 84.141 69.2175 84.141 69.2175C84.1714 68.6329 83.2234 69.2175 83.2234 69.2175L66.7696 79.802L59.9192 77.4685C59.9192 77.4685 58.8669 77.0923 58.7678 76.2612C58.6635 75.4375 59.9523 74.9903 59.9523 74.9903L87.1938 64.1668C87.1938 64.1668 89.4332 63.1704 89.4332 64.8226L84.5832 89.5959Z" fill="white"/>
</g>
</g>
<defs>
<clipPath id="clip0_458_16133">
<rect width="50.8378" height="50.8378" fill="white" transform="translate(51.0811 51.0812)"/>
</clipPath>
</defs>
</svg>
