<svg width="542" height="490" viewBox="0 0 542 490" fill="none" xmlns="http://www.w3.org/2000/svg">
<g clip-path="url(#clip0_392_369)">
<path d="M144.962 425.012C133.551 425.235 122.789 422.683 112.784 417.206C110.7 416.065 108.523 416.409 106.412 415.953C105.199 415.692 104.973 416.77 104.606 417.555C103.25 420.457 101.63 423.201 99.6583 425.728C93.0969 434.137 84.5575 437.507 74.0502 435.601C63.5396 433.693 55.9074 428.085 52.233 417.829C51.4977 415.776 50.7153 415.18 48.5046 415.313C37.4813 415.973 28.3112 408.099 25.6941 396.057C24.3012 389.648 25.2641 383.549 28.0262 377.707C28.8036 376.063 28.5945 374.93 27.6299 373.38C19.9893 361.115 12.1464 348.958 5.73848 335.979C2.62558 329.673 0.779087 322.935 0.153472 315.909C-1.14835 301.282 5.97287 290.435 16.1547 281.149C18.0619 279.41 18.3671 278.065 17.6791 275.821C16.6775 272.554 14.9423 269.623 13.7602 266.448C5.47541 244.197 9.02675 223.553 22.1292 204.171C31.2622 190.662 43.4339 180.225 56.2008 170.404C80.8106 151.472 106.751 134.468 132.922 117.82C167.685 95.7075 203.246 74.9369 239.499 55.3649C270.394 38.6866 301.666 22.7646 334.431 10.0031C345.874 5.54607 357.56 1.87411 369.848 0.445843C386.035 -1.43657 400.277 2.58487 412.177 14.0397C418.45 20.0786 424.248 26.5277 429.057 33.7923C430.229 35.5633 431.148 35.5447 432.88 34.7867C445.601 29.234 458.743 26.732 472.54 29.8621C487.253 33.1997 498.693 41.5127 507.197 53.734C513.696 63.0735 519.603 72.835 522.066 84.1885C526.506 104.647 520.96 122.238 506.647 137.254C504.097 139.928 501.456 142.541 498.399 144.618C496.578 145.856 496.322 146.789 497.379 148.871C501.957 157.878 505.492 167.307 507.473 177.244C510.2 190.913 507.016 203.346 499.372 214.811C491.475 226.656 481.182 236.231 470.346 245.242C445.537 265.87 419.078 284.244 392.109 301.886C340.326 335.761 287.056 367.098 231.879 395.13C214.191 404.117 196.386 412.911 177.511 419.233C166.963 422.767 156.154 425.016 144.962 425.012ZM149.584 402.668C161.874 402.689 173.757 400.32 185.329 396.312C202.728 390.285 219.07 381.916 235.224 373.223C275.905 351.332 315.192 327.068 354.331 302.575C389.207 280.749 422.939 257.335 453.48 229.6C464.636 219.469 475.773 209.321 484.592 196.956C491.185 187.711 492.887 177.701 489.396 166.857C486.256 157.101 481.234 148.239 476.076 139.479C462.012 115.59 447.795 91.7941 433.669 67.9424C427.416 57.384 421.113 46.8746 413.754 37.0186C404.343 24.414 392.144 19.4202 376.585 22.2429C366.049 24.1541 355.823 27.1102 345.695 30.4614C300.99 45.259 259.259 66.4804 218.426 89.618C192.224 104.464 166.191 119.603 140.426 135.198C116.528 149.663 92.8996 164.55 70.9862 181.961C57.1738 192.934 45.4692 205.713 37.4745 221.648C30.554 235.445 29.7462 249.476 35.2098 263.927C37.8337 270.869 41.1928 277.427 45.1843 283.646C53.3324 296.342 59.9241 309.905 67.2106 323.079C69.4247 327.08 71.536 330.755 76.2205 332.286C77.7668 332.791 79.1766 333.975 80.4076 335.111C81.7482 336.348 82.4497 336.131 83.335 334.669C85.3737 331.306 87.8998 328.343 91.301 326.28C98.8269 321.715 107.07 319.537 115.816 319.682C125.05 319.836 131.485 324.446 134.892 333.023C137.831 340.421 137.787 347.85 134.232 355.064C133.3 356.957 133.259 357.833 135.318 359.187C144.121 364.976 148.325 373.286 147.49 383.875C147.026 389.745 144.878 395.147 141.784 400.102C140.34 402.415 141.16 402.736 143.298 402.678C145.391 402.624 147.487 402.667 149.581 402.667L149.584 402.668ZM141.929 421.746C156.537 421.624 168.115 419.186 179.341 415.109C200.757 407.33 221.053 397.073 241.226 386.596C291.267 360.604 339.785 331.988 387.025 301.209C415.113 282.908 442.711 263.895 468.501 242.405C479.405 233.319 489.804 223.686 497.482 211.542C503.92 201.359 506.632 190.405 504.256 178.393C502.168 167.838 498.452 157.874 493.364 148.435C492.059 146.013 492.18 144.689 494.676 143.171C498.431 140.887 501.585 137.769 504.588 134.551C519.598 118.469 524.24 99.8842 517.016 78.9921C512.876 67.0189 506.23 56.3052 497.295 47.192C492.932 42.7435 487.873 39.1947 482.164 36.6286C465.257 29.0297 448.726 31.0894 432.475 38.7068C430.489 39.6388 429.138 40.1351 427.762 37.8745C423.432 30.7619 417.918 24.5846 412.15 18.625C401.211 7.32212 388.082 2.02099 372.231 3.58769C362.624 4.53649 353.392 6.90343 344.323 10.02C320.497 18.2063 297.885 29.1851 275.404 40.4103C241.482 57.3503 208.438 75.9093 175.907 95.3715C135.323 119.654 95.3144 144.832 57.6409 173.523C45.6227 182.675 34.2841 192.554 25.5271 205.066C15.0536 220.034 10.3825 236.356 13.7686 254.595C14.8512 260.421 17.0636 265.862 19.5222 271.231C22.706 278.183 22.5525 278.73 17.2761 284.122C13.8411 287.632 10.8446 291.475 8.25443 295.646C1.19054 307.017 2.5733 318.718 7.03692 330.445C12.0773 343.687 20.792 354.919 27.5406 367.233C30.3196 372.303 30.5826 372.161 34.0935 367.542C34.6601 366.796 35.6769 366.163 34.51 365.066C29.6956 360.531 27.1814 354.433 23.6199 349.042C20.2119 343.883 17.8612 338.342 16.524 332.349C13.9254 320.697 16.1497 310.125 23.9859 300.998C28.5372 295.697 30.4781 295.952 34.1829 301.93C39.6465 310.748 45.1944 319.522 50.1065 328.663C51.1335 330.576 52.1031 330.9 54.0508 330.215C57.2784 329.079 60.683 328.733 64.0893 329.033C66.4332 329.239 66.5648 328.738 65.4636 326.749C57.2008 311.833 49.4641 296.625 40.434 282.135C38.3295 278.759 36.5218 275.179 34.7832 271.594C25.6637 252.786 26.0988 234.315 36.6095 216.089C43.4642 204.202 52.0896 193.822 62.3929 184.841C79.2929 170.109 97.9804 157.835 116.852 145.866C148.357 125.88 180.681 107.26 213.099 88.8093C246.568 69.7607 280.512 51.6254 316.48 37.6247C335.717 30.1372 355.027 22.8592 375.436 19.0471C391.495 16.047 404.78 20.3909 415.068 33.3416C419.546 38.9786 423.651 44.8707 427.364 51.0193C443.706 78.0787 459.365 105.543 475.889 132.496C482.037 142.526 487.89 152.764 491.947 163.879C496.354 175.947 495.153 187.387 487.858 198.095C483.572 204.391 478.584 210.09 473.22 215.464C447.252 241.477 418.462 264.012 388.075 284.58C354.273 307.459 319.249 328.375 284.215 349.269C257.914 364.954 231.327 380.13 203.364 392.729C183.003 401.902 162.014 407.959 139.342 405.635C138.229 405.52 137.435 405.903 136.672 406.629C131.922 411.155 126.297 413.978 119.872 415.249C119.332 415.355 118.466 415.19 118.42 415.95C118.381 416.622 119.231 416.71 119.739 416.922C127.666 420.262 135.957 421.734 141.927 421.749L141.929 421.746ZM54.216 409.053C54.0575 418.825 59.7943 427.232 69.0504 430.793C79.5998 434.852 89.2876 432.743 96.0041 424.911C99.5554 420.77 101.739 415.879 103.845 410.902C108.81 399.167 105.763 388.796 98.3464 379.387C92.7293 372.261 85.8695 371.434 77.9894 374.346C65.1028 379.107 54.442 395.231 54.2177 409.052L54.216 409.053ZM112.84 323.003C103.191 324.176 92.2858 326.188 85.6587 337.073C84.8729 338.364 84.2472 339.325 85.4411 340.716C86.1949 341.594 86.3872 342.813 85.2354 343.618C83.9353 344.528 83.2878 343.523 82.6621 342.543C74.4145 329.607 54.614 329.389 44.8268 339.269C38.9483 345.203 36.4695 352.492 37.1541 360.821C37.2991 362.581 37.714 363.827 39.7679 362.059C41.5065 360.565 43.5705 359.494 45.7441 358.708C57.0305 354.62 67.2899 357.143 76.9743 363.534C78.4211 364.49 79.4632 366.004 81.2018 366.534C80.8527 364.424 79.642 362.726 78.5037 361.009C78.0046 360.256 77.6134 359.174 76.2222 360.085C74.5325 361.193 72.9457 360.622 71.74 359.142C70.966 358.191 70.9694 357.082 71.7653 356.113C73.0182 354.588 74.6893 354.494 76.4026 355.049C78.1597 355.618 79.4868 356.835 80.6504 358.247C80.8898 358.537 81.3671 358.978 81.5475 358.904C81.9977 358.714 81.6773 358.247 81.588 357.901C81.0905 355.971 80.6032 354.038 80.0686 352.118C79.7415 350.943 79.3755 350.391 78.2053 351.647C77.0029 352.941 75.4499 352.782 74.2509 351.497C73.0772 350.239 73.1548 348.771 74.0975 347.383C75.7584 344.933 79.1816 344.923 81.2945 347.366C82.8443 349.157 83.3737 351.42 84.0584 353.606C84.2354 354.171 84.4513 354.723 84.6503 355.282C85.3332 354.884 85.34 354.133 85.512 353.504C86.2 350.994 87.0549 348.546 88.3382 346.28C90.1762 343.031 92.2993 340.009 95.9467 338.547C98.9939 337.324 102.174 338.671 103.012 341.52C103.631 343.621 103.006 345.382 100.982 346.247C98.972 347.104 97.0462 346.579 96.3548 344.376C95.5994 341.965 94.8608 343.061 93.9249 344.103C90.0886 348.371 88.753 353.68 87.6924 359.099C87.5625 359.761 87.3939 360.943 87.6283 361.051C88.3922 361.404 88.7581 360.484 89.2218 360.025C92.5809 356.69 96.6027 354.555 101.218 353.69C108.869 352.257 116.513 352.475 124.071 354.382C130.963 356.121 131.41 355.868 132.988 348.656C133.094 348.168 133.212 347.682 133.296 347.19C135.613 333.801 127.175 322.927 112.843 323.001L112.84 323.003ZM111.246 356.049C105.592 356.266 100.222 356.623 95.3953 359.449C94.6702 359.874 93.387 360.197 93.6315 361.119C93.8018 361.758 95.0294 361.161 95.7832 361.142C98.4796 361.073 100.974 361.547 102.758 363.803C103.874 365.213 103.977 366.754 102.845 368.197C102.001 369.275 100.822 369.984 99.4424 369.426C97.805 368.765 97.3447 367.52 97.999 365.776C98.5689 364.259 97.2115 364.456 96.4543 364.463C93.4578 364.488 91.2116 366.099 89.1645 368.094C88.0583 369.173 88.3685 369.595 89.7614 369.963C94.6601 371.258 98.6903 373.993 101.631 378.07C108.621 387.764 112.09 398.208 107.677 410.083C107.07 411.714 106.636 412.867 109.204 412.87C126.194 412.887 138.247 405.969 143.252 388.323C146.412 377.179 142.089 366.74 132.012 361.054C125.496 357.379 118.331 356.346 111.245 356.05L111.246 356.049ZM55.5752 360.062C54.6832 360.166 52.8738 360.224 51.1352 360.607C39.1608 363.247 33.4814 372.167 29.7193 382.691C26.7193 391.082 28.6518 398.834 34.0733 405.716C37.7275 410.353 42.7138 412.256 48.5535 412.068C50.2229 412.014 50.7878 411.376 50.9008 409.526C52.0087 391.283 61.4266 378.67 77.6285 370.856C79.2946 370.053 79.3182 369.678 78.0012 368.592C71.7383 363.426 64.7284 360.202 55.5752 360.06V360.062ZM18.7567 324.549C18.927 325.905 19.1057 328.095 19.4868 330.249C21.2726 340.348 26.8627 348.654 32.2183 357.065C32.4662 357.453 32.7293 358.125 33.279 357.852C33.5455 357.718 33.5589 356.991 33.6129 356.525C34.7377 346.848 38.5352 338.695 47.0358 333.316C48.3815 332.465 48.0813 331.805 47.5113 330.688C42.3985 320.637 35.6415 311.551 30.5118 301.518C29.4292 299.401 28.6198 300.952 27.9318 301.645C21.8696 307.739 18.9641 315.168 18.755 324.551L18.7567 324.549Z" fill="#747474"/>
<path d="M183.918 480.07C183.761 476.646 185.574 474.613 188.383 472.913C223.637 451.604 258.838 430.209 294.068 408.864C356.083 371.292 418.102 333.723 480.164 296.227C482.496 294.819 483.279 293.793 481.621 291.279C479.817 288.544 478.368 285.554 476.968 282.579C476.097 280.725 475.341 280.675 473.7 281.798C457.559 292.83 441.074 303.35 424.801 314.182C392.794 335.484 359.294 354.234 325.802 373.019C292.124 391.911 259.749 412.953 226.812 433.07C211.059 442.692 195.627 452.803 180.181 462.897C175.218 466.14 174.211 466.236 170.313 463.523C166.81 461.085 165.459 457.398 166.362 453.333C166.851 451.13 168.362 449.995 170.1 448.94C188.088 438.014 206.055 427.057 224.055 416.151C291.955 375.005 359.864 333.874 427.769 292.739C440.821 284.833 453.856 276.902 466.955 269.075C468.749 268.003 469.245 267.221 468.195 265.18C465.048 259.065 465.429 255.827 470.577 251.164C476.048 246.209 482.316 242.248 488.727 238.576C490.833 237.369 492.772 238.001 494.568 239.35C497.079 241.235 498.99 243.677 500.686 246.268C501.524 247.546 502.202 247.745 503.533 246.906C508.507 243.769 513.574 240.781 518.559 237.663C520.132 236.679 521.667 236.112 523.212 237.437C524.677 238.695 524.306 240.31 523.638 241.84C522.751 243.874 521.485 245.687 519.939 247.252C517.558 249.663 515.138 252.049 512.585 254.274C507.823 258.424 507.777 258.371 511.17 263.924C512.782 266.563 514.465 269.163 515.979 271.857C516.784 273.289 517.468 273.616 518.976 272.669C524.718 269.066 530.572 265.644 536.318 262.047C537.898 261.057 539.41 260.402 540.948 261.7C542.52 263.026 542.051 264.733 541.327 266.369C540.007 269.357 537.808 271.68 535.55 273.935C532.156 277.325 528.507 280.445 524.583 283.195C522.93 284.354 522.763 285.291 523.621 287.073C524.915 289.758 525.884 292.607 526.862 295.432C528.333 299.676 527.267 303.363 523.879 306.222C518.305 310.927 512.44 315.252 505.797 318.363C501.008 320.607 498.949 320.102 495.72 315.953C494.13 313.91 492.548 311.81 491.347 309.531C490.216 307.381 489.315 307.616 487.547 308.823C463.734 325.078 439.379 340.503 415.115 356.069C392.848 370.353 369.425 382.637 346.453 395.698C317.658 412.069 289.527 429.523 261.418 447.024C240.252 460.202 218.91 473.104 198.256 487.09C198.008 487.257 197.659 487.341 197.502 487.566C195.31 490.706 192.637 490.444 189.661 488.81C186.169 486.892 183.965 484.183 183.914 480.067L183.918 480.07ZM274.234 434.931C275.02 434.458 275.886 433.969 276.723 433.43C296.785 420.555 317.303 408.442 337.961 396.555C368.98 378.703 400.547 361.819 430.511 342.134C460.598 322.37 490.894 302.929 520.247 282.073C525.943 278.026 531.415 273.677 535.941 268.281C536.4 267.734 537.419 267.098 536.815 266.37C536.375 265.838 535.665 266.799 535.051 267.032C534.776 267.137 534.537 267.334 534.281 267.49C510.747 281.755 487.216 296.028 463.677 310.283C400.562 348.509 337.443 386.728 274.327 424.952C268.708 428.355 268.612 429.085 273.011 434.161C273.323 434.522 273.522 435.036 274.232 434.931H274.234ZM519.541 242.031C518.468 241.399 517.905 242.324 517.308 242.684C492.299 257.785 467.306 272.911 442.317 288.047C380.231 325.655 318.148 363.269 256.061 400.874C251.371 403.713 251.438 403.642 254.307 408.506C255.438 410.424 256.239 410.865 258.327 409.516C278.519 396.476 299.091 384.047 320.061 372.313C358.962 350.545 397.62 328.397 434.691 303.573C458.802 287.428 483.305 271.862 506.634 254.573C510.885 251.422 514.848 247.912 518.251 243.824C518.694 243.292 519.062 242.697 519.539 242.031H519.541ZM513.709 275.043C513.617 274.822 513.559 274.626 513.458 274.457C510.821 270.106 508.17 265.764 505.544 261.405C504.76 260.102 504.071 260.959 503.369 261.444C495.656 266.774 487.965 272.136 480.22 277.42C479.085 278.195 478.806 278.791 479.508 280.045C481.501 283.614 483.407 287.234 485.267 290.874C485.904 292.121 486.459 292.38 487.746 291.586C495.983 286.514 504.273 281.527 512.539 276.503C513.102 276.16 513.878 275.939 513.709 275.039V275.043ZM523.935 299.045C523.576 295.413 521.861 292.221 520.645 288.859C520.031 287.159 519.397 287.04 517.913 288.076C510.231 293.44 502.497 298.731 494.718 303.951C493.251 304.935 492.825 305.722 493.944 307.234C495.604 309.475 497.157 311.798 498.703 314.119C499.958 316.005 501.57 316.469 503.592 315.51C510.396 312.284 516.517 308.045 522.078 302.987C523.215 301.954 523.991 300.686 523.935 299.043V299.045ZM204.183 432.414C203.812 432.591 203.438 432.735 203.101 432.937C192.425 439.364 181.737 445.771 171.093 452.252C169.198 453.407 169.058 456.791 170.603 458.97C172.388 461.492 174.675 462.22 176.817 460.831C186.015 454.861 195.185 448.844 204.384 442.876C209.418 439.611 209.45 439.628 206.082 434.6C205.558 433.817 205.268 432.775 204.182 432.414H204.183ZM187.439 479.381C187.305 482.228 188.626 483.897 190.637 485.332C192.58 486.72 193.949 485.658 195.46 484.67C204.212 478.947 212.966 473.226 221.733 467.524C227.417 463.829 227.38 463.88 223.404 458.124C222.532 456.863 221.952 456.628 220.603 457.451C210.224 463.771 199.814 470.042 189.373 476.254C187.975 477.087 187.44 478.157 187.439 479.379V479.381ZM248.349 415.455C247.285 413.819 246.138 412.41 245.388 410.816C244.424 408.766 243.56 408.317 241.434 409.663C233.953 414.398 226.321 418.896 218.751 423.491C212.91 427.038 212.952 427.021 216.315 432.976C217.062 434.3 217.628 434.647 219.023 433.775C228.303 427.972 237.629 422.247 246.936 416.488C247.417 416.191 247.852 415.822 248.349 415.457V415.455ZM265.998 439.607C264.875 437.825 263.703 436.201 262.792 434.44C262.033 432.973 261.433 432.694 259.905 433.643C252.202 438.424 244.405 443.053 236.655 447.762C230.429 451.543 230.466 451.54 234.373 457.768C234.985 458.744 235.42 459 236.439 458.366C245.914 452.469 255.41 446.609 264.893 440.727C265.374 440.428 266.011 440.224 265.998 439.607ZM469.604 259.217C469.613 260.846 470.726 262.217 471.319 263.774C471.886 265.254 472.527 265.703 474.135 264.704C481.732 259.98 489.401 255.373 497.086 250.794C498.357 250.036 498.887 249.412 497.771 248.132C496.336 246.488 494.966 244.784 493.56 243.114C492.086 241.364 490.492 241.264 488.614 242.578C483.896 245.876 479.054 249.001 474.404 252.391C472.149 254.036 470.335 256.204 469.604 259.219V259.217ZM227.781 453.161C227.073 453.608 226.416 453.893 225.933 454.359C225.39 454.883 225.836 455.431 226.161 455.933C227.235 457.589 228.303 459.25 229.36 460.917C229.824 461.648 230.262 462.154 231.228 461.509C232.183 460.873 231.864 460.263 231.456 459.52C230.508 457.79 229.614 456.029 228.667 454.299C228.449 453.9 228.105 453.569 227.781 453.161ZM209.63 429.071C208.984 429.696 207.079 429.633 208.253 431.458C209.372 433.197 210.516 434.919 211.627 436.661C212.038 437.306 212.423 437.733 213.273 437.247C214.165 436.737 214.209 436.177 213.735 435.336C212.721 433.536 211.772 431.7 210.802 429.875C210.568 429.434 210.35 428.99 209.627 429.071H209.63ZM270.377 436.506C269.129 434.558 267.806 432.453 266.433 430.381C266.155 429.961 265.686 430.211 265.374 430.439C265.018 430.697 264.961 431.104 265.146 431.504C266.116 433.597 267.409 435.488 268.811 437.31C269.086 437.666 269.424 437.786 269.844 437.578C270.214 437.394 270.548 437.185 270.376 436.506H270.377ZM248.176 405.793C247.545 406.058 246.97 406.396 247.302 407.107C248.305 409.253 249.604 411.223 251.084 413.07C251.354 413.406 251.752 413.485 252.127 413.228C252.565 412.928 252.813 412.577 252.452 412.011C251.238 410.102 250.062 408.169 248.843 406.263C248.703 406.043 248.385 405.935 248.174 405.793H248.176Z" fill="#747474"/>
<path d="M89.2578 237.624C89.4298 227.696 92.6169 218.994 97.6471 210.879C99.8528 207.32 102.168 203.825 104.264 200.202C105.797 197.55 107.939 196.432 110.932 196.643C114.272 196.88 117.476 197.707 120.296 199.456C122.483 200.813 123.216 200.145 124.098 198.021C127.061 190.888 131.855 184.799 135.734 178.182C137.231 175.626 139.826 175.571 142.363 175.821C146.305 176.209 149.915 177.661 153.217 179.788C154.634 180.701 155.16 180.49 155.715 178.917C158.635 170.636 164.163 163.809 168.487 156.308C169.485 154.574 171.149 154.044 173.062 153.988C178.734 153.822 183.594 156.026 187.953 159.355C189.987 160.908 190.818 160.378 191.599 158.285C194.558 150.351 199.858 143.745 204.04 136.506C205.445 134.075 207.878 133.786 210.335 134.007C213.126 134.259 215.858 134.949 218.355 136.254C219.691 136.953 220.438 136.903 221.107 135.409C223.893 129.191 228.215 123.873 231.468 117.927C232.761 115.563 234.716 114.549 237.362 114.636C242.427 114.805 246.948 116.607 250.897 119.617C252.688 120.982 254 121.121 255.921 120.073C258.11 118.877 260.577 118.329 263.089 118.109C270.841 117.432 276.205 120.598 279.059 127.877C279.988 130.246 280.912 131.034 283.617 130.322C288.603 129.008 293.701 129.068 298.608 131.036C306.011 134.004 309.697 140.283 308.444 148.143C308.102 150.291 308.658 150.787 310.751 150.991C320.25 151.916 328.199 155.509 331.942 165.027C333.748 169.621 334.381 174.502 332.494 179.312C331.794 181.095 332.339 181.773 334.042 182.281C336.037 182.877 338.023 183.612 339.87 184.567C349.606 189.607 352.171 200.381 345.463 209.015C343.704 211.279 344.269 212.054 346.18 213.479C351.082 217.136 355.038 221.623 356.109 227.881C357.336 235.058 354.2 240.977 347.154 244.462C344.738 245.657 344.283 246.808 345.063 249.211C348.542 259.921 344.635 271.847 330.696 277.104C329.629 277.506 329.054 277.048 328.298 276.518C325.742 274.732 322.808 273.728 319.95 272.559C318.474 271.957 317.97 272.149 318.184 273.864C318.793 278.733 317.262 283.094 314.901 287.278C312.095 292.248 307.107 294.206 302.4 296.57C301.832 296.855 301.259 296.587 300.733 296.22C295.652 292.697 289.719 291.181 284.013 289.123C282.112 288.437 281.706 289.098 282.109 290.87C284.38 300.89 279.919 311.523 267.305 316.275C266.344 316.636 265.681 316.463 264.843 315.91C260.467 313.03 255.472 311.558 250.611 309.779C248.753 309.098 248.579 309.669 249.058 311.322C250.855 317.519 249.81 323.305 246.646 328.883C243.768 333.958 238.76 335.994 233.937 338.352C233.191 338.717 232.64 338.155 232.063 337.751C228.5 335.265 224.345 334.09 220.382 332.486C218.93 331.898 218.494 332.043 218.74 333.798C220.472 346.071 215.546 354.384 203.98 358.946C203.199 359.253 202.541 359.403 201.744 358.892C194.496 354.246 186.329 351.835 178.093 349.942C151.971 343.937 132.653 328.927 119.056 306.144C110.262 291.41 101.863 276.458 94.8782 260.764C91.5714 253.335 89.3843 245.578 89.2595 237.621L89.2578 237.624ZM92.3808 237.682C92.5292 245.086 94.4415 252.189 97.4583 258.989C104.709 275.335 113.301 290.985 122.716 306.162C134.486 325.138 150.362 338.987 172.362 345.033C182.54 347.83 192.84 350.349 202.248 355.397C202.821 355.704 203.332 355.75 203.938 355.48C207.612 353.836 211.077 352.017 213.254 348.332C216.339 343.11 216.952 337.719 215.199 331.934C213.605 326.675 213.737 326.536 218.467 324.006C218.994 323.724 219.517 323.432 220.025 323.114C226.315 319.196 228.089 312.561 224.655 305.987C222.804 302.442 220 299.794 216.848 297.453C212.141 293.96 212.123 293.739 215.598 289.175C220.514 282.724 220.397 273.079 210.641 268.879C208.996 268.172 207.293 267.591 205.59 267.034C201.577 265.72 201.101 265.025 202.417 260.966C203.863 256.502 203.922 252.143 202.03 247.828C198.288 239.297 190.94 236.625 182.447 235.949C177.584 235.563 177.335 235.323 178.345 230.54C179.734 223.966 176.955 218.643 170.775 216.036C166.463 214.218 162.026 214.274 157.553 215.216C151.779 216.432 151.784 216.457 149.298 211.032C146.226 204.327 141.481 201.946 134.278 203.486C132.314 203.906 130.413 204.55 128.685 205.546C126.675 206.704 125.029 206.53 123.26 204.982C119.952 202.088 115.999 200.508 111.675 199.782C109.444 199.407 107.912 200.022 106.735 202.098C104.868 205.39 102.723 208.524 100.709 211.733C95.7433 219.646 92.4719 228.109 92.3791 237.685L92.3808 237.682ZM226.465 168.767C238.798 168.607 245.855 176.07 244.766 188.244C244.633 189.739 244.962 190.157 246.417 190.179C249.429 190.223 252.349 190.915 255.177 191.918C266.516 195.938 270.62 205.456 269.85 215.251C269.703 217.124 267.818 219.254 268.809 220.549C269.838 221.891 272.33 222.087 274.16 222.84C285.945 227.691 289.082 239.012 281.345 249.055C280.31 250.401 280.219 251.085 281.691 252.037C285.445 254.465 288.283 257.812 290.576 261.596C295.368 269.502 292.635 278.635 284.104 283.54C283.338 283.98 282.615 284.489 281.871 284.966C282.539 285.792 283.568 285.775 284.461 286.055C290.075 287.821 295.599 289.817 300.861 292.481C301.464 292.786 301.99 293.257 302.791 292.9C306.55 291.215 310.118 289.391 312.339 285.594C315.59 280.04 315.928 274.359 313.933 268.327C312.628 264.38 313.063 263.655 316.762 261.736C317.471 261.37 318.174 260.99 318.853 260.574C325.229 256.69 327.084 250.237 323.777 243.526C321.912 239.741 318.857 237.091 315.574 234.584C311.766 231.677 310.758 230.902 314.39 226.661C320.842 219.131 318.484 210.19 309.383 206.128C308.024 205.522 306.609 205.022 305.194 204.556C300.292 202.942 300.085 202.633 301.604 197.741C303.567 191.418 302.461 185.614 298.282 180.612C293.741 175.172 287.423 173.513 280.615 173.281C277.116 173.163 276.202 172.192 277.172 168.846C279.63 160.361 274.418 153.741 265.889 152.225C261.852 151.508 257.939 152.153 254.056 153.127C251.683 153.723 250.204 152.798 249.275 150.692C248.753 149.507 248.172 148.341 247.754 147.118C246.252 142.726 239.205 139.638 235.036 140.494C232.682 140.977 230.283 141.388 228.229 142.638C225.814 144.107 223.937 143.86 221.8 141.974C218.507 139.065 214.468 137.615 210.114 137.082C208.664 136.904 207.276 137.004 206.443 138.444C203.002 144.394 198.776 149.872 195.862 156.135C195.621 156.652 195.253 157.43 195.462 157.765C195.806 158.317 196.545 157.82 197.111 157.736C207.057 156.247 211.88 158.867 215.929 168.217C216.647 169.873 217.425 170.251 219.072 169.77C221.472 169.069 223.962 168.828 226.465 168.767ZM193.741 190.748C194.638 190.748 195.542 190.675 196.43 190.76C206.523 191.71 213.408 199.183 212.393 208.053C211.959 211.839 211.974 211.726 215.785 212.226C229.525 214.034 236.947 222.445 237.237 234.763C237.301 237.499 234.874 240.599 236.242 242.414C237.677 244.316 241.222 244.519 243.687 245.775C252.056 250.041 255.046 259.156 251.049 267.339C250.103 269.276 247.319 270.885 247.984 272.691C248.67 274.553 251.371 275.6 252.999 277.2C262.691 286.726 262.58 298.901 251.714 305.171C251.29 305.416 250.591 305.778 250.602 306.059C250.633 306.76 251.417 306.772 251.968 306.969C256.474 308.578 261 310.148 265.216 312.441C266.373 313.069 267.238 312.789 268.283 312.325C277.145 308.384 281.119 300.449 279.008 290.828C278.02 286.327 279.437 282.881 283.261 280.491C289.896 276.341 291.603 269.478 287.723 262.629C285.859 259.342 283.126 256.919 280.145 254.686C274.964 250.803 275.912 250.08 278.814 246.54C284.461 239.65 283.536 229.902 273.408 225.867C271.835 225.241 270.222 224.709 268.612 224.184C265.125 223.046 264.656 222.241 265.671 218.716C266.56 215.635 267.347 212.579 266.706 209.307C264.826 199.692 257.144 193.65 246.076 193.174C240.987 192.955 240.734 192.637 241.739 187.733C243.114 181.032 240.171 175.642 233.8 173.168C229.345 171.438 224.799 171.627 220.259 172.648C215.386 173.744 214.973 173.595 213.023 169.054C209.319 160.425 201.813 157.862 193.481 162.355C190.892 163.751 188.589 164.17 185.99 161.796C182.775 158.859 178.68 157.388 174.277 157.042C172.972 156.939 171.652 156.934 170.858 158.307C166.875 165.201 161.853 171.5 158.959 179.02C158.684 179.732 157.947 180.632 158.484 181.198C159.092 181.839 159.897 180.934 160.598 180.681C169.901 177.32 179.201 178.876 183.184 190.047C183.781 191.721 184.651 192.11 186.344 191.619C188.739 190.924 191.225 190.611 193.737 190.75L193.741 190.748ZM162.418 211.563C175.623 211.433 182.427 218.611 181.311 231.133C181.147 232.973 182.103 232.816 183.189 232.887C187.012 233.14 190.651 234.097 194.159 235.627C203.718 239.794 208.273 250.511 205.912 259.595C205.069 262.838 205.435 264.398 208.803 264.831C208.9 264.842 208.993 264.89 209.088 264.92C223.482 269.556 225.529 283.623 217.777 292.035C216.517 293.403 217.259 294.021 218.34 294.784C221.377 296.934 223.844 299.597 226.053 302.624C231.589 310.214 230.276 319.527 222.635 325C221.507 325.809 220.256 326.447 219.047 327.139C218.553 327.421 217.784 327.534 217.88 328.223C217.915 328.48 218.708 328.662 219.173 328.821C223.797 330.402 228.385 332.07 232.701 334.4C233.335 334.743 233.873 334.949 234.642 334.601C238.409 332.891 241.884 330.955 244.087 327.154C247.149 321.872 247.462 316.437 245.776 310.711C244.311 305.737 244.414 305.58 249.132 303.095C249.307 303.002 249.474 302.891 249.65 302.794C257.135 298.684 259.132 291.314 254.71 284.016C252.816 280.888 250.123 278.544 247.221 276.377C242.84 273.106 242.845 272.705 246.09 268.482C251.417 261.554 250.906 251.963 240.977 247.858C238.957 247.023 236.844 246.412 234.78 245.677C232.763 244.961 231.898 243.646 232.632 241.495C232.922 240.648 233.151 239.778 233.402 238.917C235.879 230.397 231.815 221.398 223.782 217.662C220.116 215.957 216.264 215.116 212.205 215.064C208.769 215.022 207.838 213.877 208.792 210.55C211.241 202.019 206.003 195.727 198.025 194.099C196.86 193.861 195.654 193.77 194.464 193.723C191.752 193.613 189.093 194.001 186.486 194.742C183.641 195.551 181.587 194.834 180.657 191.803C180.424 191.047 180.033 190.336 179.695 189.614C177.102 184.037 173.429 181.856 167.321 182.241C164.687 182.406 162.161 183.094 159.905 184.387C157.492 185.769 155.615 185.65 153.452 183.754C150.236 180.938 146.303 179.457 142.059 178.875C140.523 178.664 138.976 178.608 138.078 180.176C134.171 187 129.14 193.179 126.333 200.629C126.066 201.335 125.274 202.117 125.913 202.833C126.628 203.631 127.37 202.72 128.014 202.422C132.973 200.138 138.063 199.14 143.391 200.888C144.486 201.246 144.958 200.856 145.617 200.121C148.742 196.647 152.755 194.741 157.285 193.919C166.077 192.325 173.228 197.607 174.124 206.484C174.318 208.401 174.893 208.319 176.294 207.751C179.092 206.613 182.028 206.086 185.054 206.086C196.739 206.086 204.076 214.399 202.327 225.95C201.948 228.46 203.153 228.297 204.723 228.286C215.509 228.212 226.539 236.723 222.622 250.82C222.165 252.461 222.79 252.883 224.107 253.333C226.878 254.282 229.272 255.893 231.456 257.838C240.341 265.757 240.621 273.111 232.191 281.509C230.917 282.778 231.367 283.108 232.552 283.759C235.876 285.584 238.527 288.081 239.958 291.679C242.346 297.674 238.529 304.847 232.23 306.232C231.347 306.426 230.358 306.652 229.93 305.529C229.529 304.476 230.183 303.873 231.077 303.431C232.057 302.946 233.078 302.504 233.962 301.874C238.287 298.781 238.869 294.419 235.598 290.239C234.473 288.802 233.104 287.657 231.567 286.71C227.86 284.427 227.616 281.729 230.836 278.619C235.814 273.807 236.222 269.019 231.999 263.51C229.524 260.282 226.413 257.828 222.515 256.494C219.663 255.517 218.659 253.61 219.502 250.772C222.549 240.52 216.585 232.031 205.846 231.363C204.754 231.295 203.653 231.297 202.556 231.322C198.209 231.417 197.875 230.984 199.064 226.705C201.575 217.669 195.769 209.646 186.398 209.142C182.724 208.944 179.26 209.743 175.916 211.157C171.603 212.981 171.134 212.694 171.17 208.083C171.212 202.725 168.498 198.592 163.875 197.305C157.919 195.649 152.907 197.712 148.457 201.587C147.804 202.156 147.054 202.824 148.104 203.778C150.386 205.848 151.673 208.547 152.732 211.365C153.204 212.621 153.893 213.006 155.251 212.599C157.742 211.85 160.318 211.512 162.418 211.561V211.563ZM281.374 144.956C292.593 144.957 300.296 153.036 298.808 163.65C298.383 166.682 299.114 167.143 301.925 167.275C314.741 167.874 321.73 176.962 319.03 189.372C318.641 191.163 319.051 191.712 320.678 192.305C324.695 193.772 327.985 196.378 330.688 199.671C336.259 206.457 336.011 213.3 329.629 219.288C327.427 221.355 327.73 222.016 330.101 223.433C338.05 228.185 341.027 239.237 329.437 244.747C328.384 245.247 327.89 245.718 328.103 246.96C329.534 255.329 325.459 260.652 318.415 264.309C317.587 264.739 316.391 264.852 316.574 266.272C316.742 267.579 317.366 268.337 318.675 268.837C322.024 270.115 325.349 271.481 328.575 273.037C329.806 273.631 330.671 273.527 331.868 273.073C341.372 269.477 345.112 258.979 342.178 249.795C340.546 244.686 340.703 244.526 345.531 241.948C353.578 237.651 355.564 230.398 350.834 222.592C349.257 219.99 347.079 217.958 344.714 216.101C343.617 215.238 342.5 214.397 341.438 213.494C339.785 212.088 339.521 210.595 341.121 208.895C342.489 207.442 343.686 205.844 344.519 203.999C347.512 197.369 345.134 190.545 338.622 187.336C337.02 186.546 335.32 185.931 333.624 185.359C328.089 183.492 328.074 183.512 329.676 178.017C330.499 175.196 330.796 172.365 330.158 169.452C328.096 160.034 320.442 154.324 309.373 153.988C304.867 153.851 304.338 153.179 305.265 148.786C306.786 141.581 303.817 136.248 296.893 133.693C292.814 132.189 288.67 132.339 284.509 133.194C278.716 134.381 278.721 134.401 276.264 128.975C273.253 122.321 268.357 119.845 261.241 121.519C259.413 121.95 257.55 122.527 255.919 123.429C253.656 124.68 251.919 124.465 249.975 122.764C246.667 119.865 242.655 118.379 238.326 117.739C236.647 117.491 235.141 117.68 234.198 119.363C230.979 125.102 226.864 130.307 224.075 136.298C223.62 137.276 222.554 138.26 223.757 139.535C224.929 140.777 226.021 140.305 227.242 139.719C231.095 137.865 235.183 136.778 239.416 137.544C241.68 137.955 243.242 137.58 245.125 136.276C256.457 128.436 267.983 132.868 270.506 145.974C270.821 147.608 271.541 147.042 272.325 146.739C275.239 145.609 278.236 144.946 281.37 144.957L281.374 144.956ZM299.756 170.143C296.185 170.163 294.808 168.45 295.626 165.002C297.186 158.433 294.431 152.31 288.475 149.489C283.348 147.061 278.18 147.809 273.072 149.681C271.651 150.201 271.636 150.728 272.986 151.542C279.355 155.377 281.866 160.989 280.374 168.293C280.069 169.788 280.509 170.259 281.966 170.276C285.397 170.317 288.643 171.247 291.851 172.414C303.011 176.472 307.839 188.859 304.51 198.735C303.877 200.611 304.404 201.126 306.113 201.61C310.174 202.763 314.012 204.453 316.985 207.599C322.592 213.529 322.732 221.696 317.186 228.874C315.966 230.453 315.906 231.234 317.594 232.316C321.009 234.506 323.595 237.562 325.725 240.959C326.688 242.493 327.592 242.338 328.927 241.656C334.568 238.771 335.656 233.339 331.494 228.558C329.686 226.482 327.335 225.207 324.906 224.002C322.927 223.021 322.621 221.606 324.344 220.009C325.659 218.79 327.054 217.645 328.28 216.342C331.698 212.706 332.195 208.922 329.75 204.588C327.147 199.973 323.287 196.797 318.214 195.187C314.511 194.01 314.486 194.003 315.678 190.161C316.604 187.177 317.164 184.171 316.381 181.044C314.69 174.286 308.317 170.096 299.758 170.145L299.756 170.143ZM255.887 135.586C253.002 135.674 249.97 136.842 247.107 138.569C246.002 139.236 245.727 139.837 246.813 140.816C249.005 142.793 250.555 145.243 251.447 148.039C252.08 150.022 253.155 150.284 255.051 149.779C258.434 148.876 261.922 148.43 265.411 149.105C267.142 149.44 267.428 148.69 267.531 147.242C267.998 140.654 263.152 135.547 255.889 135.586H255.887Z" fill="#747474"/>
<path d="M334.836 131.629C334.88 99.2393 361.442 72.8231 393.836 72.9531C426.401 73.0848 452.66 99.3929 452.612 131.84C452.563 164.445 426.096 190.782 393.475 190.689C361.09 190.596 334.79 164.107 334.834 131.627L334.836 131.629ZM393.514 187.142C424.209 187.223 449.001 162.591 449.062 131.949C449.123 101.448 424.366 76.4275 394.095 76.3972C363.383 76.3668 338.438 101.041 338.363 131.522C338.288 162.215 362.924 187.061 393.514 187.142Z" fill="#C5594D"/>
<path d="M418.324 241.592C419.189 237.113 420.164 231.938 421.204 226.775C421.408 225.764 421.943 224.795 423.24 225.166C424.256 225.457 424.555 226.35 424.351 227.324C423.273 232.478 422.172 237.629 421.061 242.777C420.855 243.726 420.417 244.517 419.236 244.215C418.241 243.96 418.209 243.135 418.322 241.593L418.324 241.592Z" fill="#747474"/>
<path d="M132.371 151.572C132.449 152.492 131.963 153.019 131.447 153.475C128.626 155.975 125.796 158.468 122.936 160.923C122.086 161.653 121.061 162.333 120.098 161.148C119.306 160.17 119.869 159.279 120.638 158.539C123.429 155.855 126.268 153.225 129.422 150.966C130.648 150.088 131.789 149.86 132.371 151.572Z" fill="#747474"/>
<path d="M88.4987 297.542C88.7162 295.464 88.9169 293.384 89.158 291.309C89.2778 290.288 89.8427 289.623 90.9337 289.739C91.8932 289.842 92.3148 290.61 92.2372 291.454C91.9236 294.92 91.5441 298.381 91.1361 301.839C91.0484 302.573 90.5813 303.149 89.7297 303.095C88.7162 303.031 88.3941 302.269 88.3908 301.43C88.3857 300.139 88.5105 298.846 88.5796 297.552C88.5527 297.549 88.524 297.547 88.497 297.544L88.4987 297.542Z" fill="#747474"/>
<path d="M310.618 322.881C310.504 323.815 310.064 324.225 309.536 324.515C306.932 325.949 304.344 327.412 301.689 328.744C300.74 329.22 299.46 329.621 298.875 328.224C298.354 326.982 299.475 326.501 300.34 326.033C302.866 324.666 305.382 323.278 307.952 321.996C309.163 321.392 310.258 321.527 310.618 322.883V322.881Z" fill="#747474"/>
<path d="M49.1759 237.109C49.1759 235.622 49.1372 234.133 49.1894 232.647C49.2232 231.692 49.5672 230.815 50.7189 230.851C51.7088 230.881 52.046 231.663 52.0089 232.524C51.8706 235.791 51.7037 239.056 51.4997 242.318C51.4558 243.027 51.181 243.742 50.2602 243.673C49.3614 243.604 49.1996 242.897 49.1928 242.164C49.1776 240.479 49.1878 238.792 49.1878 237.108C49.1844 237.108 49.1793 237.108 49.1759 237.108V237.109Z" fill="#747474"/>
<path d="M69.2847 275.301C69.4415 273.515 69.5562 271.724 69.7703 269.943C69.8934 268.925 70.2172 267.846 71.5291 267.954C72.8276 268.062 73.0552 269.11 72.9085 270.179C72.5409 272.843 72.1446 275.504 71.6775 278.153C71.5291 278.997 71.3234 280.168 70.1211 279.93C69.0182 279.711 69.1565 278.566 69.1632 277.688C69.17 276.893 69.2813 276.1 69.3471 275.304C69.3268 275.303 69.3066 275.301 69.2847 275.299V275.301Z" fill="#747474"/>
<path d="M376.647 40.7311C374.163 40.4035 371.505 40.0625 368.853 39.6962C367.891 39.5645 367.045 39.1593 367.173 38.0298C367.306 36.8464 368.284 36.7248 369.213 36.8717C371.859 37.2904 374.507 37.7175 377.127 38.2628C377.979 38.4401 379.459 38.2493 379.272 39.7164C379.092 41.1278 377.736 40.5622 376.647 40.7294V40.7311Z" fill="#747474"/>
<path d="M482.491 179.928C481.827 181.707 481.093 183.752 480.291 185.769C479.965 186.586 479.284 187.062 478.394 186.705C477.54 186.36 477.291 185.567 477.534 184.728C478.107 182.734 478.734 180.755 479.368 178.78C479.653 177.892 480.12 177.012 481.223 177.279C482.388 177.561 482.574 178.582 482.493 179.93L482.491 179.928Z" fill="#747474"/>
<path d="M43.6894 236.157C43.8935 234.909 44.1228 233.246 44.45 231.6C44.5967 230.859 45.1346 230.366 45.9491 230.469C46.9339 230.592 47.2678 231.349 47.1716 232.195C46.9356 234.254 46.6388 236.311 46.2846 238.353C46.1413 239.175 45.6759 239.878 44.6624 239.682C43.8024 239.515 43.7215 238.775 43.6928 238.065C43.6743 237.572 43.6894 237.075 43.6894 236.157Z" fill="#747474"/>
<path d="M150.825 389.091C150.547 389.772 151.695 391.895 149.775 392.031C147.876 392.164 148.528 389.978 148.188 388.787C147.921 387.854 147.948 386.836 147.864 385.853C147.778 384.845 148.125 384.026 149.208 383.929C150.335 383.826 150.753 384.656 150.812 385.63C150.871 386.611 150.825 387.601 150.825 389.093V389.091Z" fill="#747474"/>
<path d="M183.857 376.259C184.052 375.298 184.223 374.11 184.548 372.967C184.833 371.966 185.375 371.03 186.659 371.464C187.663 371.802 187.939 372.641 187.654 373.645C187.329 374.792 187.029 375.95 186.641 377.074C186.339 377.949 185.862 378.81 184.72 378.467C183.757 378.177 183.808 377.285 183.859 376.259H183.857Z" fill="#747474"/>
<path d="M381.246 219.05C381.015 218.933 380.769 218.895 380.686 218.756C379.906 217.438 380.744 216.227 381.072 215.037C381.371 213.96 381.275 212.471 382.74 212.103C383.72 211.856 384.366 212.545 384.202 213.463C383.868 215.337 383.062 217.059 381.954 218.616C381.801 218.83 381.47 218.918 381.248 219.05H381.246Z" fill="#747474"/>
<path d="M279.171 72.2627C280.196 72.2897 280.604 72.8131 280.594 73.5728C280.582 74.6077 279.921 75.2053 278.931 75.2053C278.107 75.2053 277.763 74.5469 277.844 73.7838C277.933 72.9194 278.491 72.4214 279.172 72.2627H279.171Z" fill="#747474"/>
<path d="M510.079 96.7863C510.025 108.118 505.888 115.71 498.83 121.776C495.207 124.887 491.283 127.646 487.501 130.572C486.1 131.656 485.265 131.056 484.348 129.787C481.161 125.384 479.301 120.295 476.888 115.501C466.959 95.7801 455.5 77.0084 442.469 59.1922C442.351 59.0318 442.222 58.8782 442.104 58.7178C437.654 52.7481 437.722 52.4999 444.136 49.3817C448.079 47.4655 451.973 45.4802 456.23 44.2781C468.352 40.8577 478.695 43.9455 487.368 52.819C491.793 57.3452 495.285 62.567 497.475 68.5671C498.037 70.1051 499.029 71.3105 500.023 72.5683C506.054 80.1975 509.743 88.7485 510.077 96.7863H510.079ZM506.656 98.4577C506.649 95.6535 506.295 92.9118 505.501 90.2021C503.614 83.7563 489.307 59.3272 484.516 54.6575C476.169 46.5184 466.478 44.2443 455.381 48.0041C451.303 49.3851 447.608 51.5832 443.661 53.2259C441.996 53.9181 442.853 54.5951 443.494 55.3767C453.495 67.5744 461.286 81.2358 469.449 94.649C475.365 104.368 480.385 114.548 484.85 124.995C485.801 127.219 486.474 127.08 488.084 125.77C490.555 123.761 493.297 122.085 495.744 120.054C502.485 114.456 506.85 107.596 506.656 98.4594V98.4577Z" fill="#747474"/>
<path d="M511.443 114.786C512.133 113.65 511.592 111.508 513.739 111.238C514.587 111.131 514.821 112.078 514.594 112.793C514.126 114.253 514.138 116.198 512.373 116.692C511.317 116.988 511.435 115.732 511.443 114.785V114.786Z" fill="#747474"/>
<path d="M65.0714 407.112C64.2468 407.142 63.6313 406.774 63.6447 406.163C63.6835 404.161 64.2198 402.265 65.6531 400.786C66.0932 400.332 66.7947 400.465 67.2231 401.01C68.1606 402.204 67.2804 403.285 66.8942 404.345C66.5013 405.42 66.2855 406.69 65.0714 407.112Z" fill="#747474"/>
<path d="M71.9263 406.148C71.4356 407.275 72.2973 409.234 70.4356 409.303C68.8623 409.362 69.3412 407.672 69.3783 406.698C69.4171 405.633 68.8943 403.972 70.7105 403.904C72.2518 403.847 71.6885 405.292 71.9263 406.148Z" fill="#747474"/>
<path d="M63.36 342.933C61.9536 342.617 60.3871 342.308 58.8458 341.903C58.0414 341.692 57.3163 341.224 57.5187 340.221C57.7261 339.188 58.6114 339.132 59.4158 339.24C60.9941 339.455 62.5691 339.718 64.1256 340.056C64.9367 340.231 65.6584 340.704 65.5522 341.693C65.4207 342.931 64.4375 342.887 63.36 342.933Z" fill="#747474"/>
<path d="M115.419 338.774C114.534 338.619 113.984 338.265 113.942 337.424C113.89 336.406 116.714 333.978 117.8 334.132C118.6 334.245 119.197 334.829 118.935 335.563C118.335 337.247 116.939 338.178 115.419 338.773V338.774Z" fill="#747474"/>
<path d="M123.774 366.485C124.687 366.485 129.98 370.571 130.292 371.516C130.457 372.016 130.455 372.504 130.081 372.907C129.53 373.503 128.796 373.601 128.187 373.164C126.334 371.83 124.525 370.432 122.737 369.011C122.246 368.621 122.091 367.979 122.351 367.38C122.604 366.798 123.115 366.492 123.773 366.485H123.774Z" fill="#747474"/>
<path d="M117.934 396.006C116.452 395.822 116.15 394.794 116.056 393.666C115.971 392.65 116.379 391.828 117.508 391.89C118.74 391.958 119.034 392.967 119.131 394.009C119.224 394.995 118.916 395.745 117.934 396.008V396.006Z" fill="#747474"/>
<path d="M50.6504 370.652C49.6217 370.659 48.728 370.48 48.5071 369.405C48.2761 368.28 49.0737 367.74 49.9961 367.583C51.7397 367.286 53.5036 367.051 55.2674 366.946C56.2202 366.891 57.0195 367.416 57.0735 368.501C57.1224 369.489 56.3838 369.869 55.5524 369.995C53.8965 370.249 52.2321 370.443 50.6487 370.652H50.6504Z" fill="#747474"/>
<path d="M45.2529 398.804C44.1063 398.551 43.6206 398.029 43.9714 397.252C44.6307 395.792 44.6847 393.786 46.6155 393.312C47.5463 393.082 48.0505 393.987 47.7436 394.879C47.2107 396.43 46.5092 397.919 45.2529 398.804Z" fill="#747474"/>
<path d="M172.885 252.168C172.487 252.187 172.089 252.211 171.689 252.224C167.742 252.354 167.242 251.723 168.315 247.956C171.045 238.36 164.893 230.105 154.931 229.995C151.69 229.959 148.592 230.616 145.624 231.904C144.801 232.26 143.999 232.679 143.149 232.949C141.559 233.456 140.651 232.821 140.483 231.155C140.462 230.957 140.451 230.755 140.469 230.557C141.031 225.011 139.304 220.493 133.876 218.451C127.957 216.222 122.76 218.407 118.067 222.163C117.043 222.982 116.219 225.379 114.617 223.659C113.163 222.097 115.035 220.785 116.176 219.784C119.819 216.592 124.077 214.77 128.94 214.596C136.827 214.316 142.609 219.176 143.486 226.991C143.71 228.999 144.068 229.217 145.953 228.543C151.668 226.5 157.457 226.097 163.101 228.891C169.431 232.026 173.075 238.451 171.844 245.392C171.242 248.795 172.338 249.393 175.256 249.273C178.532 249.138 181.552 250.286 184.352 251.878C191.171 255.758 194.102 262.592 192.233 270.508C191.727 272.652 191.835 273.773 194.242 274.588C197.881 275.824 200.801 278.325 203.312 281.239C209.39 288.287 209.204 295.146 202.432 301.508C200.387 303.429 200.655 304.216 202.908 305.3C204.825 306.223 206.284 307.761 207.565 309.441C212.499 315.907 209.658 324.674 201.869 327.021C200.919 327.308 199.818 327.715 199.282 326.453C198.758 325.223 199.645 324.64 200.634 324.227C210.007 320.312 208.196 312.144 201.011 307.636C197.257 305.282 196.965 302.589 200.135 299.558C205.159 294.75 205.587 290.006 201.385 284.473C198.661 280.889 195.235 278.147 190.797 277.085C188.218 276.469 187.529 275.385 188.453 272.858C189.48 270.05 190.132 267.116 189.586 264.057C188.276 256.72 181.814 252.109 172.888 252.165L172.885 252.168Z" fill="#747474"/>
<path d="M135.049 286.597C135.139 287.271 135.142 287.802 134.662 288.086C134.083 288.429 133.687 287.944 133.463 287.546C132.198 285.314 130.98 283.055 129.76 280.8C129.37 280.079 129.535 279.415 130.217 279.003C131.058 278.492 131.795 278.831 132.198 279.631C133.353 281.926 134.437 284.257 135.049 286.599V286.597Z" fill="#747474"/>
<path d="M141.002 282.957C140.936 284.634 140.274 285.327 139.468 284.978C137.699 284.212 137.043 282.451 136.64 280.715C136.429 279.805 137.171 279.256 138.075 279.204C139.166 279.14 141.048 282.083 141.002 282.957Z" fill="#747474"/>
<path d="M271.649 189.472C270.852 189.51 270.056 189.568 269.258 189.583C267.261 189.624 266.579 188.577 266.944 186.713C267.041 186.225 267.204 185.751 267.341 185.271C270.029 175.797 264.105 167.661 254.242 167.325C250.265 167.188 246.598 168.389 242.986 169.947C240.389 171.068 239.473 170.362 239.449 167.572C239.362 157.18 232.069 152.33 222.389 156.25C219.961 157.233 217.769 158.588 216.052 160.628C215.433 161.362 214.641 161.894 213.722 161.215C212.811 160.542 212.973 159.588 213.615 158.848C217.966 153.848 223.568 151.445 230.082 152.011C235.895 152.514 240.114 155.641 241.981 161.435C242.041 161.624 242.088 161.821 242.169 162.002C242.803 163.418 241.775 165.743 243.139 166.261C244.309 166.705 246.085 165.448 247.621 165.053C252.392 163.825 257.107 163.864 261.649 165.99C268.594 169.24 272.317 176.188 270.814 183.694C270.319 186.176 271.025 186.446 273.199 186.529C280.396 186.804 286.396 189.418 290.035 196.059C292.168 199.954 292.23 204.114 291.176 208.277C290.699 210.16 290.93 210.97 292.905 211.765C298.449 213.994 302.765 217.784 305.362 223.259C308.055 228.936 306.817 234.018 301.313 239.037C299.525 240.668 299.384 241.362 301.63 242.439C303.621 243.395 305.206 244.965 306.552 246.732C311.451 253.17 308.869 261.663 301.215 264.251C300.191 264.597 298.932 265.139 298.315 263.801C297.672 262.411 298.881 261.891 299.917 261.447C308.415 257.806 307.297 250.342 301.252 245.841C299.984 244.895 298.5 244.242 297.122 243.444C294.77 242.079 294.66 240.999 296.672 239.106C297.979 237.877 299.374 236.728 300.572 235.401C303.572 232.08 304.117 228.308 302.001 224.363C299.34 219.404 295.323 215.915 289.821 214.475C287.327 213.821 286.475 212.737 287.426 210.227C292.615 196.532 281.779 189.011 271.648 189.473L271.649 189.472Z" fill="#747474"/>
<path d="M275.479 201.191C275.663 200.563 276.01 199.214 276.457 197.899C276.739 197.067 277.366 196.535 278.304 196.799C279.4 197.108 279.607 197.97 279.309 198.936C278.928 200.172 278.496 201.397 277.99 202.588C277.685 203.307 277.28 204.181 276.278 203.916C275.304 203.658 275.322 202.768 275.479 201.191Z" fill="#747474"/>
<path d="M235.484 209.383C235.278 209.398 234.683 209.467 234.086 209.484C231.479 209.557 230.826 208.772 231.421 206.29C231.7 205.129 232.104 203.986 232.265 202.809C233.529 193.567 226.039 186.223 216.451 187.274C213.355 187.613 210.437 188.521 207.587 189.809C204.763 191.087 203.727 190.26 203.859 187.159C204.237 178.316 197.54 173.025 188.988 175.447C185.779 176.357 182.856 177.804 180.59 180.36C179.939 181.094 179.234 182.086 178.121 181.199C177.118 180.401 177.497 179.349 178.157 178.537C183.092 172.464 196.151 168.171 203.63 176.428C205.652 178.66 206.732 181.324 206.874 184.292C206.965 186.188 207.37 186.627 209.302 185.857C212.845 184.442 216.579 183.799 220.435 184.355C230.88 185.859 236.809 193.686 235.13 204.072C234.809 206.055 235.221 206.314 237.042 206.381C244.306 206.651 250.515 209.067 254.296 215.77C256.463 219.61 256.751 223.753 255.615 227.939C255.058 229.988 255.217 230.993 257.532 231.817C261.846 233.351 265.257 236.348 267.94 240.054C272.673 246.59 272.105 253.102 265.928 258.682C263.591 260.794 264.287 261.464 266.451 262.659C269.323 264.248 271.412 266.654 272.643 269.72C275.093 275.818 271.242 283.006 264.835 284.443C263.824 284.669 262.999 284.627 262.62 283.592C262.289 282.69 262.852 282.12 263.63 281.698C264.849 281.034 266.147 280.455 267.23 279.608C270.921 276.721 271.43 272.6 268.667 268.806C266.852 266.316 264.341 264.748 261.635 263.387C259.21 262.168 259.06 260.925 260.982 259.08C262.06 258.045 263.24 257.113 264.287 256.051C268.23 252.049 268.753 248.189 265.83 243.346C263.1 238.819 259.213 235.639 254.025 234.335C251.647 233.738 250.903 232.674 251.8 230.279C257.003 216.374 246.2 208.998 235.48 209.385L235.484 209.383Z" fill="#747474"/>
<path d="M243.458 222.03C243.787 220.961 243.697 219.48 245.411 219.651C246.367 219.745 246.704 220.569 246.421 221.408C246.065 222.46 245.984 223.966 244.488 223.991C243.333 224.01 243.234 222.992 243.458 222.03Z" fill="#747474"/>
<path d="M192.561 220.72C192.358 221.373 191.898 221.699 191.252 221.542C190.578 221.378 190.412 220.799 190.5 220.176C190.603 219.44 191.134 219.241 191.763 219.388C192.436 219.545 192.642 220.066 192.559 220.72H192.561Z" fill="#747474"/>
<path d="M291.26 138.341C290.774 139.621 290.633 141.311 288.882 141.653C287.992 141.827 287.39 141.007 287.552 140.122C287.808 138.726 287.832 137.012 289.769 136.763C290.722 136.639 291.105 137.409 291.26 138.341Z" fill="#747474"/>
<path d="M441.558 136.938C441.809 154.027 433.317 166.045 416.053 173.278C405.281 177.791 394.217 178.436 382.9 176.123C379.352 175.397 375.909 174.102 373.15 171.752C358.118 158.946 348.729 143.294 350.292 122.856C351.129 111.923 355.946 102.385 363.058 94.0463C363.316 93.7441 363.592 93.447 363.901 93.1988C364.891 92.4053 365.938 91.1493 367.214 92.5134C368.363 93.7407 367.174 94.6946 366.388 95.5624C360.356 102.219 356.496 110.004 354.434 118.7C351.555 130.833 354.899 141.784 360.943 152.188C361.945 153.912 363.078 155.556 364.127 157.253C372.497 170.801 384.964 175.27 400.249 173.73C408.264 172.923 415.537 170.151 422.371 166.035C433.072 159.59 438.135 149.956 438.093 137.627C438.052 125.358 433.838 114.533 425.749 105.369C414.011 92.0727 393.121 90.9011 379.025 102.545C363.798 115.124 361.96 137.769 374.997 152.171C383.742 161.832 395.49 163.986 406.399 157.927C416.737 152.183 422.223 138.682 418.724 127.236C416.422 119.706 412.23 113.541 404.947 109.989C400.084 107.618 395.283 108.017 390.713 110.939C383.42 115.602 379.494 126.047 382.028 134.041C384.48 141.772 391.645 145.405 398.097 142.189C401.627 140.43 403.503 137.215 403.19 133.471C402.842 129.324 399.959 125.326 396.485 124.345C393.903 123.618 391.664 124.229 390.333 126.692C389.02 129.123 389.252 131.566 391.156 133.614C392.905 135.496 394.782 135.061 395.748 132.601C396.234 131.364 396.52 129.761 398.254 130.476C399.945 131.173 399.45 132.758 398.95 134.115C397.359 138.441 392.504 139.562 388.974 136.425C385.809 133.611 385.119 128.385 387.418 124.627C389.711 120.878 394.256 119.409 398.397 121.332C403.788 123.834 406.561 128.235 406.699 134.141C406.825 139.518 404.051 143.254 399.321 145.455C393.817 148.018 388.546 147.302 383.996 143.296C378.789 138.711 377.081 132.664 377.912 125.951C378.727 119.37 381.666 113.763 386.807 109.497C393.045 104.323 399.937 103.517 407.179 107.132C419.457 113.259 426.179 129.758 422.024 143.273C417.577 157.732 404.237 166.665 389.642 164.335C377.578 162.409 369.857 154.488 365.678 143.597C359.889 128.505 362.262 114.349 373.813 102.677C385.087 91.2826 398.907 88.5831 414.085 93.1532C421.105 95.2669 426.38 100.065 430.712 105.842C437.61 115.041 441.413 125.362 441.558 136.938Z" fill="#C5594D"/>
<path d="M348.352 151.253C348.472 152.543 348.283 153.284 347.332 153.551C346.546 153.77 345.9 153.427 345.593 152.735C344.345 149.906 343.146 147.047 342.91 143.914C342.846 143.06 343.163 142.313 344.143 142.146C344.924 142.015 345.586 142.339 345.824 143.075C346.743 145.92 347.595 148.786 348.35 151.253H348.352Z" fill="#747474"/>
<path d="M432.289 140.225C432.653 138.839 432.316 137.098 433.742 135.984C434.171 135.65 434.78 135.782 435.103 136.18C436.316 137.664 435.328 139.227 435.137 140.743C435.014 141.716 434.785 142.894 433.414 142.709C432.001 142.518 432.333 141.294 432.287 140.225H432.289Z" fill="#747474"/>
<path d="M390.561 158.082C389.448 157.692 387.458 158.36 387.424 156.308C387.397 154.591 389.014 154.753 390.159 154.933C391.419 155.132 393.372 154.71 393.416 156.691C393.453 158.42 391.814 158.038 390.561 158.08V158.082Z" fill="#747474"/>
<path d="M403.522 80.0708C404.546 80.4152 406.291 80.01 406.355 81.8249C406.408 83.3241 405.065 83.3764 403.961 83.2667C402.74 83.1451 401.131 83.2768 401.187 81.4129C401.226 80.1197 402.359 80.0235 403.524 80.0708H403.522Z" fill="#747474"/>
</g>
<defs>
<clipPath id="clip0_392_369">
<rect width="542" height="490" fill="white"/>
</clipPath>
</defs>
</svg>
