<svg width="163" height="113" viewBox="0 0 163 113" fill="none" xmlns="http://www.w3.org/2000/svg">
<path d="M2.70752 61.6076L3.63205 60.6823C7.20534 57.1058 13.0022 57.1058 16.5754 60.6823V60.6823C20.1487 64.2587 25.9455 64.2587 29.5188 60.6823V60.6823C33.0921 57.1058 38.8889 57.1058 42.4622 60.6823V60.6823C46.0355 64.2587 51.8323 64.2587 55.4056 60.6823V60.6823C58.9789 57.1058 64.7757 57.1058 68.349 60.6823V60.6823C71.9223 64.2587 77.7191 64.2587 81.2924 60.6823V60.6823C84.8657 57.1058 90.6625 57.1058 94.2358 60.6823V60.6823C97.8091 64.2587 103.606 64.2587 107.179 60.6823V60.6823C110.753 57.1058 116.549 57.1058 120.123 60.6823V60.6823C123.696 64.2587 129.493 64.2587 133.066 60.6823V60.6823C136.639 57.1058 142.436 57.1058 146.009 60.6823L146.934 61.6076" stroke="#4D69C5" stroke-width="2"/>
<mask id="path-2-outside-1_308_235" maskUnits="userSpaceOnUse" x="0" y="43" width="150" height="10" fill="black">
<rect fill="white" y="43" width="150" height="10"/>
<path fill-rule="evenodd" clip-rule="evenodd" d="M145.302 48.3891C142.119 45.2036 136.956 45.2036 133.773 48.3891C129.809 52.3565 123.379 52.3565 119.415 48.3891C116.232 45.2036 111.069 45.2036 107.887 48.3891C103.923 52.3565 97.4922 52.3565 93.5283 48.3891C90.3456 45.2036 85.1824 45.2036 81.9997 48.3891C78.0359 52.3565 71.6054 52.3565 67.6415 48.3891C64.4588 45.2036 59.2956 45.2036 56.1129 48.3891C52.1491 52.3565 45.7186 52.3565 41.7547 48.3891C38.572 45.2036 33.4089 45.2036 30.2262 48.3891C26.2623 52.3565 19.8318 52.3565 15.8679 48.3891C12.6852 45.2036 7.52206 45.2036 4.33937 48.3891L3.41484 49.3145L2 47.9009L2.92453 46.9755C6.88842 43.0081 13.3189 43.0082 17.2828 46.9755C20.4655 50.1611 25.6286 50.1611 28.8113 46.9755C32.7752 43.0082 39.2057 43.0082 43.1696 46.9755C46.3523 50.1611 51.5154 50.1611 54.6981 46.9755C58.662 43.0082 65.0925 43.0082 69.0563 46.9755C72.239 50.1611 77.4022 50.1611 80.5849 46.9755C84.5488 43.0082 90.9792 43.0082 94.9431 46.9755C98.1258 50.1611 103.289 50.1611 106.472 46.9755C110.436 43.0082 116.866 43.0082 120.83 46.9755C124.013 50.1611 129.176 50.1611 132.358 46.9755C136.322 43.0082 142.753 43.0081 146.717 46.9755L147.641 47.9009L146.226 49.3145L145.302 48.3891Z"/>
</mask>
<path fill-rule="evenodd" clip-rule="evenodd" d="M145.302 48.3891C142.119 45.2036 136.956 45.2036 133.773 48.3891C129.809 52.3565 123.379 52.3565 119.415 48.3891C116.232 45.2036 111.069 45.2036 107.887 48.3891C103.923 52.3565 97.4922 52.3565 93.5283 48.3891C90.3456 45.2036 85.1824 45.2036 81.9997 48.3891C78.0359 52.3565 71.6054 52.3565 67.6415 48.3891C64.4588 45.2036 59.2956 45.2036 56.1129 48.3891C52.1491 52.3565 45.7186 52.3565 41.7547 48.3891C38.572 45.2036 33.4089 45.2036 30.2262 48.3891C26.2623 52.3565 19.8318 52.3565 15.8679 48.3891C12.6852 45.2036 7.52206 45.2036 4.33937 48.3891L3.41484 49.3145L2 47.9009L2.92453 46.9755C6.88842 43.0081 13.3189 43.0082 17.2828 46.9755C20.4655 50.1611 25.6286 50.1611 28.8113 46.9755C32.7752 43.0082 39.2057 43.0082 43.1696 46.9755C46.3523 50.1611 51.5154 50.1611 54.6981 46.9755C58.662 43.0082 65.0925 43.0082 69.0563 46.9755C72.239 50.1611 77.4022 50.1611 80.5849 46.9755C84.5488 43.0082 90.9792 43.0082 94.9431 46.9755C98.1258 50.1611 103.289 50.1611 106.472 46.9755C110.436 43.0082 116.866 43.0082 120.83 46.9755C124.013 50.1611 129.176 50.1611 132.358 46.9755C136.322 43.0082 142.753 43.0081 146.717 46.9755L147.641 47.9009L146.226 49.3145L145.302 48.3891Z" fill="white"/>
<path d="M133.773 48.3891L133.066 47.6823V47.6823L133.773 48.3891ZM145.302 48.3891L144.594 49.0959L145.302 48.3891ZM119.415 48.3891L118.708 49.0959V49.0959L119.415 48.3891ZM107.887 48.3891L108.594 49.0959V49.0959L107.887 48.3891ZM93.5283 48.3891L94.2357 47.6823V47.6823L93.5283 48.3891ZM81.9997 48.3891L81.2923 47.6823V47.6823L81.9997 48.3891ZM67.6415 48.3891L66.9341 49.0959V49.0959L67.6415 48.3891ZM56.1129 48.3891L55.4055 47.6823V47.6823L56.1129 48.3891ZM41.7547 48.3891L42.4621 47.6823V47.6823L41.7547 48.3891ZM30.2262 48.3891L30.9336 49.0959L30.2262 48.3891ZM15.8679 48.3891L16.5753 47.6823V47.6823L15.8679 48.3891ZM4.33937 48.3891L5.04679 49.0959L4.33937 48.3891ZM3.41484 49.3145L2.70805 50.0219L3.41547 50.7287L4.12226 50.0213L3.41484 49.3145ZM2 47.9009L1.29258 47.1941L0.585787 47.9015L1.29321 48.6083L2 47.9009ZM2.92453 46.9755L3.63195 47.6823H3.63195L2.92453 46.9755ZM17.2828 46.9755L16.5753 47.6823L17.2828 46.9755ZM28.8113 46.9755L28.1039 46.2688L28.8113 46.9755ZM43.1696 46.9755L42.4621 47.6823L43.1696 46.9755ZM54.6981 46.9755L55.4055 47.6823L54.6981 46.9755ZM69.0563 46.9755L68.3489 47.6823V47.6823L69.0563 46.9755ZM80.5849 46.9755L79.8775 46.2688V46.2688L80.5849 46.9755ZM94.9431 46.9755L95.6506 46.2688V46.2688L94.9431 46.9755ZM106.472 46.9755L107.179 47.6823V47.6823L106.472 46.9755ZM120.83 46.9755L120.123 47.6823V47.6823L120.83 46.9755ZM132.358 46.9755L131.651 46.2688V46.2688L132.358 46.9755ZM146.717 46.9755L146.009 47.6823V47.6823L146.717 46.9755ZM147.641 47.9009L148.348 48.6083L149.055 47.9015L148.349 47.1941L147.641 47.9009ZM146.226 49.3145L145.519 50.0213L146.226 50.7287L146.933 50.0219L146.226 49.3145ZM134.481 49.0959C137.273 46.3014 141.802 46.3014 144.594 49.0959L146.009 47.6823C142.436 44.1059 136.639 44.1059 133.066 47.6823L134.481 49.0959ZM118.708 49.0959C123.062 53.4543 130.126 53.4543 134.481 49.0959L133.066 47.6823C129.493 51.2588 123.696 51.2588 120.123 47.6823L118.708 49.0959ZM108.594 49.0959C111.386 46.3014 115.916 46.3014 118.708 49.0959L120.123 47.6823C116.549 44.1059 110.752 44.1059 107.179 47.6823L108.594 49.0959ZM92.8209 49.0959C97.1754 53.4543 104.239 53.4543 108.594 49.0959L107.179 47.6823C103.606 51.2588 97.809 51.2588 94.2357 47.6823L92.8209 49.0959ZM82.7072 49.0959C85.4993 46.3014 90.0288 46.3014 92.8209 49.0959L94.2357 47.6823C90.6624 44.1059 84.8656 44.1059 81.2923 47.6823L82.7072 49.0959ZM66.9341 49.0959C71.2886 53.4543 78.3527 53.4543 82.7072 49.0959L81.2923 47.6823C77.719 51.2588 71.9222 51.2588 68.3489 47.6823L66.9341 49.0959ZM56.8204 49.0959C59.6125 46.3014 64.142 46.3014 66.9341 49.0959L68.3489 47.6823C64.7756 44.1059 58.9788 44.1059 55.4055 47.6823L56.8204 49.0959ZM41.0473 49.0959C45.4018 53.4543 52.4659 53.4543 56.8204 49.0959L55.4055 47.6823C51.8322 51.2588 46.0354 51.2588 42.4621 47.6823L41.0473 49.0959ZM30.9336 49.0959C33.7257 46.3014 38.2552 46.3014 41.0473 49.0959L42.4621 47.6823C38.8888 44.1059 33.092 44.1059 29.5187 47.6823L30.9336 49.0959ZM15.1605 49.0959C19.515 53.4543 26.5791 53.4543 30.9336 49.0959L29.5187 47.6823C25.9454 51.2588 20.1486 51.2588 16.5753 47.6823L15.1605 49.0959ZM5.04679 49.0959C7.83889 46.3014 12.3684 46.3014 15.1605 49.0959L16.5753 47.6823C13.0021 44.1059 7.20524 44.1059 3.63195 47.6823L5.04679 49.0959ZM4.12226 50.0213L5.04679 49.0959L3.63195 47.6823L2.70742 48.6077L4.12226 50.0213ZM1.29321 48.6083L2.70805 50.0219L4.12163 48.6071L2.70679 47.1935L1.29321 48.6083ZM2.21711 46.2688L1.29258 47.1941L2.70742 48.6077L3.63195 47.6823L2.21711 46.2688ZM17.9902 46.2688C13.6357 41.9104 6.57159 41.9104 2.21711 46.2688L3.63195 47.6823C7.20524 44.1059 13.0021 44.1059 16.5753 47.6823L17.9902 46.2688ZM28.1039 46.2688C25.3118 49.0633 20.7823 49.0633 17.9902 46.2688L16.5753 47.6823C20.1486 51.2588 25.9454 51.2588 29.5187 47.6823L28.1039 46.2688ZM43.877 46.2688C39.5225 41.9104 32.4584 41.9104 28.1039 46.2688L29.5187 47.6823C33.092 44.1059 38.8888 44.1059 42.4621 47.6823L43.877 46.2688ZM53.9907 46.2688C51.1986 49.0633 46.6691 49.0633 43.877 46.2688L42.4621 47.6823C46.0354 51.2588 51.8322 51.2588 55.4055 47.6823L53.9907 46.2688ZM69.7638 46.2688C65.4093 41.9104 58.3452 41.9104 53.9907 46.2688L55.4055 47.6823C58.9788 44.1059 64.7756 44.1059 68.3489 47.6823L69.7638 46.2688ZM79.8775 46.2688C77.0854 49.0633 72.5559 49.0633 69.7638 46.2688L68.3489 47.6823C71.9222 51.2588 77.719 51.2588 81.2923 47.6823L79.8775 46.2688ZM95.6506 46.2688C91.2961 41.9104 84.232 41.9104 79.8775 46.2688L81.2923 47.6823C84.8656 44.1059 90.6624 44.1059 94.2357 47.6823L95.6506 46.2688ZM105.764 46.2688C102.972 49.0633 98.4427 49.0633 95.6506 46.2688L94.2357 47.6823C97.809 51.2588 103.606 51.2588 107.179 47.6823L105.764 46.2688ZM121.537 46.2688C117.183 41.9104 110.119 41.9104 105.764 46.2688L107.179 47.6823C110.752 44.1059 116.549 44.1059 120.123 47.6823L121.537 46.2688ZM131.651 46.2688C128.859 49.0633 124.329 49.0633 121.537 46.2688L120.123 47.6823C123.696 51.2588 129.493 51.2588 133.066 47.6823L131.651 46.2688ZM147.424 46.2688C143.07 41.9104 136.006 41.9104 131.651 46.2688L133.066 47.6823C136.639 44.1059 142.436 44.1059 146.009 47.6823L147.424 46.2688ZM148.349 47.1941L147.424 46.2688L146.009 47.6823L146.934 48.6077L148.349 47.1941ZM146.933 50.0219L148.348 48.6083L146.934 47.1935L145.52 48.6071L146.933 50.0219ZM144.594 49.0959L145.519 50.0213L146.934 48.6077L146.009 47.6823L144.594 49.0959Z" fill="#E8E8E8" mask="url(#path-2-outside-1_308_235)"/>
<path d="M2.70752 74.6076L3.63205 73.6823C7.20534 70.1058 13.0022 70.1058 16.5754 73.6823V73.6823C20.1487 77.2587 25.9455 77.2587 29.5188 73.6823V73.6823C33.0921 70.1058 38.8889 70.1058 42.4622 73.6823V73.6823C46.0355 77.2587 51.8323 77.2587 55.4056 73.6823V73.6823C58.9789 70.1058 64.7757 70.1058 68.349 73.6823V73.6823C71.9223 77.2587 77.7191 77.2587 81.2924 73.6823V73.6823C84.8657 70.1058 90.6625 70.1058 94.2358 73.6823V73.6823C97.8091 77.2587 103.606 77.2587 107.179 73.6823V73.6823C110.753 70.1058 116.549 70.1058 120.123 73.6823V73.6823C123.696 77.2587 129.493 77.2587 133.066 73.6823V73.6823C136.639 70.1058 142.436 70.1058 146.009 73.6823L146.934 74.6076" stroke="#C5594D" stroke-width="2"/>
<circle cx="106.5" cy="56.5" r="56" fill="white" stroke="#C5594D"/>
<path d="M68.746 74V64.2H71.966C73.674 64.2 74.948 65.278 74.948 67.056C74.948 68.834 73.674 69.94 71.966 69.94H69.348V74H68.746ZM69.348 69.38H71.938C73.366 69.38 74.318 68.526 74.318 67.056C74.318 65.586 73.366 64.76 71.938 64.76H69.348V69.38ZM75.9738 70.458C75.9738 68.414 77.5978 66.832 79.5998 66.832C81.6018 66.832 83.2258 68.414 83.2258 70.458C83.2258 72.544 81.6018 74.168 79.5998 74.168C77.5978 74.168 75.9738 72.544 75.9738 70.458ZM76.5898 70.458C76.5898 72.236 77.9338 73.594 79.5998 73.594C81.2658 73.594 82.6098 72.236 82.6098 70.458C82.6098 68.722 81.2658 67.406 79.5998 67.406C77.9338 67.406 76.5898 68.722 76.5898 70.458ZM84.6694 70.514C84.6694 68.288 86.3354 66.832 88.2814 66.832C89.1774 66.832 90.1714 67.154 90.7874 67.826L90.4234 68.302C89.9194 67.77 89.0934 67.406 88.2814 67.406C86.6434 67.406 85.2854 68.624 85.2854 70.514C85.2854 72.376 86.6434 73.594 88.2814 73.594C89.1354 73.594 90.0454 73.244 90.6194 72.586L90.9274 73.076C90.3394 73.734 89.3314 74.168 88.2814 74.168C86.3074 74.168 84.6694 72.74 84.6694 70.514ZM92.0659 70.514C92.0659 68.288 93.7319 66.832 95.6779 66.832C96.5739 66.832 97.5679 67.154 98.1839 67.826L97.8199 68.302C97.3159 67.77 96.4899 67.406 95.6779 67.406C94.0399 67.406 92.6819 68.624 92.6819 70.514C92.6819 72.376 94.0399 73.594 95.6779 73.594C96.5319 73.594 97.4419 73.244 98.0159 72.586L98.3239 73.076C97.7359 73.734 96.7279 74.168 95.6779 74.168C93.7039 74.168 92.0659 72.74 92.0659 70.514ZM100.116 74V67H100.704V71.984C100.704 72.46 100.662 73.118 100.662 73.118H100.69C100.69 73.118 101.18 72.418 101.488 71.984L105.31 67H105.856V74H105.268V69.002C105.268 68.526 105.31 67.91 105.31 67.91H105.282C105.282 67.91 104.792 68.568 104.484 69.002L100.662 74H100.116ZM111.162 65.978C110.322 65.978 109.51 65.432 109.51 64.452V64.2H110.098V64.41C110.098 65.068 110.602 65.418 111.162 65.418C111.708 65.418 112.24 65.068 112.24 64.396V64.2H112.814V64.452C112.814 65.432 112.002 65.978 111.162 65.978ZM108.292 74V67H108.88V71.984C108.88 72.46 108.838 73.118 108.838 73.118H108.866C108.866 73.118 109.356 72.418 109.664 71.984L113.486 67H114.032V74H113.444V69.002C113.444 68.526 113.486 67.91 113.486 67.91H113.458C113.458 67.91 112.968 68.568 112.66 69.002L108.838 74H108.292ZM115.978 70.514C115.978 68.288 117.644 66.832 119.59 66.832C120.486 66.832 121.48 67.154 122.096 67.826L121.732 68.302C121.228 67.77 120.402 67.406 119.59 67.406C117.952 67.406 116.594 68.624 116.594 70.514C116.594 72.376 117.952 73.594 119.59 73.594C120.444 73.594 121.354 73.244 121.928 72.586L122.236 73.076C121.648 73.734 120.64 74.168 119.59 74.168C117.616 74.168 115.978 72.74 115.978 70.514ZM124.029 74V67H124.617V70.094H125.835L128.131 67H128.873L126.339 70.332V70.36L129.153 74H128.383L125.835 70.64H124.617V74H124.029ZM130.618 74V67H131.206V71.984C131.206 72.46 131.164 73.118 131.164 73.118H131.192C131.192 73.118 131.682 72.418 131.99 71.984L135.812 67H136.358V74H135.77V69.002C135.77 68.526 135.812 67.91 135.812 67.91H135.784C135.784 67.91 135.294 68.568 134.986 69.002L131.164 74H130.618ZM141.664 65.978C140.824 65.978 140.012 65.432 140.012 64.452V64.2H140.6V64.41C140.6 65.068 141.104 65.418 141.664 65.418C142.21 65.418 142.742 65.068 142.742 64.396V64.2H143.316V64.452C143.316 65.432 142.504 65.978 141.664 65.978ZM138.794 74V67H139.382V71.984C139.382 72.46 139.34 73.118 139.34 73.118H139.368C139.368 73.118 139.858 72.418 140.166 71.984L143.988 67H144.534V74H143.946V69.002C143.946 68.526 143.988 67.91 143.988 67.91H143.96C143.96 67.91 143.47 68.568 143.162 69.002L139.34 74H138.794ZM81.4065 91V84H87.0205V91H86.4325V84.546H81.9945V91H81.4065ZM89.4592 93.8V84H90.0472V84.84C90.0472 85.162 90.0052 85.4 90.0052 85.4H90.0332C90.4532 84.42 91.4052 83.832 92.5532 83.832C94.4292 83.832 95.5772 85.33 95.5772 87.5C95.5772 89.726 94.2752 91.168 92.4692 91.168C91.4052 91.168 90.4672 90.58 90.0192 89.586H89.9912C89.9912 89.586 90.0472 89.838 90.0472 90.202V93.8H89.4592ZM90.0332 87.514C90.0332 89.068 90.9012 90.594 92.4692 90.594C93.8412 90.594 94.9612 89.46 94.9612 87.5C94.9612 85.61 93.9532 84.406 92.5252 84.406C91.2372 84.406 90.0332 85.316 90.0332 87.514ZM97.049 87.458C97.049 85.414 98.673 83.832 100.675 83.832C102.677 83.832 104.301 85.414 104.301 87.458C104.301 89.544 102.677 91.168 100.675 91.168C98.673 91.168 97.049 89.544 97.049 87.458ZM97.665 87.458C97.665 89.236 99.009 90.594 100.675 90.594C102.341 90.594 103.685 89.236 103.685 87.458C103.685 85.722 102.341 84.406 100.675 84.406C99.009 84.406 97.665 85.722 97.665 87.458ZM106.506 90.454H110.538V84.532H107.766V84.994C107.766 86.044 107.682 88.732 106.506 90.454ZM104.952 90.454H105.806C107.178 88.718 107.178 85.834 107.178 84.994V84H111.126V90.454H112.106V92.68H111.518V91H105.54V92.68H104.952V90.454ZM112.96 93.044C112.96 93.044 113.352 93.38 113.828 93.38C114.5 93.38 114.92 92.778 115.2 92.12L115.704 90.958L112.806 84H113.436L115.746 89.586C115.886 89.922 115.998 90.244 115.998 90.244H116.026C116.026 90.244 116.124 89.922 116.264 89.586L118.574 84H119.204L115.606 92.638C115.298 93.366 114.71 93.94 113.828 93.94C113.156 93.94 112.694 93.548 112.694 93.548L112.96 93.044ZM120.836 91V84H121.424V87.094H122.642L124.938 84H125.68L123.146 87.332V87.36L125.96 91H125.19L122.642 87.64H121.424V91H120.836ZM129.218 91V84.546H126.558V84H132.466V84.546H129.806V91H129.218Z" fill="black"/>
<path d="M66.3732 56V54.56H72.0972V34.04C72.0972 33.392 72.1332 32.78 72.1332 32.78H72.0612C72.0612 32.78 71.8092 33.248 70.7292 34.328L67.7412 37.316L66.6612 36.272L72.0972 30.8H73.6452V54.56H79.2252V56H66.3732ZM91.5785 56.432C85.1705 56.432 83.0825 50.708 83.0825 43.4C83.0825 36.128 85.1705 30.368 91.5785 30.368C97.9865 30.368 100.075 36.128 100.075 43.4C100.075 50.708 97.9865 56.432 91.5785 56.432ZM91.5785 54.92C96.9425 54.92 98.4545 49.916 98.4545 43.4C98.4545 36.92 96.9425 31.88 91.5785 31.88C86.2145 31.88 84.7025 36.92 84.7025 43.4C84.7025 49.916 86.2145 54.92 91.5785 54.92ZM113.621 56.432C107.213 56.432 105.125 50.708 105.125 43.4C105.125 36.128 107.213 30.368 113.621 30.368C120.029 30.368 122.117 36.128 122.117 43.4C122.117 50.708 120.029 56.432 113.621 56.432ZM113.621 54.92C118.985 54.92 120.497 49.916 120.497 43.4C120.497 36.92 118.985 31.88 113.621 31.88C108.257 31.88 106.745 36.92 106.745 43.4C106.745 49.916 108.257 54.92 113.621 54.92ZM131.488 39.764C128.896 39.764 126.808 37.676 126.808 35.084C126.808 32.492 128.896 30.368 131.488 30.368C134.08 30.368 136.204 32.492 136.204 35.084C136.204 37.676 134.08 39.764 131.488 39.764ZM126.736 56L145.852 30.8H147.724L128.608 56H126.736ZM131.488 38.324C133.288 38.324 134.656 36.884 134.656 35.084C134.656 33.284 133.288 31.808 131.488 31.808C129.688 31.808 128.356 33.284 128.356 35.084C128.356 36.884 129.688 38.324 131.488 38.324ZM138.184 51.752C138.184 49.16 140.272 47.036 142.864 47.036C145.456 47.036 147.58 49.16 147.58 51.752C147.58 54.344 145.456 56.432 142.864 56.432C140.272 56.432 138.184 54.344 138.184 51.752ZM139.732 51.752C139.732 53.552 141.064 54.992 142.864 54.992C144.664 54.992 146.032 53.552 146.032 51.752C146.032 49.952 144.664 48.476 142.864 48.476C141.064 48.476 139.732 49.952 139.732 51.752Z" fill="#C5594D"/>
</svg>
